<?xml version="1.0" encoding="utf-8"?>
<!-- Generator: Adobe Illustrator 23.0.1, SVG Export Plug-In . SVG Version: 6.00 Build 0)  -->
<svg version="1.1" id="Layer_1" xmlns="http://www.w3.org/2000/svg" xmlns:xlink="http://www.w3.org/1999/xlink" x="0px" y="0px"
	 viewBox="0 0 516.2 342.2" style="enable-background:new 0 0 516.2 342.2;" xml:space="preserve">
<style type="text/css">
	.st0{fill:none;stroke:#FFFFFF;stroke-width:2.5;stroke-linecap:round;stroke-linejoin:round;stroke-miterlimit:10;}
</style>
<path class="st0" d="M460.9,187.7c0,0-22.6-64.4-112.9-64.4"/>
<path class="st0" d="M348,123.4c-90.3,0-112.9,64.4-112.9,64.4"/>
<path class="st0" d="M447,181.2c-11.5-17.1-41.5-47.9-99-47.9s-87.5,30.8-99,47.9"/>
<line class="st0" x1="446.8" y1="65.9" x2="441.4" y2="158.6"/>
<path class="st0" d="M451.6,2.7v19.1h-7.6v6.9H438c-2.4,0-4.4,1.9-4.4,4.3v7.4c0,2,0.8,3.9,2.3,5.3l0.8,0.8c1.4,1.3,3.3,2,5.2,2h9.6
	"/>
<line class="st0" x1="456.4" y1="65.9" x2="460.5" y2="147.5"/>
<path class="st0" d="M451.9,2.7v19.1h7.6v6.9h5.9c2.4,0,4.4,1.9,4.4,4.3v7.4c0,2-0.8,3.9-2.3,5.3l-0.8,0.8c-1.4,1.3-3.3,2-5.2,2
	h-9.6"/>
<line class="st0" x1="440.3" y1="57.3" x2="464.2" y2="57.3"/>
<line class="st0" x1="433.6" y1="40.5" x2="469.8" y2="40.5"/>
<line class="st0" x1="456.4" y1="158.7" x2="479.1" y2="158.7"/>
<line class="st0" x1="456.2" y1="170.2" x2="479.1" y2="170.2"/>
<polyline class="st0" points="482.1,147.5 482.1,95.6 512,95.6 512,184.4 "/>
<polyline class="st0" points="491.4,147.5 491.4,95.6 491.4,86.2 "/>
<line class="st0" x1="502" y1="95.6" x2="502" y2="163.7"/>
<polyline class="st0" points="298.8,129.7 298.8,101.6 272.4,101.6 272.4,143.8 "/>
<polyline class="st0" points="282,101.6 282,81.3 251.5,81.3 251.5,112.2 238,112.2 238,181.2 "/>
<line class="st0" x1="247.5" y1="133.1" x2="271" y2="133.1"/>
<line class="st0" x1="248.9" y1="122.7" x2="272.4" y2="122.7"/>
<line class="st0" x1="248.9" y1="112.2" x2="272.4" y2="112.2"/>
<line class="st0" x1="251.5" y1="101.6" x2="282" y2="101.6"/>
<line class="st0" x1="251.5" y1="91.1" x2="282" y2="91.1"/>
<line class="st0" x1="248.9" y1="143.8" x2="272.4" y2="143.8"/>
<polyline class="st0" points="235.1,152.7 205.2,152.7 205.2,133.3 182.6,133.3 182.6,187.7 "/>
<polyline class="st0" points="205.2,152.7 205.2,178 220.8,178 "/>
<polyline class="st0" points="182.6,166.6 162.7,166.6 162.7,187.7 "/>
<line class="st0" x1="182.6" y1="143.8" x2="197.2" y2="143.8"/>
<line class="st0" x1="182.6" y1="152.7" x2="197.2" y2="152.7"/>
<line class="st0" x1="182.6" y1="161.7" x2="197.2" y2="161.7"/>
<line class="st0" x1="182.6" y1="170.6" x2="197.2" y2="170.6"/>
<line class="st0" x1="182.6" y1="179.5" x2="197.2" y2="179.5"/>
<polyline class="st0" points="239.9,181.2 456.4,181.4 456.4,147.5 491.4,147.5 491.4,184.4 "/>
<line class="st0" x1="213" y1="161.2" x2="213" y2="164"/>
<line class="st0" x1="220.8" y1="161.2" x2="220.8" y2="164"/>
<line class="st0" x1="228.6" y1="161.2" x2="228.6" y2="164"/>
<g>
	<polyline class="st0" points="44.8,193.3 44.8,187.6 75.2,187.6 75.2,193.3 	"/>
	<path class="st0" d="M60,187.6c-0.2,0,0-22.1,0-22.1"/>
	<line class="st0" x1="28.7" y1="201.6" x2="59.9" y2="201.6"/>
	<line class="st0" x1="33.3" y1="210.4" x2="60" y2="210.4"/>
	<line class="st0" x1="44.4" y1="219" x2="59.9" y2="219"/>
	<line class="st0" x1="91.3" y1="201.6" x2="60.1" y2="201.6"/>
	<line class="st0" x1="86.7" y1="210.4" x2="60" y2="210.4"/>
	<polyline class="st0" points="75.6,219 53.3,219 53.3,235.1 38.6,235 38.6,316.4 	"/>
	<polyline class="st0" points="66.7,219 66.7,235.1 81.4,235.1 81.4,317 	"/>
	<line class="st0" x1="38.6" y1="246.2" x2="81.4" y2="246.2"/>
	<line class="st0" x1="38.6" y1="235.1" x2="81.4" y2="235.1"/>
	<line class="st0" x1="38.6" y1="261" x2="81.4" y2="261"/>
	<line class="st0" x1="38.6" y1="275.8" x2="81.4" y2="275.8"/>
	<line class="st0" x1="38.6" y1="290.6" x2="81.4" y2="290.6"/>
	<path class="st0" d="M338.1,317.1c4-4.7,6.4-10.8,6.4-17.4c0-15-12.1-27.1-27.1-27.1c-15,0-27.1,12.1-27.1,27.1
		c0,6.4,2.2,12.2,5.9,16.8"/>
	<path class="st0" d="M331.8,316.7c-1.8-19-12-38.7-30.7-38.7"/>
	<path class="st0" d="M301.1,278c0,10.7,9.3,29.8,20,38.7"/>
	<path class="st0" d="M344.4,301.8c0,0-9.9-4.2-27-4.2"/>
	<path class="st0" d="M290.7,301.8c0,0,9.9-4.2,27-4.2"/>
	<path class="st0" d="M303.3,316.5c1.8-19,12-38.5,30.6-38.5"/>
	<path class="st0" d="M333.9,278c0,10.8-9.6,30.3-20.5,39"/>
	<path class="st0" d="M300.5,339c0.1-0.2,0-4.4,0-4.4l4.7-4.7"/>
	<polyline class="st0" points="317.4,323.8 340.9,323.8 348.1,331 348.1,339.6 286.7,339.6 286.7,331 293.9,323.8 317.4,323.8 	"/>
	<path class="st0" d="M334.3,339c-0.1-0.2,0-4.4,0-4.4l-4.7-4.7"/>
	<line class="st0" x1="317.4" y1="329.9" x2="317.4" y2="339"/>
	<path class="st0" d="M10.7,311.7c10.5,6.1,26.1,11.1,42.9,11.9c8.1,0.4,16.4-0.1,24.6-2c16-3.6,31.4-12.2,42.7-28.2V321v18.7H57.2
		H17L10.7,311.7z"/>
	<path class="st0" d="M120.8,293.4c0,0-3.2,16.6-17.2,30.2c-7.4,7.1-17.7,13.4-32,16.1"/>
	<path class="st0" d="M120.8,321c15.1-3.9,29.5-12.4,40.2-27.6V321v18.7H97.3"/>
	<path class="st0" d="M53.5,323.6l-2.7-11.9c7.2,4.2,16.7,7.8,27.3,9.9"/>
	<path class="st0" d="M161,293.4c0,0-3.2,16.6-17.2,30.2c-7.4,7.1-17.7,13.4-32,16.1"/>
	<path class="st0" d="M92.2,317l-1.2-5.3c1.8,1.1,3.8,2.1,5.9,3.1"/>
	<path class="st0" d="M161,321c15.1-3.9,29.4-12.4,40.2-27.6V321v18.7"/>
	<path class="st0" d="M201.1,293.4c0,0-3.2,16.6-17.2,30.2c-7.4,7.1-17.7,13.4-32,16.1"/>
	<path class="st0" d="M132.3,317l-1.2-5.3c1.8,1.1,3.8,2.1,5.9,3.1"/>
	<path class="st0" d="M201.1,321c15.1-3.9,29.4-12.4,40.2-27.6V321v18.7H161"/>
	<path class="st0" d="M241.3,293.4c0,0-3.2,16.6-17.2,30.2c-5.7,5.5-13.2,10.5-22.9,13.8"/>
	<line class="st0" x1="48.4" y1="339.7" x2="2" y2="339.7"/>
	<polyline class="st0" points="81.4,251 102.3,251 102.3,311.7 	"/>
	<polyline class="st0" points="301.8,275.8 301.8,222 268.6,222 268.6,339.6 	"/>
	<line class="st0" x1="282.6" y1="238.5" x2="301.8" y2="238.5"/>
	<line class="st0" x1="301.8" y1="264.4" x2="282.6" y2="264.4"/>
	<line class="st0" x1="301.8" y1="251.4" x2="282.6" y2="251.4"/>
	<line class="st0" x1="102.3" y1="269.2" x2="89.5" y2="269.2"/>
	<line class="st0" x1="102.3" y1="282.5" x2="89.5" y2="282.5"/>
	<line class="st0" x1="102.3" y1="295.8" x2="89.5" y2="295.8"/>
	<line class="st0" x1="94.8" y1="251" x2="94.8" y2="238.5"/>
	<polyline class="st0" points="268.6,306.5 268.6,251 231.1,251 231.1,304 	"/>
	<line class="st0" x1="194.2" y1="339.7" x2="211.4" y2="339.7"/>
	<line class="st0" x1="240.2" y1="261.8" x2="240.2" y2="267"/>
	<line class="st0" x1="249.8" y1="261.8" x2="249.8" y2="267"/>
	<line class="st0" x1="259.5" y1="261.8" x2="259.5" y2="267"/>
	<line class="st0" x1="240.2" y1="278.6" x2="240.2" y2="283.7"/>
	<line class="st0" x1="249.8" y1="278.6" x2="249.8" y2="283.7"/>
	<line class="st0" x1="259.5" y1="278.6" x2="259.5" y2="283.7"/>
</g>
</svg>
