<?xml version="1.0" encoding="utf-8"?>
<!-- Generator: Adobe Illustrator 30.1.0, SVG Export Plug-In . SVG Version: 9.03 Build 0)  -->
<svg version="1.0" id="Layer_1" xmlns="http://www.w3.org/2000/svg" xmlns:xlink="http://www.w3.org/1999/xlink" x="0px" y="0px"
	 viewBox="0 0 1337.6 993.1" style="enable-background:new 0 0 1337.6 993.1;" xml:space="preserve">
<style type="text/css">
	.st0{fill:#FF6600;}
	.st1{fill:#FFFFFF;}
	.st2{fill:#FFCC00;}
	.st3{fill:none;stroke:#FF6600;stroke-miterlimit:10;}
	.st4{fill:none;stroke:#DC5B01;stroke-miterlimit:10;}
</style>
<circle class="st0" cx="937.8" cy="593.3" r="399.8"/>
<path class="st1" d="M419.9,859.8c-29.4,10-94.2,8.7-126.4,6.8c-10.3-0.6-19.9-2-29.4-5c-3.4-2-6.2-5-3.8-8.6l42.7-66.6
	c-40.1-0.4-81.3-10.8-101.5-47c-21.9-34.2-20.9-108.4-17.3-147.7c3.6-39.4,19.8-74.9,61-85.2c32.1-8.7,72.1-8.3,105.8-2.3l0-66.8
	c0-29.6,2.2-58,6.5-87.2c10.7-72.8,36.6-146.8,100.5-188.9c19.3-12.7,39.6-21.7,61.8-28.1c49.6-14.5,106.8-19,158.5-20.7
	c44.2-1.4,87.3,1.7,131.1,8.4c27.5,4.2,53.6,9.1,80.2,16.8c20.7,6,39.8,14.3,57.6,26.3c35.2,23.5,61.4,60.6,76.8,99.6
	c18.2,46,26.2,95.4,29.2,145c3.7,62,3.5,123.3-0.8,185.2c-3,43.8-11.8,86.5-27.6,127.2c-25.3,65-76.3,106.2-142.6,125.1
	c-59.3,16.9-122.2,19.9-183.8,18.2c-80-2.3-175.4-2.7-245.3-45.7c-22.5-13.8-40-32.3-55.1-54c-8.4,4.8-15.8,7.3-24.6,10.9l50.4,74.3
	c1.3,1.9,1.7,4.6,0.7,6.4C423.8,857.2,422.1,859,419.9,859.8z"/>
<path class="st2" d="M534.1,850.7c-58.7-11.4-108.5-34.8-144.6-84.7c32.1-18.5,49.6-44.5,53.5-81.7c3.6-35.1,4.7-94.4-13.6-125.6
	c-19.7-34.6-52.8-49.8-90.6-59.6c-1-66.5-1.9-127.7,11.9-193c12.9-61.3,37.7-113.5,88.5-151.7c20.5-15.5,43.3-25.7,68.2-32.8
	c67.8-19.2,162.3-22.8,232.5-18.4c28.9,1.8,56.2,6.4,83.6,15.1c37.5,11.9,68.9,34.2,92.4,65.7c57.1,76.6,64.3,188.2,64.5,280.9
	c0.1,57.8-2.3,114.5-9.4,171.7c-5,39.6-15.1,83.1-32.6,118.7c-22.5,45.7-61.6,79.1-110.6,93.9c-58.8,17.7-126.1,16.8-187.5,13.9
	C604,861.4,569.3,857.5,534.1,850.7z"/>
<path class="st1" d="M652.5,573.8c-0.9-8.7,2.7-16,9-21.2l59.7-49.7c12.9-10.7,17.3-27.4,13.7-43.4c-5.9-26.3-39.6-27.4-55.6-18.4
	c-11.7,6.5-16.2,19-18.1,31.6c-3.7,0.9-7.4,0.7-11.2,0.2c2.7-27.4,17.6-45.8,45.3-47.7c13.3-0.9,26.8,1.3,37.2,9.9
	c21,17.2,19.4,56.8-4.7,76.8l-63.2,52.5c-2.5,2.1-2.1,6.5-1.3,8.8c1.1,3.1,4.8,3.8,8.5,3.8l77.4,0.5c1.4,3.5,0.8,6.9,0.4,11.1
	l-81.6-0.8C660.1,587.5,653.4,582.3,652.5,573.8z"/>
<path class="st1" d="M537.6,570.9c-0.2-10,5.9-16.3,12.8-22l53.8-44.7c12.1-10,17.6-23.4,16.4-38.8c-1-14.6-10.2-25.6-24.9-28.1
	c-11.6-2-24.1-1.2-33.9,6.1c-9.2,6.9-12.9,17.7-14.6,29c-3.4,1.2-6.8,1.2-10.6,0.1c0.9-16.7,8.2-32.5,22.9-40.8
	c13.4-7.5,29.6-8.4,44-4.1c17.5,5.3,27.4,20,28.2,37.7c0.8,17.3-4.3,33.3-18,44.7l-63.4,53.3c-2.5,2.1-2.2,6.5-1.7,8.6
	c0.7,2.7,3.9,3.9,7.3,3.9l79.3,0.8c0.7,4,0.8,7.5-0.2,11.3l-82-1.4C544.4,586.3,537.7,580.3,537.6,570.9z"/>
<path class="st3" d="M648.9,571.4c-0.9-8.7,2.7-16,9-21.2l59.7-49.7c12.9-10.7,17.3-27.4,13.7-43.4c-5.9-26.3-39.6-27.4-55.6-18.4
	c-11.7,6.5-16.2,19-18.1,31.6c-3.7,0.9-7.4,0.7-11.2,0.2c2.7-27.4,17.6-45.8,45.3-47.7c13.3-0.9,26.8,1.3,37.2,9.9
	c21,17.2,19.4,56.8-4.7,76.8l-63.2,52.5c-2.5,2.1-2.1,6.5-1.3,8.8c1.1,3.1,4.8,3.8,8.5,3.8l77.4,0.5c1.4,3.5,0.8,6.9,0.4,11.1
	l-81.6-0.8C656.5,585.1,649.8,579.9,648.9,571.4z"/>
<path class="st2" d="M317.6,764.1l-56.5,83.2c-4.7,6.9-1.2,15.9,7.1,18.7c26,8.7,82.7,21.3,156.2-0.2c8.4-2.5,12.2-11.3,8-18.4
	L379.1,760L317.6,764.1z"/>
<path class="st3" d="M534,568.4c-0.2-10,5.9-16.3,12.8-22l53.8-44.7c12.1-10,17.6-23.4,16.4-38.8c-1-14.6-10.2-25.6-24.9-28.1
	c-11.6-2-24.1-1.2-33.9,6.1c-9.2,6.9-12.9,17.7-14.6,29c-3.4,1.2-6.8,1.2-10.6,0.1c0.9-16.7,8.2-32.5,22.9-40.8
	c13.4-7.5,29.6-8.4,44-4.1c17.5,5.3,27.4,20,28.2,37.7c0.8,17.3-4.3,33.3-18,44.7l-63.4,53.3c-2.5,2.1-2.2,6.5-1.7,8.6
	c0.7,2.7,3.9,3.9,7.3,3.9l79.3,0.8c0.7,4,0.8,7.5-0.2,11.3l-82-1.4C540.8,583.9,534.1,577.9,534,568.4z"/>
<path class="st2" d="M525.9,149.6c0,0,225.6-73,359.5,15.2c0,0,94.9,55.9,94.9,299.7c0,267.2-41.9,395.9-261.6,401.1
	c8.5-14,323.5,76.8,316.7-316.2c-1.5-88.8-2.3-211.8-20.3-264.9C961,125.3,817,122.2,817,122.2S630.9,91.9,525.9,149.6z"/>
<path class="st2" d="M368.9,774.3c-39.6,14.5-87.5,15.9-125.4-2.2c-33.2-15.9-45.6-50.2-49.8-84.7c-3.7-30.5-3.7-60.8-0.8-91.3
	c3.5-36.7,18.2-69.8,56.7-79.9c32.1-8.4,65.9-8.6,98.7-2.2c12.9,2.5,25,7.5,34.9,15.8c18.9,15.8,26.2,45.1,28.7,68.9
	c3.8,36.1,3.6,71.9-0.8,108c-1.6,13.1-4.6,25.1-9.9,36.9C394.9,757.8,384.3,768.7,368.9,774.3z"/>
<path class="st4" d="M1053.1,408.4c-3-49.6-11.1-99-29.2-145c-15.4-39-41.7-76.2-76.8-99.6c-17.9-11.9-36.9-20.2-57.6-26.3
	c-26.5-7.7-52.7-12.7-80.2-16.8c-43.8-6.7-86.8-9.8-131.1-8.4c-51.7,1.7-108.8,6.2-158.5,20.7c-22.2,6.5-42.5,15.4-61.8,28.1
	C394,203.2,368.1,277.2,357.4,350c-4.3,29.2-6.5,57.6-6.5,87.2l0,66.8c-33.7-6.1-73.7-6.4-105.8,2.3c-41.2,10.3-57.4,45.8-61,85.2
	c-3.6,39.3-4.5,113.5,17.3,147.7c20.1,36.2,61.4,46.6,101.5,47l-42.7,66.6c-2.4,3.7,0.4,6.6,3.8,8.6c9.5,3,19.1,4.4,29.4,5
	c32.2,2,97,3.3,126.4-6.8c2.2-0.8,3.9-2.5,4.6-3.8c1-1.8,0.6-4.5-0.7-6.4l-50.4-74.3c8.8-3.7,16.2-6.2,24.6-10.9
	c15.1,21.8,32.5,40.2,55.1,54c69.9,43,165.3,43.4,245.3,45.7c61.6,1.8,124.5-1.3,183.8-18.2c66.3-18.8,117.3-60,142.6-125.1
	c15.8-40.7,24.6-83.3,27.6-127.2C1056.6,531.7,1056.9,470.3,1053.1,408.4z M365.8,770.3c-39.9,14.6-88,16-126.1-2.2
	c-33.4-16-45.9-50.5-50.1-85.2c-3.7-30.7-3.7-61.1-0.8-91.9c3.5-36.9,18.3-70.2,57.1-80.4c32.3-8.4,66.3-8.6,99.3-2.3
	c13,2.5,25.2,7.6,35.2,15.9c19,15.9,26.3,45.3,28.9,69.3c3.9,36.3,3.6,72.4-0.8,108.6c-1.6,13.2-4.7,25.3-9.9,37.1
	C392,753.6,381.3,764.6,365.8,770.3z M350.9,504.1c27.8,7.1,67,10.4,91.8,66c6.2,13.8,9.4,28.1,10.6,43.2
	c1.7,21.7,1.5,42.7-0.4,64.3c-1.1,12.9-3.3,29.8-8.6,41.4c-11,24.1-15.4,26.6-46.3,45.3 M538,128.1c69.9-12.9,162.2-14.2,233-7.5
	c24.7,2.3,48.3,7.4,71.1,17c42.2,17.6,76.5,48.9,100.1,87.8c29.3,48.1,41.4,106.1,46.3,161.9c2.8,32,4.3,62.8,5,95
	c1,45.2-1.5,89.3-8,134c-7.2,49.5-23.7,108.2-50.5,150.6c-15.8,25-36.2,46.2-61.2,61.8c-16,10-39.5,17.9-57.8,22.2
	c-21.5,5-70.6,15.6-92.9,13.6"/>
<path class="st1" d="M662.6,750.8l-36.5-2.2c-21.3-1.3-38.3-18.4-37.8-38v0c0.6-19.6,18.5-34.6,39.8-33.4l36.5,2.2
	c21.3,1.3,38.3,18.4,37.8,38v0C701.9,737.1,684,752.1,662.6,750.8z"/>
<path class="st4" d="M373.4,775.2c-41.3,13.1-70.4,11-70.4,11"/>
<path class="st3" d="M656.9,749l-36.5-2.2c-21.3-1.3-38.3-18.4-37.8-38v0c0.6-19.6,18.5-34.6,39.8-33.4l36.5,2.2
	c21.3,1.3,38.3,18.4,37.8,38v0C696.1,735.3,678.2,750.3,656.9,749z"/>
<g>
	<path class="st1" d="M579.9,343.3l-6.9-0.1l-0.1-3.1l6-10.7l3.7,0.1l0.4,10.8l2,0l0.1,3.1l-2,0l0.1,3.5l-3.2-0.1L579.9,343.3z
		 M579.5,334.2L579.5,334.2l-3.3,5.9l3.6,0.1L579.5,334.2z"/>
	<path class="st1" d="M586.6,334c0-0.8,0.1-1.5,0.3-2.1c0.3-0.6,0.6-1.1,1.1-1.5c0.5-0.4,1-0.7,1.7-0.9c0.6-0.2,1.3-0.3,2-0.3
		c0.7,0,1.4,0.1,2.1,0.3c0.6,0.2,1.2,0.5,1.7,0.9c0.5,0.4,0.9,0.9,1.2,1.5c0.3,0.6,0.5,1.3,0.5,2.1c0,0.9-0.2,1.8-0.6,2.4
		c-0.4,0.7-1.1,1.1-1.9,1.4l0,0c1,0.3,1.7,0.8,2.3,1.5c0.5,0.7,0.8,1.6,0.9,2.7c0,0.8-0.1,1.6-0.4,2.2c-0.3,0.6-0.7,1.2-1.2,1.6
		c-0.5,0.4-1.1,0.7-1.7,0.9c-0.7,0.2-1.4,0.3-2.1,0.3c-0.7,0-1.4-0.1-2.1-0.4c-0.7-0.2-1.3-0.5-1.8-1c-0.5-0.4-1-1-1.3-1.6
		c-0.3-0.6-0.5-1.4-0.6-2.2c0-1.1,0.2-2,0.6-2.7c0.5-0.7,1.2-1.2,2.1-1.5l0,0c-0.9-0.3-1.5-0.8-2-1.5
		C586.9,335.8,586.6,335,586.6,334z M590,334.6c0,0.5,0.2,1,0.6,1.4c0.4,0.4,0.9,0.6,1.4,0.6c0.6,0,1-0.2,1.4-0.5
		c0.3-0.4,0.5-0.8,0.5-1.4c0-0.5-0.2-1-0.6-1.4c-0.4-0.4-0.9-0.6-1.4-0.6c-0.6,0-1,0.2-1.4,0.5C590.1,333.6,590,334.1,590,334.6z
		 M590,341.7c0,0.6,0.2,1.1,0.7,1.6c0.4,0.4,1,0.7,1.6,0.7c0.7,0,1.2-0.2,1.6-0.6c0.4-0.4,0.6-0.9,0.5-1.5c0-0.6-0.2-1.1-0.7-1.6
		c-0.4-0.4-1-0.7-1.6-0.7c-0.7,0-1.2,0.2-1.6,0.6C590.2,340.6,590,341.1,590,341.7z"/>
	<path class="st1" d="M598.6,334.3c0-0.7,0.1-1.3,0.3-1.9c0.2-0.6,0.5-1.1,0.9-1.5c0.4-0.4,0.8-0.8,1.4-1c0.5-0.2,1.1-0.4,1.7-0.4
		c0.6,0,1.2,0.1,1.7,0.4c0.5,0.3,1,0.6,1.4,1.1c0.4,0.4,0.7,1,1,1.6s0.4,1.2,0.4,1.9c0,0.7-0.1,1.3-0.3,1.9
		c-0.2,0.6-0.5,1.1-0.9,1.5c-0.4,0.4-0.8,0.8-1.4,1c-0.5,0.2-1.1,0.4-1.7,0.4c-0.6,0-1.2-0.1-1.7-0.4c-0.5-0.3-1-0.6-1.4-1.1
		s-0.7-1-1-1.6C598.8,335.6,598.7,335,598.6,334.3z M605.2,334.4c0-0.7-0.3-1.2-0.7-1.7c-0.4-0.5-0.9-0.7-1.5-0.7
		c-0.6,0-1.1,0.2-1.5,0.7c-0.4,0.5-0.6,1-0.5,1.7c0,0.7,0.3,1.2,0.7,1.7c0.4,0.5,0.9,0.7,1.5,0.7c0.6,0,1.1-0.2,1.5-0.7
		C605,335.6,605.2,335.1,605.2,334.4z M612.1,329.2l1.9,1.2l-8.5,17.6l-1.7-1.1L612.1,329.2z M610.3,342.7c0-0.7,0.1-1.3,0.3-1.9
		c0.2-0.6,0.5-1.1,0.9-1.5c0.4-0.4,0.8-0.8,1.4-1c0.5-0.2,1.1-0.4,1.7-0.4c0.6,0,1.2,0.1,1.7,0.4c0.5,0.3,1,0.6,1.4,1.1
		c0.4,0.4,0.7,1,1,1.6c0.3,0.6,0.4,1.2,0.4,1.9c0,0.7-0.1,1.3-0.3,1.9c-0.2,0.6-0.5,1.1-0.9,1.5c-0.4,0.4-0.8,0.8-1.4,1
		c-0.5,0.2-1.1,0.4-1.7,0.4c-0.6,0-1.2-0.1-1.7-0.4s-1-0.6-1.4-1.1c-0.4-0.4-0.7-1-1-1.6C610.4,344,610.3,343.4,610.3,342.7z
		 M616.8,342.8c0-0.7-0.3-1.2-0.7-1.7s-0.9-0.7-1.5-0.7c-0.6,0-1.1,0.2-1.5,0.7c-0.4,0.5-0.6,1-0.5,1.7c0,0.7,0.3,1.2,0.7,1.7
		c0.4,0.5,0.9,0.7,1.5,0.7c0.6,0,1.1-0.2,1.5-0.7C616.6,344.1,616.8,343.5,616.8,342.8z"/>
</g>
<g>
	<path class="st1" d="M654.9,334c-0.4-0.5-0.8-0.8-1.3-1.1c-0.5-0.3-1.1-0.4-1.8-0.4c-0.7,0-1.3,0.1-1.8,0.4c-0.5,0.3-1,0.6-1.4,1.1
		c-0.4,0.5-0.7,1.1-0.9,1.8c-0.2,0.7-0.3,1.4-0.3,2.2c0,0.8,0.2,1.6,0.4,2.2c0.3,0.7,0.6,1.3,1,1.8c0.4,0.5,0.9,0.9,1.5,1.2
		c0.6,0.3,1.1,0.4,1.8,0.4c0.7,0,1.3-0.1,1.9-0.5c0.5-0.3,1-0.8,1.3-1.4l3,2.4c-0.6,1-1.4,1.8-2.5,2.2s-2.1,0.7-3.2,0.7
		c-1.2,0-2.4-0.3-3.5-0.7c-1.1-0.4-2-1.1-2.8-1.9c-0.8-0.8-1.4-1.8-1.9-2.9c-0.5-1.1-0.7-2.4-0.8-3.8c-0.1-1.4,0.1-2.6,0.5-3.8
		c0.4-1.1,0.9-2.1,1.7-2.9c0.7-0.8,1.6-1.4,2.6-1.8c1-0.4,2.2-0.6,3.4-0.6c0.4,0,0.9,0.1,1.4,0.2c0.5,0.1,1,0.2,1.5,0.5
		c0.5,0.2,0.9,0.5,1.4,0.8c0.4,0.3,0.9,0.7,1.2,1.2L654.9,334z"/>
	<path class="st1" d="M659.2,328.4l3.4,0.1l0.8,18.5l-3.4-0.1L659.2,328.4z"/>
	<path class="st1" d="M676,345.2c-0.5,0.7-1.2,1.3-2,1.7c-0.8,0.4-1.6,0.6-2.5,0.6c-0.8,0-1.6-0.2-2.4-0.5c-0.8-0.3-1.4-0.7-2-1.3
		c-0.6-0.6-1-1.2-1.4-2c-0.3-0.8-0.5-1.6-0.6-2.6c0-0.9,0.1-1.8,0.4-2.6c0.3-0.8,0.7-1.4,1.2-2c0.5-0.5,1.1-0.9,1.9-1.2
		c0.7-0.3,1.5-0.4,2.3-0.4c0.8,0,1.5,0.2,2.1,0.5c0.6,0.3,1.2,0.7,1.7,1.3c0.5,0.6,0.8,1.2,1.1,2c0.3,0.8,0.4,1.6,0.5,2.6l0,1.2
		l-7.8-0.1c0.2,0.7,0.5,1.3,0.9,1.7c0.5,0.4,1,0.6,1.7,0.7c0.6,0,1-0.1,1.4-0.4c0.4-0.3,0.7-0.6,1-1L676,345.2z M672.9,339.9
		c0-0.6-0.2-1.2-0.6-1.6c-0.4-0.4-0.9-0.7-1.5-0.7c-0.4,0-0.7,0.1-1,0.2c-0.3,0.1-0.5,0.3-0.7,0.5c-0.2,0.2-0.3,0.4-0.4,0.7
		c-0.1,0.3-0.2,0.5-0.2,0.8L672.9,339.9z"/>
	<path class="st1" d="M685.4,345.9L685.4,345.9c-0.4,0.6-0.9,1.1-1.5,1.3c-0.6,0.3-1.3,0.4-1.9,0.4c-0.5,0-1-0.1-1.5-0.3
		c-0.5-0.2-0.9-0.4-1.3-0.7c-0.4-0.3-0.7-0.7-0.9-1.2c-0.2-0.5-0.4-1-0.4-1.6c0-0.7,0.1-1.3,0.3-1.7c0.2-0.5,0.5-0.9,0.9-1.2
		c0.4-0.3,0.8-0.5,1.3-0.7s1-0.3,1.6-0.4c0.5-0.1,1.1-0.1,1.6-0.1c0.5,0,1,0,1.5,0c0-0.7-0.3-1.2-0.7-1.6s-1-0.6-1.5-0.6
		c-0.6,0-1.1,0.1-1.5,0.4c-0.4,0.2-0.8,0.6-1.2,1l-1.9-2c0.6-0.6,1.3-1.1,2.1-1.4s1.7-0.4,2.6-0.4c1,0,1.8,0.2,2.4,0.4
		c0.6,0.3,1.2,0.7,1.6,1.2s0.7,1.2,0.9,1.9c0.2,0.8,0.3,1.6,0.3,2.6l0.3,6.1l-3.1-0.1L685.4,345.9z M684.4,342.1c-0.3,0-0.6,0-1,0
		c-0.4,0-0.7,0.1-1.1,0.2c-0.3,0.1-0.6,0.3-0.9,0.5c-0.2,0.2-0.3,0.5-0.3,1c0,0.4,0.2,0.8,0.6,1c0.4,0.2,0.7,0.3,1.1,0.3
		c0.3,0,0.6,0,0.9-0.1c0.3-0.1,0.6-0.2,0.8-0.4s0.4-0.4,0.5-0.7s0.2-0.6,0.2-1l0-0.8L684.4,342.1z"/>
	<path class="st1" d="M690.2,335.6l3.2,0.1l0.1,1.6l0,0c0.1-0.2,0.2-0.5,0.4-0.7s0.4-0.4,0.7-0.6c0.3-0.2,0.6-0.3,0.9-0.4
		c0.3-0.1,0.7-0.2,1.1-0.2c0.9,0,1.5,0.2,2.1,0.5c0.5,0.3,1,0.7,1.3,1.2c0.3,0.5,0.5,1.1,0.7,1.8c0.1,0.7,0.2,1.4,0.2,2.2l0.3,6.6
		l-3.4-0.1l-0.2-5.8c0-0.3,0-0.7-0.1-1.1c0-0.4-0.1-0.7-0.2-1c-0.1-0.3-0.3-0.6-0.5-0.8c-0.2-0.2-0.6-0.3-1-0.3
		c-0.4,0-0.8,0.1-1,0.2s-0.5,0.4-0.6,0.7s-0.2,0.6-0.2,1c0,0.4,0,0.7,0,1.1l0.2,5.9l-3.4-0.1L690.2,335.6z"/>
</g>
<g>
	<path class="st0" d="M576.9,342.3l-6.9-0.1l-0.1-3.1l6-10.7l3.7,0.1l0.4,10.8l2,0l0.1,3.1l-2,0l0.1,3.5l-3.2-0.1L576.9,342.3z
		 M576.5,333.2L576.5,333.2l-3.3,5.9l3.6,0.1L576.5,333.2z"/>
	<path class="st0" d="M583.6,333c0-0.8,0.1-1.5,0.3-2.1c0.3-0.6,0.6-1.1,1.1-1.5c0.5-0.4,1-0.7,1.7-0.9c0.6-0.2,1.3-0.3,2-0.3
		c0.7,0,1.4,0.1,2.1,0.3c0.6,0.2,1.2,0.5,1.7,0.9c0.5,0.4,0.9,0.9,1.2,1.5c0.3,0.6,0.5,1.3,0.5,2.1c0,0.9-0.2,1.8-0.6,2.4
		c-0.4,0.7-1.1,1.1-1.9,1.4l0,0c1,0.3,1.7,0.8,2.3,1.5c0.5,0.7,0.8,1.6,0.9,2.7c0,0.8-0.1,1.6-0.4,2.2c-0.3,0.6-0.7,1.2-1.2,1.6
		c-0.5,0.4-1.1,0.7-1.7,0.9c-0.7,0.2-1.4,0.3-2.1,0.3c-0.7,0-1.4-0.1-2.1-0.4c-0.7-0.2-1.3-0.5-1.8-1c-0.5-0.4-1-1-1.3-1.6
		c-0.3-0.6-0.5-1.4-0.6-2.2c0-1.1,0.2-2,0.6-2.7c0.5-0.7,1.2-1.2,2.1-1.5l0,0c-0.9-0.3-1.5-0.8-2-1.5
		C583.9,334.8,583.6,334,583.6,333z M587,333.6c0,0.5,0.2,1,0.6,1.4c0.4,0.4,0.9,0.6,1.4,0.6c0.6,0,1-0.2,1.4-0.5
		c0.3-0.4,0.5-0.8,0.5-1.4c0-0.5-0.2-1-0.6-1.4c-0.4-0.4-0.9-0.6-1.4-0.6c-0.6,0-1,0.2-1.4,0.5C587.1,332.6,586.9,333.1,587,333.6z
		 M587,340.7c0,0.6,0.2,1.1,0.7,1.6c0.4,0.4,1,0.7,1.6,0.7c0.7,0,1.2-0.2,1.6-0.6c0.4-0.4,0.6-0.9,0.5-1.5c0-0.6-0.2-1.1-0.7-1.6
		c-0.4-0.4-1-0.7-1.6-0.7c-0.7,0-1.2,0.2-1.6,0.6C587.1,339.6,587,340.1,587,340.7z"/>
	<path class="st0" d="M595.6,333.3c0-0.7,0.1-1.3,0.3-1.9c0.2-0.6,0.5-1.1,0.9-1.5c0.4-0.4,0.8-0.8,1.4-1c0.5-0.2,1.1-0.4,1.7-0.4
		c0.6,0,1.2,0.1,1.7,0.4c0.5,0.3,1,0.6,1.4,1.1c0.4,0.4,0.7,1,1,1.6s0.4,1.2,0.4,1.9c0,0.7-0.1,1.3-0.3,1.9
		c-0.2,0.6-0.5,1.1-0.9,1.5c-0.4,0.4-0.8,0.8-1.4,1c-0.5,0.2-1.1,0.4-1.7,0.4c-0.6,0-1.2-0.1-1.7-0.4c-0.5-0.3-1-0.6-1.4-1.1
		s-0.7-1-1-1.6C595.8,334.6,595.7,334,595.6,333.3z M602.2,333.4c0-0.7-0.3-1.2-0.7-1.7c-0.4-0.5-0.9-0.7-1.5-0.7
		c-0.6,0-1.1,0.2-1.5,0.7c-0.4,0.5-0.6,1-0.5,1.7c0,0.7,0.3,1.2,0.7,1.7c0.4,0.5,0.9,0.7,1.5,0.7c0.6,0,1.1-0.2,1.5-0.7
		C602,334.6,602.2,334.1,602.2,333.4z M609.1,328.2l1.9,1.2l-8.5,17.6l-1.7-1.1L609.1,328.2z M607.3,341.7c0-0.7,0.1-1.3,0.3-1.9
		c0.2-0.6,0.5-1.1,0.9-1.5c0.4-0.4,0.8-0.8,1.4-1c0.5-0.2,1.1-0.4,1.7-0.4c0.6,0,1.2,0.1,1.7,0.4c0.5,0.3,1,0.6,1.4,1.1
		c0.4,0.4,0.7,1,1,1.6c0.3,0.6,0.4,1.2,0.4,1.9c0,0.7-0.1,1.3-0.3,1.9c-0.2,0.6-0.5,1.1-0.9,1.5c-0.4,0.4-0.8,0.8-1.4,1
		c-0.5,0.2-1.1,0.4-1.7,0.4c-0.6,0-1.2-0.1-1.7-0.4s-1-0.6-1.4-1.1c-0.4-0.4-0.7-1-1-1.6C607.4,343,607.3,342.4,607.3,341.7z
		 M613.8,341.8c0-0.7-0.3-1.2-0.7-1.7s-0.9-0.7-1.5-0.7c-0.6,0-1.1,0.2-1.5,0.7c-0.4,0.5-0.6,1-0.5,1.7c0,0.7,0.3,1.2,0.7,1.7
		c0.4,0.5,0.9,0.7,1.5,0.7c0.6,0,1.1-0.2,1.5-0.7C613.6,343.1,613.8,342.5,613.8,341.8z"/>
</g>
<g>
	<path class="st0" d="M651.9,333c-0.4-0.5-0.8-0.8-1.3-1.1c-0.5-0.3-1.1-0.4-1.8-0.4c-0.7,0-1.3,0.1-1.8,0.4c-0.5,0.3-1,0.6-1.4,1.1
		c-0.4,0.5-0.7,1.1-0.9,1.8c-0.2,0.7-0.3,1.4-0.3,2.2c0,0.8,0.2,1.6,0.4,2.2c0.3,0.7,0.6,1.3,1,1.8c0.4,0.5,0.9,0.9,1.5,1.2
		c0.6,0.3,1.1,0.4,1.8,0.4c0.7,0,1.3-0.1,1.9-0.5c0.5-0.3,1-0.8,1.3-1.4l3,2.4c-0.6,1-1.4,1.8-2.5,2.2s-2.1,0.7-3.2,0.7
		c-1.2,0-2.4-0.3-3.5-0.7c-1.1-0.4-2-1.1-2.8-1.9c-0.8-0.8-1.4-1.8-1.9-2.9c-0.5-1.1-0.7-2.4-0.8-3.8c-0.1-1.4,0.1-2.6,0.5-3.8
		c0.4-1.1,0.9-2.1,1.7-2.9c0.7-0.8,1.6-1.4,2.6-1.8c1-0.4,2.2-0.6,3.4-0.6c0.4,0,0.9,0.1,1.4,0.2c0.5,0.1,1,0.2,1.5,0.5
		c0.5,0.2,0.9,0.5,1.4,0.8c0.4,0.3,0.9,0.7,1.2,1.2L651.9,333z"/>
	<path class="st0" d="M656.2,327.4l3.4,0.1l0.8,18.5l-3.4-0.1L656.2,327.4z"/>
	<path class="st0" d="M673,344.2c-0.5,0.7-1.2,1.3-2,1.7c-0.8,0.4-1.6,0.6-2.5,0.6c-0.8,0-1.6-0.2-2.4-0.5c-0.8-0.3-1.4-0.7-2-1.3
		c-0.6-0.6-1-1.2-1.4-2c-0.3-0.8-0.5-1.6-0.6-2.6c0-0.9,0.1-1.8,0.4-2.6c0.3-0.8,0.7-1.4,1.2-2c0.5-0.5,1.1-0.9,1.9-1.2
		c0.7-0.3,1.5-0.4,2.3-0.4c0.8,0,1.5,0.2,2.1,0.5c0.6,0.3,1.2,0.7,1.7,1.3c0.5,0.6,0.8,1.2,1.1,2c0.3,0.8,0.4,1.6,0.5,2.6l0,1.2
		l-7.8-0.1c0.2,0.7,0.5,1.3,0.9,1.7c0.5,0.4,1,0.6,1.7,0.7c0.6,0,1-0.1,1.4-0.4s0.7-0.6,1-1L673,344.2z M669.9,338.9
		c0-0.6-0.2-1.2-0.6-1.6c-0.4-0.4-0.9-0.7-1.5-0.7c-0.4,0-0.7,0.1-1,0.2c-0.3,0.1-0.5,0.3-0.7,0.5c-0.2,0.2-0.3,0.4-0.4,0.7
		c-0.1,0.3-0.2,0.5-0.2,0.8L669.9,338.9z"/>
	<path class="st0" d="M682.4,344.9L682.4,344.9c-0.4,0.6-0.9,1.1-1.5,1.3c-0.6,0.3-1.3,0.4-1.9,0.4c-0.5,0-1-0.1-1.5-0.3
		c-0.5-0.2-0.9-0.4-1.3-0.7c-0.4-0.3-0.7-0.7-0.9-1.2c-0.2-0.5-0.4-1-0.4-1.6c0-0.7,0.1-1.3,0.3-1.7c0.2-0.5,0.5-0.9,0.9-1.2
		c0.4-0.3,0.8-0.5,1.3-0.7c0.5-0.2,1-0.3,1.6-0.4c0.5-0.1,1.1-0.1,1.6-0.1c0.5,0,1,0,1.5,0c0-0.7-0.3-1.2-0.7-1.6s-1-0.6-1.5-0.6
		c-0.6,0-1.1,0.1-1.5,0.4c-0.4,0.2-0.8,0.6-1.2,1l-1.9-2c0.6-0.6,1.3-1.1,2.1-1.4s1.7-0.4,2.6-0.4c1,0,1.8,0.2,2.4,0.4
		c0.6,0.3,1.2,0.7,1.6,1.2s0.7,1.2,0.9,1.9c0.2,0.8,0.3,1.6,0.3,2.6l0.3,6.1l-3.1-0.1L682.4,344.9z M681.4,341.1c-0.3,0-0.6,0-1,0
		c-0.4,0-0.7,0.1-1.1,0.2c-0.3,0.1-0.6,0.3-0.9,0.5c-0.2,0.2-0.3,0.5-0.3,1c0,0.4,0.2,0.8,0.6,1c0.4,0.2,0.7,0.3,1.1,0.3
		c0.3,0,0.6,0,0.9-0.1c0.3-0.1,0.6-0.2,0.8-0.4s0.4-0.4,0.5-0.7s0.2-0.6,0.2-1l0-0.8L681.4,341.1z"/>
	<path class="st0" d="M687.2,334.6l3.2,0.1l0.1,1.6l0,0c0.1-0.2,0.2-0.5,0.4-0.7s0.4-0.4,0.7-0.6c0.3-0.2,0.6-0.3,0.9-0.4
		c0.3-0.1,0.7-0.2,1.1-0.2c0.9,0,1.5,0.2,2.1,0.5c0.5,0.3,1,0.7,1.3,1.2c0.3,0.5,0.5,1.1,0.7,1.8c0.1,0.7,0.2,1.4,0.2,2.2l0.3,6.6
		l-3.4-0.1l-0.2-5.8c0-0.3,0-0.7-0.1-1.1c0-0.4-0.1-0.7-0.2-1c-0.1-0.3-0.3-0.6-0.5-0.8c-0.2-0.2-0.6-0.3-1-0.3
		c-0.4,0-0.8,0.1-1,0.2s-0.5,0.4-0.6,0.7s-0.2,0.6-0.2,1c0,0.4,0,0.7,0,1.1l0.2,5.9l-3.4-0.1L687.2,334.6z"/>
</g>
<g>
	<path class="st0" d="M620.2,718.4l9.5-7.9c0.5-0.4,1-0.9,1.5-1.4s0.7-1.2,0.7-1.9c0-0.8-0.3-1.5-0.9-2c-0.6-0.5-1.3-0.8-2.1-0.8
		c-1-0.1-1.7,0.2-2.3,0.8c-0.5,0.6-0.8,1.3-0.9,2.2l-5.2-0.7c0.1-1.3,0.3-2.3,0.8-3.3c0.5-0.9,1.1-1.6,1.8-2.2
		c0.8-0.6,1.7-1,2.7-1.2s2.1-0.3,3.3-0.3c1.1,0.1,2.1,0.3,3.1,0.7c1,0.4,1.8,0.9,2.5,1.5c0.7,0.7,1.3,1.5,1.7,2.4
		c0.4,0.9,0.6,2,0.6,3.3c0,0.8-0.1,1.5-0.2,2.1c-0.2,0.6-0.4,1.2-0.7,1.7c-0.3,0.5-0.6,1-1,1.4c-0.4,0.4-0.8,0.8-1.3,1.2l-7.4,5.9
		l10.9,0.7v4.6l-17.1-1.1V718.4z"/>
	<path class="st0" d="M640.7,719.7l9.5-7.9c0.5-0.4,1-0.9,1.5-1.4c0.5-0.5,0.7-1.2,0.7-1.9c0-0.8-0.3-1.5-0.9-2
		c-0.6-0.5-1.3-0.8-2.1-0.8c-1-0.1-1.7,0.2-2.3,0.8c-0.5,0.6-0.8,1.3-0.9,2.2l-5.2-0.7c0.1-1.3,0.3-2.3,0.8-3.2
		c0.5-0.9,1.1-1.6,1.8-2.2c0.8-0.6,1.7-1,2.7-1.2s2.1-0.3,3.3-0.3c1.1,0.1,2.1,0.3,3.1,0.7s1.8,0.9,2.5,1.5c0.7,0.7,1.3,1.5,1.7,2.4
		c0.4,0.9,0.6,2,0.6,3.3c0,0.8-0.1,1.5-0.2,2.1c-0.2,0.6-0.4,1.2-0.7,1.7c-0.3,0.5-0.6,1-1,1.4c-0.4,0.4-0.8,0.8-1.3,1.2l-7.4,5.9
		l10.9,0.7v4.6l-17.1-1.1V719.7z"/>
</g>
</svg>
