<?xml version="1.0" encoding="utf-8"?>
<!-- Generator: Adobe Illustrator 30.1.0, SVG Export Plug-In . SVG Version: 9.03 Build 0)  -->
<svg version="1.0" id="Layer_1" xmlns="http://www.w3.org/2000/svg" xmlns:xlink="http://www.w3.org/1999/xlink" x="0px" y="0px"
	 viewBox="0 0 1230.3 940.2" style="enable-background:new 0 0 1230.3 940.2;" xml:space="preserve">
<style type="text/css">
	.st0{opacity:0.6;fill:none;stroke:#231F20;stroke-width:2;stroke-miterlimit:10;enable-background:new    ;}
</style>
<g>
	<path class="st0" d="M444.7,676.3c-25.2,8.6-80.7,7.5-108.2,5.8c-8.8-0.5-17.1-1.7-25.2-4.3c-2.9-1.7-5.3-4.2-3.3-7.4l36.5-57.1
		c-34.3-0.4-69.6-9.3-86.9-40.3c-18.7-29.2-17.9-92.8-14.8-126.4c3.1-33.7,17-64.2,52.2-73c27.4-7.5,61.7-7.1,90.5-1.9l0-57.2
		c0-25.3,1.9-49.7,5.6-74.7c9.2-62.3,31.3-125.7,86.1-161.7c16.5-10.9,33.9-18.6,52.9-24.1c42.5-12.4,91.4-16.3,135.7-17.7
		c37.9-1.2,74.7,1.5,112.2,7.2c23.5,3.6,45.9,7.8,68.6,14.4c17.7,5.2,34,12.3,49.3,22.5c30.1,20.1,52.6,51.9,65.8,85.3
		c15.6,39.4,22.5,81.7,25,124.2c3.2,53,3,105.6-0.7,158.6c-2.6,37.5-10.1,74-23.7,108.9c-21.7,55.7-65.3,90.9-122,107.1
		c-50.8,14.4-104.7,17.1-157.4,15.6c-68.5-2-150.2-2.3-210-39.1c-19.3-11.8-34.2-27.6-47.1-46.3c-7.2,4.1-13.5,6.2-21.1,9.4
		l43.1,63.6c1.1,1.7,1.4,3.9,0.6,5.5C448.1,674.1,446.6,675.6,444.7,676.3z"/>
	<path class="st0" d="M986.8,289.8c-2.6-42.5-9.5-84.8-25-124.2c-13.2-33.4-35.7-65.2-65.8-85.3c-15.3-10.2-31.6-17.3-49.3-22.5
		c-22.7-6.6-45.1-10.8-68.6-14.4c-37.5-5.7-74.4-8.4-112.2-7.2c-44.3,1.4-93.2,5.3-135.7,17.7c-19,5.5-36.4,13.2-52.9,24.1
		c-54.7,36.1-76.9,99.4-86.1,161.7c-3.7,25-5.6,49.3-5.6,74.7l0,57.2c-28.8-5.2-63.1-5.5-90.5,1.9c-35.3,8.8-49.2,39.2-52.2,73
		c-3,33.6-3.9,97.2,14.8,126.4c17.2,31,52.6,39.9,86.9,40.3L308,670.4c-2,3.1,0.3,5.7,3.3,7.4c8.1,2.5,16.3,3.7,25.2,4.3
		c27.6,1.7,83,2.8,108.2-5.8c1.9-0.6,3.3-2.2,3.9-3.3c0.8-1.6,0.5-3.9-0.6-5.5l-43.1-63.6c7.5-3.1,13.9-5.3,21.1-9.4
		c12.9,18.6,27.9,34.4,47.1,46.3c59.8,36.8,141.5,37.1,210,39.1c52.7,1.5,106.6-1.1,157.4-15.6c56.7-16.1,100.4-51.4,122-107.1
		c13.6-34.8,21.1-71.3,23.7-108.9C989.8,395.4,990.1,342.9,986.8,289.8z M398.4,599.7c-34.1,12.5-75.4,13.7-107.9-1.9
		c-28.6-13.7-39.3-43.2-42.9-73c-3.2-26.3-3.2-52.3-0.7-78.7c3-31.6,15.7-60.1,48.9-68.8c27.7-7.2,56.8-7.4,85-1.9
		c11.1,2.2,21.6,6.5,30.1,13.6c16.3,13.6,22.5,38.8,24.7,59.3c3.3,31.1,3.1,62-0.7,93c-1.4,11.3-4,21.6-8.5,31.7
		C420.8,585.4,411.7,594.8,398.4,599.7z M385.6,371.8c23.8,6.1,57.3,8.9,78.6,56.5c5.3,11.8,8.1,27.1,9.1,40
		c1.4,18.5,1.3,33.6-0.3,52c-1,11-2.8,25.5-7.3,35.5c-9.4,20.6-13.2,22.8-39.7,38.8 M545.8,49.9c59.9-11,138.8-12.2,199.4-6.4
		c21.2,2,41.3,6.4,60.8,14.5c36.1,15.1,65.5,41.9,85.7,75.2c25.1,41.2,35.4,90.9,39.6,138.6c2.4,27.4,3.7,53.8,4.3,81.4
		c0.8,38.7-1.3,76.5-6.8,114.7c-6.2,42.4-20.3,92.6-43.2,128.9c-13.5,21.4-31,39.5-52.4,52.9c-13.7,8.6-33.8,15.3-49.4,19
		c-18.4,4.3-60.4,13.4-79.6,11.6"/>
	<path class="st0" d="M404.9,603.9c-35.4,11.2-60.3,9.5-60.3,9.5"/>
</g>
</svg>
