<?xml version="1.0" encoding="utf-8"?>
<!-- Generator: Adobe Illustrator 25.2.0, SVG Export Plug-In . SVG Version: 6.00 Build 0)  -->
<svg version="1.1" id="Layer_1" xmlns="http://www.w3.org/2000/svg" xmlns:xlink="http://www.w3.org/1999/xlink" x="0px" y="0px"
	 viewBox="0 0 1230.3 940.2" style="enable-background:new 0 0 1230.3 940.2;" xml:space="preserve">
<style type="text/css">
	.st0{opacity:0.6;fill:none;stroke:#231F20;stroke-miterlimit:10;enable-background:new    ;}
	.st1{opacity:0.6;}
	.st2{fill:none;stroke:#231F20;stroke-miterlimit:10;}
</style>
<g>
	<path class="st0" d="M168.8,366.2l-38.3,25.4c0,0-1.3,1,0.9,1.8s8,4,20.8-3.3c12.8-7.4,57.4-36.6,57.4-36.6s2.4-1.5-1.5-2.5
		S198,346.8,168.8,366.2z"/>
	<path class="st0" d="M52.9,288.6c-10.9,2.5-18.1,8.7-17.3,16.1c1,9.5,15.3,17.3,31.8,17.3s29.2-7.7,28.1-17.2
		c-0.8-7.7-10.8-14.2-23.1-16.5"/>
	<path class="st0" d="M35.7,306.2c1,9.5,15.3,17.3,31.8,17.3s29.2-7.7,28.1-17.2"/>
	<path class="st0" d="M53.9,289.7l1.5,13.9v0.1c0.3,3.1,5,5.6,10.4,5.6c5.3,0,9.5-2.5,9.1-5.6v-0.1l-1.6-15.1"/>
	<path class="st0" d="M130.6,393.1c0,0-7.9-4.8-8.2-5.3c-0.3-0.5-5.5-4.7,1.2-9.4c6.7-4.7,67.4-42,67.8-42.1
		c0.3-0.2,10-5.4,20.5,1.7s-2.2,15.6-2.2,15.6"/>
	<path class="st0" d="M209.6,353.5c0,0,6.1-3.9,3.4-7.5c-2.7-3.5-9.7-12.5-28.3-0.3c-18.7,12.1-55.8,35.4-55.8,35.4s-6,3.8-5.1,7.6"
		/>
	<path class="st0" d="M455.5,468.8c0,0-63.3,37.9-68.8,43.3c-4.3,4.2-11.2,11.7-9.9,34.4"/>
	<path class="st0" d="M381.5,518.5c0,0-1.1,4,0.9,8.4s4.7,6.5,4.7,6.5l77.9,44.7l60.2,33.4c0,0,13.8,7.1,33.5,2.6
		c15-4.7,52.9-30.3,52.9-30.3l53.9-33.1c0,0,17-11.4,0.4-25.9"/>
	<path class="st0" d="M564.1,659.3c0,0-12-1.4-16.3-3.4s-6.4-5.2-6.3-7.9c0.1-2.7,0-7.7,8.2-8.4s11.9-0.3,15.9-1s6-1.7,10.5-4
		s96.5-61.5,96.5-61.5s11.1-7.1,9.7-19.1"/>
	<path class="st0" d="M559.7,639.2c0,0,4.6-0.4,17.3,4.6s28,8.5,33.2,15.6s3.7,19.8,27.2,33.1"/>
	<path class="st0" d="M1106.9,852.1c0,0,18.1,17.7-1.8,37.2c-17.9,17.5-43.8,19.2-70.5,4.7c-107.5-57.8-427.7-237.8-427.7-237.8"/>
	<path class="st0" d="M941.4,795.9c-0.4-3.5-4.9-6.4-10.1-6.4s-9.1,2.8-8.7,6.4c0.4,3.5,4.9,6.4,10.1,6.4
		C937.9,802.2,941.8,799.4,941.4,795.9z"/>
	<path class="st0" d="M904.9,774.8c-0.4-3.5-4.9-6.4-10.1-6.4s-9.1,2.8-8.7,6.4c0.4,3.5,4.9,6.4,10.1,6.4S905.3,778.3,904.9,774.8z"
		/>
	<path class="st0" d="M869.3,754.8c-0.4-3.5-4.9-6.4-10.1-6.4c-5.2,0-9.1,2.8-8.7,6.4c0.4,3.5,4.9,6.4,10.1,6.4
		C865.8,761.1,869.7,758.3,869.3,754.8z"/>
	<path class="st0" d="M834.2,735.2c-0.4-3.5-4.9-6.4-10.1-6.4c-5.2,0-9.1,2.8-8.7,6.4c0.4,3.5,4.9,6.4,10.1,6.4
		C830.7,741.6,834.6,738.8,834.2,735.2z"/>
	<path class="st0" d="M799.5,715.2c-0.4-3.5-4.9-6.4-10.1-6.4s-9.1,2.8-8.7,6.4c0.4,3.5,4.9,6.4,10.1,6.4
		C796,721.6,799.9,718.7,799.5,715.2z"/>
	<path class="st0" d="M764.3,694.7c-0.4-3.5-4.9-6.4-10.1-6.4c-5.2,0-9.1,2.8-8.7,6.4c0.4,3.5,4.9,6.4,10.1,6.4
		C760.8,701,764.6,698.2,764.3,694.7z"/>
	<path class="st0" d="M799.4,716.7c-1.3-2.8-5.2-4.9-9.6-4.9c-4.4,0-7.9,2.1-8.6,4.8"/>
	<path class="st0" d="M764.3,696.4c-1.2-2.9-5.2-5.1-9.7-5.1c-4.4,0-7.9,2.1-8.6,4.8"/>
	<path class="st0" d="M941.3,797.4c-1.3-2.8-5.2-4.9-9.6-4.9s-7.9,2.1-8.6,4.8"/>
	<path class="st0" d="M904.8,776.3c-1.3-2.8-5.2-4.9-9.6-4.9s-7.9,2.1-8.6,4.8"/>
	<path class="st0" d="M869.3,756.5c-1.2-2.9-5.2-5.1-9.7-5.1c-4.4,0-7.9,2.1-8.6,4.8"/>
	<path class="st0" d="M834.2,737c-1.2-2.9-5.2-5.1-9.7-5.1c-4.4,0-7.9,2.1-8.6,4.8"/>
	<path class="st0" d="M388.1,510.9c0,0-8,6.7,3,13s131,73.1,131,73.1s23.8,14.1,43.1,1.8s100.3-64.2,100.3-64.2s8.3-5.1-3.4-12"/>
	<path class="st0" d="M494.4,448.9c-6.8,3.3-101.9,60.9-104.6,64.7s-2.1,4,8,10.3s125.7,71,132.3,73.1c6.5,2,19.3,5.8,30.1,0
		c10.7-5.8,103.8-64.7,103.8-64.7s4-3.5-1.8-6.8s-135.9-75.4-136.8-75.8C513.7,443.4,501.2,445.7,494.4,448.9z"/>
	<path class="st0" d="M41.8,277.4c0,0-35.1,9.3-29.1,31.7c6,22.5,41.1,32.7,63.4,44.2c20.9,10.7,22.1,18.1,28.2,32.5
		s16.1,13.6,29.5,16.9s42.6,3.3,100,36.6s137.6,78.5,141.2,82.4s2.7,7.8,2.7,7.8"/>
	<g class="st1">
		<line class="st2" x1="562.2" y1="458.7" x2="561.4" y2="459.9"/>
		<line class="st2" x1="565" y1="459.2" x2="564.1" y2="460.4"/>
		<line class="st2" x1="567.3" y1="460.4" x2="566.4" y2="461.7"/>
		<line class="st2" x1="569.4" y1="461.9" x2="568.7" y2="463"/>
		<line class="st2" x1="571.5" y1="463.6" x2="570.6" y2="464.7"/>
		<line class="st2" x1="573.6" y1="465.2" x2="572.6" y2="466.7"/>
		<line class="st2" x1="575.5" y1="467.7" x2="574.4" y2="469.2"/>
		<line class="st2" x1="577.2" y1="469.6" x2="576.1" y2="471.2"/>
		<line class="st2" x1="578.8" y1="472.1" x2="577.8" y2="473.6"/>
	</g>
	<path class="st0" d="M1106.9,852.1c-7.3-6.2-20.8-13.6-31.1-19.6C1056,820.9,749.7,649.8,729,637.7c-8.5-4.9-26.6-13.3-32.5-21.4
		c-4.4-6-13.4-23.2-12.2-35.7c0.4-4.8,1.1-16.5-0.8-22.6c-3.6-11.7-7.2-21-13.2-29.2c-3.1-4.3-8-5.7-12.3-8.6
		c-7.8-5.3-74.9-41.4-76.5-43.3c-0.9-1.1-16.4-9-26.8-15.1c-5.3-2.7-8.6-4.7-12.5-7.1c-11-6.4-27.6-15.2-44-10.1
		c-9.4,2.9-32.8,17.3-37,20.2c-11.2,7.6-14.1,11.8-27.5,5.4c-8-3.9-16.4-9.5-24.2-14.1c-17.6-10.3-35.4-19.6-52.8-29.7
		c-28.2-16.5-57.6-30.2-84.3-48.9c-5.7-4-11.1-9.1-16.6-13.6c-4.2-3.5-8.6-9-12-13.6c-5.4-7.2-14.5-14.2-22.1-18.1
		c-17.6-9.2-42.2-8.6-59.8-17.2c-22.7-11-44.4-24.9-66.9-35.8c-4.2-2-7.7-3-13.4-3.5c-2.8-0.4-6.6-0.6-11.1-0.7
		c1.6,1.2,2.8,2.7,3.5,4.5c2,5.4-1.5,11.1-7.8,12.7c-6.4,1.7-13.2-1.3-15.2-6.7c-1.3-3.5-0.3-7.1,2.3-9.7c-0.2,0-0.4,0-0.6,0
		c-6.9,0.7-13.5,2-18.2,3.8c-12.7,5.1-24.8,12.9-27.7,28.1c-2.3,12.5,5.1,26.2,11,31.7c20.4,18.8,45.9,27.9,67.8,44.3
		c3.4,2.5,7.5,6.7,10,10.6c4.3,6.9,6.8,14.8,13,19.1c21.3,14.8,53.8,15.6,77.7,26.7c26.4,12.3,51.3,25.8,75.8,40.3
		c13.2,7.8,26.7,13.8,39.4,22.2c6,3.9,12,6,18.3,9.6c11.3,6.4,23.2,13.5,34.5,20.2c5.9,3.5,18.4,9.1,22.5,14.1
		c0.9,1.2,0.4,3.3,1.9,9.6c1.7,6.9,3.5,12.9,9.6,18.6c4.4,4.1,61.9,37.1,70.1,41.8c16.1,9.4,66.9,38.4,77.3,42.3
		c4.1,1.6,15.5,3.6,20.8,2c1.9-0.5,5.6-2.1,7.8-1.5c9.5,2.6,20.1,5.3,28.8,9.6c28,14,55.7,29.7,82.6,45.4
		c28.6,16.7,339,186.3,362.7,197.6c27.9,13.3,71.3,4.2,80.3-25.3C1122.5,873.5,1114.4,858.6,1106.9,852.1z"/>
	<path class="st0" d="M558,478.2"/>
	<path class="st0" d="M554.6,461.8l3.1-2c0,0,2.6-2.5,8.6,0s12.6,10.4,14.7,16.8"/>
	<path class="st0" d="M73.9,279.5c-2-5.4-8.8-8.4-15.2-6.7s-9.9,7.3-7.8,12.7c2.1,5.4,8.8,8.4,15.2,6.7
		C72.4,290.5,76,284.8,73.9,279.5z"/>
	<path class="st0" d="M73.4,278.3c-0.1-0.1-0.1-0.2-0.2-0.3C73.2,278.1,73.3,278.2,73.4,278.3z M72.6,277.1l-0.1-0.1
		C72.5,277,72.5,277,72.6,277.1z M51,279c0,0,0,0.1-0.1,0.1C51,279.1,51,279,51,279z M50.6,280.2v0.1V280.2z M50.3,281.5
		C50.3,281.5,50.3,281.6,50.3,281.5C50.3,281.6,50.3,281.5,50.3,281.5z M50.3,282.7c0,0.1,0,0.2,0,0.3
		C50.3,282.9,50.3,282.8,50.3,282.7z M50.5,284.3c0-0.1,0-0.2-0.1-0.3C50.5,284,50.5,284.2,50.5,284.3z M62.5,292.6
		c0.8,0,1.6-0.1,2.4-0.2C64.1,292.6,63.3,292.6,62.5,292.6z"/>
	<path class="st0" d="M531.5,501.7c-8.2-2.2-17.9-6.8-27.8-5c0,0,1.8,5.6,10.2,11.2c0,0-3.1,1.7-7.5,4.4s-7.1,4.6-7.1,4.6
		c-9.9-4.6-19.7-5.4-19.7-5.4c-2.6,5.9,5.7,11.3,10,15.9c4.9,5.4,26.4,13.5,27.8,13.9s14.7-0.4,18.3-0.2c3.7,0.2,15.2,4.3,15.2,4.3
		l2.5,0.2l6.4-2l1.8-0.8l1.2-1.1l3.1-3.8l-0.5-1.4c0,0-7.6-6.5-8.1-8.7c-0.6-2.1,0-9.9-0.7-10.7C556,516.4,541,504.3,531.5,501.7
		 M501.2,530.3c2.7,0.5,15.4-2.1,19.8-2c3.9,0.1,7.9,2.8,7.9,2.8c-1.2-0.4-2.4-0.3-6.6,0.8c-6.6,2.2-11.1,1.7-14.6,0.3
		C505.3,531.3,502.3,530.6,501.2,530.3C500.7,530.3,501.2,530.3,501.2,530.3 M532.7,533.3c0,0-0.1,0-0.3-0.1s-0.5-0.1-0.9-0.2
		c-0.4-0.1-0.9-0.1-1.5-0.1s-1.2,0.1-1.9,0.2c-0.7,0.1-1.4,0.3-2.1,0.5c-0.2,0.1-0.4,0.1-0.5,0.2c-0.2,0.1-0.4,0.1-0.6,0.2
		c-0.4,0.1-0.8,0.3-1.2,0.4c-0.9,0.3-1.8,0.6-2.7,0.8c-0.5,0.1-1,0.2-1.5,0.3s-1,0.2-1.5,0.3c-1,0.2-2.1,0.3-3.1,0.3s-2.1,0-3-0.1
		c-1-0.1-1.9-0.2-2.7-0.4c-0.8-0.2-1.6-0.4-2.2-0.6c-0.6-0.2-1.2-0.5-1.7-0.7s-0.8-0.4-1.2-0.6c-0.3-0.2-0.5-0.3-0.7-0.4
		c-0.2-0.1-0.2-0.2-0.2-0.2s0.4,0.1,1.2,0.4c0.4,0.1,0.8,0.3,1.4,0.4c0.5,0.2,1.1,0.3,1.8,0.5c1.3,0.3,2.9,0.6,4.6,0.6
		c0.9,0,1.8,0,2.7,0c0.9-0.1,1.8-0.2,2.8-0.3c0.9-0.1,1.8-0.3,2.7-0.5s1.8-0.4,2.6-0.6c0.4-0.1,0.8-0.2,1.2-0.4
		c0.4-0.1,0.8-0.2,1.3-0.3c0.8-0.2,1.7-0.3,2.5-0.4c0.8-0.1,1.5-0.1,2.2,0c0.6,0,1.2,0.2,1.6,0.3c0.4,0.1,0.7,0.3,0.8,0.4
		C532.7,533.3,532.7,533.3,532.7,533.3 M534.7,519.9c-0.5-2.5,3.3-10.1,2.4-11.6c0,0-0.1-0.3,0.2,0c0.6,0.6,1.9,2.3,3.6,3.7
		c2.5,2,3.6,4.5,0.2,8.5c-1.8,2.5-1.8,3.2-1.1,3.9C540,524.3,535.1,522.1,534.7,519.9 M544.2,510.5c0.2,0.1,0.4,0.3,0.6,0.4
		c0.2,0.2,0.4,0.3,0.6,0.5c0.2,0.2,0.4,0.4,0.6,0.6c0.2,0.2,0.4,0.4,0.6,0.7c0.2,0.2,0.3,0.5,0.5,0.7c0.1,0.3,0.2,0.5,0.4,0.8
		c0.1,0.3,0.2,0.6,0.2,0.9c0,0.3,0,0.6,0.1,0.9c0,0.2,0,0.3,0,0.5l-0.1,0.5c0,0.1,0,0.2,0,0.2l-0.1,0.2l-0.1,0.5
		c-0.1,0.1-0.1,0.3-0.2,0.4l-0.2,0.4c-0.1,0.1-0.1,0.3-0.2,0.4c0,0.1-0.1,0.1-0.1,0.2l-0.1,0.2c-0.2,0.3-0.4,0.6-0.6,0.8
		c-0.1,0.1-0.2,0.3-0.3,0.4c-0.1,0.1-0.2,0.2-0.3,0.4c-0.2,0.2-0.4,0.5-0.6,0.7c-0.2,0.2-0.4,0.4-0.6,0.7c-0.1,0.1-0.2,0.2-0.3,0.3
		s-0.1,0.2-0.2,0.3c-0.1,0.1-0.1,0.2-0.2,0.3c-0.1,0.1-0.1,0.2-0.2,0.3c-0.2,0.4-0.3,0.8-0.3,1.1s0,0.6,0.2,0.9
		c0.1,0.2,0.3,0.4,0.4,0.5c0.1,0.1,0.2,0.2,0.2,0.2s-0.1,0-0.3-0.1s-0.4-0.2-0.6-0.5c-0.2-0.2-0.4-0.5-0.6-0.9
		c-0.1-0.4-0.2-0.8-0.1-1.3c0-0.2,0.1-0.5,0.2-0.7c0.1-0.2,0.2-0.5,0.4-0.7c0-0.1,0.1-0.1,0.1-0.2c0-0.1,0.1-0.1,0.1-0.2
		c0.1-0.1,0.2-0.3,0.3-0.4s0.2-0.2,0.3-0.4c0.1-0.1,0.2-0.3,0.3-0.4s0.2-0.3,0.3-0.4c0.1-0.1,0.2-0.3,0.3-0.4
		c0.1-0.3,0.3-0.5,0.5-0.8s0.3-0.5,0.4-0.8l0.2-0.4c0.1-0.1,0.1-0.3,0.1-0.4l0.1-0.4l0.1-0.2c0-0.1,0-0.1,0-0.2
		c0-0.3,0.1-0.5,0.1-0.8c0-0.1,0-0.3,0-0.4c0-0.1,0-0.3,0-0.4c0-0.3-0.1-0.5-0.1-0.8c-0.1-0.2-0.1-0.5-0.2-0.7
		c-0.1-0.2-0.2-0.5-0.3-0.7s-0.2-0.4-0.4-0.6c-0.1-0.2-0.3-0.4-0.4-0.6c-0.2-0.2-0.3-0.4-0.4-0.5c-0.2-0.2-0.3-0.3-0.4-0.5
		c-0.3-0.3-0.6-0.6-0.8-0.8s-0.4-0.4-0.5-0.5s-0.2-0.2-0.2-0.2s0.1,0,0.3,0.1s0.4,0.2,0.7,0.4C543.4,510.1,543.8,510.3,544.2,510.5"
		/>
</g>
<g class="st1">
	<g>
		<g>
			<rect x="518.7" y="191.3" transform="matrix(0.4977 -0.8673 0.8673 0.4977 41.3932 577.3689)" width="1" height="123.4"/>
		</g>
		<g>
			<rect x="598.6" y="281.9" transform="matrix(0.4984 -0.867 0.867 0.4984 41.3893 669.3249)" width="1" height="33.9"/>
		</g>
		<g>
			<rect x="551" y="169.5" transform="matrix(0.4973 -0.8676 0.8676 0.4973 88.8805 587.6794)" width="1" height="95.3"/>
		</g>
		<g>
			<rect x="630.9" y="232.1" transform="matrix(0.4975 -0.8674 0.8674 0.4975 89.1 679.9115)" width="1" height="61.9"/>
		</g>
		<g>
			<rect x="578.4" y="150.6" transform="matrix(0.4979 -0.8673 0.8673 0.4979 135.7908 591.7222)" width="1" height="56"/>
		</g>
		<g>
			<rect x="658.3" y="173.8" transform="matrix(0.4975 -0.8675 0.8675 0.4975 136.3998 684.2656)" width="1" height="101.1"/>
		</g>
		<g>
			<rect x="626.1" y="119.8" transform="matrix(0.496 -0.8683 0.8683 0.496 184.0316 620.6429)" width="1" height="63.9"/>
		</g>
		<g>
			<rect x="706.1" y="150.8" transform="matrix(0.4963 -0.8682 0.8682 0.4963 184.4809 712.9339)" width="1" height="93.3"/>
		</g>
		<g>
			<rect x="673.1" y="89.6" transform="matrix(0.4957 -0.8685 0.8685 0.4957 231.4956 647.8553)" width="1" height="70"/>
		</g>
		<g>
			<rect x="753" y="126.6" transform="matrix(0.4939 -0.8695 0.8695 0.4939 233.4119 741.3193)" width="1" height="87.1"/>
		</g>
		<g>
			<path d="M714.4,141.6l-0.7-0.7c10.4-9.9,18-21.4,23.3-35.2l0.9,0.4C732.6,120,724.9,131.6,714.4,141.6z"/>
		</g>
		<g>
			<path d="M666.8,169.1l-0.4-0.9c11-4.2,25.2-10.2,37.8-19.4l0.6,0.8C692.1,158.8,677.8,164.9,666.8,169.1z"/>
		</g>
		<g>
			<path d="M613.7,192l-0.6-0.8c10-7.3,23.7-12.3,38.1-17.5l1.9-0.7l0.3,0.9l-1.9,0.7C637.2,179.9,623.6,184.8,613.7,192z"/>
		</g>
		<g>
			<path d="M597.9,239.7c-0.1-1.8-0.2-3.6-0.4-5.4c-0.9-12.3-1.7-23.9,6.7-34.7l0.8,0.6c-8.2,10.5-7.3,21.9-6.5,34
				c0.1,1.8,0.3,3.6,0.4,5.4L597.9,239.7z"/>
		</g>
		<g>
			<path d="M582.5,283.4l-0.7-0.7c8.3-8.6,13.6-17.3,15.2-25.1c0.5-2.5,0.9-5.1,1.1-8.5l1,0.1c-0.2,3.4-0.6,6.1-1.1,8.7
				C596.3,265.8,591,274.6,582.5,283.4z"/>
		</g>
		<g>
			<path d="M527.4,314.1l-0.2-1c16.2-3.6,32.7-11.7,46.4-23l0.6,0.8C560.4,302.3,543.7,310.5,527.4,314.1z"/>
		</g>
		<g>
			<g>
				<path d="M578.6,283.1c1.9,0,3.7,0.4,5,1.2c1.3,0.7,2,1.7,2,2.7c0,0.9-0.6,1.9-1.8,2.6c-1.4,0.9-3.3,1.4-5.4,1.4
					c-1.9,0-3.7-0.4-5-1.2c-1.3-0.7-2-1.7-2-2.7c0-0.9,0.6-1.9,1.8-2.6C574.6,283.6,576.6,283.1,578.6,283.1 M578.6,282.1
					c-2.2,0-4.3,0.5-5.9,1.6c-3.1,2-2.9,5.1,0.3,7c1.5,0.9,3.5,1.3,5.5,1.3c2.2,0,4.3-0.5,5.9-1.6c3.1-2,2.9-5.1-0.3-7
					C582.6,282.5,580.6,282.1,578.6,282.1L578.6,282.1z"/>
			</g>
		</g>
		<g>
			<g>
				<path d="M598.8,240.3c1.9,0,3.7,0.4,5,1.2c1.3,0.7,2,1.7,2,2.7c0,0.9-0.6,1.9-1.8,2.6c-1.4,0.9-3.3,1.4-5.4,1.4
					c-1.9,0-3.7-0.4-5-1.2c-1.3-0.7-2-1.7-2-2.7c0-0.9,0.6-1.9,1.8-2.6C594.8,240.8,596.8,240.3,598.8,240.3 M598.8,239.3
					c-2.2,0-4.3,0.5-5.9,1.6c-3.1,2-2.9,5.1,0.3,7c1.5,0.9,3.5,1.3,5.5,1.3c2.2,0,4.3-0.5,5.9-1.6c3.1-2,2.9-5.1-0.3-7
					C602.8,239.6,600.8,239.3,598.8,239.3L598.8,239.3z"/>
			</g>
		</g>
		<g>
			<g>
				<path d="M609.2,191.9c1.9,0,3.7,0.4,5,1.2c1.3,0.7,2,1.7,2,2.6c0,0.9-0.6,1.9-1.8,2.6c-1.4,0.9-3.3,1.4-5.4,1.4
					c-1.9,0-3.7-0.4-5-1.2c-1.3-0.7-2-1.7-2-2.6c0-0.9,0.6-1.9,1.8-2.6C605.1,192.4,607.1,191.9,609.2,191.9 M609.2,190.9
					c-2.2,0-4.3,0.5-5.9,1.6c-3.1,2-2.9,5.1,0.3,7c1.5,0.9,3.5,1.3,5.5,1.3c2.2,0,4.3-0.5,5.9-1.6c3.1-2,2.9-5.1-0.3-7
					C613.1,191.4,611.1,190.9,609.2,190.9L609.2,190.9z"/>
			</g>
		</g>
		<g>
			<g>
				<path d="M660.3,167c1.9,0,3.6,0.4,5,1.2c1.3,0.7,2,1.7,2,2.6c0,0.9-0.6,1.9-1.7,2.6c-1.4,0.9-3.3,1.4-5.4,1.4
					c-1.9,0-3.7-0.4-5-1.2c-1.3-0.7-2-1.7-2-2.6c0-0.9,0.6-1.9,1.7-2.6C656.3,167.6,658.3,167,660.3,167 M660.3,166
					c-2.2,0-4.3,0.5-5.9,1.6c-3.1,2-2.9,5.1,0.3,6.9c1.5,0.9,3.5,1.3,5.5,1.3c2.2,0,4.3-0.5,5.9-1.6c3.1-2,2.9-5.1-0.3-6.9
					C664.2,166.5,662.3,166,660.3,166L660.3,166z"/>
			</g>
		</g>
		<g>
			<g>
				<path d="M709.9,141.3c1.9,0,3.6,0.4,5,1.2c1.3,0.7,2,1.7,2,2.6s-0.6,1.8-1.7,2.6c-1.4,0.9-3.3,1.4-5.4,1.4c-1.9,0-3.6-0.4-5-1.2
					c-1.3-0.7-2-1.7-2-2.6s0.6-1.8,1.7-2.6C705.9,141.8,707.8,141.3,709.9,141.3 M709.9,140.3c-2.2,0-4.3,0.5-5.9,1.6
					c-3.1,2-2.9,5.1,0.3,6.9c1.5,0.9,3.5,1.3,5.5,1.3c2.2,0,4.3-0.5,5.9-1.6c3.1-2,2.9-5.1-0.3-6.9
					C713.8,140.8,711.9,140.3,709.9,140.3L709.9,140.3z"/>
			</g>
		</g>
	</g>
	<g>
		<g>
			<path d="M572,13.3c13.5,0,27,3.9,41.2,11.9l554.9,314c15.6,8.8,23.6,17.6,23.9,26.1c0.2,8.1-6.5,16.4-20.5,25.4l-211,135.4
				c-9.5,6.1-20,9.2-31.2,9.2c-14.8,0-31.5-5.3-49.7-15.8L332.7,206h-0.1c-16.3-9.4-24.7-18.4-24.9-27c-0.2-7.7,6.5-13.7,12.1-17.3
				l2.5-1.6c-5.6,4.7-8.5,10.5-8.4,16.8c0.3,10.4,9,21.2,24.7,30.2l542,310.9c16.4,9.4,36.2,15.1,53,15.1c9.7,0,17.8-2,23.7-5.7l0,0
				l0,0l212.2-138.1c10.8-7,16.3-15.1,16.1-23.4c-0.3-10-8.9-19.8-25.6-29.3l-548.4-310c-12.8-7.3-26.4-10.9-40.3-10.9
				c-16.1,0-32.3,5-47,14.4l-89.1,57.3l90.6-58.5C541.8,18.4,557,13.3,572,13.3 M572,12.3c-17.1,0-32.5,6.3-46.8,15.5l-206,133
				c-14.3,9.2-23.5,25.2,12.9,46c0,0,0,0,0.1,0L879,520.2c19.2,11,35.8,15.9,50.2,15.9c11.9,0,22.4-3.3,31.7-9.3l211-135.4
				c24.6-15.8,32.5-32.9-3.4-53.2L613.7,24.4C598.7,15.9,584.9,12.3,572,12.3L572,12.3z M933.5,532c-16.6,0-36.4-5.8-52.5-14.9
				L339.1,206.2c-29.8-17.1-29.6-37-13-47.7L524.7,30.8c13.1-8.4,29.2-14.2,46.4-14.2c12.8,0,26.3,3.2,39.8,10.8l548.4,310
				c35.1,19.8,28.7,38.4,9.5,50.9L956.7,526.4l0,0C950.8,530.3,942.7,532,933.5,532L933.5,532z"/>
		</g>
	</g>
	<g>
		<g>
			<path d="M571.9,10.4c14.5,0,28.9,4,42.6,11.8l565.7,321.6c10.6,6.4,16.5,14.4,16.7,22.6c0.2,9.2-6.8,18.6-20.3,27.3L974.3,524.9
				l0,0l0,0h-0.1l0,0c-14.4,9.3-29.7,14.1-45.4,14.1c-14.6,0-29.2-4.1-43.3-12.2l-566-324c-10.6-6.1-17-14.8-17.2-23.5
				c-0.2-8.2,5-16,15.2-22.5l3.9-2.5l0,0L519.5,27.2C536.8,16,554.4,10.4,571.9,10.4 M571.9,9.4c-22.2,0-40.8,9.1-53,16.9
				l-202,129.6l0,0c-24.8,15.9-17,36.7,2.1,47.7l565.9,324.1c14,8,28.9,12.3,43.8,12.3c15.4,0,31-4.6,46-14.3l0,0l202.4-131.2
				c30.1-19.5,23.9-39.4,3.6-51.6L615,21.3C599.7,12.6,585.2,9.4,571.9,9.4L571.9,9.4z"/>
		</g>
	</g>
	<g>
		<g>
			<path d="M571.3,10.4c15.2,0,30.9,4.5,46.6,13.3l560.9,318.2c13.6,7.7,21.6,17.7,21.9,27.4c0.3,9.5-6.3,18.7-19.5,27.3
				L982.4,526.4c-18.4,12-35.8,17.8-53.2,17.8c-15.8,0-31.9-4.9-49.4-14.9L325.4,211.9l0,0c-17-9.7-25.7-19.8-26-30.1
				c-0.3-12.4,12-22.1,19.4-26.8l6.2-4L518.2,27.9l0,0l1.2-0.8C537.1,15.9,554.1,10.4,571.3,10.4 M571.3,9.4
				c-18.4,0-35.7,6.3-52.4,16.9l0,0L318.2,154.2l0,0c-14.7,9.4-39.1,32.4,6.7,58.6l-0.1-0.1l554.5,317.5c16.6,9.5,32.9,15,49.9,15
				s34.6-5.5,53.8-18l0,0l198.7-129.7c32.7-21.4,20.4-43.6-2.4-56.5L618.4,22.9C601.9,13.5,586.3,9.4,571.3,9.4L571.3,9.4z"/>
		</g>
	</g>
	<g>
		<g>
			<path d="M571.3,10.4c15.2,0,30.9,4.5,46.6,13.3l560.9,318.2c13.6,7.7,21.6,17.7,21.9,27.4c0.3,9.5-6.3,18.7-19.5,27.3
				L982.4,526.4c-18.4,12-35.8,17.8-53.2,17.8c-15.8,0-31.9-4.9-49.4-14.9L325.4,211.9l0,0c-17-9.7-25.7-19.8-26-30.1
				c-0.3-12.4,12-22.1,19.4-26.8l6.2-4L518.2,27.9l0,0l1.2-0.8C537.1,15.9,554.1,10.4,571.3,10.4 M571.3,9.4
				c-18.4,0-35.7,6.3-52.4,16.9l0,0L318.2,154.2l0,0c-14.7,9.4-39.1,32.4,6.7,58.6l-0.1-0.1l554.5,317.5c16.6,9.5,32.9,15,49.9,15
				s34.6-5.5,53.8-18l0,0l198.7-129.7c32.7-21.4,20.4-43.6-2.4-56.5L618.4,22.9C601.9,13.5,586.3,9.4,571.3,9.4L571.3,9.4z"/>
		</g>
	</g>
	<g>
		<g>
			<path d="M571.1,10.3c15.3,0,31.1,4.5,46.9,13.5l557.3,316.1h-0.1l3.3,1.9c18.3,10.3,28.6,24.4,29,39.6c0.5,15.4-9.3,30.7-26.8,42
				l-2.1,1.4h0.2L977.2,555.9c-14.9,9.7-31,14.6-47.7,14.6c-20.6,0-37.7-7.4-48.5-13.6L319.8,234.4c-17.8-10.2-27.4-23.4-27.7-38.1
				c-0.3-14.9,9-30.2,24.3-40l2.2-1.4h-0.1L517.9,27.8l0,0l1.2-0.8C536.9,15.8,553.9,10.3,571.1,10.3 M571.1,9.3
				c-18.4,0-35.7,6.3-52.4,16.9l0,0L315.8,155.5l0,0c-26.6,17-40.2,54.8,3.4,79.8l561.2,322.5c13.8,7.9,30.7,13.7,49,13.7
				c15.5,0,32-4.2,48.3-14.8l203.6-132.4c-0.1,0-0.1,0-0.1,0c35.6-23,37.9-60.7-2.2-83.4h0.1l-560.6-318
				C601.9,13.5,586.1,9.3,571.1,9.3L571.1,9.3z"/>
		</g>
	</g>
	<g>
		<g>
			<path d="M347.5,241.8c0.4,0,0.9,0.2,1.4,0.5l19.3,11.6c1.5,0.9,2.5,2.4,2.5,3.3v1.1c0,0.1,0,0.1,0,0.2c0,0-0.1,0-0.3,0
				c-0.4,0-0.9-0.2-1.4-0.5l-19.3-11.6c-1.5-0.9-2.5-2.4-2.5-3.3V242c0-0.1,0-0.1,0-0.2C347.2,241.8,347.3,241.8,347.5,241.8
				 M347.5,240.8c-0.7,0-1.3,0.4-1.3,1.2v1.2c-0.1,1.3,1.3,3.2,3,4.1l19.3,11.6c0.7,0.4,1.4,0.6,1.9,0.6c0.7,0,1.2-0.4,1.3-1.2v-1.2
				c0.1-1.3-1.3-3.1-3-4.1l-19.3-11.6C348.7,241,348,240.8,347.5,240.8L347.5,240.8z"/>
		</g>
	</g>
	<g>
		<g>
			<path d="M348.5,241c0.2,0,0.4,0.1,0.4,0.1l0,0l0,0l0,0c0.2,0.1,17.4,10,20.4,11.8c1.7,1,2.5,2.4,2.5,4.4c0,0.8-0.2,0.9-0.6,1
				c-0.1,0-0.5,0.1-0.9,0.1c-0.1,0-0.1,0-0.2,0H370l0,0l0,0c-0.4,0-0.8-0.2-1.3-0.5l-19.3-11.6c-1.5-0.9-2.5-2.4-2.5-3.3v-1.1
				c0-0.1,0-0.1,0-0.1l0,0l0,0C347.5,241.3,348,241,348.5,241 M348.5,240c-0.5,0-1.3,0.2-2.1,0.9l-0.1,0.1l0,0
				c-0.2,0.2-0.2,0.4-0.3,0.7v1.2c-0.1,1.3,1.3,3.1,3,4.1l19.3,11.6c0.6,0.4,1.2,0.6,1.7,0.6l0,0c0.1,0,0.3,0,0.4,0
				c0.5,0,0.9-0.1,1.1-0.1c1.3-0.3,1.3-1.4,1.3-2s0.1-3.5-3-5.2c-3-1.8-20.4-11.8-20.4-11.8S349,240,348.5,240L348.5,240z"/>
		</g>
	</g>
	<g>
		<path d="M348.7,247.3"/>
	</g>
	<g>
		<path d="M372.7,263.6c-0.7,0-1.6-0.3-2.5-0.8l-19.7-11.6c-2.1-1.3-3.8-3.7-3.8-5.4h1c0,1.2,1.4,3.4,3.4,4.6l19.7,11.6
			c1.2,0.7,2.1,0.8,2.5,0.5c0.1,0,0.3-0.2,0.3-0.7v-5.2c0-1.3-1.5-3.4-3.4-4.5l-19.7-11.2c-1.3-0.8-2.3-0.9-2.7-0.5
			c-0.1,0.2-0.3,0.3-0.6,0.3v-1c-0.2,0-0.3,0.1-0.3,0.2c0-0.1,0.1-0.1,0.2-0.2c0.8-0.8,2.3-0.7,3.9,0.3l19.7,11.2
			c2.2,1.3,3.9,3.6,3.9,5.3v5.2c0,0.7-0.3,1.3-0.8,1.6C373.4,263.5,373.1,263.6,372.7,263.6z"/>
	</g>
	<g>
		<g>
			<path d="M406.1,276.1L406.1,276.1c0.9,0,2,0.3,2.9,0.9l37.2,21.6c2.4,1.4,4.2,4.4,4,6.5c-0.1,1.1-0.8,1.7-1.8,1.7
				c-0.7,0-1.4-0.2-2.2-0.7L408.1,284c-2.4-1.4-4.2-4.4-4-6.5C404.3,276.3,405.3,276.1,406.1,276.1 M406.1,275.1
				c-1.5,0-2.8,0.7-3,2.2c-0.3,2.5,1.7,5.9,4.4,7.5l38.1,22.1c1,0.6,1.9,0.8,2.7,0.8c1.5,0,2.6-0.9,2.8-2.5c0.3-2.5-1.7-5.9-4.4-7.5
				l-37.2-21.6C408.4,275.4,407.2,275.1,406.1,275.1L406.1,275.1z"/>
		</g>
	</g>
	<g>
		<g>
			<path d="M406.8,274.9L406.8,274.9c0.9,0,1.9,0.3,2.8,0.8l38.5,22.4c2.5,1.4,4.2,4.8,3.8,7.3c-0.3,1.6-1.7,1.8-2.5,1.8
				c-0.9,0-2-0.3-2.9-0.8L408,284.1c-2.5-1.4-4.2-4.8-3.8-7.3C404.5,275.1,406.1,274.9,406.8,274.9 M406.8,273.9
				c-1.8,0-3.3,0.9-3.6,2.7c-0.5,2.9,1.5,6.6,4.3,8.3l38.5,22.3c1.1,0.6,2.3,1,3.4,1c1.7,0,3.2-0.8,3.5-2.6c0.5-2.9-1.5-6.6-4.3-8.3
				l-38.5-22.5C409,274.2,407.9,273.9,406.8,273.9L406.8,273.9z"/>
		</g>
	</g>
	<g>
		<path d="M450.7,308.8c-0.7,0-1.4-0.1-2.1-0.3l0.2-1c1.7,0.4,3.5,0.3,4.7-0.5c0.8-0.5,1.3-1.2,1.5-2.1c0.8-3.3-0.8-7.4-3.6-9.1
			l-39.8-22.9c-1.8-1-4.5-0.2-7.1,2.2l-0.7-0.7c2.9-2.7,6.1-3.6,8.3-2.4l39.8,22.9c3.2,1.9,5,6.4,4,10.2c-0.3,1.2-1,2.1-2,2.7
			C453.1,308.5,451.9,308.8,450.7,308.8z"/>
	</g>
	<g>
		<g>
			<path d="M467,311.3L467,311.3c0.9,0,2,0.3,2.9,0.9l37.2,21.6c2.4,1.4,4.2,4.4,4,6.5c-0.1,1.1-0.8,1.7-1.8,1.7
				c-0.7,0-1.4-0.2-2.2-0.7L469,319.2c-2.4-1.4-4.2-4.4-4-6.5C465.2,311.5,466.2,311.3,467,311.3 M467,310.3c-1.5,0-2.8,0.7-3,2.2
				c-0.3,2.5,1.7,5.9,4.4,7.5l38.1,22.1c1,0.6,1.9,0.8,2.7,0.8c1.5,0,2.6-0.9,2.8-2.5c0.3-2.5-1.7-5.9-4.4-7.5l-37.2-21.6
				C469.3,310.7,468.1,310.3,467,310.3L467,310.3z"/>
		</g>
	</g>
	<g>
		<path d="M510.4,344.2c-1.1,0-2.3-0.3-3.4-1l0.5-0.9c1.5,0.9,3.2,1.1,4.5,0.5c0.6-0.3,1.4-0.9,1.6-2.1c0.5-2.7-1.4-6.2-4.1-7.8
			L471,310.6c-1.4-0.8-3-1.1-4.2-0.7c-0.8,0.2-1.3,0.7-1.6,1.4l-0.2,0.4l-0.8-0.6l0.2-0.3c0.4-0.9,1.2-1.5,2.2-1.9
			c1.5-0.5,3.4-0.2,5,0.8l38.5,22.4c3.1,1.8,5.1,5.7,4.5,8.8c-0.2,1.3-1,2.3-2.2,2.8C511.8,344,511.1,344.2,510.4,344.2z"/>
	</g>
	<g>
		<path d="M510.9,344.2c-1.3,0-2.6-0.3-3.7-1l0.5-0.9c1.6,1,3.8,1.1,5.4,0.5c0.8-0.3,1.8-1.1,2.1-2.5c0.9-3.5-2.3-8.9-6.4-11.2
			l-36.4-20.9c-1.7-1-4.2-0.1-6.4,2.2l-0.7-0.7c2.5-2.7,5.5-3.6,7.6-2.4l36.4,20.9c4.6,2.5,7.9,8.3,6.9,12.3
			c-0.3,1.5-1.3,2.6-2.7,3.2C512.6,344,511.8,344.2,510.9,344.2z"/>
	</g>
	<g>
		<path d="M512.5,344.8c-1,0-2.2-0.4-3.5-1.1l0.5-0.9c1.7,1,3.1,1.3,4.1,0.7c1.3-0.7,1.8-2.5,1.9-3.9c0.4-3.7-2.6-8.6-6.6-10.9
			l-98.2-56.3c-2.2-1.3-4.5-1.6-6-0.9c-1,0.5-1.7,1.5-1.8,2.9c-0.4,4.1,1.8,8.1,5.6,10.3l-0.5,0.9c-4.1-2.4-6.5-6.8-6-11.3
			c0.2-1.7,1-3,2.3-3.7c1.8-0.9,4.3-0.6,6.9,0.9l98.2,56.3c4.4,2.6,7.5,7.8,7,11.9c-0.2,2.4-1.1,4-2.5,4.6
			C513.6,344.7,513.1,344.8,512.5,344.8z"/>
	</g>
	<g>
		<path d="M512.5,344.9c-1,0-2.2-0.4-3.5-1.1l0.5-0.9c1.7,1,3.1,1.3,4.1,0.7c1.3-0.7,1.8-2.5,1.9-3.9c0.4-3.7-2.6-8.6-6.6-10.9
			l-98.2-56.3c-2.2-1.3-4.5-1.6-6-0.9c-1,0.5-1.7,1.5-1.8,2.9c-0.1,1.7,0.2,3.3,0.8,4.8l-0.9,0.4c-0.7-1.6-1-3.4-0.8-5.2
			c0.2-1.7,1-3,2.3-3.7c1.8-0.9,4.3-0.6,6.9,0.9l98.2,56.3c4.4,2.6,7.5,7.8,7,11.9c-0.2,2.4-1.1,4-2.5,4.6
			C513.6,344.8,513.1,344.9,512.5,344.9z M466.6,319.4l-19.1-11l0.5-0.9l19.1,11L466.6,319.4z"/>
	</g>
	<g>
		<g>
			<path d="M1055.8,498.6L1055.8,498.6L1055.8,498.6L1055.8,498.6L1055.8,498.6 M1056.3,496.6c-0.2,0-0.4,0.1-0.5,0.3l-0.4,0.8
				l-0.7,0.3c-0.1,0.1-0.3,0.2-0.3,0.4c-0.1,0.2-0.1,0.3,0,0.4l0.4,0.4l-0.3,0.7c0,0.1-0.1,0.1-0.1,0.2c0,0.2,0.1,0.4,0.3,0.4
				c0,0,0,0,0.1,0l0,0c0.1,0,0.1-0.1,0.2-0.1l0.7-0.7l0.6,0.3c0,0,0,0,0.1,0s0.2-0.1,0.3-0.2c0.1-0.1,0.2-0.3,0.2-0.5v-0.9l0.6-0.7
				c0.1-0.1,0.2-0.3,0.2-0.5c0-0.1-0.1-0.2-0.2-0.2l0,0l-0.6,0.1l-0.2-0.6C1056.4,496.6,1056.4,496.6,1056.3,496.6L1056.3,496.6z"/>
		</g>
	</g>
	<g>
		<g>
			<path d="M1057.2,494.7L1057.2,494.7c0.7,0,1,0.4,1.1,1.2c0.2,1.8-1.2,4.3-3,5.5c-0.6,0.4-1.1,0.6-1.6,0.6c-0.7,0-1-0.4-1.1-1.2
				c-0.2-1.8,1.2-4.3,3-5.5C1056.2,494.9,1056.7,494.7,1057.2,494.7 M1057.2,493.7c-0.6,0-1.4,0.2-2.1,0.7c-2.1,1.4-3.7,4.3-3.4,6.5
				c0.1,1.4,1,2.1,2.1,2.1c0.6,0,1.4-0.2,2.1-0.7c2.1-1.4,3.7-4.3,3.4-6.5C1059.2,494.5,1058.3,493.7,1057.2,493.7L1057.2,493.7z"/>
		</g>
	</g>
	<g>
		<g>
			<path d="M1057.2,494.7L1057.2,494.7c0.7,0,1,0.4,1.1,1.2c0.2,1.8-1.2,4.3-3,5.5c-0.6,0.4-1.1,0.6-1.6,0.6c-0.7,0-1-0.4-1.1-1.2
				c-0.2-1.8,1.2-4.3,3-5.5C1056.2,494.9,1056.7,494.7,1057.2,494.7 M1057.2,493.7c-0.6,0-1.4,0.2-2.1,0.7c-2.1,1.4-3.7,4.3-3.4,6.5
				c0.1,1.4,1,2.1,2.1,2.1c0.6,0,1.4-0.2,2.1-0.7c2.1-1.4,3.7-4.3,3.4-6.5C1059.2,494.5,1058.3,493.7,1057.2,493.7L1057.2,493.7z"/>
		</g>
	</g>
	<g>
		<g>
			<path d="M1097.7,466L1097.7,466c0.9,0,1.2,0.9,1.2,1.6c0,1.8-1.5,4.1-3.5,5.4l-25.6,17.2c-0.8,0.5-1.3,0.6-1.5,0.6
				c-0.2,0-0.5,0-0.5-1.1c0-1.7,2.3-6,4.3-7.2l24.4-16.1C1096.9,466.2,1097.3,466,1097.7,466 M1097.7,465c-0.5,0-1.1,0.2-1.7,0.6
				l-24.5,16.1c-2.2,1.4-4.7,5.9-4.7,8.1c0,1.4,0.6,2.1,1.5,2.1c0.6,0,1.3-0.2,2.1-0.8l25.6-17.2c2.2-1.4,3.9-4,3.9-6.2
				C1099.8,466.1,1099,465,1097.7,465L1097.7,465z"/>
		</g>
	</g>
	<g>
		<g>
			<path d="M1099.6,465L1099.6,465c0.8,0,1.9,0.2,1.9,2.4v0.4c0,3-1.8,5.5-3.6,6.6l-28.2,18.6c-0.8,0.5-1.3,0.6-1.5,0.6
				c-0.2,0-0.5,0-0.5-1.1v-3c0-1.7,2.3-6,4.3-7.2l25.1-16.5C1097.9,465.3,1098.9,465,1099.6,465 M1099.6,464c-1.1,0-2.2,0.4-3.1,1
				l-25.2,16.5c-2.2,1.4-4.7,5.9-4.7,8.1v3c0,1.4,0.6,2.1,1.5,2.1c0.6,0,1.3-0.2,2.1-0.8l28.2-18.6c2.2-1.4,4-4.2,4-7.5v-0.4
				C1102.5,464.8,1101.2,464,1099.6,464L1099.6,464z"/>
		</g>
	</g>
	<g>
		<g>
			<path d="M1099.9,462.9c2.1,0,3.7,1.8,3.7,4.1c0,3.6-2.4,7.4-6.3,10l-26.6,17.2c-1.4,0.9-2.7,1.5-3.5,1.5c-0.4,0-1.5,0-1.5-2.6
				c0-5.6,2-10,5.6-12.4l26-16.9C1098.1,463.2,1099,462.9,1099.9,462.9 M1099.9,461.9c-1,0-2.1,0.3-3.2,1.1l-26,16.9
				c-3.9,2.6-6,7.4-6,13.3c0,2.4,0.9,3.6,2.5,3.6c1.1,0,2.5-0.6,4.1-1.6l26.6-17.2c3.9-2.6,6.7-6.7,6.7-10.9
				C1104.6,464,1102.5,461.9,1099.9,461.9L1099.9,461.9z"/>
		</g>
	</g>
	<g>
		<g>
			<path d="M1114,460.8L1114,460.8L1114,460.8L1114,460.8L1114,460.8 M1114.5,458.7c-0.2,0-0.4,0.1-0.5,0.3l-0.4,0.8l-0.7,0.3
				c-0.1,0.1-0.3,0.2-0.3,0.4c-0.1,0.2-0.1,0.3,0,0.4l0.4,0.4l-0.3,0.7c0,0.1-0.1,0.1-0.1,0.2c0,0.2,0.1,0.4,0.3,0.4c0,0,0,0,0.1,0
				l0,0c0.1,0,0.1-0.1,0.2-0.1l0.7-0.7l0.6,0.3c0,0,0,0,0.1,0s0.2-0.1,0.3-0.2c0.1-0.1,0.2-0.3,0.2-0.5v-0.9l0.6-0.7
				c0.1-0.1,0.2-0.3,0.2-0.5c0-0.1-0.1-0.2-0.2-0.2l0,0l-0.6,0.1l-0.2-0.6C1114.7,458.8,1114.6,458.7,1114.5,458.7L1114.5,458.7z"/>
		</g>
	</g>
	<g>
		<g>
			<path d="M1115.5,456.9L1115.5,456.9c0.7,0,1,0.4,1.1,1.2c0.2,1.8-1.2,4.3-3,5.5c-0.6,0.4-1.1,0.6-1.6,0.6c-0.7,0-1-0.4-1.1-1.2
				c-0.2-1.8,1.2-4.3,3-5.5C1114.4,457.1,1115,456.9,1115.5,456.9 M1115.5,455.9c-0.6,0-1.4,0.2-2.1,0.7c-2.1,1.4-3.7,4.3-3.4,6.5
				c0.1,1.4,1,2.1,2.1,2.1c0.6,0,1.4-0.2,2.1-0.7c2.1-1.4,3.7-4.3,3.4-6.5C1117.4,456.7,1116.6,455.9,1115.5,455.9L1115.5,455.9z"/>
		</g>
	</g>
	<g>
		<g>
			<path d="M1115.5,456.9L1115.5,456.9c0.7,0,1,0.4,1.1,1.2c0.2,1.8-1.2,4.3-3,5.5c-0.6,0.4-1.1,0.6-1.6,0.6c-0.7,0-1-0.4-1.1-1.2
				c-0.2-1.8,1.2-4.3,3-5.5C1114.4,457.1,1115,456.9,1115.5,456.9 M1115.5,455.9c-0.6,0-1.4,0.2-2.1,0.7c-2.1,1.4-3.7,4.3-3.4,6.5
				c0.1,1.4,1,2.1,2.1,2.1c0.6,0,1.4-0.2,2.1-0.7c2.1-1.4,3.7-4.3,3.4-6.5C1117.4,456.7,1116.6,455.9,1115.5,455.9L1115.5,455.9z"/>
		</g>
	</g>
	<g>
		<g>
			<path d="M1190.7,405.6c-0.1,0.1-0.2,0.2-0.4,0.2c-1.4,1.1-2.4,3.1-2.7,5c0.3-0.1,0.6-0.3,0.9-0.5
				C1189.9,409.3,1190.7,407.3,1190.7,405.6L1190.7,405.6z"/>
		</g>
	</g>
	<g>
		<g>
			<path d="M1192,405.2c0.6,0.3,1.1,1,1.2,1.9c0.4,2.1-0.8,5-2.5,6.4c-0.6,0.5-1.3,0.7-1.8,0.7s-0.9-0.2-1.3-0.5c0.4,0.7,1,1,1.7,1
				c0.6,0,1.3-0.2,2-0.8c1.9-1.4,3.1-4.4,2.7-6.6C1193.9,406,1193.1,405.2,1192,405.2L1192,405.2z"/>
		</g>
	</g>
	<g>
		<g>
			<path d="M1192,406.1L1192,406.1c0.8,0,1.1,0.9,1.1,1.4c0.3,1.9-0.8,4.5-2.3,5.7c-0.5,0.4-0.9,0.6-1.3,0.6c-0.4,0-0.7-0.2-0.9-0.5
				c-0.1-0.2-0.2-0.5-0.3-0.8c-0.3-1.9,0.8-4.5,2.3-5.7C1191.1,406.3,1191.6,406.1,1192,406.1 M1192,405.1c-0.6,0-1.3,0.2-1.9,0.8
				c-1.9,1.4-3.1,4.4-2.7,6.6c0.1,0.5,0.2,0.8,0.4,1.2c0.4,0.7,1,1,1.7,1c0.6,0,1.3-0.2,1.9-0.8c1.9-1.4,3.1-4.4,2.7-6.6
				C1193.9,406,1193.1,405.2,1192,405.1L1192,405.1L1192,405.1z"/>
		</g>
	</g>
	<g>
		<g>
			<path d="M1180.7,413c-0.1,0.1-0.3,0.2-0.4,0.2c-1.6,1.1-2.8,3.1-3.1,5c0.3-0.1,0.7-0.3,1-0.5
				C1179.7,416.7,1180.7,414.7,1180.7,413L1180.7,413z"/>
		</g>
	</g>
	<g>
		<g>
			<path d="M1182.3,412.5c0.6,0.3,1.1,1,1.3,1.9c0.4,2.1-0.8,5-2.7,6.4c-0.7,0.5-1.3,0.7-1.9,0.7c-0.5,0-1-0.2-1.3-0.5
				c0.4,0.7,1.1,1,1.9,1c0.6,0,1.4-0.2,2.1-0.8c2-1.4,3.3-4.4,2.9-6.6C1184.3,413.4,1183.4,412.6,1182.3,412.5L1182.3,412.5z"/>
		</g>
	</g>
	<g>
		<g>
			<path d="M1182.3,413.5L1182.3,413.5c0.9,0,1.2,0.9,1.3,1.4c0.3,1.8-0.8,4.4-2.5,5.6c-0.5,0.4-1,0.6-1.5,0.6c-0.4,0-0.8-0.2-1-0.6
				c-0.1-0.2-0.2-0.5-0.3-0.8c-0.3-1.8,0.8-4.4,2.5-5.6C1181.3,413.7,1181.8,413.5,1182.3,413.5 M1182.3,412.5
				c-0.6,0-1.4,0.2-2.1,0.8c-2,1.4-3.3,4.4-2.9,6.6c0.1,0.5,0.2,0.8,0.4,1.2c0.4,0.7,1.1,1,1.8,1c0.6,0,1.3-0.2,2.1-0.8
				c2-1.4,3.3-4.4,2.9-6.6C1184.3,413.3,1183.4,412.6,1182.3,412.5L1182.3,412.5L1182.3,412.5z"/>
		</g>
	</g>
	<g>
		<g>
			<path d="M1170.7,419.5c-0.1,0.1-0.3,0.2-0.4,0.2c-1.7,1.1-3,3.1-3.5,5c0.3-0.1,0.7-0.3,1.1-0.5
				C1169.4,423.2,1170.6,421.2,1170.7,419.5L1170.7,419.5z"/>
		</g>
	</g>
	<g>
		<g>
			<path d="M1172.5,418.6c0.6,0.3,1.1,1,1.2,1.9c0.2,2.1-1.2,5-3.2,6.4c-0.7,0.5-1.4,0.7-2,0.7c-0.5,0-1-0.2-1.3-0.5
				c0.4,0.7,1,1,1.8,1c0.6,0,1.4-0.2,2.1-0.8c2.1-1.4,3.7-4.4,3.4-6.6C1174.4,419.4,1173.6,418.7,1172.5,418.6L1172.5,418.6z"/>
		</g>
	</g>
	<g>
		<g>
			<path d="M1172.4,419.6L1172.4,419.6c0.7,0,1.1,0.5,1.1,1.3c0.2,1.9-1.2,4.5-3,5.7c-0.6,0.4-1.1,0.6-1.6,0.6
				c-0.4,0-0.7-0.2-0.9-0.5c-0.1-0.2-0.2-0.5-0.2-0.8c-0.2-1.9,1.2-4.5,3-5.7C1171.4,419.8,1172,419.6,1172.4,419.6 M1172.4,418.6
				c-0.6,0-1.4,0.2-2.2,0.8c-2.1,1.4-3.7,4.4-3.5,6.6c0,0.5,0.2,0.8,0.3,1.2c0.4,0.7,1,1,1.8,1c0.6,0,1.4-0.2,2.2-0.8
				c2.1-1.4,3.7-4.4,3.5-6.6C1174.4,419.4,1173.6,418.7,1172.4,418.6C1172.5,418.6,1172.5,418.6,1172.4,418.6L1172.4,418.6z"/>
		</g>
	</g>
	<g>
		<g>
			<path d="M1160.3,426.5c-0.1,0.1-0.3,0.2-0.4,0.2c-1.7,1.1-3,3.1-3.5,5c0.3-0.1,0.7-0.3,1.1-0.5
				C1159,430.1,1160.2,428.1,1160.3,426.5L1160.3,426.5z"/>
		</g>
	</g>
	<g>
		<g>
			<path d="M1162.1,425.6c0.6,0.3,1.1,1,1.2,1.9c0.2,2.1-1.2,5-3.2,6.4c-0.7,0.5-1.4,0.7-2,0.7c-0.5,0-1-0.2-1.3-0.5
				c0.4,0.7,1,1,1.8,1c0.6,0,1.4-0.2,2.1-0.8c2.1-1.4,3.7-4.4,3.4-6.6C1164,426.4,1163.2,425.6,1162.1,425.6L1162.1,425.6z"/>
		</g>
	</g>
	<g>
		<g>
			<path d="M1162,426.6L1162,426.6c0.7,0,1.1,0.5,1.1,1.3c0.2,1.9-1.2,4.5-3,5.7c-0.6,0.4-1.1,0.6-1.6,0.6c-0.4,0-0.7-0.2-0.9-0.5
				c-0.1-0.2-0.2-0.5-0.2-0.8c-0.2-1.9,1.2-4.5,3-5.7C1161,426.8,1161.5,426.6,1162,426.6 M1162,425.6c-0.6,0-1.4,0.2-2.2,0.8
				c-2.1,1.4-3.7,4.4-3.5,6.6c0,0.5,0.2,0.8,0.3,1.2c0.4,0.7,1,1,1.8,1c0.6,0,1.4-0.2,2.2-0.8c2.1-1.4,3.7-4.4,3.5-6.6
				C1164,426.4,1163.2,425.6,1162,425.6C1162.1,425.6,1162,425.6,1162,425.6L1162,425.6z"/>
		</g>
	</g>
	<g>
		<g>
			<path d="M1150.3,433c-0.1,0.1-0.3,0.2-0.4,0.2c-1.7,1.1-3,3.1-3.5,5c0.3-0.1,0.7-0.3,1.1-0.5C1149,436.7,1150.2,434.7,1150.3,433
				L1150.3,433z"/>
		</g>
	</g>
	<g>
		<g>
			<path d="M1152.1,432.1c0.6,0.3,1.1,1,1.2,1.9c0.2,2.1-1.2,5-3.2,6.4c-0.7,0.5-1.4,0.7-2,0.7c-0.5,0-1-0.2-1.3-0.5
				c0.4,0.7,1,1,1.8,1c0.6,0,1.4-0.2,2.1-0.8c2.1-1.4,3.7-4.4,3.4-6.6C1154,432.9,1153.2,432.2,1152.1,432.1L1152.1,432.1z"/>
		</g>
	</g>
	<g>
		<g>
			<path d="M1152,433.1L1152,433.1c0.7,0,1.1,0.5,1.1,1.3c0.2,1.9-1.2,4.5-3,5.7c-0.6,0.4-1.1,0.6-1.6,0.6c-0.4,0-0.7-0.2-0.9-0.5
				c-0.1-0.2-0.2-0.5-0.2-0.8c-0.2-1.9,1.2-4.5,3-5.7C1151,433.3,1151.5,433.1,1152,433.1 M1152,432.1c-0.6,0-1.4,0.2-2.2,0.8
				c-2.1,1.4-3.7,4.4-3.5,6.6c0,0.5,0.2,0.8,0.3,1.2c0.4,0.7,1,1,1.8,1c0.6,0,1.4-0.2,2.2-0.8c2.1-1.4,3.7-4.4,3.5-6.6
				C1154,432.9,1153.2,432.2,1152,432.1C1152.1,432.1,1152,432.1,1152,432.1L1152,432.1z"/>
		</g>
	</g>
	<g>
		<g>
			<path d="M1139.8,439.5c-0.1,0.1-0.3,0.2-0.4,0.2c-1.7,1.1-3,3.1-3.5,5c0.3-0.1,0.7-0.3,1.1-0.5
				C1138.6,443.2,1139.7,441.2,1139.8,439.5L1139.8,439.5z"/>
		</g>
	</g>
	<g>
		<g>
			<path d="M1141.7,438.6c0.6,0.3,1.1,1,1.2,1.9c0.2,2.1-1.2,5-3.2,6.4c-0.7,0.5-1.4,0.7-2,0.7c-0.5,0-1-0.2-1.3-0.5
				c0.4,0.7,1,1,1.8,1c0.6,0,1.4-0.2,2.1-0.8c2.1-1.4,3.7-4.4,3.4-6.6C1143.6,439.4,1142.8,438.7,1141.7,438.6L1141.7,438.6z"/>
		</g>
	</g>
	<g>
		<g>
			<path d="M1141.6,439.6L1141.6,439.6c0.7,0,1.1,0.5,1.1,1.3c0.2,1.9-1.2,4.5-3,5.7c-0.6,0.4-1.1,0.6-1.6,0.6
				c-0.4,0-0.7-0.2-0.9-0.5c-0.1-0.2-0.2-0.5-0.2-0.8c-0.2-1.9,1.2-4.5,3-5.7C1140.5,439.8,1141.1,439.6,1141.6,439.6 M1141.6,438.6
				c-0.6,0-1.4,0.2-2.2,0.8c-2.1,1.4-3.7,4.4-3.5,6.6c0,0.5,0.2,0.8,0.3,1.2c0.4,0.7,1,1,1.8,1c0.6,0,1.4-0.2,2.2-0.8
				c2.1-1.4,3.7-4.4,3.5-6.6C1143.6,439.4,1142.8,438.7,1141.6,438.6L1141.6,438.6L1141.6,438.6z"/>
		</g>
	</g>
	<g>
		<path d="M1141.3,370.9c-1.3,0-2.7-0.3-3.8-0.8c-1.3-0.7-2-1.6-2-2.7c0-1,0.5-2,1.7-2.7c2.2-1.4,5.7-1.5,7.9-0.2
			c1.2,0.7,1.9,1.6,2,2.7c0,1-0.5,2-1.7,2.7l0,0C1144.3,370.5,1142.8,370.9,1141.3,370.9z M1141.4,364.6c-1.3,0-2.6,0.3-3.6,1
			c-0.8,0.5-1.2,1.2-1.2,1.8c0,0.7,0.5,1.3,1.5,1.8c2,1,5.1,0.9,6.9-0.2c0.8-0.5,1.2-1.2,1.2-1.8c0-0.7-0.5-1.3-1.5-1.8
			C1143.7,364.9,1142.6,364.6,1141.4,364.6z"/>
	</g>
	<g>
		<path d="M1145.8,379l-1.3-0.6c-2-1.2-2.4-2.6-2.5-3.5c0-1.8,1.3-3.7,3.8-5.4l0,0c4.5-2.9,10-3.4,13.4-1.4l1.7,0.9L1145.8,379z
			 M1146.5,370.4c-2.2,1.5-3.4,3.1-3.4,4.5c0,1.3,1.1,2.1,2,2.7l0.7,0.4l13.3-8.8l-0.2-0.1C1155.7,367.1,1150.6,367.7,1146.5,370.4z
			"/>
	</g>
	<g>
		<g>
			<g>
				<path d="M446.1,142.5c-0.1,0-0.3,0-0.4,0c-0.9,0.1-1.9,0.5-3,1.2l-2.4,1.5l9.1,5.2l1-0.7l-3.8-2.2l1.8-1.2l5.9,0.8l1.2-0.8
					l-6.5-0.8c0.7-1,0.5-1.8-0.7-2.5C447.7,142.7,446.9,142.5,446.1,142.5L446.1,142.5z M445.7,147.1l-3.5-2l1.3-0.8
					c0.7-0.5,1.4-0.8,2-0.8c0.1,0,0.2,0,0.3,0c0.5,0,1,0.1,1.5,0.4c0.6,0.3,0.9,0.7,0.8,1.1c0,0.4-0.4,0.8-1.1,1.3L445.7,147.1
					L445.7,147.1z"/>
			</g>
		</g>
		<g>
			<g>
				<path d="M448.5,139.8L448.5,139.8c-0.3,0-0.5,0.1-0.6,0.2c-0.2,0.1-0.2,0.2-0.2,0.4c0,0.1,0.1,0.3,0.4,0.4
					c0.2,0.1,0.4,0.2,0.7,0.2l0,0c0.2,0,0.4-0.1,0.6-0.2c0.2-0.1,0.2-0.2,0.2-0.4c0-0.1-0.1-0.3-0.3-0.4
					C449,139.9,448.8,139.8,448.5,139.8L448.5,139.8z M451,141.1l-1,0.6l6.8,3.9l1-0.6L451,141.1L451,141.1z"/>
			</g>
		</g>
		<g>
			<g>
				<path d="M455.5,134.7l-1,0.6l2.8,1.6l0.5,0.3l0.5,0.3h-0.1c-0.1,0-0.3,0-0.4,0c-1,0-1.8,0.2-2.6,0.7c-0.8,0.5-1.2,1.2-1,1.8
					c0.1,0.7,0.8,1.3,1.9,2c1.1,0.6,2.2,1,3.3,1c0.1,0,0.2,0,0.2,0c1,0,1.9-0.3,2.7-0.8c0.9-0.6,1.2-1.2,1-1.9h0.1l1,0.4l0.8-0.5
					L455.5,134.7L455.5,134.7z M459.9,142.2c-0.1,0-0.2,0-0.3,0c-0.8-0.1-1.6-0.3-2.4-0.8c-0.9-0.5-1.4-1-1.5-1.4
					c-0.2-0.5,0-0.9,0.6-1.3s1.3-0.6,1.9-0.6c0.1,0,0.1,0,0.2,0c0.7,0,1.6,0.3,2.5,0.9l0.2,0.1c0.9,0.5,1.3,0.9,1.4,1.4
					c0.1,0.4-0.2,0.8-0.9,1.3C461.1,142,460.5,142.2,459.9,142.2L459.9,142.2z"/>
			</g>
		</g>
		<g>
			<g>
				<path d="M465.6,132.5c-1,0-1.9,0.3-2.7,0.8c-0.9,0.6-1.2,1.2-1.1,1.9c0.1,0.7,0.8,1.4,1.9,2c1.1,0.6,2.2,0.9,3.4,0.9l0,0
					c1.2,0,2.2-0.3,3.2-0.9c0.4-0.3,0.8-0.5,1-0.8c0.2-0.2,0.5-0.5,0.6-0.8l-0.9-0.5c-0.4,0.6-0.9,1.2-1.6,1.6s-1.4,0.6-2.2,0.6l0,0
					c-0.8,0-1.6-0.2-2.4-0.7l4.5-2.9l-0.7-0.4C467.7,132.8,466.7,132.5,465.6,132.5L465.6,132.5L465.6,132.5z M463.9,136.1
					c-0.6-0.4-0.9-0.8-0.9-1.2c0-0.4,0.2-0.8,0.7-1.1c0.5-0.3,1-0.5,1.6-0.5h0.1c0.6,0,1.3,0.2,1.9,0.6L463.9,136.1L463.9,136.1z"/>
			</g>
		</g>
		<g>
			<g>
				<path d="M473.4,124.3c-1.1,0.3-2,0.7-2.9,1.3c-0.8,0.5-1.3,1.1-1.4,1.6c-0.1,0.6,0.2,1,0.9,1.5c0.7,0.4,1.4,0.6,2.2,0.6h0.1
					c0.7,0,1.7-0.2,2.7-0.5c0.8-0.2,1.4-0.4,1.9-0.5c0.3-0.1,0.6-0.1,0.9-0.1c0.1,0,0.2,0,0.3,0c0.3,0,0.6,0.1,1,0.3
					c0.5,0.3,0.7,0.6,0.6,1s-0.4,0.8-1.1,1.2c-0.4,0.3-0.9,0.5-1.4,0.7s-1,0.4-1.5,0.5l1,0.6c0.8-0.2,1.8-0.6,2.8-1.3
					c1-0.6,1.5-1.2,1.6-1.8c0.1-0.6-0.2-1.2-1-1.6c-0.6-0.4-1.3-0.5-2-0.5l0,0c-0.7,0-1.7,0.2-3,0.6c-0.7,0.2-1.3,0.4-1.8,0.5
					c-0.3,0-0.5,0.1-0.7,0.1c-0.1,0-0.3,0-0.4,0c-0.3,0-0.6-0.2-0.9-0.3c-0.4-0.2-0.6-0.5-0.6-0.9c0.1-0.3,0.4-0.7,0.9-1
					c0.7-0.4,1.5-0.8,2.6-1.1L473.4,124.3L473.4,124.3z"/>
			</g>
		</g>
		<g>
			<g>
				<path d="M480.1,122.3l-1.9,1.2l-1.6-0.9L476,123l1,1.1l-0.5,0.8l0.5,0.3l0.9-0.6l4.1,2.3c0.7,0.4,1.4,0.6,2,0.6
					c0.7,0,1.3-0.2,2-0.6c0.2-0.1,0.3-0.2,0.5-0.4c0.2-0.2,0.3-0.3,0.3-0.4l-0.8-0.5c-0.1,0.1-0.2,0.2-0.3,0.3
					c-0.1,0.1-0.3,0.2-0.5,0.3c-0.3,0.2-0.7,0.3-1.1,0.3l0,0c-0.4,0-0.8-0.1-1.2-0.4l-4-2.3l1.9-1.2L480.1,122.3L480.1,122.3z"/>
			</g>
		</g>
		<g>
			<g>
				<path d="M486.2,119c-0.1,0-0.1,0-0.2,0c-0.7,0-1.5,0.3-2.3,0.8c-0.4,0.2-0.7,0.5-1,0.8c-0.3,0.3-0.5,0.6-0.6,0.9l1.1,0.3
					c0.3-0.6,0.8-1.1,1.3-1.5c0.5-0.3,0.9-0.5,1.4-0.5l0,0c0.5,0,1,0.2,1.5,0.5l0.4,0.2l-1.1,0.7c-2,1.4-2.4,2.5-1,3.3
					c0.6,0.3,1.2,0.5,1.9,0.5c0.1,0,0.1,0,0.2,0c0.7,0,1.4-0.3,2-0.7c0.5-0.3,0.8-0.6,1-0.9c0.2-0.3,0.2-0.7,0.1-1.1l0,0l1.2,0.4
					l0.7-0.5l-4.7-2.7C487.6,119.2,486.9,119,486.2,119L486.2,119z M488,124.2c-0.4,0-0.7-0.1-1-0.3c-0.5-0.3-0.7-0.6-0.5-0.9
					c0.1-0.4,0.6-0.8,1.3-1.3l0.9-0.7l0.6,0.4c0.6,0.4,1,0.8,1,1.2c0,0.4-0.3,0.8-0.9,1.2c-0.4,0.3-0.8,0.4-1.2,0.4
					C488.1,124.2,488,124.2,488,124.2L488,124.2z"/>
			</g>
		</g>
		<g>
			<g>
				<path d="M491.1,115.1l-1.9,1.2l-1.6-0.9l-0.6,0.4l1,1.1l-0.5,0.8l0.5,0.3l0.9-0.6l4.1,2.3c0.7,0.4,1.4,0.6,2,0.6
					c0.7,0,1.3-0.2,2-0.6c0.2-0.1,0.3-0.2,0.5-0.4c0.2-0.2,0.3-0.3,0.3-0.4l-0.8-0.5c-0.1,0.1-0.2,0.2-0.3,0.3
					c-0.1,0.1-0.3,0.2-0.5,0.3c-0.3,0.2-0.7,0.3-1.1,0.3l0,0c-0.4,0-0.8-0.1-1.2-0.4l-4-2.3l1.9-1.2L491.1,115.1L491.1,115.1z"/>
			</g>
		</g>
		<g>
			<g>
				<path d="M491.1,112.3C491.1,112.3,491,112.3,491.1,112.3c-0.3,0-0.5,0.1-0.6,0.2c-0.2,0.1-0.2,0.2-0.2,0.4s0.1,0.3,0.4,0.4
					c0.2,0.1,0.4,0.2,0.7,0.2l0,0c0.2,0,0.4-0.1,0.6-0.2c0.2-0.1,0.2-0.2,0.2-0.4c0-0.1-0.1-0.3-0.3-0.4
					C491.5,112.4,491.3,112.3,491.1,112.3L491.1,112.3z M493.5,113.6l-1,0.6l6.8,3.9l1-0.6L493.5,113.6L493.5,113.6z"/>
			</g>
		</g>
		<g>
			<g>
				<path d="M500,109.8c-1,0.3-1.8,0.6-2.5,1.1c-0.8,0.5-1.2,1-1.3,1.4s0.1,0.9,0.7,1.2c0.3,0.2,0.6,0.3,1,0.3c0.2,0,0.3,0,0.5,0
					c0.2,0,0.5,0,0.7-0.1c0.4-0.1,1.1-0.2,1.9-0.5c0.9-0.3,1.5-0.4,2-0.4c0.1,0,0.1,0,0.2,0c0.3,0,0.6,0.1,0.8,0.2
					c0.4,0.2,0.5,0.4,0.4,0.7s-0.4,0.6-0.9,0.9c-0.3,0.2-0.7,0.4-1.2,0.6s-0.9,0.3-1.4,0.4l1,0.6c0.8-0.1,1.6-0.5,2.4-1.1
					c0.8-0.5,1.3-1,1.4-1.5c0.1-0.5-0.2-0.9-0.8-1.3c-0.4-0.3-1-0.4-1.5-0.4l0,0c-0.6,0-1.4,0.2-2.5,0.5c-0.8,0.2-1.3,0.4-1.6,0.4
					c-0.2,0-0.5,0.1-0.7,0.1c-0.1,0-0.1,0-0.1,0c-0.2,0-0.4-0.1-0.6-0.2c-0.3-0.2-0.4-0.4-0.3-0.6c0.1-0.2,0.4-0.5,0.8-0.8
					c0.5-0.3,1.3-0.6,2.2-0.9L500,109.8L500,109.8z"/>
			</g>
		</g>
		<g>
			<g>
				<path d="M504.3,106.6l-1.9,1.2l-1.6-0.9l-0.6,0.4l1,1.1l-0.5,0.8l0.5,0.3l0.9-0.6l4.1,2.3c0.7,0.4,1.4,0.6,2,0.6
					c0.7,0,1.3-0.2,2-0.6c0.2-0.1,0.3-0.2,0.5-0.4c0.2-0.2,0.3-0.3,0.3-0.4l-0.8-0.5c-0.1,0.1-0.2,0.2-0.3,0.3
					c-0.1,0.1-0.3,0.2-0.5,0.3c-0.3,0.2-0.7,0.3-1.1,0.3l0,0c-0.4,0-0.8-0.1-1.2-0.4l-4-2.3l1.9-1.2L504.3,106.6L504.3,106.6z"/>
			</g>
		</g>
		<g>
			<g>
				<path d="M504.2,103.8L504.2,103.8c-0.3,0-0.5,0.1-0.6,0.2c-0.2,0.1-0.2,0.2-0.2,0.4c0,0.1,0.1,0.3,0.4,0.4
					c0.2,0.1,0.4,0.2,0.7,0.2l0,0c0.2,0,0.4-0.1,0.6-0.2s0.2-0.2,0.2-0.4c0-0.1-0.1-0.3-0.3-0.4
					C504.7,103.9,504.4,103.8,504.2,103.8L504.2,103.8z M506.6,105.1l-1,0.6l6.8,3.9l1-0.6L506.6,105.1L506.6,105.1z"/>
			</g>
		</g>
		<g>
			<g>
				<path d="M513.3,101.1c-0.3,0.1-0.6,0.2-1,0.3c-0.4,0.2-0.7,0.3-1,0.5c-1,0.6-1.4,1.3-1.3,2c0.1,0.7,0.7,1.4,1.9,2
					c1.1,0.6,2.2,1,3.4,1h0.1c1.1,0,2.1-0.3,3-0.9c0.7-0.4,1.1-0.8,1.3-1.3l-0.9-0.5c-0.3,0.5-0.8,0.9-1.3,1.3
					c-0.6,0.4-1.2,0.5-1.9,0.5c-0.1,0-0.2,0-0.2,0c-0.8,0-1.6-0.3-2.4-0.8c-1.8-1-2-1.9-0.7-2.8c0.2-0.1,0.5-0.3,0.8-0.4
					c0.3-0.1,0.6-0.2,0.9-0.3L513.3,101.1L513.3,101.1z"/>
			</g>
		</g>
		<g>
			<g>
				<path d="M518.9,97.6c-1,0.3-1.8,0.6-2.5,1.1c-0.8,0.5-1.2,1-1.3,1.4c-0.1,0.4,0.1,0.9,0.7,1.2c0.3,0.2,0.6,0.3,1,0.3
					c0.2,0,0.3,0,0.5,0s0.5,0,0.7-0.1c0.4-0.1,1.1-0.2,1.9-0.5c0.9-0.3,1.5-0.4,2-0.4c0.1,0,0.1,0,0.2,0c0.3,0,0.6,0.1,0.8,0.2
					c0.4,0.2,0.5,0.4,0.4,0.7c-0.1,0.3-0.4,0.6-0.9,0.9c-0.3,0.2-0.7,0.4-1.2,0.6s-0.9,0.3-1.4,0.4l1,0.6c0.8-0.1,1.6-0.5,2.4-1.1
					c0.8-0.5,1.3-1,1.4-1.5s-0.2-0.9-0.8-1.3c-0.4-0.3-1-0.4-1.5-0.4l0,0c-0.6,0-1.4,0.2-2.5,0.5c-0.8,0.2-1.3,0.4-1.6,0.4
					c-0.2,0-0.5,0.1-0.7,0.1c-0.1,0-0.1,0-0.1,0c-0.2,0-0.4-0.1-0.6-0.2c-0.3-0.2-0.4-0.4-0.3-0.6s0.4-0.5,0.8-0.8
					c0.5-0.3,1.3-0.6,2.2-0.9L518.9,97.6L518.9,97.6z"/>
			</g>
		</g>
	</g>
	<g>
		<path d="M984.1,364.4"/>
	</g>
	<g>
		<g>
			<polygon points="1066.3,418.2 1064.9,419.2 1074.9,424.9 1076.3,423.9 			"/>
		</g>
	</g>
	<g>
		<g>
			<polygon points="1063.8,413.2 1062.4,414.2 1077.7,422.9 1079.2,422 			"/>
		</g>
	</g>
	<g>
		<g>
			<polygon points="1070.5,413.5 1069.1,414.4 1080.6,421 1082,420.2 			"/>
		</g>
	</g>
	<g>
		<g>
			<polygon points="1078,414.4 1076.6,415.2 1083.5,419.2 1084.9,418.2 			"/>
		</g>
	</g>
	<g>
		<g>
			<polygon points="1079.3,411.5 1077.9,412.4 1086.3,417.4 1087.8,416.4 			"/>
		</g>
	</g>
	<g>
		<g>
			<path d="M595.7,46.7c-1.6,1-1.5,2.6,0.2,3.6c1.7,0.9,4.3,0.9,5.9-0.1c1.6-1,1.5-2.6-0.2-3.6C599.9,45.6,597.2,45.7,595.7,46.7z
				 M607.2,44.6l-2.1,1.4c0.4,0.3,0.6,0.7,0.8,1.1l2.8-0.1l0.1,2.4l-2.8,0.1c-0.2,0.4-0.4,0.8-0.7,1.1l2.2,1.3l-2.6,1.7l-2.2-1.3
				c-0.6,0.2-1.2,0.4-1.8,0.5l0.1,1.7l-4,0.1l-0.1-1.7c-0.6-0.1-1.2-0.2-1.8-0.4l-2.1,1.4l-2.7-1.6l2.1-1.4
				c-0.4-0.3-0.6-0.7-0.8-1.1l-2.8,0.1l-0.1-2.4l2.8-0.1c0.2-0.4,0.4-0.8,0.7-1.1L590,45l2.6-1.7l2.2,1.3c0.6-0.2,1.2-0.4,1.8-0.5
				l-0.1-1.7l4-0.1l0.1,1.7c0.6,0.1,1.2,0.2,1.8,0.4l2.1-1.4L607.2,44.6z"/>
		</g>
	</g>
	<g>
		<path d="M645.2,307.1"/>
	</g>
	<g>
		<g>
			<g>
				<path d="M613.1,317.9l-0.6,0.4l5.4,3.1c0.3,0.2,0.4,0.3,0.5,0.5c0,0.2-0.1,0.3-0.3,0.5c-0.2,0.1-0.4,0.2-0.6,0.3l0.5,0.3
					c0.2,0,0.4-0.1,0.6-0.3c0.4-0.3,0.6-0.6,0.6-0.9c0-0.3-0.3-0.6-0.8-0.8L613.1,317.9L613.1,317.9z"/>
			</g>
		</g>
		<g>
			<g>
				<path d="M618.3,314.5l-0.6,0.4l3.5,2c0.5,0.3,0.7,0.5,0.7,0.8s-0.2,0.6-0.6,0.9c-0.5,0.3-0.9,0.4-1.4,0.5c0,0,0,0-0.1,0
					c-0.5,0-0.9-0.1-1.3-0.4l-3.5-2l-0.6,0.4l3.5,2c0.6,0.3,1.2,0.5,1.9,0.5h0.1c0.7,0,1.3-0.2,2-0.6c0.6-0.4,0.9-0.8,0.9-1.3
					s-0.3-0.8-0.9-1.2L618.3,314.5L618.3,314.5z"/>
			</g>
		</g>
		<g>
			<g>
				<polygon points="620.3,313.2 619.7,313.6 625.1,316.6 628,314.9 627.4,314.5 625.2,316 				"/>
			</g>
		</g>
		<g>
			<g>
				<path d="M627.8,308.3l-0.6,0.4l1.2,3.7l0.5,0.3l2.5-1.6l1.2,0.7l0.6-0.4l-1.2-0.7l0.8-0.5l-0.6-0.3l-0.8,0.5L627.8,308.3
					L627.8,308.3z M628.9,312l-0.8-2.4c-0.1-0.2-0.1-0.3-0.3-0.5l0,0c0.4,0.3,0.8,0.5,1.2,0.7l1.8,1L628.9,312L628.9,312z"/>
			</g>
		</g>
	</g>
	<g>
		<g>
			<g>
				<path d="M550,276.6l-1,0.6l1.5,4.3l0.8,0.5l2.8-1.8l1.4,0.8l1-0.6l-1.4-0.8l0.8-0.5l-0.9-0.5l-0.8,0.5L550,276.6L550,276.6z
					 M551.4,281l-0.8-2.3c-0.1-0.3-0.2-0.5-0.3-0.6l0,0c0.3,0.2,0.8,0.5,1.4,0.8l1.6,0.9L551.4,281L551.4,281z"/>
			</g>
		</g>
		<g>
			<g>
				<path d="M558.1,278.2L558.1,278.2c-0.2,0-0.4,0.1-0.6,0.2c-0.2,0.1-0.3,0.3-0.3,0.4c0,0.1,0.1,0.3,0.3,0.4
					c0.2,0.1,0.4,0.2,0.7,0.2l0,0c0.2,0,0.4-0.1,0.6-0.2s0.3-0.3,0.3-0.4c0-0.1-0.1-0.3-0.3-0.4
					C558.5,278.2,558.3,278.2,558.1,278.2L558.1,278.2z"/>
			</g>
		</g>
		<g>
			<g>
				<path d="M557.8,272.3c-0.1,0-0.2,0-0.2,0c-0.7,0-1.3,0.3-1.8,0.6c-0.4,0.2-0.6,0.5-0.8,0.8c-0.2,0.3-0.3,0.6-0.3,1h1.2
					c0-0.3,0.1-0.6,0.3-0.8c0.1-0.2,0.3-0.4,0.5-0.5c0.3-0.2,0.6-0.3,0.9-0.3c0,0,0,0,0.1,0c0.3,0,0.6,0.1,0.9,0.2
					c0.2,0.1,0.4,0.3,0.5,0.4c0.1,0.1,0.2,0.3,0.3,0.6c0.1,0.3,0.1,0.6,0.1,1.2l0.1,2l0.8,0.5l4.2-2.7l-0.9-0.5l-2.9,1.9l0,0v-1.3
					c0-0.6,0-1-0.1-1.3c-0.1-0.3-0.2-0.5-0.4-0.8c-0.2-0.2-0.4-0.4-0.7-0.6C558.9,272.4,558.4,272.3,557.8,272.3L557.8,272.3z"/>
			</g>
		</g>
		<g>
			<g>
				<path d="M562.6,269.2c-0.7,0-1.4,0.2-1.9,0.5c-0.7,0.5-1,1-0.8,1.5s0.9,1.1,2,1.8c1.1,0.6,2.1,1,3,1.1c0.2,0,0.3,0,0.5,0
					c0.7,0,1.4-0.2,1.9-0.5c0.7-0.5,1-1,0.8-1.5s-0.9-1.1-2-1.8c-1.1-0.6-2.1-1-3-1.1C562.9,269.2,562.7,269.2,562.6,269.2
					L562.6,269.2z M565.5,273.3c-0.2,0-0.3,0-0.5,0c-0.6-0.1-1.3-0.4-2.2-0.9s-1.4-0.9-1.6-1.3c-0.2-0.3-0.1-0.6,0.3-0.9
					c0.3-0.2,0.6-0.3,0.9-0.3c0.2,0,0.3,0,0.5,0.1c0.6,0.1,1.3,0.4,2.2,0.9c0.9,0.5,1.4,0.9,1.6,1.3c0.2,0.3,0.1,0.6-0.3,0.9
					C566.2,273.2,565.9,273.3,565.5,273.3L565.5,273.3z"/>
			</g>
		</g>
	</g>
	<g>
		<g>
			<g>
				<path d="M570.7,233.6l-3.2,2.1l2.9,2l0.7-0.1c0.1-0.1,0.2-0.2,0.4-0.4c0.2-0.1,0.3-0.3,0.4-0.3c0.5-0.4,1.1-0.5,1.5-0.5
					c0.4,0,0.7,0.1,1,0.3c0.4,0.2,0.6,0.5,0.6,0.8s-0.3,0.6-0.7,0.8c-0.3,0.2-0.6,0.3-0.9,0.5s-0.7,0.3-1.1,0.3l0.9,0.5
					c0.6-0.1,1.3-0.4,2-0.8c0.8-0.5,1.1-1,1.2-1.5c0-0.5-0.3-0.9-1-1.3c-0.5-0.3-1.1-0.5-1.8-0.5c-0.1,0-0.1,0-0.2,0
					c-0.7,0-1.4,0.3-2,0.7c-0.2,0.1-0.4,0.3-0.5,0.4c-0.1,0.1-0.2,0.2-0.3,0.3l-1.5-1l2.3-1.5L570.7,233.6L570.7,233.6z"/>
			</g>
		</g>
		<g>
			<g>
				<path d="M578.7,235.1L578.7,235.1c-0.2,0-0.4,0.1-0.6,0.2c-0.2,0.1-0.3,0.3-0.3,0.4c0,0.1,0.1,0.3,0.3,0.4
					c0.2,0.1,0.4,0.2,0.7,0.2l0,0c0.2,0,0.4-0.1,0.6-0.2s0.3-0.3,0.3-0.4s-0.1-0.3-0.3-0.4C579.1,235.2,578.9,235.1,578.7,235.1
					L578.7,235.1z"/>
			</g>
		</g>
		<g>
			<g>
				<path d="M578.4,229.3c-0.1,0-0.2,0-0.3,0c-0.6,0.1-1.3,0.3-1.9,0.7c-0.7,0.5-1.2,1-1.3,1.6l1.2,0.1c0.1-0.3,0.2-0.5,0.4-0.7
					c0.1-0.2,0.3-0.3,0.6-0.5c0.3-0.2,0.7-0.3,1-0.4h0.1c0.3,0,0.5,0.1,0.8,0.2c0.7,0.4,0.6,0.9-0.4,1.6l-0.5,0.4l0.8,0.5l0.5-0.3
					c0.6-0.4,1-0.6,1.5-0.7c0.1,0,0.2,0,0.3,0c0.3,0,0.6,0.1,0.8,0.2c0.4,0.2,0.6,0.5,0.5,0.7c0,0.3-0.3,0.5-0.8,0.9
					c-0.3,0.2-0.6,0.3-1,0.5c-0.4,0.1-0.7,0.3-1.1,0.4l0.9,0.5c0.7-0.2,1.4-0.5,2.1-0.9c0.8-0.5,1.2-1,1.3-1.4
					c0.1-0.5-0.2-0.9-0.8-1.2c-0.4-0.2-0.9-0.4-1.3-0.4c0,0,0,0-0.1,0c-0.5,0-1,0.2-1.6,0.4l0,0c0.3-0.3,0.5-0.6,0.4-0.9
					c0-0.3-0.3-0.6-0.7-0.8C579.4,229.4,578.9,229.3,578.4,229.3L578.4,229.3z"/>
			</g>
		</g>
		<g>
			<g>
				<path d="M583.2,226.2c-0.7,0-1.4,0.2-1.9,0.5c-0.7,0.5-1,1-0.8,1.5s0.9,1.1,2,1.8c1.1,0.6,2.1,1,3,1.1c0.2,0,0.3,0,0.5,0
					c0.7,0,1.4-0.2,1.9-0.5c0.7-0.5,1-1,0.8-1.5s-0.9-1.1-2-1.8c-1.1-0.6-2.1-1-3-1.1C583.5,226.2,583.3,226.2,583.2,226.2
					L583.2,226.2z M586.1,230.3c-0.1,0-0.3,0-0.5,0c-0.6-0.1-1.3-0.4-2.2-0.9c-0.9-0.5-1.4-0.9-1.6-1.3c-0.2-0.3-0.1-0.6,0.3-0.9
					c0.3-0.2,0.6-0.3,0.9-0.3c0.2,0,0.3,0,0.5,0.1c0.6,0.1,1.3,0.4,2.1,0.9c0.9,0.5,1.4,0.9,1.6,1.3c0.2,0.3,0.1,0.6-0.3,0.9
					C586.8,230.2,586.5,230.3,586.1,230.3L586.1,230.3z"/>
			</g>
		</g>
	</g>
	<g>
		<g>
			<g>
				<path d="M581.2,185.3c-0.3,0.1-0.5,0.3-0.9,0.5c-2,1.3-1.7,2.6,0.9,4.1c0.6,0.3,1.2,0.6,1.8,0.7c0.4,0.1,0.7,0.1,1.1,0.1
					c0.2,0,0.4,0,0.6,0c0.5-0.1,1-0.3,1.5-0.6c0.6-0.4,0.9-0.8,0.9-1.3s-0.4-0.9-1.1-1.3c-0.6-0.4-1.3-0.5-1.9-0.5l0,0
					c-0.7,0-1.3,0.2-1.8,0.5c-0.3,0.2-0.5,0.4-0.6,0.7c-0.1,0.2-0.1,0.5,0,0.7h-0.1c-0.8-0.5-1.2-0.9-1.3-1.4c0-0.4,0.3-0.9,0.9-1.3
					c0.3-0.2,0.6-0.3,0.8-0.4L581.2,185.3L581.2,185.3z M584.2,189.8h-0.1c-0.5,0-1-0.2-1.4-0.4c-0.2-0.1-0.3-0.2-0.4-0.4
					c-0.1-0.2-0.1-0.3,0-0.5c0.1-0.2,0.2-0.3,0.4-0.5c0.3-0.2,0.7-0.3,1-0.3c0,0,0,0,0.1,0c0.4,0,0.8,0.1,1.1,0.3
					c0.4,0.2,0.7,0.5,0.7,0.7c0,0.3-0.1,0.5-0.4,0.7C585,189.6,584.6,189.8,584.2,189.8L584.2,189.8z"/>
			</g>
		</g>
		<g>
			<g>
				<path d="M589,186.8L589,186.8c-0.2,0-0.4,0.1-0.6,0.2s-0.3,0.3-0.3,0.4s0.1,0.3,0.3,0.4c0.2,0.1,0.4,0.2,0.7,0.2l0,0
					c0.2,0,0.4-0.1,0.6-0.2c0.2-0.1,0.3-0.3,0.3-0.4c0-0.1-0.1-0.3-0.3-0.4C589.5,186.9,589.3,186.8,589,186.8L589,186.8z"/>
			</g>
		</g>
		<g>
			<g>
				<path d="M588.2,180.6l-1,0.6l1.5,4.3l0.8,0.5l2.8-1.8l1.4,0.8l1-0.6l-1.4-0.8l0.8-0.5l-0.9-0.5l-0.8,0.5L588.2,180.6
					L588.2,180.6z M589.6,184.9l-0.8-2.3c-0.1-0.3-0.2-0.5-0.3-0.6l0,0c0.3,0.2,0.8,0.5,1.4,0.8l1.6,0.9L589.6,184.9L589.6,184.9z"
					/>
			</g>
		</g>
		<g>
			<g>
				<path d="M593.3,177.4l-3.2,2.1l2.9,2l0.7-0.1c0.1-0.1,0.2-0.2,0.4-0.4c0.2-0.1,0.3-0.3,0.4-0.3c0.5-0.3,1.1-0.5,1.5-0.5
					c0.4,0,0.7,0.1,1,0.3c0.4,0.2,0.6,0.5,0.6,0.8s-0.3,0.5-0.7,0.8c-0.3,0.2-0.6,0.3-0.9,0.5c-0.4,0.1-0.7,0.3-1.1,0.3l0.9,0.5
					c0.6-0.1,1.3-0.4,2-0.8c0.8-0.5,1.1-1,1.2-1.5c0.1-0.5-0.3-0.9-1-1.3c-0.5-0.3-1.1-0.5-1.8-0.5c-0.1,0-0.1,0-0.2,0
					c-0.7,0-1.4,0.3-2,0.7c-0.2,0.1-0.4,0.3-0.5,0.4c-0.1,0.1-0.2,0.2-0.3,0.3l-1.5-1l2.3-1.5L593.3,177.4L593.3,177.4z"/>
			</g>
		</g>
	</g>
	<g>
		<g>
			<g>
				<path d="M631.6,160.8c-0.3,0.1-0.5,0.3-0.9,0.5c-2,1.3-1.7,2.6,0.9,4.1c0.6,0.3,1.2,0.6,1.8,0.7c0.4,0.1,0.7,0.1,1.1,0.1
					c0.2,0,0.4,0,0.6,0c0.5-0.1,1-0.3,1.5-0.6c0.6-0.4,0.9-0.8,0.9-1.3s-0.4-0.9-1.1-1.3c-0.6-0.4-1.3-0.5-1.9-0.5l0,0
					c-0.7,0-1.3,0.2-1.8,0.5c-0.3,0.2-0.5,0.4-0.6,0.7c-0.1,0.2-0.1,0.5,0,0.7H632c-0.8-0.5-1.2-0.9-1.3-1.4c0-0.4,0.3-0.9,0.9-1.3
					c0.3-0.2,0.6-0.3,0.8-0.4L631.6,160.8L631.6,160.8z M634.6,165.4L634.6,165.4c-0.6,0-1.1-0.2-1.5-0.4c-0.2-0.1-0.3-0.2-0.4-0.4
					c-0.1-0.2-0.1-0.3,0-0.5c0.1-0.2,0.2-0.3,0.4-0.5c0.3-0.2,0.7-0.3,1-0.3c0,0,0,0,0.1,0c0.4,0,0.8,0.1,1.1,0.3
					c0.4,0.2,0.7,0.5,0.7,0.7c0,0.3-0.1,0.5-0.4,0.7C635.4,165.3,635.1,165.4,634.6,165.4L634.6,165.4z"/>
			</g>
		</g>
		<g>
			<g>
				<path d="M639.5,162.4L639.5,162.4c-0.2,0-0.4,0.1-0.6,0.2s-0.3,0.3-0.3,0.4s0.1,0.3,0.3,0.4c0.2,0.1,0.4,0.2,0.7,0.2l0,0
					c0.2,0,0.4-0.1,0.6-0.2c0.2-0.1,0.3-0.3,0.3-0.4s-0.1-0.3-0.3-0.4C639.9,162.4,639.7,162.4,639.5,162.4L639.5,162.4z"/>
			</g>
		</g>
		<g>
			<g>
				<path d="M639.2,156.6c-0.1,0-0.2,0-0.2,0c-0.7,0-1.3,0.2-1.8,0.6c-0.4,0.2-0.6,0.5-0.8,0.8c-0.2,0.3-0.3,0.6-0.3,1h1.2
					c0-0.3,0.1-0.6,0.3-0.8c0.1-0.2,0.3-0.4,0.5-0.5c0.3-0.2,0.6-0.3,0.9-0.3c0,0,0,0,0.1,0c0.3,0,0.6,0.1,0.9,0.2
					c0.2,0.1,0.4,0.3,0.5,0.4c0.1,0.2,0.2,0.3,0.3,0.6c0.1,0.2,0.1,0.6,0.1,1.2l0.1,2l0.8,0.5l4.1-2.7l-0.9-0.5l-2.9,1.9l0,0v-1.3
					c0-0.6,0-1-0.1-1.3c-0.1-0.3-0.2-0.5-0.4-0.8c-0.2-0.2-0.4-0.4-0.7-0.6C640.3,156.7,639.7,156.6,639.2,156.6L639.2,156.6z"/>
			</g>
		</g>
		<g>
			<g>
				<path d="M643.9,153.4c-0.7,0-1.4,0.2-1.9,0.5c-0.7,0.5-1,0.9-0.8,1.5c0.2,0.5,0.9,1.1,2,1.8c1.1,0.6,2.1,1,3,1.1
					c0.2,0,0.3,0,0.5,0c0.7,0,1.4-0.2,1.9-0.5c0.7-0.5,1-1,0.7-1.5c-0.2-0.5-0.9-1.1-2-1.8c-1.1-0.6-2.1-1-3-1.1
					C644.2,153.4,644.1,153.4,643.9,153.4L643.9,153.4z M646.9,157.6c-0.1,0-0.3,0-0.5,0c-0.5-0.1-1.3-0.4-2.2-0.9
					c-0.9-0.5-1.4-0.9-1.6-1.3c-0.2-0.3-0.1-0.6,0.3-0.9c0.3-0.2,0.6-0.3,0.9-0.3c0.2,0,0.3,0,0.5,0.1c0.6,0.1,1.3,0.4,2.1,0.9
					c0.9,0.5,1.4,0.9,1.6,1.2s0.1,0.6-0.3,0.9C647.5,157.5,647.2,157.6,646.9,157.6L646.9,157.6z"/>
			</g>
		</g>
	</g>
	<g>
		<g>
			<g>
				<path d="M681.9,134.7c-0.3,0.1-0.5,0.3-0.9,0.5c-1.9,1.3-1.7,2.6,0.9,4.1c0.6,0.3,1.2,0.6,1.8,0.7c0.4,0.1,0.7,0.1,1.1,0.1
					c0.2,0,0.4,0,0.6,0c0.5-0.1,1-0.3,1.5-0.6c0.6-0.4,0.9-0.8,0.9-1.3s-0.4-0.9-1.1-1.3c-0.6-0.4-1.3-0.5-1.9-0.5l0,0
					c-0.7,0-1.3,0.2-1.8,0.5c-0.3,0.2-0.5,0.4-0.6,0.7c-0.1,0.3-0.1,0.5,0,0.7h-0.1c-0.8-0.5-1.2-0.9-1.3-1.4c0-0.4,0.3-0.9,0.9-1.3
					c0.3-0.2,0.6-0.3,0.8-0.4L681.9,134.7L681.9,134.7z M684.9,139.2L684.9,139.2c-0.6,0-1.1-0.2-1.5-0.4c-0.2-0.1-0.3-0.2-0.4-0.4
					c-0.1-0.2-0.1-0.3,0-0.5c0.1-0.2,0.2-0.3,0.4-0.5c0.3-0.2,0.7-0.3,1-0.3c0,0,0,0,0.1,0c0.4,0,0.8,0.1,1.1,0.3
					c0.4,0.2,0.7,0.5,0.7,0.7c0,0.3-0.1,0.5-0.4,0.7C685.7,139.2,685.4,139.2,684.9,139.2L684.9,139.2z"/>
			</g>
		</g>
		<g>
			<g>
				<path d="M689.8,136.2L689.8,136.2c-0.2,0-0.4,0.1-0.6,0.2s-0.3,0.3-0.3,0.4s0.1,0.3,0.3,0.4c0.2,0.1,0.4,0.2,0.7,0.2l0,0
					c0.2,0,0.4-0.1,0.6-0.2s0.3-0.3,0.3-0.4s-0.1-0.3-0.3-0.4C690.2,136.3,690,136.2,689.8,136.2L689.8,136.2z"/>
			</g>
		</g>
		<g>
			<g>
				<path d="M688.3,130.5l-0.8,0.5l-0.3,2l1.2,0.1c0.1-0.6,0.1-1,0.1-1.1s0-0.2,0-0.3c0.3,0.2,0.7,0.4,1.2,0.7l4.2,2.4l1-0.6
					L688.3,130.5L688.3,130.5z"/>
			</g>
		</g>
		<g>
			<g>
				<path d="M694.2,127.3c-0.7,0-1.4,0.2-1.9,0.5c-0.7,0.5-0.9,0.9-0.7,1.5c0.2,0.5,0.9,1.1,2,1.8c1.1,0.6,2.1,1,3,1.1
					c0.2,0,0.3,0,0.5,0c0.7,0,1.4-0.2,1.9-0.5c0.7-0.5,1-1,0.7-1.5c-0.2-0.5-0.9-1.1-2-1.8c-1.1-0.6-2.1-1-3-1.1
					C694.5,127.3,694.4,127.3,694.2,127.3L694.2,127.3z M697.2,131.4c-0.1,0-0.3,0-0.5,0c-0.5-0.1-1.3-0.4-2.2-0.9s-1.4-0.9-1.6-1.2
					c-0.2-0.3-0.1-0.6,0.2-0.9c0.3-0.2,0.6-0.3,0.9-0.3c0.2,0,0.3,0,0.5,0.1c0.6,0.1,1.3,0.4,2.1,0.9c0.9,0.5,1.4,0.9,1.6,1.2
					c0.2,0.3,0.1,0.6-0.2,0.9C697.8,131.3,697.5,131.4,697.2,131.4L697.2,131.4z"/>
			</g>
		</g>
	</g>
	<g>
		<g>
			<g>
				<path d="M659,288l-0.6,0.4l5.4,3.1c0.3,0.2,0.4,0.3,0.5,0.5c0,0.2-0.1,0.3-0.3,0.5c-0.2,0.1-0.4,0.2-0.6,0.3l0.5,0.3
					c0.2,0,0.4-0.1,0.6-0.3c0.4-0.3,0.6-0.6,0.6-0.9c0-0.3-0.3-0.6-0.8-0.8L659,288L659,288z"/>
			</g>
		</g>
		<g>
			<g>
				<path d="M664.3,284.6l-0.6,0.4l3.5,2c0.5,0.3,0.7,0.5,0.7,0.8s-0.2,0.6-0.6,0.9c-0.5,0.3-0.9,0.4-1.4,0.5c0,0,0,0-0.1,0
					c-0.5,0-0.9-0.1-1.3-0.4l-3.5-2l-0.6,0.4l3.5,2c0.6,0.3,1.2,0.5,1.9,0.5h0.1c0.7,0,1.3-0.2,2-0.6c0.6-0.4,0.9-0.8,0.9-1.3
					c0-0.4-0.3-0.8-0.9-1.2L664.3,284.6L664.3,284.6z"/>
			</g>
		</g>
		<g>
			<g>
				<polygon points="666.2,283.3 665.6,283.6 671.1,286.8 673.9,285 673.3,284.6 671.1,286.1 				"/>
			</g>
		</g>
		<g>
			<g>
				<path d="M673.8,278.4l-2.5,1.7l2.3,1.6l0.5-0.1c0.3-0.3,0.6-0.5,0.8-0.6c0.5-0.3,1-0.5,1.4-0.5c0.3,0,0.7,0.1,1,0.3
					c0.4,0.2,0.6,0.5,0.5,0.7c0,0.3-0.2,0.5-0.6,0.8c-0.2,0.2-0.5,0.3-0.8,0.4c-0.3,0.1-0.6,0.2-0.9,0.2l0.6,0.3
					c0.5-0.1,1-0.3,1.6-0.7c0.6-0.4,0.9-0.8,0.9-1.2s-0.3-0.8-0.8-1.1c-0.4-0.2-0.9-0.4-1.4-0.4c-0.1,0-0.1,0-0.2,0
					c-0.6,0-1.2,0.2-1.7,0.6c-0.3,0.2-0.5,0.4-0.7,0.6l-1.5-1l2-1.3L673.8,278.4L673.8,278.4z"/>
			</g>
		</g>
	</g>
	<g>
		<g>
			<g>
				<path d="M704.2,258.6l-0.6,0.4l5.4,3.1c0.3,0.2,0.4,0.3,0.5,0.5c0.1,0.2-0.1,0.3-0.3,0.5c-0.2,0.1-0.4,0.2-0.6,0.3l0.5,0.3
					c0.2,0,0.4-0.1,0.6-0.3c0.4-0.3,0.6-0.6,0.6-0.9s-0.3-0.6-0.8-0.8L704.2,258.6L704.2,258.6z"/>
			</g>
		</g>
		<g>
			<g>
				<path d="M709.4,255.2l-0.6,0.4l3.5,2c0.5,0.3,0.7,0.5,0.7,0.8s-0.2,0.6-0.6,0.9c-0.5,0.3-0.9,0.4-1.4,0.5c0,0,0,0-0.1,0
					c-0.5,0-0.9-0.1-1.3-0.4l-3.5-2l-0.6,0.4l3.5,2c0.6,0.3,1.2,0.5,1.9,0.5h0.1c0.7,0,1.3-0.2,2-0.6c0.7-0.4,0.9-0.8,0.9-1.2
					s-0.3-0.8-0.9-1.2L709.4,255.2L709.4,255.2z"/>
			</g>
		</g>
		<g>
			<g>
				<polygon points="711.4,253.9 710.8,254.3 716.2,257.4 719,255.6 718.5,255.2 716.2,256.6 				"/>
			</g>
		</g>
		<g>
			<g>
				<path d="M719,249c-0.2,0.1-0.4,0.2-0.7,0.4c-0.8,0.5-1.1,1-0.9,1.6c0.1,0.6,0.7,1.1,1.8,1.8c0.8,0.4,1.5,0.7,2.2,0.7
					c0.1,0,0.1,0,0.2,0c0.6,0,1.2-0.2,1.7-0.5s0.7-0.7,0.7-1c0-0.4-0.3-0.7-0.9-1c-0.5-0.3-1-0.4-1.6-0.4l0,0
					c-0.6,0-1.1,0.2-1.5,0.5c-0.6,0.4-0.7,0.7-0.6,1.2l0,0c-0.7-0.5-1.2-0.9-1.2-1.3c-0.1-0.4,0.2-0.8,0.7-1.1
					c0.2-0.2,0.5-0.3,0.7-0.3L719,249L719,249z M721.6,252.9c-0.2,0-0.4,0-0.6-0.1c-0.3-0.1-0.6-0.2-0.9-0.3
					c-0.2-0.1-0.3-0.2-0.3-0.4s0-0.3,0-0.5c0.1-0.2,0.2-0.3,0.4-0.5c0.3-0.2,0.7-0.3,1-0.3l0,0c0.4,0,0.7,0.1,1.1,0.3
					c0.4,0.2,0.6,0.5,0.7,0.7c0,0.2-0.1,0.5-0.4,0.7c-0.2,0.1-0.5,0.2-0.8,0.3C721.9,252.9,721.8,252.9,721.6,252.9L721.6,252.9z"/>
			</g>
		</g>
	</g>
	<g>
		<g>
			<g>
				<path d="M748.6,229.6L748,230l5.4,3.1c0.3,0.2,0.4,0.3,0.5,0.5c0,0.2-0.1,0.3-0.3,0.5c-0.2,0.1-0.4,0.2-0.6,0.3l0.5,0.3
					c0.2,0,0.4-0.1,0.6-0.3c0.4-0.3,0.6-0.6,0.6-0.8c0-0.3-0.3-0.6-0.8-0.8L748.6,229.6L748.6,229.6z"/>
			</g>
		</g>
		<g>
			<g>
				<path d="M753.8,226.3l-0.6,0.4l3.5,2c0.5,0.3,0.7,0.5,0.7,0.8s-0.2,0.6-0.6,0.9c-0.5,0.3-0.9,0.4-1.4,0.5c0,0,0,0-0.1,0
					c-0.5,0-0.9-0.1-1.3-0.4l-3.5-2l-0.6,0.4l3.5,2c0.6,0.3,1.2,0.5,1.9,0.5h0.1c0.7,0,1.3-0.2,2-0.6c0.7-0.4,0.9-0.8,0.9-1.2
					s-0.3-0.8-0.9-1.2L753.8,226.3L753.8,226.3z"/>
			</g>
		</g>
		<g>
			<g>
				<polygon points="755.7,225.1 755.1,225.4 760.6,228.5 763.4,226.6 762.8,226.4 760.6,227.8 				"/>
			</g>
		</g>
		<g>
			<g>
				<polygon points="763.7,219.8 760.3,222.1 760.9,222.4 763.7,220.6 766.4,224.6 767.1,224.3 764.2,220.1 				"/>
			</g>
		</g>
	</g>
	<g>
		<g>
			<g>
				<path d="M792.2,201.3l-0.6,0.4l5.4,3.1c0.3,0.2,0.4,0.3,0.5,0.5c0,0.2-0.1,0.3-0.3,0.5c-0.2,0.1-0.4,0.2-0.6,0.3l0.5,0.3
					c0.2,0,0.4-0.1,0.6-0.3c0.4-0.3,0.6-0.6,0.6-0.8c0-0.3-0.3-0.6-0.8-0.8L792.2,201.3L792.2,201.3z"/>
			</g>
		</g>
		<g>
			<g>
				<path d="M797.4,197.9l-0.6,0.4l3.5,2c0.5,0.3,0.7,0.5,0.7,0.8s-0.2,0.6-0.6,0.9c-0.5,0.3-0.9,0.4-1.4,0.5c0,0,0,0-0.1,0
					c-0.5,0-0.9-0.1-1.3-0.4l-3.5-2l-0.6,0.4l3.5,2c0.6,0.3,1.2,0.5,1.9,0.5h0.1c0.7,0,1.3-0.2,2-0.6c0.6-0.4,0.9-0.8,0.9-1.2
					s-0.3-0.8-0.9-1.2L797.4,197.9L797.4,197.9z"/>
			</g>
		</g>
		<g>
			<g>
				<polygon points="799.3,196.6 798.7,197.1 804.2,200.2 807,198.3 806.4,198 804.2,199.4 				"/>
			</g>
		</g>
		<g>
			<g>
				<path d="M807.3,192c-0.1,0-0.2,0-0.2,0c-0.5,0-1,0.2-1.5,0.5s-0.7,0.6-0.7,0.9s0.1,0.6,0.5,0.8c0.3,0.2,0.6,0.3,1,0.3
					c0.1,0,0.2,0,0.3,0c0.3,0,0.6,0,1-0.1c-0.4,0.7-0.2,1.2,0.4,1.5c0.4,0.2,0.8,0.3,1.3,0.3c0.1,0,0.2,0,0.2,0
					c0.5,0,1.1-0.2,1.6-0.6c0.5-0.3,0.8-0.7,0.8-1s-0.2-0.6-0.6-0.9c-0.3-0.2-0.7-0.3-1.1-0.3h-0.1c-0.4,0-0.9,0.1-1.4,0.2
					c0.2-0.3,0.2-0.6,0.1-0.8c-0.1-0.2-0.2-0.4-0.5-0.6C808,192.1,807.7,192,807.3,192L807.3,192z M806.8,194.1
					C806.7,194.1,806.7,194.1,806.8,194.1c-0.3,0-0.6-0.1-0.8-0.2s-0.4-0.3-0.3-0.5c0.1-0.2,0.2-0.4,0.5-0.6s0.6-0.3,0.9-0.3h0.1
					c0.3,0,0.5,0.1,0.7,0.2c0.2,0.1,0.4,0.3,0.4,0.5s0,0.4-0.2,0.7C807.5,194,807.1,194.1,806.8,194.1L806.8,194.1z M809.4,195.8
					c-0.3,0-0.6-0.1-0.8-0.2c-0.3-0.2-0.4-0.3-0.5-0.5c0-0.2,0-0.5,0.2-0.8c0.6-0.2,1.1-0.3,1.5-0.3h0.1c0.3,0,0.6,0.1,0.8,0.2
					c0.3,0.2,0.4,0.4,0.4,0.6s-0.2,0.4-0.5,0.7c-0.4,0.2-0.7,0.4-1.1,0.4C809.5,195.8,809.5,195.8,809.4,195.8L809.4,195.8z"/>
			</g>
		</g>
	</g>
	<g>
		<g>
			<g>
				<path d="M688.3,296.1h-0.1c-1.2,0-2.3,0.4-3.3,1l-2,1.3l7.1,4.1l1.8-1.2c1.1-0.7,1.7-1.5,1.6-2.2c0-0.7-0.6-1.4-1.8-2.1
					C690.6,296.4,689.5,296.1,688.3,296.1L688.3,296.1z M689.9,301.6l-5.6-3.2l1.1-0.7c0.9-0.6,1.7-0.8,2.6-0.9h0.1
					c0.9,0,1.8,0.3,2.7,0.8s1.4,1.1,1.4,1.7s-0.4,1.2-1.4,1.8L689.9,301.6L689.9,301.6z"/>
			</g>
		</g>
		<g>
			<g>
				<path d="M690.2,293.6L690.2,293.6c-0.2,0-0.4,0.1-0.5,0.1c-0.1,0.1-0.2,0.2-0.2,0.3s0.1,0.2,0.3,0.3s0.3,0.1,0.5,0.1l0,0
					c0.2,0,0.3,0,0.5-0.1c0.1-0.1,0.2-0.2,0.2-0.3s-0.1-0.2-0.3-0.3C690.5,293.6,690.3,293.6,690.2,293.6L690.2,293.6z M692,294.6
					l-0.8,0.5l5.3,3l0.8-0.5L692,294.6L692,294.6z"/>
			</g>
		</g>
		<g>
			<g>
				<path d="M697,291.6c-0.7,0.2-1.4,0.5-1.9,0.8c-0.6,0.4-0.9,0.7-1,1.1c-0.1,0.4,0.1,0.7,0.5,0.9c0.2,0.1,0.5,0.2,0.8,0.3
					c0.1,0,0.2,0,0.4,0s0.3,0,0.5,0c0.3,0,0.8-0.2,1.5-0.4s1.2-0.3,1.5-0.3c0.1,0,0.1,0,0.2,0c0.2,0,0.4,0,0.6,0.1
					c0.3,0.2,0.4,0.3,0.3,0.6c-0.1,0.3-0.3,0.5-0.7,0.7c-0.3,0.2-0.6,0.3-0.9,0.5c-0.3,0.1-0.7,0.2-1.1,0.3l0.7,0.4
					c0.6-0.1,1.2-0.4,1.9-0.8c0.6-0.4,1-0.8,1.1-1.2c0.1-0.4-0.1-0.7-0.6-1c-0.3-0.2-0.7-0.3-1.2-0.3l0,0c-0.4,0-1.1,0.1-1.9,0.4
					c-0.6,0.2-1,0.3-1.3,0.3c-0.2,0-0.4,0.1-0.5,0.1h-0.1c-0.2,0-0.3-0.1-0.5-0.1c-0.2-0.1-0.3-0.3-0.2-0.5s0.3-0.4,0.6-0.6
					c0.4-0.3,1-0.5,1.7-0.7L697,291.6L697,291.6z"/>
			</g>
		</g>
		<g>
			<g>
				<path d="M700.3,289.2l-1.4,0.9l-1.2-0.7l-0.4,0.3l0.8,0.9l-0.4,0.7l0.4,0.2l0.7-0.5l3.1,1.8c0.5,0.3,1.1,0.5,1.6,0.5
					s1-0.2,1.5-0.5c0.1-0.1,0.3-0.2,0.4-0.3c0.1-0.1,0.2-0.2,0.3-0.3l-0.6-0.4c-0.1,0.1-0.1,0.1-0.2,0.2c-0.1,0.1-0.2,0.2-0.4,0.3
					c-0.2,0.2-0.5,0.2-0.8,0.2l0,0c-0.3,0-0.6-0.1-0.9-0.3l-3.1-1.8l1.4-0.9L700.3,289.2L700.3,289.2z"/>
			</g>
		</g>
		<g>
			<g>
				<path d="M705,286.6h-0.1c-0.6,0-1.1,0.2-1.7,0.6c-0.3,0.2-0.5,0.4-0.8,0.6c-0.2,0.2-0.4,0.5-0.5,0.7l0.8,0.2
					c0.3-0.5,0.6-0.9,1-1.2c0.4-0.2,0.7-0.4,1.1-0.4l0,0c0.4,0,0.8,0.1,1.2,0.4l0.3,0.2l-0.8,0.6c-1.6,1.1-1.8,1.9-0.7,2.5
					c0.5,0.3,0.9,0.4,1.4,0.4h0.1c0.6,0,1.1-0.2,1.6-0.5c0.4-0.2,0.6-0.5,0.8-0.7c0.1-0.2,0.2-0.5,0.1-0.9l0,0l0.9,0.3l0.6-0.4
					l-3.6-2.1C706.1,286.8,705.6,286.6,705,286.6L705,286.6z M706.4,290.6c-0.3,0-0.5-0.1-0.8-0.2c-0.4-0.2-0.5-0.5-0.4-0.7
					c0.1-0.3,0.4-0.6,1-1l0.7-0.5l0.5,0.3c0.5,0.3,0.7,0.6,0.7,0.9c0,0.3-0.2,0.7-0.7,1c-0.3,0.2-0.6,0.3-0.9,0.3
					C706.5,290.6,706.5,290.6,706.4,290.6L706.4,290.6z"/>
			</g>
		</g>
		<g>
			<g>
				<path d="M710.7,282.9L710.7,282.9c-0.7,0-1.3,0.2-1.9,0.6c-0.3,0.2-0.6,0.5-0.7,0.7c-0.1,0.3-0.2,0.5,0,0.8l0,0l-0.8-0.3
					l-0.6,0.4l5.3,3l0.8-0.5L710,286c-0.7-0.4-1.1-0.8-1.1-1.1c-0.1-0.3,0.2-0.7,0.7-1c0.4-0.3,0.8-0.4,1.2-0.4l0,0
					c0.4,0,0.8,0.1,1.2,0.4l3.4,2l0.8-0.5l-3.5-2C711.9,283.1,711.3,282.9,710.7,282.9L710.7,282.9z"/>
			</g>
		</g>
		<g>
			<g>
				<path d="M715.8,279.4c-0.2,0-0.5,0.1-0.8,0.3c-0.3,0.1-0.6,0.3-0.8,0.4c-0.7,0.5-1.1,1-1,1.5c0.1,0.5,0.6,1.1,1.4,1.6
					c0.9,0.5,1.7,0.7,2.6,0.8c0,0,0,0,0.1,0c0.8,0,1.6-0.2,2.3-0.7c0.5-0.3,0.8-0.7,1-1l-0.7-0.4c-0.2,0.4-0.6,0.7-1,1
					c-0.4,0.3-0.9,0.4-1.4,0.4c-0.1,0-0.1,0-0.2,0c-0.6,0-1.2-0.2-1.9-0.6c-1.4-0.8-1.5-1.5-0.5-2.2c0.2-0.1,0.3-0.2,0.6-0.3
					c0.2-0.1,0.5-0.2,0.7-0.3L715.8,279.4L715.8,279.4z"/>
			</g>
		</g>
		<g>
			<g>
				<path d="M720.6,276.6c-0.8,0-1.5,0.2-2.1,0.6c-0.7,0.4-0.9,0.9-0.8,1.5c0.1,0.5,0.6,1.1,1.4,1.6s1.7,0.7,2.6,0.7l0,0
					c0.9,0,1.7-0.2,2.5-0.7c0.3-0.2,0.6-0.4,0.8-0.6c0.2-0.2,0.3-0.4,0.5-0.6l-0.7-0.4c-0.3,0.5-0.7,0.9-1.2,1.2s-1.1,0.5-1.7,0.5
					l0,0c-0.6,0-1.2-0.2-1.9-0.5l3.4-2.2l-0.5-0.3C722.2,276.9,721.5,276.6,720.6,276.6L720.6,276.6L720.6,276.6z M719.4,279.4
					c-0.4-0.3-0.7-0.6-0.7-0.9s0.1-0.6,0.5-0.9c0.4-0.2,0.8-0.4,1.2-0.4h0.1c0.5,0,1,0.2,1.5,0.5L719.4,279.4L719.4,279.4z"/>
			</g>
		</g>
		<g>
			<g>
				<polygon points="726.9,269.8 721.9,273 722.6,273.4 724.7,272.1 731,275.6 731.8,275.2 725.5,271.6 727.6,270.2 				"/>
			</g>
		</g>
		<g>
			<g>
				<path d="M731.9,268.6c-0.2,0.1-0.4,0.2-0.7,0.4c-0.3,0.2-0.5,0.4-0.6,0.7c-0.1,0.3,0,0.6,0.1,0.9l0,0l-1.1-0.5l-0.6,0.4l5.3,3
					l0.8-0.5l-2.8-1.6c-0.5-0.3-0.8-0.6-0.9-1c-0.1-0.4,0.1-0.7,0.5-1c0.2-0.1,0.4-0.2,0.6-0.3L731.9,268.6L731.9,268.6z"/>
			</g>
		</g>
		<g>
			<g>
				<path d="M736.3,266.3h-0.1c-0.6,0-1.1,0.2-1.7,0.6c-0.3,0.2-0.5,0.4-0.8,0.6c-0.2,0.2-0.4,0.5-0.5,0.7l0.8,0.2
					c0.3-0.5,0.6-0.9,1-1.2c0.4-0.2,0.7-0.4,1.1-0.4l0,0c0.4,0,0.8,0.1,1.2,0.4l0.3,0.2l-0.8,0.6c-1.6,1.1-1.8,1.9-0.7,2.5
					c0.5,0.3,0.9,0.4,1.4,0.4h0.1c0.6,0,1.1-0.2,1.6-0.5c0.4-0.2,0.6-0.5,0.7-0.7c0.1-0.2,0.2-0.5,0.1-0.9l0,0l0.9,0.3l0.6-0.4
					l-3.6-2.1C737.4,266.4,736.8,266.3,736.3,266.3L736.3,266.3z M737.7,270.3c-0.3,0-0.5-0.1-0.8-0.2c-0.4-0.2-0.5-0.5-0.4-0.7
					c0.1-0.3,0.4-0.6,1-1l0.7-0.5l0.5,0.3c0.5,0.3,0.7,0.6,0.7,0.9s-0.2,0.7-0.7,1c-0.3,0.2-0.6,0.3-0.9,0.3
					C737.8,270.3,737.8,270.3,737.7,270.3L737.7,270.3z"/>
			</g>
		</g>
		<g>
			<g>
				<path d="M741.7,262.3l-0.8,0.5c1.2,1.4,2,2.4,2.3,2.8c0.4,0.4,0.6,0.7,0.7,0.8l0,0c-0.3-0.1-0.9-0.3-1.9-0.5l-4.2-1.1l-0.8,0.5
					l7.2,1.8l0.9-0.6L741.7,262.3L741.7,262.3z"/>
			</g>
		</g>
		<g>
			<g>
				<path d="M746.4,259.8c-0.8,0-1.5,0.2-2.1,0.6c-0.7,0.4-0.9,0.9-0.8,1.5c0.1,0.5,0.6,1.1,1.4,1.5c0.8,0.5,1.7,0.7,2.6,0.7l0,0
					c0.9,0,1.7-0.2,2.5-0.7c0.3-0.2,0.6-0.4,0.8-0.6c0.2-0.2,0.3-0.4,0.5-0.6l-0.7-0.4c-0.3,0.5-0.7,0.9-1.2,1.2s-1.1,0.5-1.7,0.5
					l0,0c-0.6,0-1.2-0.2-1.9-0.5l3.4-2.2l-0.5-0.3C748,260.1,747.3,259.9,746.4,259.8L746.4,259.8L746.4,259.8z M745.2,262.6
					c-0.4-0.3-0.7-0.6-0.7-0.9c0-0.3,0.1-0.6,0.5-0.9c0.4-0.2,0.8-0.4,1.2-0.4h0.1c0.5,0,1,0.2,1.5,0.5L745.2,262.6L745.2,262.6z"/>
			</g>
		</g>
		<g>
			<g>
				<polygon points="746.3,256.6 745.5,257.1 753,261.4 753.8,260.9 				"/>
			</g>
		</g>
		<g>
			<g>
				<polygon points="748.6,255 747.9,255.5 755.4,259.8 756.1,259.3 				"/>
			</g>
		</g>
		<g>
			<g>
				<path d="M756.3,253.4c-0.8,0-1.5,0.2-2.1,0.6c-0.7,0.4-0.9,0.9-0.8,1.5c0.1,0.5,0.6,1.1,1.4,1.5c0.8,0.5,1.7,0.7,2.6,0.7l0,0
					c0.9,0,1.7-0.2,2.5-0.7c0.3-0.2,0.6-0.4,0.8-0.6c0.2-0.2,0.3-0.4,0.5-0.6l-0.7-0.4c-0.3,0.5-0.7,0.9-1.2,1.2s-1.1,0.5-1.7,0.5
					l0,0c-0.6,0-1.2-0.2-1.9-0.5l3.4-2.2l-0.5-0.3C757.9,253.6,757.2,253.4,756.3,253.4C756.4,253.4,756.3,253.4,756.3,253.4
					L756.3,253.4z M755.1,256.1c-0.4-0.3-0.7-0.6-0.7-0.9c0-0.3,0.1-0.6,0.5-0.9c0.4-0.2,0.8-0.4,1.2-0.4h0.1c0.5,0,1,0.2,1.5,0.5
					L755.1,256.1L755.1,256.1z"/>
			</g>
		</g>
		<g>
			<g>
				<path d="M759.5,247.9l-0.8,0.5l2.2,1.2l0.4,0.2l0.4,0.2h-0.1c-0.1,0-0.2,0-0.3,0c-0.7,0-1.4,0.2-2,0.6c-0.6,0.4-0.9,0.9-0.8,1.4
					c0.1,0.5,0.6,1,1.5,1.5c0.9,0.5,1.7,0.8,2.6,0.8c0.1,0,0.1,0,0.2,0c0.8,0,1.4-0.2,2-0.6c0.7-0.5,0.9-0.9,0.8-1.5l0,0l0.8,0.3
					l0.6-0.4L759.5,247.9L759.5,247.9z M762.9,253.6c-0.1,0-0.2,0-0.2,0c-0.6,0-1.2-0.3-1.9-0.6c-0.7-0.4-1.1-0.8-1.2-1.1
					c-0.1-0.4,0-0.7,0.5-1s1-0.5,1.5-0.5h0.1c0.6,0,1.2,0.3,2,0.7l0.2,0.1c0.7,0.4,1,0.7,1.1,1.1c0.1,0.3-0.2,0.6-0.7,1
					C763.9,253.6,763.4,253.6,762.9,253.6L762.9,253.6z"/>
			</g>
		</g>
		<g>
			<g>
				<path d="M765.7,244.5L765,245c0.1,0.6,0.4,1.2,0.9,1.8s1.2,1.1,2,1.6s1.7,0.9,2.7,1.1c1,0.3,1.9,0.4,2.9,0.4l0.7-0.5
					c-1-0.1-2-0.2-3-0.5s-1.8-0.6-2.6-1.1c-0.8-0.4-1.4-1-2-1.5C766.2,245.6,765.9,245.1,765.7,244.5L765.7,244.5z"/>
			</g>
		</g>
		<g>
			<g>
				<polygon points="771.6,240.6 770.7,241.2 771.2,245.2 767.7,243.2 766.9,243.6 773.9,247.6 774.7,247.2 771.9,245.6 772,244.8 
					777.8,245.2 778.7,244.6 772,244.1 				"/>
			</g>
		</g>
		<g>
			<g>
				<path d="M781.3,236.9L781.3,236.9c-0.6,0-1.2,0.2-1.8,0.6c-0.4,0.2-0.6,0.5-0.7,0.8c-0.1,0.3-0.1,0.5,0,0.8l0,0
					c-0.2-0.1-0.4-0.1-0.7-0.1c-0.6,0-1.2,0.2-1.8,0.6c-0.3,0.2-0.5,0.4-0.7,0.7c-0.1,0.3-0.1,0.5,0,0.7l0,0l-0.8-0.3l-0.6,0.4
					l5.3,3l0.8-0.5l-2.8-1.6c-0.7-0.4-1.1-0.7-1.2-1.1c-0.1-0.3,0.1-0.6,0.6-0.9c0.3-0.2,0.7-0.3,1.1-0.3l0,0c0.4,0,0.8,0.1,1.2,0.4
					l3.4,2l0.8-0.5l-3-1.7c-0.6-0.3-0.9-0.7-1-1c-0.1-0.3,0.1-0.6,0.6-0.9c0.3-0.2,0.7-0.3,1.1-0.3l0,0c0.4,0,0.8,0.1,1.2,0.4l3.4,2
					l0.8-0.5l-3.5-2C782.5,237.1,781.9,236.9,781.3,236.9L781.3,236.9z"/>
			</g>
		</g>
		<g>
			<g>
				<path d="M781.3,234.3l-0.7,0.5c1.1,0.1,2.1,0.2,3,0.5c1,0.3,1.8,0.6,2.6,1.1c0.8,0.4,1.4,0.9,1.9,1.5s0.9,1.2,1.1,1.8l0.7-0.5
					c-0.1-0.6-0.4-1.2-0.9-1.8s-1.2-1.1-2-1.6s-1.8-0.9-2.7-1.1C783.3,234.5,782.3,234.3,781.3,234.3L781.3,234.3z"/>
			</g>
		</g>
	</g>
	<g>
		<g>
			<g>
				<polygon points="717.3,372.2 709.9,377 710.6,377.4 713.9,375.3 724.1,381.1 724.8,380.6 714.7,374.8 718,372.6 				"/>
			</g>
		</g>
		<g>
			<g>
				<path d="M726.6,370.6c-1.3,0-2.4,0.3-3.4,1c-1.1,0.7-1.5,1.4-1.4,2.3c0.1,0.8,0.9,1.6,2.2,2.4c0.8,0.5,1.7,0.8,2.6,1
					c0.5,0.1,1.1,0.2,1.6,0.2c0.4,0,0.7,0,1.1-0.1c0.9-0.1,1.6-0.4,2.3-0.9c1.1-0.7,1.5-1.5,1.4-2.3c-0.1-0.8-0.9-1.6-2.2-2.4
					c-1.3-0.7-2.6-1.1-4-1.2C726.7,370.6,726.7,370.6,726.6,370.6L726.6,370.6z M728.4,376.8c-0.1,0-0.2,0-0.3,0
					c-1.1-0.1-2.2-0.4-3.3-1s-1.8-1.3-1.9-1.9c-0.2-0.7,0.2-1.3,1-1.8s1.6-0.8,2.6-0.8c0.1,0,0.2,0,0.3,0c1.1,0.1,2.2,0.4,3.3,1
					c1.1,0.6,1.8,1.3,1.9,1.9c0.2,0.7-0.2,1.3-1,1.8C730.2,376.5,729.3,376.8,728.4,376.8L728.4,376.8z"/>
			</g>
		</g>
		<g>
			<g>
				<path d="M731.8,366.1l-2.2,1.5l-2-1.1l-0.4,0.2l1.5,1.3l-0.8,0.9l0.4,0.2l1.1-0.7l5.2,3c0.8,0.5,1.6,0.7,2.3,0.7l0,0
					c0.7,0,1.4-0.2,2-0.6c0.4-0.3,0.8-0.6,1-0.9l-0.6-0.3c-0.2,0.3-0.6,0.5-1,0.8c-0.4,0.3-0.8,0.4-1.2,0.4c-0.1,0-0.1,0-0.2,0
					c-0.5,0-1.1-0.2-1.7-0.6l-5.1-2.9l2.2-1.5L731.8,366.1L731.8,366.1z"/>
			</g>
		</g>
		<g>
			<g>
				<path d="M738.8,362.3C738.7,362.3,738.7,362.3,738.8,362.3c-0.9,0-1.8,0.3-2.6,0.8c-0.8,0.5-1.4,1.2-1.9,2l0.9,0.2
					c0.3-0.7,0.9-1.3,1.6-1.8c0.6-0.4,1.2-0.6,1.9-0.6h0.1c0.7,0,1.4,0.3,2.2,0.7l0.5,0.3l-1.4,1c-1.1,0.8-1.8,1.5-2,2.2
					s0.1,1.2,0.9,1.7c0.7,0.4,1.4,0.6,2.1,0.6c0.1,0,0.1,0,0.2,0c0.8,0,1.6-0.3,2.4-0.8c0.6-0.4,0.9-0.7,1.1-1.1
					c0.2-0.4,0.2-0.9,0.1-1.4h0.1l1.5,0.6l0.5-0.3l-5.4-3.1C740.5,362.6,739.6,362.3,738.8,362.3L738.8,362.3z M741.2,368.6
					c-0.5,0-1-0.1-1.5-0.4c-0.6-0.4-0.9-0.8-0.7-1.3s0.7-1.1,1.8-1.8l1.3-0.9l0.8,0.5c0.9,0.5,1.3,1.1,1.4,1.6
					c0,0.6-0.4,1.2-1.2,1.7c-0.5,0.3-1.1,0.5-1.7,0.6C741.3,368.6,741.3,368.6,741.2,368.6L741.2,368.6z"/>
			</g>
		</g>
		<g>
			<g>
				<polygon points="738.5,357.5 737.8,358 749.4,364.6 750.1,364.2 				"/>
			</g>
		</g>
		<g>
			<g>
				<polygon points="752.4,349.3 751.5,349.9 751.9,355 752,356.5 746.3,353.2 745.6,353.6 756.5,359.9 757.2,359.5 752.8,356.9 
					752.9,355.3 762.5,356 763.4,355.4 752.8,354.6 				"/>
			</g>
		</g>
		<g>
			<g>
				<path d="M766.7,344L766.7,344c-0.9,0-1.8,0.3-2.6,0.8c-0.5,0.3-0.9,0.7-1.1,1.1c-0.2,0.4-0.1,0.8,0.1,1.3l0,0
					c-0.4-0.1-0.8-0.1-1.1-0.1c-0.9,0-1.8,0.3-2.6,0.8c-0.5,0.3-0.8,0.6-1,1s-0.2,0.8,0,1.1l0,0l-1.3-0.5l-0.6,0.4l8.1,4.6l0.7-0.5
					l-4.5-2.6c-1.1-0.6-1.7-1.2-1.8-1.7s0.2-1,1-1.6c0.6-0.4,1.2-0.6,1.8-0.6s1.3,0.2,2,0.6l5.5,3.2l0.7-0.5l-4.7-2.7
					c-1-0.6-1.5-1.1-1.6-1.6c-0.1-0.5,0.3-1,1-1.5c0.6-0.4,1.2-0.6,1.8-0.6h0.1c0.7,0,1.4,0.3,2.2,0.7l5.3,3l0.7-0.4l-5.3-3
					C768.6,344.3,767.6,344,766.7,344L766.7,344z"/>
			</g>
		</g>
	</g>
	<g>
		<g>
			<g>
				<path d="M705.4,366.1l-2.1,1.3l-8.8-5.1c-1-0.6-1.9-1.1-2.4-1.5c0,0.2,0,0.4,0,0.6s-0.1,1-0.3,2.3l-2.4-0.1l0.6-4.3l1.7-1.1
					L705.4,366.1z"/>
			</g>
		</g>
		<g>
			<g>
				<path d="M705.5,355.6c1.3-0.8,2.7-1.3,4.2-1.4c1.5-0.1,2.8,0.2,4.1,1c1.5,0.8,2.2,1.8,2.1,2.8c0,1-0.8,2.1-2.4,3.1
					c-1.4,0.9-2.8,1.5-4.1,1.8l-2-1.1c0.8-0.1,1.5-0.4,2.3-0.7s1.4-0.6,1.9-1c0.9-0.6,1.4-1.2,1.5-1.8c0-0.6-0.4-1.1-1.2-1.6
					c-1.6-0.9-3.4-0.8-5.4,0.5c-0.3,0.2-0.6,0.4-0.9,0.7s-0.6,0.6-0.9,0.8l-1.5,0.3l-6.2-4.1l6.7-4.3l1.9,1.1l-4.8,3.2l3.1,2.1
					c0.2-0.2,0.4-0.3,0.6-0.6C704.7,356.2,705.1,356,705.5,355.6z"/>
			</g>
		</g>
		<g>
			<g>
				<path d="M719.1,355.8c-0.5-0.3-0.7-0.5-0.7-0.8s0.2-0.6,0.6-0.8c0.4-0.3,0.9-0.4,1.3-0.4c0.5,0,0.9,0.1,1.4,0.4
					c0.4,0.3,0.7,0.5,0.7,0.8s-0.2,0.6-0.6,0.9c-0.4,0.3-0.9,0.4-1.3,0.4C720,356.2,719.5,356.1,719.1,355.8z"/>
			</g>
		</g>
		<g>
			<g>
				<path d="M725.7,343.4c2.7,1.5,4.2,3,4.5,4.4s-0.6,2.8-2.6,4.1c-0.8,0.5-1.4,0.8-1.8,1l-1.8-1.1c0.7-0.3,1.3-0.5,1.8-0.9
					c1.4-0.9,2-1.8,1.9-2.7c-0.1-0.9-1-1.9-2.6-2.9l-0.1,0.1c0.2,0.5,0.2,1,0,1.5s-0.7,0.9-1.3,1.3c-1.1,0.7-2.4,1.1-3.8,1.1
					c-1.4,0-2.8-0.4-4.1-1.1c-1.4-0.8-2.2-1.7-2.3-2.7s0.5-1.9,1.8-2.7c0.9-0.6,1.9-1,3.1-1.1c1.1-0.2,2.4-0.1,3.6,0.2
					C723.2,342.1,724.4,342.6,725.7,343.4z M717.1,343.9c-0.7,0.5-1,1-0.9,1.5c0.1,0.5,0.6,1.1,1.5,1.6c0.8,0.4,1.6,0.7,2.4,0.7
					s1.6-0.2,2.3-0.7c0.7-0.5,1.1-1,1.1-1.5c0-0.6-0.2-1-0.8-1.4c-0.6-0.3-1.2-0.5-1.9-0.7c-0.7-0.1-1.3-0.2-2-0.1
					S717.5,343.6,717.1,343.9z"/>
			</g>
		</g>
		<g>
			<g>
				<path d="M730.9,339.1c1.3-0.8,2.7-1.3,4.2-1.4c1.5-0.1,2.8,0.2,4.1,1c1.5,0.8,2.2,1.8,2.1,2.8c0,1-0.8,2.1-2.4,3.1
					c-1.4,0.9-2.8,1.5-4.1,1.8l-2-1.1c0.8-0.1,1.5-0.4,2.3-0.7s1.4-0.6,1.9-1c0.9-0.6,1.4-1.2,1.5-1.8c0-0.6-0.4-1.1-1.2-1.6
					c-1.6-0.9-3.4-0.8-5.4,0.5c-0.3,0.2-0.6,0.4-0.9,0.7s-0.6,0.6-0.9,0.8l-1.5,0.3l-6.2-4.1l6.7-4.3l1.9,1.1l-4.8,3.2l3.1,2.1
					c0.2-0.2,0.4-0.3,0.6-0.6C730.2,339.6,730.5,339.4,730.9,339.1z"/>
			</g>
		</g>
	</g>
	<g>
		<g>
			<g>
				<polygon points="785.9,409.9 785.2,410.4 790,413.2 784,417.1 779.2,414.3 778.5,414.8 789.4,421 790.1,420.6 784.7,417.5 
					790.7,413.6 796.1,416.6 796.8,416.2 				"/>
			</g>
		</g>
		<g>
			<g>
				<path d="M797.6,406.6c-1.3,0-2.4,0.3-3.4,1c-1.1,0.7-1.5,1.4-1.4,2.3c0.1,0.8,0.9,1.6,2.2,2.4c0.8,0.5,1.7,0.8,2.6,1
					c0.5,0.1,1.1,0.2,1.6,0.2c0.4,0,0.7,0,1.1-0.1c0.9-0.1,1.6-0.4,2.3-0.9c1.1-0.7,1.5-1.5,1.4-2.3s-0.9-1.6-2.2-2.4
					s-2.6-1.1-4-1.2C797.8,406.6,797.7,406.6,797.6,406.6L797.6,406.6z M799.4,412.9c-0.1,0-0.2,0-0.3,0c-1.1-0.1-2.2-0.4-3.3-1
					s-1.8-1.3-1.9-1.9c-0.2-0.7,0.2-1.3,1-1.8s1.6-0.8,2.6-0.8c0.1,0,0.2,0,0.3,0c1.1,0.1,2.2,0.4,3.3,1s1.8,1.3,1.9,2
					c0.2,0.7-0.2,1.3-1,1.8S800.4,412.9,799.4,412.9L799.4,412.9z"/>
			</g>
		</g>
		<g>
			<g>
				<path d="M805.8,400.3l-0.7,0.4l4.5,2.6c1.1,0.6,1.7,1.2,1.7,1.8s-0.4,1.1-1.3,1.7c-0.7,0.4-1.4,0.7-2,0.7l0,0
					c-0.7,0-1.4-0.2-2.3-0.7l-5.3-3l-0.7,0.4l5.3,3c1,0.6,1.9,0.9,2.9,0.9c0.9,0,1.8-0.3,2.7-0.9c1.3-0.8,1.7-1.6,1.4-2.5l0,0
					l1.2,0.6l0.6-0.4L805.8,400.3L805.8,400.3z"/>
			</g>
		</g>
		<g>
			<g>
				<path d="M812.3,396c-0.4,0.2-0.8,0.4-1.1,0.6c-0.5,0.3-0.8,0.7-0.9,1.1c-0.1,0.4,0,0.8,0.3,1.4l0,0l-1.5-0.8l-0.6,0.4l8.1,4.7
					l0.7-0.5l-4.5-2.6c-0.9-0.5-1.4-1.1-1.6-1.7c-0.2-0.6,0.1-1.1,0.7-1.6c0.3-0.2,0.7-0.4,1.1-0.6L812.3,396L812.3,396z"/>
			</g>
		</g>
		<g>
			<g>
				<path d="M818.8,392.2c-1.1,0.3-2,0.7-2.8,1.2c-0.9,0.6-1.4,1.1-1.5,1.6s0.1,0.9,0.7,1.3c0.4,0.2,0.8,0.4,1.2,0.4
					c0.2,0,0.3,0,0.5,0c0.3,0,0.6,0,0.9-0.1c0.5-0.1,1.3-0.3,2.4-0.6c1-0.3,1.8-0.5,2.4-0.5c0.1,0,0.2,0,0.3,0
					c0.5,0,0.9,0.1,1.2,0.3c0.4,0.3,0.6,0.6,0.5,1s-0.6,0.9-1.3,1.4c-0.9,0.6-1.9,1-3,1.2l0.8,0.5c0.9-0.2,1.9-0.6,2.9-1.3
					c1-0.6,1.5-1.2,1.6-1.8s-0.2-1.1-0.9-1.5c-0.4-0.2-0.8-0.3-1.2-0.4c-0.2,0-0.3,0-0.5,0c-0.3,0-0.6,0-0.9,0.1
					c-0.5,0.1-1.3,0.3-2.2,0.6c-1.1,0.4-2,0.6-2.5,0.6c-0.1,0-0.1,0-0.2,0c-0.4,0-0.9-0.1-1.2-0.3c-0.4-0.2-0.5-0.5-0.4-0.9
					s0.5-0.8,1.2-1.2c0.6-0.4,1.5-0.8,2.6-1.1L818.8,392.2L818.8,392.2z"/>
			</g>
		</g>
	</g>
	<g>
		<g>
			<g>
				<path d="M771.9,404.3l-2.1,1.3l-8.8-5.1c-1.1-0.6-1.9-1.1-2.4-1.5c0,0.2,0,0.4,0,0.6c0,0.2-0.1,1-0.3,2.3l-2.4-0.1l0.6-4.3
					l1.7-1.1L771.9,404.3z"/>
			</g>
		</g>
		<g>
			<g>
				<path d="M775.3,400.6c-0.5-0.3-0.7-0.5-0.7-0.8s0.2-0.6,0.6-0.8c0.4-0.3,0.9-0.4,1.4-0.4s0.9,0.1,1.4,0.4
					c0.4,0.3,0.7,0.5,0.7,0.8s-0.2,0.6-0.6,0.9c-0.4,0.3-0.9,0.4-1.3,0.4C776.2,401.1,775.7,400.9,775.3,400.6z"/>
			</g>
		</g>
		<g>
			<g>
				<path d="M787.2,390.6l-1.7,1.1l3,1.7l-2,1.3l-3-1.7l-5.9,3.8l-1.7-1l-3.2-9l2-1.3l8.9,5.1l1.7-1.1L787.2,390.6z M781.6,392.1
					l-3.4-2c-1.2-0.7-2.2-1.3-2.9-1.8h-0.1c0.2,0.3,0.5,0.8,0.7,1.4l1.7,4.9L781.6,392.1z"/>
			</g>
		</g>
		<g>
			<g>
				<path d="M793.1,382.1c2.4,1.4,3.8,2.6,4.2,3.7c0.4,1.1-0.1,2.2-1.6,3.1c-1.4,0.9-3.1,1.3-5,1.1c-1.9-0.2-4-1-6.3-2.3
					c-2.4-1.4-3.8-2.6-4.2-3.8c-0.4-1.1,0.1-2.2,1.6-3.1c1.4-0.9,3.1-1.3,5-1.1C788.7,380,790.8,380.6,793.1,382.1z M786.5,386.4
					c1.9,1.1,3.4,1.7,4.5,1.9c1.2,0.2,2.1,0.1,2.9-0.4s1-1.1,0.5-1.8c-0.4-0.7-1.6-1.6-3.4-2.6c-1.8-1.1-3.3-1.7-4.5-1.9
					s-2.2-0.1-3,0.4s-1,1.1-0.5,1.8C783.5,384.4,784.6,385.3,786.5,386.4z"/>
			</g>
		</g>
	</g>
	<g>
		<g>
			<path d="M544.1,108.8l19.9,11.4l-80.4,52l-19.9-11.4L544.1,108.8 M544.1,107.6l-82.2,53.2l21.9,12.5l82.3-53.3L544.1,107.6
				L544.1,107.6z"/>
		</g>
	</g>
	<g>
		<g>
			<g>
				<path d="M586.8,89.8l-1.2,0.7l3.7,4.7l0,0l-7.9-1.9l-1.2,0.8l7,4l0.7-0.5l-4.5-2.5c-0.7-0.4-1.3-0.7-1.8-1l0,0l8.5,2.1l0.6-0.4
					l-3.9-5l0,0c0.6,0.4,1.1,0.7,1.6,1l4.5,2.6l0.8-0.5L586.8,89.8L586.8,89.8z"/>
			</g>
		</g>
		<g>
			<g>
				<path d="M594.5,87.7c-0.9,0-1.6,0.2-2.3,0.7c-0.7,0.5-1,1-1,1.5c0.1,0.5,0.5,1,1.4,1.5c0.6,0.3,1.1,0.5,1.7,0.6
					c0.3,0.1,0.6,0.1,1,0.1c0.3,0,0.5,0,0.8-0.1c0.6-0.1,1.1-0.3,1.5-0.6c0.7-0.5,1-1,1-1.5c-0.1-0.5-0.5-1.1-1.4-1.5
					C596.3,88,595.5,87.7,594.5,87.7L594.5,87.7L594.5,87.7z M595.5,91.5c-0.1,0-0.1,0-0.2,0c-0.6,0-1.2-0.2-1.9-0.6
					s-1.1-0.8-1.2-1.1c-0.1-0.4,0.1-0.7,0.6-1s0.9-0.4,1.5-0.4c0.1,0,0.1,0,0.2,0c0.6,0,1.2,0.2,1.9,0.6c0.7,0.4,1.1,0.8,1.2,1.1
					c0.1,0.4-0.1,0.7-0.6,1S596,91.5,595.5,91.5L595.5,91.5z"/>
			</g>
		</g>
		<g>
			<g>
				<path d="M600,83.9C599.9,83.9,599.9,83.9,600,83.9c-0.7,0-1.3,0.2-1.9,0.6c-0.3,0.2-0.6,0.5-0.7,0.7c-0.1,0.2-0.2,0.5,0,0.8l0,0
					l-0.8-0.3l-0.6,0.4l5.2,3l0.8-0.5l-2.8-1.6c-0.7-0.4-1.1-0.7-1.1-1.1c-0.1-0.3,0.2-0.7,0.7-1c0.4-0.3,0.8-0.4,1.2-0.4l0,0
					c0.4,0,0.8,0.1,1.2,0.4l3.4,1.9l0.8-0.5l-3.4-2C601.1,84.1,600.5,83.9,600,83.9L600,83.9z"/>
			</g>
		</g>
		<g>
			<g>
				<path d="M603.7,81l-1.4,0.9l-1.2-0.7l-0.4,0.3l0.8,0.8l-0.4,0.6l0.4,0.2l0.7-0.5l3.1,1.8c0.5,0.3,1,0.5,1.5,0.5s1-0.2,1.5-0.5
					c0.1-0.1,0.3-0.2,0.4-0.3c0.1-0.1,0.2-0.2,0.3-0.3l-0.6-0.3c-0.1,0.1-0.1,0.1-0.2,0.2c-0.1,0.1-0.2,0.2-0.4,0.3
					c-0.2,0.2-0.5,0.2-0.8,0.2l0,0c-0.3,0-0.6-0.1-0.9-0.3l-3.1-1.8l1.4-0.9L603.7,81L603.7,81z"/>
			</g>
		</g>
		<g>
			<g>
				<path d="M608.8,78.2h-0.1c-0.6,0-1.2,0.2-1.8,0.6c-0.3,0.2-0.6,0.5-0.7,0.7c-0.1,0.3-0.1,0.5,0,0.7l0,0
					c-0.2-0.1-0.4-0.3-0.6-0.4l-2.3-1.3l-0.8,0.5l7.4,4.2l0.8-0.5l-2.7-1.6c-0.7-0.4-1.1-0.7-1.1-1.1c-0.1-0.3,0.2-0.7,0.7-1
					c0.4-0.3,0.8-0.4,1.2-0.4l0,0c0.4,0,0.8,0.1,1.2,0.4l3.4,1.9l0.8-0.5l-3.4-2C610,78.4,609.4,78.2,608.8,78.2L608.8,78.2z"/>
			</g>
		</g>
	</g>
	<g>
		<g>
			<g>
				<path d="M507.4,141.2l-0.8,0.5l3.3,3.1c0.5,0.5,0.9,0.9,1.3,1.2c-0.7-0.3-1.4-0.5-2-0.7l-5.5-1.6l-0.8,0.5l3.1,3.2
					c0.4,0.4,0.8,0.8,1.3,1.2c-0.6-0.2-1.2-0.5-2-0.7l-5.4-1.8l-0.8,0.5l8.8,2.9l0.8-0.5l-3.4-3.5c-0.4-0.4-0.7-0.7-1.1-1
					c0.1,0,0.3,0.1,0.7,0.2s0.7,0.2,1,0.3l6,1.8l0.8-0.5L507.4,141.2L507.4,141.2z"/>
			</g>
		</g>
		<g>
			<g>
				<path d="M513.7,139.9c-0.8,0-1.5,0.2-2.1,0.6c-0.7,0.4-0.9,0.9-0.8,1.5c0.1,0.5,0.6,1.1,1.4,1.5c0.8,0.5,1.7,0.7,2.6,0.7l0,0
					c0.9,0,1.7-0.2,2.4-0.7c0.3-0.2,0.6-0.4,0.8-0.6c0.2-0.2,0.3-0.4,0.5-0.6l-0.7-0.4c-0.3,0.5-0.7,0.9-1.2,1.2s-1.1,0.5-1.7,0.5
					l0,0c-0.6,0-1.2-0.2-1.8-0.5l3.4-2.2l-0.5-0.3C515.3,140.1,514.6,139.9,513.7,139.9C513.8,139.9,513.7,139.9,513.7,139.9
					L513.7,139.9z M512.5,142.6c-0.4-0.3-0.7-0.6-0.7-0.9s0.1-0.6,0.5-0.9c0.4-0.2,0.8-0.4,1.2-0.4h0.1c0.5,0,1,0.2,1.5,0.5
					L512.5,142.6L512.5,142.6z"/>
			</g>
		</g>
		<g>
			<g>
				<path d="M518.9,136.5c-0.8,0-1.5,0.2-2.1,0.6c-0.7,0.4-0.9,0.9-0.8,1.5c0.1,0.5,0.6,1.1,1.4,1.5c0.8,0.5,1.7,0.7,2.6,0.7l0,0
					c0.9,0,1.7-0.2,2.4-0.7c0.3-0.2,0.6-0.4,0.8-0.6c0.2-0.2,0.3-0.4,0.5-0.6l-0.7-0.4c-0.3,0.5-0.7,0.9-1.2,1.2
					c-0.5,0.3-1.1,0.5-1.7,0.5l0,0c-0.6,0-1.2-0.2-1.8-0.5l3.4-2.2l-0.5-0.3C520.5,136.7,519.8,136.5,518.9,136.5L518.9,136.5
					L518.9,136.5z M517.7,139.3c-0.4-0.3-0.7-0.6-0.7-0.9s0.1-0.6,0.5-0.9c0.4-0.2,0.8-0.4,1.2-0.4h0.1c0.5,0,1,0.2,1.5,0.5
					L517.7,139.3L517.7,139.3z"/>
			</g>
		</g>
		<g>
			<g>
				<path d="M524,132.6l-0.9,0.6l0.2,2.1c0,0.4,0.1,0.6,0.2,0.8l0,0c-0.3-0.2-0.6-0.4-0.8-0.5l-3.9-2.3l-0.7,0.5l7.4,4.3l0.7-0.5
					l-2-1.1l0.1-0.7l4.2,0.3l0.9-0.6l-5.2-0.3L524,132.6L524,132.6z"/>
			</g>
		</g>
	</g>
	<g>
		<g>
			<g>
				<path d="M424,195.5h-0.1c-1.2,0-2.3,0.4-3.3,1l-2,1.3l7,4l1.8-1.2c1.1-0.7,1.7-1.5,1.7-2.2s-0.6-1.4-1.8-2.1
					C426.2,195.8,425.1,195.5,424,195.5L424,195.5z M425.5,201l-5.6-3.2l1.1-0.7c0.9-0.6,1.7-0.8,2.6-0.9h0.1c0.9,0,1.7,0.3,2.6,0.8
					c0.9,0.5,1.4,1.1,1.4,1.7c0,0.6-0.4,1.2-1.4,1.8L425.5,201L425.5,201z"/>
			</g>
		</g>
		<g>
			<g>
				<path d="M430.5,192.6h-0.1c-0.6,0-1.1,0.2-1.7,0.6c-0.3,0.2-0.5,0.4-0.8,0.6c-0.2,0.2-0.4,0.5-0.5,0.7l0.8,0.2
					c0.3-0.5,0.6-0.9,1-1.1s0.7-0.4,1.1-0.4l0,0c0.4,0,0.8,0.1,1.2,0.4l0.3,0.2l-0.8,0.6c-1.6,1.1-1.8,1.9-0.8,2.5
					c0.5,0.3,0.9,0.4,1.4,0.4h0.1c0.5,0,1.1-0.2,1.6-0.5c0.4-0.2,0.6-0.5,0.8-0.7c0.1-0.2,0.2-0.5,0.1-0.9l0,0l0.9,0.3l0.6-0.4
					l-3.6-2.1C431.6,192.8,431,192.6,430.5,192.6L430.5,192.6z M431.9,196.6c-0.3,0-0.5-0.1-0.8-0.2c-0.4-0.2-0.5-0.5-0.4-0.7
					c0.1-0.3,0.4-0.6,1-1l0.7-0.5l0.5,0.3c0.5,0.3,0.7,0.6,0.7,0.9s-0.2,0.6-0.7,1c-0.3,0.2-0.6,0.3-0.9,0.3
					C431.9,196.6,431.9,196.6,431.9,196.6L431.9,196.6z"/>
			</g>
		</g>
		<g>
			<g>
				<path d="M435.8,188.6l-0.8,0.5c1.3,1.6,2.1,2.6,2.4,2.9c0.3,0.3,0.5,0.5,0.6,0.6l0,0c-0.4-0.1-1-0.3-1.9-0.6l-4.1-1l-0.8,0.5
					l7.3,1.7l0.5,0.6c0.4,0.5,0.3,0.9-0.2,1.2c-0.2,0.1-0.4,0.2-0.6,0.3l0.6,0.4c0.3-0.1,0.5-0.2,0.8-0.4c0.4-0.3,0.6-0.6,0.7-0.9
					c0-0.3-0.1-0.7-0.5-1.2L435.8,188.6L435.8,188.6z"/>
			</g>
		</g>
	</g>
	<g>
		<path d="M934.6,515.4l-6.1-3.5l-1.1,0.7c-0.4,0.3-1,0.4-1.5,0.3c-1-0.2-1.1-0.8-1.1-1.1l-0.4-8.2c0-0.7,0.6-1.2,1.5-1.2l13.3-0.3
			c0.4-0.1,0.9,0,1.1,0.2c0.2,0.1,0.3,0.3,0.3,0.5c0.1,0.2,0.1,0.3,0.1,0.5c0,0.3-0.2,0.6-0.5,0.8l-0.7,0.5l6.1,3.5l-4.5,3l-3.8-2.2
			l-2,1.3l3.8,2.2L934.6,515.4z M928.5,510.8l6.1,3.5l2.7-1.8l-3.8-2.2l3.8-2.5l3.8,2.2l2.7-1.8l-6.1-3.5l2.1-1.3c0,0,0,0,0,0
			l-0.1-0.1v-0.1c-0.1,0-0.2,0-0.3,0l-0.1,0l-13.4,0.3c-0.3,0-0.5,0.1-0.5,0.2l0.4,8.2c0,0,0.1,0.1,0.3,0.1c0.2,0.1,0.5,0,0.7-0.1
			L928.5,510.8z"/>
	</g>
	<g>
		<g>
			<g>
				<path d="M841.7,281.9c-0.8,0.2-1.5,0.5-2.1,0.9s-0.9,0.8-1,1.3c-0.1,0.4,0.2,0.8,0.7,1.1s1,0.4,1.5,0.4l0,0
					c0.5,0,1.3-0.2,2.2-0.5c0.6-0.2,1.1-0.3,1.5-0.4c0.3-0.1,0.5-0.1,0.7-0.1c0.1,0,0.2,0,0.3,0c0.3,0,0.6,0.1,0.8,0.3
					c0.4,0.2,0.6,0.6,0.6,0.9c-0.1,0.4-0.4,0.7-0.9,1.1c-0.7,0.5-1.5,0.8-2.2,1l0.5,0.3c0.6-0.2,1.3-0.5,2.2-1.1
					c0.7-0.4,1-0.9,1.1-1.4s-0.2-0.9-0.8-1.2c-0.3-0.2-0.7-0.3-1-0.4c-0.2,0-0.3,0-0.5,0s-0.5,0-0.7,0.1c-0.4,0.1-1,0.2-1.7,0.4
					s-1.2,0.4-1.5,0.4c-0.2,0-0.4,0.1-0.6,0.1c-0.1,0-0.2,0-0.3,0c-0.3,0-0.5-0.1-0.8-0.3c-0.4-0.2-0.6-0.5-0.6-0.8s0.3-0.7,0.8-1
					s1.2-0.6,1.9-0.8L841.7,281.9L841.7,281.9z"/>
			</g>
		</g>
		<g>
			<g>
				<path d="M848.8,279.8c-0.7,0-1.4,0.2-2,0.6c-0.7,0.5-1,1-0.8,1.5l0,0l-0.8-0.4l-0.4,0.2l7.7,4.4l0.4-0.3l-2-1.1
					c-0.3-0.2-0.6-0.3-0.8-0.4l-0.4-0.2l0,0c0.2,0,0.4,0,0.5,0c0.7,0,1.4-0.2,2-0.6s0.9-0.9,0.8-1.4c-0.1-0.5-0.6-1-1.5-1.5
					s-1.7-0.8-2.6-0.8C848.9,279.8,848.9,279.8,848.8,279.8L848.8,279.8z M850.1,283.8L850.1,283.8c-0.7,0-1.4-0.3-2.3-0.8l-0.2-0.1
					c-0.8-0.4-1.2-0.8-1.2-1.2c-0.1-0.4,0.2-0.7,0.8-1.1c0.5-0.3,1-0.4,1.5-0.4c0.7,0,1.5,0.2,2.4,0.7c0.7,0.4,1.1,0.8,1.3,1.2
					c0.1,0.4-0.1,0.8-0.6,1.1C851.2,283.6,850.7,283.8,850.1,283.8L850.1,283.8z"/>
			</g>
		</g>
		<g>
			<g>
				<path d="M853.9,276.4c-0.7,0-1.3,0.2-1.9,0.5c-0.7,0.4-0.9,0.9-0.8,1.5s0.6,1.1,1.4,1.5c0.8,0.5,1.7,0.7,2.6,0.7l0,0
					c0.9,0,1.6-0.2,2.3-0.7c0.3-0.2,0.5-0.4,0.7-0.5c0.2-0.2,0.4-0.4,0.5-0.7l-0.4-0.2c-0.2,0.3-0.4,0.5-0.5,0.7
					c-0.2,0.2-0.4,0.3-0.7,0.5c-0.6,0.4-1.2,0.5-1.8,0.5h-0.1c-0.7,0-1.4-0.2-2.1-0.6l3.6-2.3l-0.4-0.2
					C855.6,276.6,854.8,276.4,853.9,276.4C854,276.4,854,276.4,853.9,276.4L853.9,276.4z M852.8,279.4c-0.6-0.4-0.9-0.8-0.9-1.2
					s0.2-0.7,0.6-1c0.4-0.3,0.8-0.4,1.4-0.4c0.1,0,0.1,0,0.2,0c0.6,0,1.2,0.2,1.8,0.6L852.8,279.4L852.8,279.4z"/>
			</g>
		</g>
		<g>
			<g>
				<path d="M859,273.1c-0.7,0-1.3,0.2-1.9,0.5c-0.7,0.4-0.9,0.9-0.8,1.5c0.1,0.5,0.6,1.1,1.4,1.5c0.8,0.5,1.7,0.7,2.6,0.7l0,0
					c0.9,0,1.6-0.2,2.3-0.7c0.3-0.2,0.5-0.4,0.7-0.5s0.4-0.4,0.5-0.7l-0.4-0.2c-0.2,0.3-0.4,0.5-0.5,0.7c-0.2,0.2-0.4,0.3-0.7,0.5
					c-0.6,0.4-1.2,0.5-1.8,0.5h-0.1c-0.7,0-1.4-0.2-2.1-0.6l3.6-2.3l-0.4-0.2C860.7,273.4,859.9,273.1,859,273.1
					C859.1,273.1,859.1,273.1,859,273.1L859,273.1z M857.9,276.1c-0.6-0.4-0.9-0.8-0.9-1.2s0.2-0.7,0.6-1c0.4-0.3,0.8-0.4,1.4-0.4
					c0.1,0,0.1,0,0.2,0c0.6,0,1.2,0.2,1.8,0.6L857.9,276.1L857.9,276.1z"/>
			</g>
		</g>
		<g>
			<g>
				<path d="M862.1,267.8l-0.4,0.3l1.9,1.1c0.4,0.2,0.8,0.4,1.2,0.7l0,0c-0.2,0-0.4,0-0.6,0c-0.3,0-0.6,0-0.8,0.1
					c-0.4,0.1-0.8,0.3-1.1,0.5c-0.7,0.4-1,0.9-0.8,1.4c0.1,0.5,0.6,1,1.6,1.5c0.9,0.5,1.7,0.8,2.5,0.8h0.1c0.8,0,1.5-0.2,2.1-0.6
					c0.7-0.5,0.9-1,0.7-1.6l0,0l0.9,0.4l0.3-0.2L862.1,267.8L862.1,267.8z M865.6,273.6c-0.7,0-1.4-0.2-2.3-0.7
					c-0.8-0.4-1.2-0.9-1.4-1.3c-0.1-0.4,0.1-0.8,0.6-1.1s1.1-0.5,1.6-0.5c0.1,0,0.1,0,0.2,0c0.6,0,1.3,0.3,2.1,0.8h0.1
					c0.8,0.5,1.2,0.9,1.3,1.2c0.1,0.4-0.1,0.7-0.7,1.1C866.7,273.5,866.2,273.6,865.6,273.6L865.6,273.6z"/>
			</g>
		</g>
		<g>
			<g>
				<path d="M868,264.4l-0.5,0.3c0.1,0.6,0.4,1.2,0.9,1.8s1.2,1.1,2.1,1.6c0.8,0.5,1.7,0.9,2.7,1.1c1,0.3,1.9,0.4,2.9,0.4l0.5-0.3
					c-2.2-0.1-4.1-0.7-5.7-1.6c-0.8-0.5-1.5-1-2-1.6S868.2,265.1,868,264.4L868,264.4z"/>
			</g>
		</g>
		<g>
			<g>
				<polygon points="874.5,262.5 873.9,262.8 874.4,266.1 874.3,266.2 872.9,265.3 869.1,263.2 868.7,263.5 876.2,267.8 
					876.7,267.5 874.8,266.4 874.8,265.4 879.4,265.6 879.9,265.4 874.8,265 				"/>
			</g>
		</g>
		<g>
			<g>
				<path d="M882,258L882,258c-0.6,0-1.1,0.2-1.7,0.5c-0.3,0.2-0.6,0.5-0.7,0.7c-0.1,0.3-0.1,0.5,0,0.8l0,0
					c-0.2-0.1-0.5-0.1-0.7-0.1c-0.6,0-1.1,0.2-1.7,0.5c-0.3,0.2-0.5,0.4-0.6,0.7c-0.1,0.2-0.1,0.5,0,0.7l0,0l-0.8-0.4l-0.4,0.2
					l5.3,3l0.4-0.3l-2.9-1.7c-0.7-0.4-1.1-0.8-1.2-1.1c-0.1-0.3,0.1-0.7,0.6-1c0.4-0.2,0.8-0.4,1.2-0.4s0.8,0.1,1.3,0.4l3.6,2.1
					l0.5-0.3l-3.1-1.8c-0.6-0.4-1-0.7-1-1c-0.1-0.3,0.2-0.7,0.7-1C881.2,258.3,881.6,258.1,882,258C882,258.1,882,258.1,882,258
					c0.5,0.1,1,0.3,1.5,0.6l3.5,2l0.4-0.3l-3.4-2C883.2,258.2,882.6,258,882,258L882,258z"/>
			</g>
		</g>
		<g>
			<g>
				<polygon points="884.1,254 883.6,254.3 888.2,259.9 888.7,259.6 				"/>
			</g>
		</g>
		<g>
			<g>
				<path d="M890.7,252.3c-0.6,0-1.2,0.2-1.7,0.5c-0.4,0.3-0.7,0.5-0.8,0.8s-0.1,0.5,0,0.8l0,0l-0.7-0.4l-2.4-1.4l-0.4,0.3l7.5,4.3
					l0.4-0.3l-2.9-1.7c-0.7-0.4-1.1-0.8-1.1-1.2s0.2-0.7,0.8-1.1c0.4-0.3,0.9-0.4,1.3-0.4l0,0c0.4,0,0.9,0.2,1.5,0.5l3.4,1.9
					l0.4-0.3l-3.4-2C891.9,252.5,891.3,252.3,890.7,252.3L890.7,252.3z"/>
			</g>
		</g>
		<g>
			<g>
				<path d="M890.5,249.8l-0.5,0.3c1,0,2,0.2,3,0.5s1.9,0.6,2.7,1.1c1.6,0.9,2.5,2,2.9,3.4l0.5-0.3c-0.1-0.6-0.4-1.2-0.9-1.8
					s-1.2-1.1-2-1.6s-1.8-0.9-2.7-1.1C892.5,250,891.5,249.8,890.5,249.8L890.5,249.8z"/>
			</g>
		</g>
	</g>
	<g>
		<g>
			<g>
				<path d="M831.8,278.1l-1.3,0.9l-5.6-3.2c-0.7-0.4-1.2-0.7-1.6-0.9c0,0.1,0,0.2,0,0.4c0,0.1-0.1,0.6-0.2,1.4l-1.5-0.1l0.4-2.7
					l1.1-0.7L831.8,278.1z"/>
			</g>
		</g>
		<g>
			<g>
				<path d="M835.6,270.2c1.5,0.9,2.4,1.7,2.7,2.4s-0.1,1.4-1,2s-2,0.8-3.2,0.7s-2.6-0.6-4-1.4c-1.5-0.9-2.4-1.7-2.7-2.4
					s0.1-1.4,1-2s2-0.8,3.2-0.7C832.8,268.9,834.2,269.4,835.6,270.2z M831.4,273c1.2,0.7,2.2,1.1,2.9,1.2s1.4,0,1.9-0.3
					s0.6-0.7,0.3-1.2c-0.3-0.4-1-1-2.2-1.7s-2.1-1.1-2.9-1.2c-0.8-0.1-1.4-0.1-1.9,0.3c-0.5,0.3-0.6,0.7-0.3,1.2
					C829.5,271.6,830.2,272.3,831.4,273z"/>
			</g>
		</g>
		<g>
			<g>
				<path d="M840.5,271.5c-0.3-0.2-0.4-0.3-0.5-0.5c0-0.2,0.1-0.4,0.4-0.5c0.3-0.2,0.6-0.3,0.9-0.3c0.3,0,0.6,0.1,0.9,0.2
					c0.3,0.2,0.4,0.3,0.5,0.5c0,0.2-0.1,0.4-0.4,0.5c-0.3,0.2-0.6,0.3-0.9,0.3S840.8,271.6,840.5,271.5z"/>
			</g>
		</g>
		<g>
			<g>
				<path d="M849.7,266.4l-5.5,3.6l-1.1-0.6l-0.2-2.7c-0.1-0.8-0.1-1.3-0.2-1.6c-0.1-0.3-0.2-0.5-0.4-0.7s-0.4-0.4-0.7-0.6
					c-0.4-0.2-0.8-0.3-1.3-0.3c-0.4,0-0.9,0.2-1.3,0.4c-0.3,0.2-0.6,0.4-0.7,0.7c-0.2,0.3-0.3,0.6-0.3,1l-1.6-0.1
					c0-0.5,0.2-1,0.5-1.4s0.6-0.7,1.1-1c0.8-0.5,1.6-0.8,2.5-0.8c0.9-0.1,1.7,0.1,2.4,0.5c0.4,0.2,0.7,0.5,0.9,0.8s0.4,0.6,0.5,1
					s0.2,1,0.2,1.8v1.8h0.1l3.9-2.5L849.7,266.4z"/>
			</g>
		</g>
	</g>
	<g>
		<g>
			<g>
				<path d="M881.9,303.9c-0.1,0-0.2,0-0.3,0c-0.7,0.1-1.5,0.4-2.3,0.9l-1.6,1l7.1,4.1l0.5-0.3l-3.1-1.8l1.6-1.1l4.8,0.6l0.6-0.4
					l-5-0.7c0.3-0.4,0.5-0.8,0.4-1.1s-0.4-0.6-0.9-0.9C883,304,882.5,303.9,881.9,303.9L881.9,303.9z M881.7,307.6l-3.1-1.8l1.1-0.7
					c0.7-0.4,1.3-0.7,1.9-0.8c0.1,0,0.2,0,0.3,0c0.5,0,0.9,0.1,1.4,0.4c0.5,0.3,0.8,0.6,0.7,1c0,0.4-0.3,0.7-0.9,1.1L881.7,307.6
					L881.7,307.6z"/>
			</g>
		</g>
		<g>
			<g>
				<path d="M888.5,301.6c-0.7,0-1.3,0.2-1.9,0.5c-0.7,0.4-0.9,0.9-0.8,1.5c0.1,0.5,0.6,1.1,1.4,1.5c0.9,0.5,1.7,0.7,2.6,0.7l0,0
					c0.9,0,1.6-0.2,2.3-0.7c0.3-0.2,0.5-0.4,0.7-0.6s0.4-0.4,0.5-0.7l-0.4-0.2c-0.2,0.3-0.4,0.5-0.5,0.7c-0.2,0.2-0.4,0.3-0.7,0.5
					c-0.6,0.4-1.2,0.5-1.8,0.5h-0.1c-0.7,0-1.4-0.2-2.1-0.6l3.6-2.3l-0.4-0.2C890.2,301.8,889.4,301.5,888.5,301.6
					C888.6,301.6,888.6,301.6,888.5,301.6L888.5,301.6z M887.4,304.5c-0.6-0.4-0.9-0.8-0.9-1.2s0.2-0.7,0.6-1
					c0.4-0.3,0.8-0.4,1.4-0.4c0.1,0,0.1,0,0.2,0c0.6,0,1.2,0.2,1.8,0.6L887.4,304.5L887.4,304.5z"/>
			</g>
		</g>
		<g>
			<g>
				<path d="M894,298c-0.7,0-1.4,0.2-2,0.6c-0.7,0.5-1,1-0.8,1.6l0,0l-0.8-0.4L890,300l7.7,4.4l0.4-0.3l-2-1.1
					c-0.3-0.2-0.6-0.3-0.8-0.4l-0.4-0.2l0,0c0.2,0,0.4,0,0.5,0c0.7,0,1.4-0.2,2-0.6s0.9-0.9,0.8-1.4c-0.1-0.5-0.6-1-1.5-1.5
					s-1.7-0.8-2.6-0.8C894.2,298,894.1,298,894,298L894,298z M895.4,302L895.4,302c-0.7,0-1.4-0.3-2.3-0.8l-0.2-0.1
					c-0.8-0.4-1.2-0.8-1.2-1.2s0.2-0.7,0.8-1.1c0.5-0.3,1-0.4,1.5-0.4c0.7,0,1.5,0.2,2.4,0.7c0.7,0.4,1.1,0.8,1.3,1.2
					c0.1,0.4-0.1,0.8-0.6,1.1C896.5,301.8,895.9,302,895.4,302L895.4,302z"/>
			</g>
		</g>
		<g>
			<g>
				<path d="M899.1,294.6c-0.7,0-1.3,0.2-1.9,0.5c-0.7,0.4-0.9,0.9-0.8,1.5c0.1,0.5,0.6,1.1,1.4,1.5c0.9,0.5,1.7,0.7,2.6,0.7l0,0
					c0.9,0,1.6-0.2,2.3-0.7c0.3-0.2,0.5-0.4,0.7-0.6s0.4-0.4,0.5-0.7l-0.4-0.2c-0.2,0.3-0.4,0.5-0.5,0.7c-0.2,0.2-0.4,0.3-0.7,0.5
					c-0.6,0.4-1.2,0.5-1.8,0.5h-0.1c-0.7,0-1.4-0.2-2.1-0.6l3.6-2.3l-0.4-0.2C900.8,294.8,900,294.5,899.1,294.6
					C899.2,294.6,899.2,294.6,899.1,294.6L899.1,294.6z M898,297.6c-0.6-0.4-0.9-0.8-0.9-1.2s0.2-0.7,0.6-1c0.4-0.3,0.8-0.4,1.4-0.4
					c0.1,0,0.1,0,0.2,0c0.6,0,1.2,0.2,1.8,0.6L898,297.6L898,297.6z"/>
			</g>
		</g>
		<g>
			<g>
				<path d="M903.9,291.4L903.9,291.4c-0.6,0-1.1,0.2-1.7,0.5c-0.5,0.3-0.9,0.8-1.2,1.3l0.6,0.1c0.2-0.5,0.6-0.9,1-1.2
					s0.8-0.4,1.2-0.4h0.1c0.4,0,0.9,0.2,1.4,0.5l0.3,0.2l-0.9,0.6c-0.7,0.5-1.2,1-1.3,1.4s0.1,0.8,0.6,1.1c0.4,0.2,0.9,0.4,1.4,0.4
					h0.1c0.5,0,1-0.2,1.5-0.5c0.4-0.2,0.6-0.5,0.7-0.7c0.1-0.3,0.1-0.6,0-0.9l0,0l0.9,0.4l0.3-0.2l-3.5-2
					C905.1,291.5,904.5,291.4,903.9,291.4L903.9,291.4z M905.6,295.5c-0.3,0-0.7-0.1-0.9-0.3c-0.4-0.2-0.6-0.5-0.5-0.8
					s0.5-0.7,1.1-1.2l0.8-0.6l0.5,0.3c0.6,0.3,0.9,0.7,0.9,1.1s-0.2,0.7-0.8,1.1C906.4,295.3,906,295.4,905.6,295.5L905.6,295.5
					L905.6,295.5z"/>
			</g>
		</g>
		<g>
			<g>
				<path d="M907.5,288.6l-1.4,0.9l-1.3-0.7l-0.2,0.2l1,0.8l-0.5,0.6l0.3,0.2l0.7-0.5l3.4,1.9c0.5,0.3,1,0.5,1.5,0.5l0,0
					c0.4,0,0.9-0.1,1.3-0.4c0.3-0.2,0.5-0.4,0.6-0.6l-0.4-0.2c-0.2,0.2-0.4,0.3-0.7,0.5s-0.5,0.2-0.8,0.2h-0.1
					c-0.3,0-0.7-0.2-1.1-0.4l-3.3-1.9l1.4-0.9L907.5,288.6L907.5,288.6z"/>
			</g>
		</g>
		<g>
			<g>
				<polygon points="913.3,282.6 908.5,285.6 908.9,286 911.1,284.6 917.7,288.3 918.2,288 911.6,284.3 913.7,282.9 				"/>
			</g>
		</g>
		<g>
			<g>
				<path d="M918.1,281.6c-0.3,0.1-0.5,0.3-0.7,0.4c-0.3,0.2-0.5,0.4-0.6,0.7c-0.1,0.2,0,0.5,0.2,0.9l0,0l-1-0.5l-0.4,0.2l5.3,3
					l0.4-0.3l-2.9-1.7c-0.6-0.3-0.9-0.7-1-1.1s0-0.7,0.5-1c0.2-0.1,0.5-0.3,0.7-0.4L918.1,281.6L918.1,281.6z"/>
			</g>
		</g>
		<g>
			<g>
				<path d="M917.7,279.6c-0.1,0-0.2,0-0.3,0.1c-0.2,0.1-0.1,0.3,0.2,0.5c0.2,0.1,0.3,0.2,0.5,0.2c0.1,0,0.2,0,0.3-0.1
					s0.1-0.1,0.1-0.2c0-0.1-0.1-0.2-0.3-0.2C918,279.6,917.9,279.6,917.7,279.6L917.7,279.6L917.7,279.6z M919.6,280.6l-0.4,0.3
					l5.3,3l0.4-0.3L919.6,280.6L919.6,280.6z"/>
			</g>
		</g>
		<g>
			<g>
				<path d="M925.3,277.6c-0.7,0-1.4,0.2-2,0.6c-0.7,0.5-1,1-0.8,1.5l0,0l-0.8-0.4l-0.4,0.2l7.7,4.4l0.4-0.3l-2-1.1
					c-0.3-0.2-0.6-0.3-0.8-0.4l-0.4-0.2l0,0c0.2,0,0.4,0,0.5,0c0.7,0,1.4-0.2,2-0.6c0.6-0.4,0.9-0.9,0.8-1.4c-0.1-0.5-0.6-1-1.5-1.5
					s-1.7-0.8-2.6-0.8H925.3L925.3,277.6z M926.6,281.6L926.6,281.6c-0.7,0-1.4-0.3-2.3-0.8l-0.2-0.1c-0.8-0.4-1.2-0.8-1.2-1.2
					s0.2-0.7,0.8-1.1c0.5-0.3,1-0.4,1.5-0.4c0.7,0,1.5,0.2,2.4,0.7c0.7,0.4,1.1,0.8,1.3,1.2c0.1,0.4-0.1,0.8-0.6,1.1
					C927.7,281.4,927.2,281.6,926.6,281.6L926.6,281.6z"/>
			</g>
		</g>
		<g>
			<g>
				<path d="M929.9,274.2c-0.7,0.2-1.3,0.5-1.8,0.8c-0.6,0.4-0.9,0.7-1,1s0.1,0.6,0.5,0.8c0.2,0.1,0.5,0.2,0.8,0.3
					c0.1,0,0.2,0,0.3,0c0.2,0,0.4,0,0.6,0c0.3-0.1,0.8-0.2,1.5-0.4c0.6-0.2,1.1-0.3,1.5-0.3c0.1,0,0.1,0,0.2,0
					c0.3,0,0.6,0.1,0.8,0.2c0.3,0.2,0.4,0.4,0.3,0.6c-0.1,0.3-0.4,0.6-0.8,0.9c-0.6,0.4-1.2,0.6-2,0.8l0.5,0.3
					c0.6-0.1,1.2-0.4,1.9-0.8c0.6-0.4,1-0.8,1-1.2c0.1-0.4-0.1-0.7-0.6-1c-0.2-0.1-0.5-0.2-0.8-0.3c-0.1,0-0.2,0-0.3,0
					c-0.2,0-0.4,0-0.6,0.1c-0.3,0.1-0.8,0.2-1.4,0.4c-0.7,0.2-1.3,0.4-1.6,0.4h-0.1c-0.3,0-0.6-0.1-0.8-0.2
					c-0.3-0.1-0.3-0.3-0.2-0.6c0.1-0.2,0.3-0.5,0.7-0.7c0.4-0.3,1-0.5,1.7-0.7L929.9,274.2L929.9,274.2z"/>
			</g>
		</g>
	</g>
	<g>
		<g>
			<g>
				<path d="M867.1,297c0.8-0.5,1.7-0.8,2.7-0.9c0.9,0,1.8,0.2,2.6,0.6c0.9,0.5,1.4,1.1,1.4,1.8s-0.5,1.3-1.5,2
					c-0.9,0.6-1.8,1-2.6,1.1l-1.3-0.7c0.5-0.1,1-0.2,1.5-0.4s0.9-0.4,1.2-0.6c0.6-0.4,0.9-0.8,0.9-1.1c0-0.4-0.2-0.7-0.8-1
					c-1-0.6-2.2-0.5-3.4,0.3c-0.2,0.1-0.4,0.3-0.6,0.5c-0.2,0.2-0.4,0.4-0.5,0.5l-1,0.2l-3.9-2.6l4.2-2.8l1.2,0.7l-3.1,2l2,1.4
					c0.1-0.1,0.2-0.2,0.4-0.4C866.6,297.3,866.8,297.1,867.1,297z"/>
			</g>
		</g>
	</g>
	<g>
		<g>
			<g>
				<path d="M922.2,325.8c-0.8,0.2-1.5,0.5-2.1,0.9s-1,0.9-1.2,1.4s-0.1,1,0.2,1.5s0.8,0.9,1.5,1.3c1.2,0.7,2.3,1,3.5,1h0.1
					c1.1,0,2.2-0.3,3.1-0.9c0.7-0.4,1.1-0.8,1.4-1.2l-0.4-0.2c-0.3,0.4-0.8,0.8-1.3,1.1c-0.8,0.5-1.7,0.8-2.6,0.8h-0.1
					c-1,0-2-0.3-3-0.9s-1.5-1.2-1.6-1.8s0.3-1.2,1.1-1.8c0.5-0.3,1.2-0.6,1.9-0.8L922.2,325.8L922.2,325.8z"/>
			</g>
		</g>
		<g>
			<g>
				<path d="M928.2,324.2L928.2,324.2c-0.6,0-1.1,0.2-1.7,0.5c-0.5,0.3-0.9,0.8-1.2,1.3l0.6,0.1c0.2-0.5,0.6-0.9,1-1.2
					s0.8-0.4,1.2-0.4h0.1c0.4,0,0.9,0.2,1.4,0.5l0.3,0.2l-0.9,0.6c-0.7,0.5-1.2,1-1.3,1.4s0.1,0.8,0.6,1.1c0.4,0.2,0.9,0.4,1.4,0.4
					h0.1c0.5,0,1-0.2,1.5-0.5c0.4-0.2,0.6-0.5,0.7-0.7c0.1-0.3,0.1-0.6,0-0.9l0,0l0.9,0.4l0.3-0.2l-3.5-2
					C929.4,324.4,928.8,324.2,928.2,324.2L928.2,324.2z M929.8,328.4c-0.3,0-0.7-0.1-1-0.3c-0.4-0.2-0.6-0.5-0.5-0.8
					s0.5-0.7,1.1-1.2l0.8-0.6l0.5,0.3c0.6,0.3,0.9,0.7,0.9,1.1s-0.2,0.7-0.8,1.1C930.5,328.2,930.1,328.3,929.8,328.4
					C929.9,328.4,929.9,328.4,929.8,328.4L929.8,328.4z"/>
			</g>
		</g>
		<g>
			<g>
				<polygon points="928,321.1 927.6,321.4 935.1,325.6 935.6,325.4 				"/>
			</g>
		</g>
		<g>
			<g>
				<path d="M935.9,319.4c-0.8,0-1.5,0.2-2.2,0.6s-1,0.9-0.9,1.5c0.1,0.5,0.6,1,1.4,1.5c0.5,0.3,1.1,0.5,1.7,0.7
					c0.3,0.1,0.7,0.1,1,0.1c0.2,0,0.5,0,0.7-0.1c0.6-0.1,1-0.3,1.5-0.6c0.7-0.4,1-0.9,0.9-1.5c-0.1-0.5-0.6-1-1.4-1.5
					c-0.8-0.5-1.7-0.7-2.6-0.8C936,319.4,936,319.4,935.9,319.4L935.9,319.4z M937.1,323.4c-0.1,0-0.1,0-0.2,0
					c-0.7,0-1.4-0.3-2.1-0.7c-0.7-0.4-1.2-0.8-1.3-1.3c-0.1-0.4,0.1-0.8,0.7-1.2c0.5-0.3,1.1-0.5,1.7-0.5c0.1,0,0.1,0,0.2,0
					c0.7,0,1.4,0.3,2.1,0.7c0.7,0.4,1.1,0.8,1.3,1.3c0.1,0.4-0.1,0.8-0.7,1.2C938.3,323.2,937.7,323.4,937.1,323.4L937.1,323.4z"/>
			</g>
		</g>
		<g>
			<g>
				<path d="M940,316c-0.3,0.1-0.5,0.3-0.7,0.4c-0.3,0.2-0.5,0.4-0.6,0.7s0,0.5,0.2,0.9l0,0l-1-0.5l-0.4,0.2l5.3,3l0.4-0.3l-2.9-1.7
					c-0.6-0.3-0.9-0.7-1-1.1c-0.1-0.4,0-0.7,0.5-1c0.2-0.1,0.5-0.3,0.7-0.4L940,316L940,316z"/>
			</g>
		</g>
		<g>
			<g>
				<path d="M939.6,314.1c-0.1,0-0.2,0-0.3,0.1c-0.2,0.1-0.1,0.3,0.2,0.5c0.2,0.1,0.3,0.2,0.5,0.2c0.1,0,0.2,0,0.3-0.1
					s0.1-0.1,0.1-0.2c0-0.1-0.1-0.2-0.3-0.2C939.9,314.1,939.8,314.1,939.6,314.1L939.6,314.1L939.6,314.1z M941.5,315.1l-0.4,0.3
					l5.3,3l0.4-0.3L941.5,315.1L941.5,315.1z"/>
			</g>
		</g>
		<g>
			<g>
				<path d="M946.7,312.2c-0.7,0-1.3,0.2-1.9,0.5c-0.7,0.4-0.9,0.9-0.8,1.5c0.1,0.5,0.6,1.1,1.4,1.5c0.9,0.5,1.7,0.7,2.6,0.7l0,0
					c0.9,0,1.6-0.2,2.3-0.7c0.3-0.2,0.5-0.4,0.7-0.6s0.4-0.4,0.5-0.7l-0.4-0.3c-0.2,0.3-0.4,0.5-0.5,0.7c-0.2,0.2-0.4,0.3-0.7,0.5
					c-0.6,0.4-1.2,0.5-1.8,0.5H948c-0.7,0-1.4-0.2-2.1-0.6l3.6-2.3l-0.4-0.2c-0.7-0.4-1.5-0.7-2.3-0.7
					C946.8,312.2,946.8,312.2,946.7,312.2L946.7,312.2z M945.6,315.2c-0.6-0.4-0.9-0.8-0.9-1.2s0.2-0.7,0.6-1
					c0.4-0.3,0.8-0.4,1.4-0.4c0.1,0,0.1,0,0.2,0c0.6,0,1.2,0.2,1.8,0.6L945.6,315.2L945.6,315.2z"/>
			</g>
		</g>
		<g>
			<g>
				<path d="M951.4,308.9c-0.7,0.2-1.3,0.5-1.8,0.8c-0.6,0.4-0.9,0.7-1,1s0.1,0.6,0.5,0.8c0.2,0.1,0.5,0.2,0.8,0.3
					c0.1,0,0.2,0,0.3,0c0.2,0,0.4,0,0.6,0c0.3-0.1,0.8-0.2,1.5-0.4c0.6-0.2,1.1-0.3,1.5-0.3c0.1,0,0.1,0,0.2,0
					c0.3,0,0.6,0.1,0.8,0.2c0.3,0.2,0.4,0.4,0.3,0.6c-0.1,0.3-0.4,0.6-0.8,0.9c-0.6,0.4-1.2,0.6-2,0.8l0.5,0.3
					c0.6-0.1,1.2-0.4,1.9-0.8c0.6-0.4,1-0.8,1-1.2c0.1-0.4-0.1-0.7-0.6-1c-0.2-0.1-0.5-0.2-0.8-0.3c-0.1,0-0.2,0-0.3,0
					c-0.2,0-0.4,0-0.6,0.1c-0.3,0.1-0.8,0.2-1.4,0.4c-0.7,0.2-1.3,0.4-1.6,0.4h-0.1c-0.3,0-0.6-0.1-0.8-0.2
					c-0.3-0.1-0.3-0.3-0.2-0.6s0.3-0.5,0.7-0.7c0.4-0.3,1-0.5,1.7-0.7L951.4,308.9L951.4,308.9z"/>
			</g>
		</g>
	</g>
	<g>
		<g>
			<g>
				<path d="M912.7,319.3l-1.1,0.7l1.9,1.1l-1.3,0.8l-1.9-1.1l-3.7,2.4l-1.1-0.6l-2-5.7l1.3-0.8l5.7,3.3l1.1-0.7L912.7,319.3z
					 M909.1,320.2l-2.2-1.3c-0.8-0.4-1.4-0.8-1.9-1.1l0,0c0.2,0.2,0.3,0.5,0.5,0.9l1.1,3.1L909.1,320.2z"/>
			</g>
		</g>
		<g>
			<g>
				<path d="M916.5,313.8c1.5,0.9,2.4,1.7,2.7,2.4s0,1.4-1,2c-0.9,0.6-2,0.8-3.2,0.7s-2.6-0.6-4.1-1.5s-2.5-1.7-2.7-2.4
					c-0.3-0.7,0.1-1.4,1-2s2-0.8,3.2-0.7C913.6,312.5,915,313,916.5,313.8z M912.3,316.6c1.2,0.7,2.2,1.1,2.9,1.2
					c0.7,0.1,1.4,0,1.9-0.3s0.6-0.7,0.3-1.2c-0.3-0.4-1-1-2.2-1.7s-2.1-1.1-2.9-1.2c-0.8-0.1-1.4-0.1-1.9,0.3
					c-0.5,0.4-0.6,0.7-0.3,1.2S911.1,315.9,912.3,316.6z"/>
			</g>
		</g>
		<g>
			<g>
				<path d="M927.4,312l-5.5,3.6l-1.1-0.6l-0.2-2.7c-0.1-0.8-0.1-1.3-0.2-1.6c-0.1-0.3-0.2-0.5-0.4-0.7s-0.4-0.4-0.7-0.6
					c-0.4-0.2-0.8-0.3-1.3-0.3c-0.4,0-0.9,0.2-1.3,0.4c-0.3,0.2-0.6,0.4-0.7,0.7c-0.2,0.3-0.3,0.6-0.3,1l-1.6-0.1
					c0-0.5,0.2-1,0.5-1.4s0.6-0.7,1.1-1c0.8-0.5,1.6-0.8,2.5-0.8c0.9-0.1,1.7,0.1,2.4,0.5c0.4,0.2,0.7,0.5,0.9,0.8s0.4,0.6,0.5,1
					s0.2,1,0.2,1.8l0.1,1.8h0.1l3.9-2.5L927.4,312z"/>
			</g>
		</g>
	</g>
	<g>
		<g>
			<polygon points="1016.6,460.2 1005.9,467.2 1007.4,468.2 1018.2,461 			"/>
		</g>
	</g>
	<g>
		<g>
			<polygon points="1004.4,468.2 1003,469.2 1004.5,469.9 1006,469 			"/>
		</g>
	</g>
	<g>
		<g>
			<polygon points="1000.6,465.9 999.2,466.9 1000.7,467.7 1002.1,466.9 			"/>
		</g>
	</g>
	<g>
		<g>
			<polygon points="996.8,463.7 995.3,464.7 996.9,465.5 998.3,464.6 			"/>
		</g>
	</g>
	<g>
		<g>
			<polygon points="992.9,461.5 991.5,462.5 993,463.4 994.5,462.4 			"/>
		</g>
	</g>
	<g>
		<g>
			<polygon points="1005.1,453.5 994.4,460.6 995.9,461.5 1006.7,454.4 			"/>
		</g>
	</g>
	<g>
		<g>
			<polygon points="1012.8,457.9 1002,465 1003.6,465.9 1014.3,458.9 			"/>
		</g>
	</g>
	<g>
		<g>
			<polygon points="1009,455.7 998.2,462.9 999.7,463.7 1010.5,456.6 			"/>
		</g>
	</g>
	<g>
		<rect x="859.4" y="427.2" transform="matrix(0.8359 -0.5488 0.5488 0.8359 -67.3628 630.05)" width="321.4" height="1"/>
	</g>
	<g>
		<rect x="593.1" y="278.3" transform="matrix(0.8379 -0.5459 0.5459 0.8379 -30.0643 456.4724)" width="320.6" height="1"/>
	</g>
	<g>
		<path d="M362,213.7"/>
	</g>
	<g>
		<path d="M932.5,212.4"/>
	</g>
	<g id="XMLID_3_">
		<g>
			<path d="M626.3,56.6c0.9,0,1.7,0.2,2.3,0.5l15.8,9c0.5,0.3,0.8,0.6,0.8,0.9s-0.2,0.6-0.7,0.9L402.8,224.5
				c-0.6,0.4-1.6,0.6-2.5,0.6s-1.7-0.2-2.3-0.5l-15.8-9.1c-0.5-0.3-0.8-0.6-0.8-0.9s0.2-0.6,0.7-0.9L623.8,57.3
				C624.4,56.8,625.4,56.6,626.3,56.6 M626.3,55.6c-1.1,0-2.2,0.3-3.1,0.8L381.5,212.8c-1.6,1-1.5,2.6,0.1,3.6l15.8,9.1
				c0.8,0.5,1.8,0.7,2.8,0.7c1.1,0,2.2-0.3,3.1-0.8L645.1,68.9c1.6-1,1.5-2.6-0.2-3.6l-15.8-9C628.3,55.8,627.3,55.6,626.3,55.6
				L626.3,55.6z"/>
		</g>
	</g>
</g>
</svg>
