<?xml version="1.0" encoding="utf-8"?>
<!-- Generator: Adobe Illustrator 21.0.0, SVG Export Plug-In . SVG Version: 6.00 Build 0)  -->
<svg version="1.1" id="Layer_1" xmlns="http://www.w3.org/2000/svg" xmlns:xlink="http://www.w3.org/1999/xlink" x="0px" y="0px"
	 viewBox="0 0 1586.3 436.1" style="enable-background:new 0 0 1586.3 436.1;" xml:space="preserve">
<style type="text/css">
	.st0{fill:none;stroke:#000000;stroke-miterlimit:10;}
</style>
<g>
	<path class="st0" d="M793.2,402.5L793.2,402.5c51.3,5,101.4,11.5,147.7,18.3c262.4,38.9,354.7-3.6,536.5-78.3
		c14.2-5.8,27.1-11.5,38.9-17c0.1,0,0.2-0.1,0.3-0.1c1.9-0.9,3.7-1.8,5.5-2.6c33.8-17.4,52.2-42.1,59.4-66.7c4.7-16.2,4.3-38,4.3-38
		s0.4-21.8-4.3-38c-7.1-24.6-25.5-49.3-59.4-66.7c-1.8-0.9-5.7-2.7-5.8-2.7c-11.8-5.5-24.7-11.2-38.9-17
		c-181.8-74.7-274.1-117.2-536.5-78.3c-46.3,6.9-96.4,13.3-147.7,18.3v0C672,45.4,544.8,45,444.4,31.7c-144-19-169.3-24-262.1,4.5
		C94,63.4,0.5,88.5,0.5,188.2c0,29.9,0,29.9,0,29.9s0,0,0,0c0,0,0,0,0,0s0,0,0,29.9c0,99.6,93.5,124.7,181.8,151.9
		c92.7,28.6,118.1,23.5,262.1,4.5C544.8,391.1,672,390.7,793.2,402.5z"/>
</g>
</svg>
