<?xml version="1.0" encoding="utf-8"?>
<!-- Generator: Adobe Illustrator 21.0.0, SVG Export Plug-In . SVG Version: 6.00 Build 0)  -->
<svg version="1.1" id="Layer_1" xmlns="http://www.w3.org/2000/svg" xmlns:xlink="http://www.w3.org/1999/xlink" x="0px" y="0px"
	 viewBox="0 0 119.8 192.1" style="enable-background:new 0 0 119.8 192.1;" xml:space="preserve">
<style type="text/css">
	.st0{fill:#FFFFFF;}
</style>
<path class="st0" d="M117.6,52.1c-5.5-17.2-7.2-42-24.5-52.1c0,0-11,15.9-13.2,41.2c0,0-7.9-0.5-20-0.5c-12.1,0-20,0.5-20,0.5
	C37.8,15.9,26.8,0,26.8,0C9.4,10.1,7.7,34.9,2.2,52.1c-6.3,19.7,2.7,69.8,3.7,72.7c1,2.9,20.1,20.2,24.4,26
	c4.3,5.8,9.8,31.9,9.8,31.9l2.8,4.1l13.1,4.5l4,0.8l4-0.8l13.1-4.5l2.8-4.1c0,0,5.5-26.1,9.8-31.9c4.3-5.8,23.4-23.1,24.4-26
	C114.9,121.9,123.9,71.8,117.6,52.1z M41,99.4c4.8,5.9,3.7,18.1,3.7,18.1C44,115,42.3,113.3,34,110c-13.8-4.5-18.4-12.1-19.8-20.3
	c-1-5.7-3.2-11.6-4-13.9c0,0-0.1-0.3-0.1-0.3C12.5,80.6,35.6,92.8,41,99.4z M44.8,128.1c0,0,0-0.2-0.1-0.7c-0.1-0.4-0.4-1-0.7-1.8
	c-0.4-0.7-1-1.5-1.8-2.2c-0.8-0.8-1.8-1.5-3-2.2c-0.3-0.2-0.6-0.3-0.9-0.5c-0.3-0.2-0.7-0.3-1-0.4c-0.3-0.1-0.7-0.3-1-0.4
	c-0.4-0.1-0.7-0.3-1.1-0.4c-0.7-0.3-1.5-0.5-2.3-0.7c-0.8-0.3-1.7-0.5-2.6-0.8c-0.4-0.1-0.9-0.3-1.3-0.4c-0.4-0.1-0.9-0.3-1.3-0.5
	c-0.9-0.4-1.8-0.7-2.7-1.1l-0.7-0.3c-0.2-0.1-0.4-0.2-0.7-0.3c-0.4-0.2-0.9-0.5-1.3-0.7l-1.3-0.7c-0.4-0.2-0.8-0.6-1.3-0.8l-1.3-0.9
	l-0.6-0.4c-0.2-0.2-0.4-0.3-0.6-0.5l-1.2-1c-0.4-0.3-0.8-0.6-1.1-1c-0.7-0.7-1.4-1.4-2-2.2c-0.6-0.8-1.2-1.6-1.7-2.3
	c-0.5-0.8-1-1.6-1.4-2.4c-0.4-0.8-0.8-1.6-1.1-2.5c-0.3-0.8-0.6-1.6-0.8-2.4c-0.2-0.8-0.4-1.5-0.6-2.3c-0.1-0.7-0.3-1.4-0.4-2.1
	c-0.1-0.7-0.1-1.3-0.2-1.9c-0.1-1.2-0.1-2.2-0.1-3.1c0-0.9,0-1.5,0-2c0-0.5,0-0.7,0-0.7s0.1,0.2,0.2,0.7C6.9,86.5,7,87.2,7.3,88
	c0.2,0.8,0.5,1.8,0.8,2.9c0.2,0.6,0.4,1.1,0.6,1.8c0.2,0.6,0.4,1.2,0.7,1.9c0.2,0.7,0.5,1.3,0.8,2c0.3,0.7,0.7,1.4,1,2.1
	c0.4,0.7,0.8,1.4,1.2,2.1c0.5,0.7,1,1.3,1.5,2c0.5,0.7,1.1,1.3,1.7,2c0.3,0.3,0.6,0.6,0.9,0.9c0.3,0.3,0.6,0.6,0.9,0.9
	c0.6,0.6,1.4,1.1,2.1,1.7c0.2,0.1,0.3,0.3,0.5,0.4l0.6,0.4l1.1,0.8c0.4,0.3,0.7,0.5,1.1,0.8l1.2,0.7c0.8,0.4,1.6,1,2.4,1.3
	c0.8,0.4,1.6,0.8,2.4,1.2c0.4,0.2,0.8,0.4,1.3,0.5c0.4,0.2,0.8,0.3,1.3,0.5c0.4,0.2,0.8,0.3,1.2,0.5c0.4,0.2,0.8,0.3,1.2,0.5
	c0.4,0.2,0.8,0.3,1.2,0.5c0.2,0.1,0.4,0.2,0.6,0.3c0.2,0.1,0.4,0.2,0.6,0.3c0.8,0.4,1.5,0.8,2.2,1.2c0.7,0.4,1.4,0.9,2,1.4
	c1.2,1,2.2,2,2.9,3.1c0.7,1,1.2,2,1.4,2.9c0.2,0.9,0.3,1.6,0.2,2C44.9,127.9,44.8,128.1,44.8,128.1z M78.8,99.4
	c5.4-6.6,28.5-18.8,31-23.8c0,0-0.1,0.3-0.1,0.3c-0.8,2.3-3,8.2-4,13.9c-1.4,8.2-6,15.8-19.8,20.3c-8.3,3.3-10,5-10.7,7.6
	C75.1,117.5,73.9,105.3,78.8,99.4z M113.2,91.2c-0.1,0.6-0.1,1.2-0.2,1.9c-0.1,0.7-0.2,1.4-0.4,2.1c-0.1,0.7-0.4,1.5-0.6,2.3
	c-0.2,0.8-0.5,1.6-0.8,2.4c-0.3,0.8-0.7,1.6-1.1,2.5c-0.4,0.8-0.9,1.6-1.4,2.4c-0.5,0.8-1.2,1.6-1.7,2.3c-0.6,0.8-1.3,1.5-2,2.2
	c-0.3,0.4-0.7,0.7-1.1,1l-1.2,1c-0.2,0.2-0.4,0.3-0.6,0.5l-0.6,0.4l-1.3,0.9c-0.4,0.3-0.8,0.6-1.3,0.8l-1.3,0.7
	c-0.4,0.2-0.9,0.5-1.3,0.7c-0.2,0.1-0.4,0.2-0.7,0.3L95,116c-0.9,0.4-1.8,0.8-2.7,1.1c-0.5,0.2-0.9,0.3-1.3,0.5
	c-0.4,0.1-0.9,0.3-1.3,0.4c-0.9,0.3-1.7,0.5-2.6,0.8c-0.8,0.2-1.6,0.4-2.3,0.7c-0.4,0.1-0.7,0.3-1.1,0.4c-0.4,0.1-0.7,0.3-1,0.4
	c-0.3,0.2-0.7,0.3-1,0.4c-0.3,0.2-0.6,0.3-0.9,0.5c-1.2,0.7-2.2,1.4-3,2.2c-0.8,0.8-1.4,1.5-1.8,2.2c-0.4,0.7-0.6,1.3-0.7,1.8
	c-0.1,0.4-0.1,0.7-0.1,0.7s-0.1-0.2-0.1-0.7c0-0.5,0-1.2,0.2-2c0.2-0.9,0.7-1.9,1.4-2.9c0.7-1.1,1.7-2.1,2.9-3.1
	c0.6-0.5,1.2-1,2-1.4c0.7-0.5,1.4-0.8,2.2-1.2c0.2-0.1,0.4-0.2,0.6-0.3c0.2-0.1,0.4-0.2,0.6-0.3c0.4-0.2,0.8-0.3,1.2-0.5
	c0.4-0.2,0.8-0.3,1.2-0.5c0.4-0.2,0.8-0.3,1.2-0.5c0.4-0.2,0.8-0.3,1.3-0.5c0.4-0.2,0.9-0.3,1.3-0.5c0.8-0.4,1.6-0.8,2.4-1.2
	c0.8-0.3,1.6-0.9,2.4-1.3l1.2-0.7c0.4-0.2,0.8-0.5,1.1-0.8l1.1-0.8l0.6-0.4c0.2-0.1,0.4-0.3,0.5-0.4c0.7-0.6,1.4-1.1,2.1-1.7
	c0.3-0.3,0.6-0.6,0.9-0.9c0.3-0.3,0.7-0.6,0.9-0.9c0.6-0.7,1.1-1.3,1.7-2c0.5-0.7,1-1.4,1.4-2c0.4-0.7,0.9-1.4,1.2-2.1
	c0.3-0.7,0.7-1.4,1-2.1c0.3-0.7,0.6-1.4,0.8-2c0.2-0.7,0.5-1.3,0.7-1.9c0.2-0.6,0.4-1.2,0.6-1.8c0.3-1.1,0.6-2.1,0.8-2.9
	c0.2-0.8,0.4-1.5,0.5-1.9c0.1-0.4,0.2-0.7,0.2-0.7s0,0.2,0,0.7c0,0.5,0.1,1.1,0,2C113.3,88.9,113.3,90,113.2,91.2z"/>
</svg>
