<?xml version="1.0" encoding="utf-8"?>
<!-- Generator: Adobe Illustrator 21.0.0, SVG Export Plug-In . SVG Version: 6.00 Build 0)  -->
<svg version="1.1" id="Layer_1" xmlns="http://www.w3.org/2000/svg" xmlns:xlink="http://www.w3.org/1999/xlink" x="0px" y="0px"
	 viewBox="0 0 515.1 155.5" style="enable-background:new 0 0 515.1 155.5;" xml:space="preserve">
<style type="text/css">
	.st0{opacity:0.6;}
	.st1{fill:#231F20;}
</style>
<g class="st0">
	<path class="st1" d="M299.4,51c0.3-0.3,0.6-0.6,0.9-0.8c0.3-0.3,0.5-0.5,0.8-0.8c0,0,0,0,0,0c0,0,0,0,0,0c0.6-0.6,1.1-1.1,1.7-1.7
		c5.7-6.2,13.4-10,22.7-11.3c4.1-0.6,8.4-0.6,13-0.2c3.7,0.4,9.1,1.3,12.7,2.5c0.3,0.1,0.7-0.1,0.8-0.4c0.1-0.3,0-0.6-0.3-0.8
		c0,0,0,0,0,0c-4.1-3.1-10.5-6.1-16.3-7.6c-6.3-1.7-12-2-18-1c-11,1.8-21.2,8-30.2,18.5c0,0,0,0,0,0c0,0,0,0,0,0
		c-2,2.5-4.3,5.1-7.1,7.3c-3.1,2.4-5.4,3-9.2,4.1l0,0h0c0,0,0,0,0,0c-0.1,0-0.2,0.1-0.2,0.1c0,0,0,0,0,0c-0.1,0-0.1,0.1-0.2,0.2
		c-0.2,0.3-0.1,0.7,0.2,0.9c1.8,1.1,4.6,1.5,7.1,1.5c0.7,0,1.4,0,2.1-0.1c2.9-0.3,5.7-1.1,8.7-2.6C292.2,56.9,295.8,54.4,299.4,51
		C299.4,51,299.4,51,299.4,51z M288,57.5c-2.9,1.4-5.5,2.2-8.3,2.5c-1.9,0.2-4.5,0.1-6.6-0.5c2.9-0.8,5-1.6,7.8-3.8
		c2.9-2.3,5.3-5,7.3-7.5l0,0c8.8-10.3,18.7-16.4,29.4-18.1c5.8-0.9,11.4-0.6,17.4,1c4.2,1.1,8.8,3,12.5,5.2c-3.1-0.7-6.4-1.2-9-1.4
		c-4.7-0.4-9.1-0.4-13.3,0.2c-9.6,1.3-17.6,5.3-23.5,11.7c-0.6,0.6-1.1,1.2-1.7,1.7c-0.2,0.2-0.5,0.5-0.7,0.7
		C295.6,52.8,291.8,55.7,288,57.5z"/>
	<path class="st1" d="M137.3,71.7L137.3,71.7l-0.6,0h-1.4h-0.6c0,0,0,0,0,0c-0.5,0-0.9,0.2-1.1,0.7c0,0,0,0,0,0l-0.3,0.6
		c0,0,0,0.1,0,0.1c-0.2,0.2-0.4,0.3-0.6,0.5c0,0,0,0,0,0c0,0,0,0,0,0c-0.1,0.1-0.3,0.4-0.5,0.8c-0.1,0.2-0.2,0.3-0.2,0.4
		c0,0,0,0.1,0,0.1c-0.5,0.8-0.9,1.8-0.9,2.9c0,1.5,0.6,2.8,1.6,3.7c0,0.1,0.1,0.2,0.1,0.2l0.3,0.3c0,0,0,0,0.1,0.1
		c0,0.1,0,0.3,0.1,0.4l0.5,0.8c0,0,0,0,0,0c0.2,0.4,0.6,0.6,1.1,0.6h0h0.6h1.3l0,0c0,0,0,0,0,0h0.6l0,0c0,0,0,0,0,0h2h0.6h1.1
		c0,0,0,0,0,0c0.5,0,0.9-0.2,1.1-0.7c0,0,0,0,0,0l2.6-4.8l0,0l0,0c0.2-0.4,0.2-0.9,0-1.3c0,0,0,0,0,0c0,0,0,0,0,0l-2.6-4.8
		c0,0-0.1-0.1-0.1-0.1c0,0,0-0.1,0-0.1c-0.3-0.5-0.7-0.5-1-0.4c0,0,0,0,0,0l0,0H140h-0.6L137.3,71.7
		C137.3,71.7,137.3,71.7,137.3,71.7z M137.3,82.5c0,0-0.1,0-0.1,0c0.2-0.1,0.3-0.1,0.5-0.2c2.9-0.8,3.9-3.4,3.6-5.4
		c-0.2-1.6-1.3-3.2-3.2-3.8c1,0.2,1.8,0.6,2.5,1.2l1.3,2.1c0.1,0.4,0.2,0.8,0.2,1.3c0,0.5-0.1,0.9-0.2,1.4l-1.1,1.9
		C139.8,81.9,138.6,82.5,137.3,82.5z M132.2,77.8c0-2.1,1.5-3.6,3.5-3.7c2,0.1,3.5,1.7,3.5,3.7c0,0,0,0,0,0s0,0,0,0
		c0,2-1.5,3.6-3.5,3.7C133.7,81.4,132.1,79.8,132.2,77.8z"/>
	<path class="st1" d="M131,86.8C131,86.8,131,86.8,131,86.8C131,86.8,131,86.8,131,86.8C131.1,86.9,131.1,86.9,131,86.8
		C131.1,86.9,131.1,86.9,131,86.8c1,0.5,2,0.9,3.2,1.2c0.1,0,2,0.3,3.6,0.3c0.3,0,0.6,0,0.9,0h0c0,0,0,0,0,0c0,0,0,0,0.1,0l0,0
		c5.7,0,10.3-4.8,10.3-10.6c0-5.9-4.6-10.6-10.3-10.7l0,0h0c0,0,0,0,0,0l0,0c-1.1-0.1-4.2,0.5-4.6,0.5c-1.1,0.3-2.1,0.7-3,1.2
		c0,0,0,0,0,0c0,0,0,0,0,0c0,0,0,0,0,0c0,0,0,0,0,0c-3.6,1.6-6.1,5.1-6.5,9c0,0,0,0,0,0.1c0,0,0,0,0,0.1
		C124.9,81.8,127.4,85.2,131,86.8z M147.8,77.7c0,5.1-4,9.3-9,9.3c-5,0-9-4.2-9-9.3s4-9.3,9-9.3C143.7,68.3,147.8,72.5,147.8,77.7z
		 M131.6,69.9C131.6,69.9,131.6,69.9,131.6,69.9C131.6,69.9,131.6,69.9,131.6,69.9c-2,1.9-3.2,4.7-3.2,7.7c0,3.3,1.5,6.3,3.8,8.2
		c-0.2-0.1-0.4-0.2-0.6-0.2c0,0,0,0,0,0c0,0,0,0,0,0c-3.2-1.4-5.4-4.4-5.8-7.8C126.2,74.4,128.4,71.4,131.6,69.9z"/>
	<path class="st1" d="M105.5,63L105.5,63c2,0,3.6-1.6,3.6-3.6c0-2-1.6-3.6-3.6-3.6c-2,0-3.6,1.6-3.6,3.6c0,0,0,0,0,0c0,0,0,0,0,0
		C102,61.5,103.6,63,105.5,63z M105.5,57.7c1,0,1.7,0.8,1.7,1.7c0,1-0.8,1.7-1.7,1.7c-1,0-1.7-0.8-1.7-1.7
		C103.8,58.5,104.5,57.7,105.5,57.7z"/>
	<path class="st1" d="M97.8,63c2,0,3.6-1.6,3.6-3.6s-1.6-3.6-3.6-3.6c-2,0-3.6,1.6-3.6,3.6S95.8,63,97.8,63z M97.8,57.7
		c0.9,0,1.7,0.7,1.7,1.7c0,0,0,0,0,0c0,0,0,0,0,0c0,1-0.8,1.7-1.7,1.7c-1,0-1.7-0.8-1.7-1.7C96,58.5,96.8,57.7,97.8,57.7z"/>
	<path class="st1" d="M97.8,99.7c2,0,3.6-1.6,3.6-3.6c0-2-1.6-3.6-3.6-3.6c-2,0-3.6,1.6-3.6,3.6C94.2,98.1,95.8,99.7,97.8,99.7z
		 M97.8,94.4c1,0,1.7,0.8,1.7,1.7c0,0,0,0,0,0c0,0,0,0,0,0c0,1-0.8,1.7-1.8,1.7c-0.9,0-1.7-0.8-1.7-1.7C96,95.1,96.8,94.4,97.8,94.4
		z"/>
	<path class="st1" d="M105.5,99.7C105.5,99.7,105.5,99.7,105.5,99.7c2,0,3.6-1.6,3.6-3.6c0-2-1.6-3.6-3.6-3.6c-2,0-3.6,1.6-3.6,3.6
		c0,0,0,0,0,0c0,0,0,0,0,0C102,98.1,103.6,99.7,105.5,99.7z M105.5,94.4c1,0,1.7,0.8,1.7,1.7s-0.8,1.7-1.7,1.7c-1,0-1.7-0.8-1.7-1.7
		S104.5,94.4,105.5,94.4z"/>
	<path class="st1" d="M157.6,92.6c-2,0-3.6,1.6-3.6,3.6c0,2,1.6,3.6,3.6,3.6s3.6-1.6,3.6-3.6C161.1,94.1,159.5,92.6,157.6,92.6z
		 M157.6,97.9c-1,0-1.7-0.8-1.7-1.7s0.8-1.7,1.7-1.7c1,0,1.7,0.8,1.7,1.7S158.5,97.9,157.6,97.9z"/>
	<path class="st1" d="M157.6,55.9c-2,0-3.6,1.6-3.6,3.6s1.6,3.6,3.6,3.6s3.6-1.6,3.6-3.6S159.5,55.9,157.6,55.9z M157.6,61.2
		c-1,0-1.7-0.8-1.7-1.7c0-1,0.8-1.7,1.7-1.7c1,0,1.7,0.8,1.7,1.7C159.3,60.4,158.5,61.2,157.6,61.2z"/>
	<path class="st1" d="M488.6,80.8L488.6,80.8c3,1.3,7.6,4,8,6.2c0,0,0,0,0,0c0,0,0,0.1,0,0.1c0,0,0,0.1,0.1,0.1c0,0,0,0,0.1,0.1
		c0,0,0.1,0.1,0.1,0.1c0,0,0.1,0,0.1,0c0,0,0.1,0,0.2,0c0,0,0,0,0.1,0c0,0,0,0,0.1,0l0,0h0h0c0,0,0,0,0,0c0,0,0.1,0,0.1,0
		c0,0,0,0,0.1,0c0,0,0.1,0,0.1-0.1c0,0,0.1,0,0.1-0.1c0,0,0.1-0.1,0.1-0.1c0,0,0-0.1,0.1-0.1c0,0,0-0.1,0.1-0.1c0,0,0-0.1,0-0.1
		c0,0,0,0,0,0c0.5-4.5-0.9-10-3.3-13.3c-2.7-3.7-6.8-5.8-12.2-6.1c0,0,0,0,0,0c-0.3,0-0.5,0.1-0.7,0.3c-0.6,1.2-0.9,2.9-0.8,4.1
		c0.1,1.4,0.5,2.7,1.3,3.9C483.5,77.9,485.6,79.5,488.6,80.8z M493.6,74.4c1.8,2.6,3,6.5,3.1,10.1c-2.3-2.6-6.9-4.7-7.6-4.9
		c0,0,0,0,0,0c-2.7-1.2-4.6-2.6-5.7-4.4c-0.7-1.1-1-2.1-1.1-3.3c-0.1-1,0.2-2.2,0.5-3C487.6,69.3,491.2,71.1,493.6,74.4z"/>
	<path class="st1" d="M465.7,69.5C465.7,69.5,465.6,69.5,465.7,69.5c0,0.1,0,0.1,0,0.1s0,0,0,0c0,0,0,0.1,0,0.1c0,0,0,0.1,0.1,0.1
		c0,0,0.1,0.1,0.1,0.1c0,0,0.1,0.1,0.1,0.1c0,0,0.1,0,0.1,0c0,0,0.1,0,0.1,0c0,0,0.1,0,0.1,0c0,0,0.1,0,0.1,0c0.1,0,0.3,0.1,0.4,0.2
		c0.3,0.3,0.5,0.7,0.7,1.1c0.6,1.3,0.9,2.7,1.3,4.1c0.3,1.1,0.5,2.1,0.9,3.2c0.3,0.9,0.7,1.7,1.1,2.4c1.2,2.2,3,4.1,5.1,5.5
		c2.2,1.5,4.8,2.4,7.3,2.6c0.4,0,0.9,0.1,1.3,0.1c2.3,0,4.7-0.5,7-1.5c0.3-0.1,0.5-0.5,0.3-0.9c-0.1-0.3-0.5-0.4-0.8-0.4
		c-0.1,0-0.1,0-0.2,0c-3.9,0.2-7.4-2.2-8.6-5.9c0,0,0,0,0,0c-1.3-4.2-3.2-7.3-5.6-9.4c-1.5-1.4-3.1-2.2-5-2.6
		c-1.5-0.4-3.8-0.4-5.6,0.2c0,0,0,0,0,0c0,0,0,0,0,0c0,0,0,0-0.1,0c0,0-0.1,0-0.1,0.1c0,0-0.1,0-0.1,0.1c0,0-0.1,0.1-0.1,0.1
		c0,0-0.1,0.1-0.1,0.1c0,0,0,0.1,0,0.1c0,0,0,0.1,0,0.1C465.6,69.4,465.6,69.4,465.7,69.5z M471.4,69.9c1.7,0.4,3,1.1,4.4,2.3
		c2.2,1.9,3.9,4.9,5.2,8.8c0,0,0,0,0,0c1.1,3.3,3.8,5.7,7,6.5c-1.6,0.4-3.1,0.5-4.6,0.4c-2.3-0.2-4.6-1-6.7-2.4
		c-2-1.3-3.6-3.1-4.7-5.1c-0.4-0.7-0.7-1.4-1-2.2c-0.3-1-0.6-2-0.9-3.1c-0.4-1.4-0.7-2.9-1.3-4.3c-0.2-0.4-0.4-0.8-0.6-1.1
		C469.3,69.6,470.5,69.7,471.4,69.9z"/>
	<path class="st1" d="M214.8,99.3C214.8,99.3,214.8,99.3,214.8,99.3l-0.8,0.5c0,0,0,0,0,0c0,0,0,0,0,0c-0.7,0.4-1.4,0.9-2,1.4
		c0,0,0,0,0,0c0,0,0,0,0,0l-0.7,0.6c0,0,0,0,0,0c0,0,0,0,0,0l-1,0.9c0,0,0,0,0,0c0,0,0,0,0,0l-0.7,0.7l-0.5,0.5c0,0,0,0,0,0
		c-0.4,0.4-0.9,0.7-1.3,1c0,0,0,0,0,0l-0.4,0.3c0,0,0,0,0,0c-0.7,0.4-1.5,0.8-2.2,1.1l0,0c-2.8,1.1-6,1.2-8.8,0.3
		c-0.4-0.1-0.7,0.1-0.8,0.4c-0.1,0.3,0.1,0.7,0.4,0.8c0,0.1,0.1,0.1,0.1,0.2c4.2,3,9.4,4.8,14.1,4.8c0.3,0,0.7,0,1,0
		c5.3-0.3,10-2.8,14-7.4c0.7-0.8,1.3-1.5,1.8-2.2c1.5-1.9,2.5-3.1,5.2-4.6c2.8-1.6,5.8-2.4,9.3-3.2c0,0,0,0,0,0c0,0,0.1,0,0.1-0.1
		c0,0,0.1,0,0.1-0.1c0,0,0.1-0.1,0.1-0.1c0,0,0-0.1,0.1-0.1c0,0,0-0.1,0-0.1c0,0,0-0.1,0-0.1c0,0,0,0,0,0c0,0,0-0.1,0-0.1
		c0,0,0-0.1,0-0.1c0,0,0,0,0,0c0,0,0-0.1-0.1-0.1c0,0,0-0.1-0.1-0.1c0,0,0,0-0.1-0.1c0,0-0.1-0.1-0.1-0.1c0,0,0,0-0.1,0
		c-0.1,0-0.1,0-0.2-0.1c0,0,0,0,0,0c-2-0.2-3.9-0.2-5.9-0.1l0,0l-1.6,0.1l0,0l0,0l-1.1,0.1c0,0,0,0,0,0l0,0l-0.7,0.1l0,0l0,0
		l-0.9,0.1c0,0,0,0,0,0c0,0,0,0,0,0l-1.2,0.2c0,0,0,0,0,0c0,0,0,0,0,0l-0.8,0.1c0,0,0,0,0,0l0,0l-2.3,0.4c0,0,0,0,0,0c0,0,0,0,0,0
		l-0.8,0.2c0,0,0,0,0,0c0,0,0,0,0,0l-1.3,0.3l0,0c0,0,0,0,0,0l-1,0.3c0,0,0,0,0,0c0,0,0,0,0,0l-0.8,0.2c0,0,0,0,0,0c0,0,0,0,0,0
		l-1.3,0.4c0,0,0,0,0,0c0,0,0,0,0,0l-0.9,0.3c0,0,0,0,0,0c0,0,0,0,0,0l-1,0.4c0,0,0,0,0,0c0,0,0,0,0,0l-1.3,0.5c0,0,0,0,0,0
		c0,0,0,0,0,0l-0.8,0.4c0,0,0,0,0,0c0,0,0,0,0,0C216.2,98.5,215.5,98.9,214.8,99.3C214.8,99.3,214.8,99.3,214.8,99.3z M231.2,97.6
		c-3,1.7-4.1,3.1-5.6,5c-0.5,0.6-1.1,1.3-1.7,2.1c-3.8,4.3-8.1,6.6-13,6.9c-3.7,0.2-8-0.9-11.8-2.9c0.3,0,0.6,0,0.9,0
		c1.8,0,3.6-0.3,5.3-1l0,0l0,0c0.9-0.3,1.7-0.8,2.5-1.3c0,0,0,0,0,0c0,0,0,0,0,0l0.5-0.3c0,0,0,0,0,0c0,0,0,0,0,0
		c0.5-0.3,0.9-0.7,1.4-1.1c0,0,0,0,0,0c0,0,0,0,0,0l0.5-0.5c0,0,0,0,0,0c0,0,0,0,0,0l0.7-0.7l1-0.9l0.7-0.6c0,0,0,0,0,0c0,0,0,0,0,0
		c0.6-0.5,1.3-0.9,1.9-1.3l0.8-0.5c0.7-0.4,1.4-0.8,2.1-1.1c0,0,0,0,0,0c0,0,0,0,0,0l0.8-0.4l1.3-0.5c0,0,0,0,0,0l1-0.4l0.8-0.3
		c0,0,0,0,0,0l1.3-0.4l0.8-0.2c0,0,0,0,0,0c0,0,0,0,0,0l1-0.3l1.3-0.3l0,0l0.8-0.2L229,96l0,0l0.7-0.1l0,0l1.2-0.1l0.9-0.1l0,0
		l0.7-0.1l0,0l1.1-0.1l0,0l1.6-0.1l0,0c0,0,0,0,0,0c0.3,0,0.7,0,1,0C234.6,95.9,232.9,96.6,231.2,97.6z"/>
	<path class="st1" d="M154.4,109.2c0,0,0,0.1,0,0.1c0,0,0,0,0,0c0,0,0,0.1,0,0.1c0,0,0,0.1,0,0.1c0,0,0,0.1,0.1,0.1
		c0,0,0,0.1,0.1,0.1c0,0,0,0,0,0c0.9,0.8,1.8,1.6,2.8,2.2l0,0c0,0,0,0,0.1,0l0.5,0.3c0,0,0,0,0,0c0.1,0.1,0.2,0.1,0.3,0.2l0,0
		l0.3,0.2c0.3,0.2,0.5,0.3,0.8,0.5c0,0,0,0,0,0c0,0,0,0,0,0l0.5,0.3c0,0,0,0,0,0l0.5,0.3l0,0c0.3,0.2,0.7,0.3,1,0.5l0,0
		c0.4,0.2,0.7,0.3,1.1,0.5c0,0,0.1,0,0.1,0c0,0,0.1,0,0.1,0.1l0.3,0.1c0,0,0,0,0,0c0.2,0.1,0.4,0.2,0.6,0.2l0,0
		c0.2,0.1,0.4,0.2,0.7,0.2c0,0,0,0,0.1,0c0,0,0,0,0,0c0.3,0.1,0.7,0.2,1,0.3l0,0c0.3,0.1,0.5,0.1,0.8,0.2c0,0,0,0,0,0c0,0,0,0,0,0
		l0.6,0.1c0,0,0,0,0,0c0,0,0,0,0,0l0.5,0.1l0,0c0.3,0,0.6,0.1,0.8,0.1c0,0,0,0,0,0c0.2,0,0.4,0.1,0.7,0.1c0,0,0,0,0,0l0.5,0l0,0
		c0.3,0,0.6,0,0.9,0.1h0c0,0,0,0,0,0c0,0,0,0,0,0c0.2,0,0.5,0,0.7,0h0h0l0.5,0h0l0.4,0h0c0,0,0,0,0,0l0.4,0c0,0,0,0,0,0c0,0,0,0,0,0
		c0.3,0,0.6,0,0.8-0.1l0,0l0.5-0.1l0,0c0,0,0.1,0,0.1,0c0,0,0.1,0,0.1,0c0.5-0.1,0.9-0.2,1.4-0.3c0,0,0,0,0.1,0c0,0,0.1,0,0.1,0
		l0.6-0.1c0,0,0,0,0.1,0c0,0,0.1,0,0.1,0l0.3-0.1c0,0,0,0,0,0l0.4-0.1c0,0,0,0,0,0c0,0,0,0,0,0c0.3-0.1,0.6-0.2,0.9-0.3l0.6-0.2l0,0
		c0.3-0.1,0.5-0.2,0.8-0.3c0,0,0,0,0,0c0,0,0,0,0,0c0.3-0.1,0.7-0.3,1-0.5c0,0,0,0,0,0c0.5-0.2,0.9-0.5,1.4-0.7l0,0
		c0.4-0.2,0.7-0.4,1.1-0.6c0,0,0,0,0,0c0,0,0,0,0,0c0.5-0.3,0.9-0.6,1.4-0.9l0,0c0.4-0.3,0.7-0.5,1.1-0.8l0,0
		c0.3-0.2,0.6-0.5,0.8-0.7c0,0,0,0,0,0c0.2-0.1,0.3-0.3,0.5-0.4c0,0,0,0,0,0c0,0,0,0,0,0c0.4-0.3,0.7-0.6,1.1-1c0,0,0,0,0,0
		c0,0,0,0,0,0c0.5-0.5,1-1,1.4-1.5c0,0,0,0,0,0c0.3-0.3,0.6-0.7,0.9-1c0,0,0,0,0,0c0,0,0,0,0,0c0.3-0.4,0.7-0.8,1-1.1c0,0,0,0,0,0
		c0,0,0,0,0,0l0.1-0.1c0.2-0.3,0.5-0.5,0.7-0.8c0,0,0,0,0,0c0,0,0,0,0,0c1-1.1,2-2.1,3-3c1-0.9,2-1.8,2.9-2.6c2-1.6,3.9-2.9,5.8-4
		c3.7-2,7.1-2.8,10.2-2.6c0.1,0,0.2,0,0.3,0c0.2,0,0.4,0.1,0.6,0.1c0,0,0,0,0,0c0.1,0,0.1,0,0.2,0c0,0,0,0,0,0c0.1,0,0.3,0,0.4-0.1
		c0,0,0,0,0,0c0.1-0.1,0.2-0.2,0.2-0.3c0,0,0,0,0,0c0,0,0,0,0,0c0,0,0,0,0,0c0,0,0-0.1,0-0.1c0,0,0-0.1,0-0.1c0,0,0-0.1,0-0.1
		c0,0,0-0.1,0-0.1c0,0-0.1-0.1-0.1-0.1c0,0,0-0.1-0.1-0.1c0,0-0.1-0.1-0.1-0.1c0,0-0.1,0-0.1,0l0,0l0,0c0,0,0,0-0.1,0
		c-0.6-0.2-1.2-0.3-1.8-0.5c0,0-0.1,0-0.1,0c-10.1-2.1-20.8,0.2-29.1,6.4c-4.6,3.3-9.2,5.9-13.9,7.9c-2.6,1.1-5,1.9-7.5,2.6
		c-1.8,0.5-5.5,1.3-7.8,1.1c0,0,0,0,0,0c-0.1,0-0.2,0-0.4,0.1c0,0-0.1,0.1-0.1,0.1c0,0,0,0,0,0c0,0,0,0,0,0
		C154.5,108.9,154.5,109,154.4,109.2C154.4,109.1,154.4,109.1,154.4,109.2z M163.2,108.8c2.6-0.7,5.1-1.5,7.7-2.6
		c4.8-2,9.4-4.7,14.1-8c0,0,0,0,0,0c0,0,0,0,0,0c6.9-5.2,15.6-7.6,24.2-6.8c-1.9,0.4-3.9,1.2-6,2.3c-2,1.1-4,2.4-6.1,4.1
		c-1,0.8-2,1.7-3,2.6c-1,1-2,2-3.1,3.1l0,0c-0.2,0.3-0.5,0.5-0.7,0.8l-0.1,0.1c0,0,0,0,0,0c0,0,0,0,0,0c-0.3,0.4-0.7,0.8-1,1.2
		c0,0,0,0,0,0c0,0,0,0,0,0c-0.3,0.3-0.6,0.7-0.9,1c-0.5,0.5-0.9,1-1.4,1.4c0,0,0,0,0,0c0,0,0,0,0,0c-0.3,0.3-0.7,0.6-1,0.9
		c0,0,0,0,0,0c0,0,0,0,0,0c-0.2,0.1-0.3,0.3-0.5,0.4c0,0,0,0,0,0c-0.3,0.2-0.5,0.5-0.8,0.7c0,0,0,0,0,0c-0.3,0.3-0.7,0.5-1,0.8
		c0,0,0,0,0,0l0,0c-0.4,0.3-0.9,0.6-1.3,0.9c0,0,0,0,0,0c0,0,0,0,0,0c-0.3,0.2-0.7,0.4-1,0.6l0,0c0,0,0,0,0,0
		c-0.4,0.2-0.9,0.5-1.3,0.7l0,0c0,0,0,0,0,0c-0.3,0.2-0.6,0.3-0.9,0.4c0,0,0,0,0,0c0,0,0,0,0,0c-0.2,0.1-0.5,0.2-0.7,0.3
		c0,0,0,0,0,0l-0.5,0.2c-0.3,0.1-0.5,0.2-0.8,0.3c0,0,0,0,0,0c0,0,0,0,0,0l-0.4,0.1c0,0,0,0,0,0l0,0l-0.2,0.1c0,0-0.1,0-0.1,0
		c0,0-0.1,0-0.1,0l-0.5,0.1c0,0-0.1,0-0.1,0c0,0-0.1,0-0.1,0c-0.4,0.1-0.9,0.2-1.3,0.2c-0.1,0-0.1,0-0.2,0.1l0,0l-0.5,0.1l0,0
		c-0.3,0-0.5,0.1-0.8,0.1c0,0,0,0,0,0l0,0l-0.4,0l-0.4,0l0,0l0,0l-0.5,0c-0.2,0-0.4,0-0.6,0c0,0,0,0,0,0c0,0,0,0,0,0
		c-0.3,0-0.5,0-0.8,0l0,0l0,0l-0.5,0l0,0c-0.2,0-0.4,0-0.6-0.1l0,0c0,0,0,0,0,0c-0.3,0-0.5-0.1-0.8-0.1c0,0,0,0,0,0l0,0l-0.5-0.1
		c0,0,0,0,0,0c0,0,0,0,0,0l-0.5-0.1c0,0,0,0,0,0c0,0,0,0,0,0c-0.3-0.1-0.5-0.1-0.8-0.2l0,0l0,0c-0.3-0.1-0.7-0.2-1-0.3
		c0,0,0,0-0.1,0c0,0,0,0,0,0c-0.2-0.1-0.4-0.1-0.6-0.2c0,0,0,0,0,0c0,0,0,0,0,0c-0.2-0.1-0.4-0.1-0.6-0.2l0,0l-0.3-0.1
		c0,0-0.1,0-0.1,0c0,0,0,0-0.1-0.1c-0.4-0.1-0.7-0.3-1.1-0.5c0,0,0,0,0,0c-0.3-0.2-0.6-0.3-1-0.5l0,0l-0.5-0.3c0,0,0,0,0,0l-0.5-0.3
		c0,0,0,0,0,0c0,0,0,0,0,0c-0.3-0.1-0.5-0.3-0.8-0.5l-0.3-0.2l0,0c-0.3-0.2-0.6-0.4-0.8-0.6c0,0,0,0,0,0l0,0l0,0c0,0,0,0,0,0
		c-0.5-0.3-0.9-0.7-1.4-1C158.9,109.8,161.4,109.3,163.2,108.8z"/>
	<path class="st1" d="M11.8,61.8C11.8,61.8,11.8,61.9,11.8,61.8c-0.1,0-0.1,0-0.1,0c0,0-0.1,0-0.1,0c0,0,0,0,0,0c0,0,0,0,0,0
		L11.3,62c-0.1,0-0.1,0-0.2,0.1c-0.3,0.1-0.5,0.3-0.5,0.7c0,0.4,0.3,0.7,0.7,0.7c0,0,0,0,0.1,0c0,0,0.1,0,0.1,0l0.2,0c0,0,0,0,0,0
		c0,0,0,0,0,0c0.4-0.1,0.8-0.1,1.3-0.1c4.1-0.1,8.1,2.2,10.9,6.2c2.2,3.2,3.7,7.4,4.5,12.7c0,0,0,0,0,0c0,0,0,0,0,0
		c1,6.8,3.5,12.4,7.6,16.4c2.2,2.2,4.9,4,7.9,5.3c0.1,0,0.1,0.1,0.2,0.1c2.7,1.2,5.5,2,8.4,2.3c0,0,0,0,0.1,0l0,0c0,0,0,0,0,0
		c0.1,0,0.2,0,0.3-0.1c0,0,0.1,0,0.1,0c0.1-0.1,0.2-0.1,0.2-0.2c0,0,0,0,0,0c0,0,0-0.1,0-0.1c0,0,0,0,0,0c0,0,0,0,0,0
		c0-0.1,0-0.1,0-0.2c0,0,0,0,0-0.1c0-0.1,0-0.1-0.1-0.2c0,0,0-0.1,0-0.1c0,0-0.1-0.1-0.1-0.1c0,0,0,0,0,0c-0.1-0.1-0.1-0.1-0.2-0.1
		c-1.5-0.8-3.9-4.9-6.6-11.2c-1.5-3.7-3-7.8-4.7-12.9c-3.6-10.9-10.4-17.9-19.1-19.6c-0.2,0-0.5-0.1-0.7-0.1c0,0-0.1,0-0.1,0l-0.2,0
		c0,0-0.1,0-0.1,0c-0.3,0-0.6-0.1-0.9-0.1c0,0,0,0,0,0c-0.3,0-0.6,0-0.9,0c0,0-0.1,0-0.1,0c-0.2,0-0.3,0-0.5,0
		C16.2,60.8,14.1,61.1,11.8,61.8z M29.6,82C29.6,82,29.6,81.9,29.6,82c-0.8-5.5-2.3-9.9-4.7-13.3c-0.3-0.4-0.6-0.9-1-1.3
		c0.6,0.7,1.3,1.5,1.8,2.3c2,3.1,3.3,7.3,4,12.3c0,0,0,0,0,0c0,0,0,0,0,0c0.3,2.6,0.9,4.9,1.7,7.1C30.6,87,30,84.6,29.6,82
		C29.6,82,29.6,82,29.6,82z M39.9,81.2c1.7,5.2,3.2,9.3,4.8,13c1.5,3.6,3.5,7.9,5.4,10.3c-2.2-0.5-3.6-1.1-3.6-1.1
		c-8.8-3.4-14-10.6-15.4-21.4c0,0,0,0,0,0c0,0,0,0,0,0c-0.7-5.2-2.1-9.5-4.2-12.8c-2.4-3.7-5.7-6.1-9.3-6.9c0,0,0,0,0,0
		c0.1,0,0.1,0,0.2,0c0,0,0,0,0,0c0,0,0,0,0,0c0.3,0,0.5,0,0.8,0c0.5,0,0.9,0,1.4,0.1c0,0,0,0,0,0l0,0c0.7,0.1,1.3,0.2,1.9,0.3
		C32.3,64.6,37.5,73.8,39.9,81.2z"/>
	<path class="st1" d="M22.1,86.8l-0.3-0.2c-0.3-0.2-0.6-0.5-0.9-0.8c-0.4-0.4-0.8-0.7-1.2-1.1c-0.8-0.8-1.5-1.7-2.1-2.5
		c-1.4-2.1-2-4.1-1.8-5.9c0,0,0,0,0,0c0.1-0.9,0.1-1.9-0.1-2.9c-0.2-0.9-0.5-1.7-1-2.4c-0.4-0.6-1-1.3-1.9-1.5
		c-0.7-0.2-1.4,0-2.1,0.4c-1,0.6-1.5,1.7-1.8,2.4c-0.4,1.1-0.7,2.3-0.7,3.5c-0.1,2.4,0.6,4.9,1.9,7c1.2,2,2.9,3.5,4.9,4.4
		c1.5,0.7,3.2,1,4.8,1c0.6,0,1.2-0.1,1.8-0.1c0,0,0,0,0,0c0,0,0,0,0,0c0,0,0,0,0.1,0c0,0,0,0,0.1,0c0,0,0.1,0,0.1,0c0,0,0,0,0.1,0
		c0,0,0,0,0,0c0.1-0.1,0.3-0.2,0.3-0.4C22.5,87.5,22.6,87,22.1,86.8z M14.6,76.2C14.6,76.2,14.6,76.2,14.6,76.2
		C14.6,76.2,14.6,76.2,14.6,76.2c-0.3,2.1,0.4,4.4,2,6.8c0.6,0.9,1.3,1.8,2.2,2.7c0.3,0.4,0.7,0.7,1.1,1c-0.9-0.1-1.5-0.4-2-0.7
		c-0.7-0.4-1.5-0.8-2.1-1.4c-1.2-1.1-2.3-2.6-2.9-4.3c-0.7-1.8-1-3.6-0.8-5.3c0.1-0.9,0.3-1.7,0.7-2.5c0.2-0.4,0.4-0.8,0.6-1.1
		c0.1,0.1,0.2,0.2,0.3,0.3c0.4,0.5,0.6,1.1,0.8,1.9C14.7,74.6,14.7,75.5,14.6,76.2z M11.5,82.1c-1.2-1.9-1.8-4.1-1.7-6.2
		c0-1,0.3-2.1,0.6-3c0.4-0.9,0.7-1.5,1.2-1.8c0.2-0.1,0.5-0.2,0.7-0.2c-0.2,0.3-0.5,0.7-0.7,1.2c-0.4,0.9-0.7,1.9-0.8,2.9
		c-0.2,1.9,0.1,4,0.8,6c0.7,1.8,1.8,3.4,3.1,4.6C13.5,84.6,12.3,83.5,11.5,82.1z"/>
	<path class="st1" d="M514.9,72.2c-0.1-1.2-0.1-2.6-0.3-3.9c-0.5-3.7-1.8-7.4-3.8-10.8c-1.5-2.6-3.6-5.1-6-7.5
		c-2.2-2.1-4.6-4-7.2-5.6c-3.3-2.1-6.9-3.7-10.4-5.3l-0.7-0.3c-1.4-0.6-2.8-1.3-4.2-1.9c-5-2.3-10.2-4.7-15.5-6.8c0,0,0,0,0,0V3
		c0-0.3-0.2-0.5-0.4-0.6l-5.7-2.2c-0.1,0-0.2,0-0.2,0h-46.1c-0.1,0-0.2,0-0.2,0l-5.7,2.2C408.2,2.4,408,2.7,408,3v6.7l-2.2-0.4
		c-9.1-1.7-18.5-3.5-27.9-4.5c-8.4-0.9-17.5-1.2-27.7-1c-10.1,0.2-20.7,1-33.4,2.3c-12.6,1.3-25.4,3.1-37.8,4.8
		c-10.8,1.5-21.8,3-32.9,4.2c-0.1,0-0.1,0-0.2,0c-0.1,0-0.2,0-0.3,0.1c-8.9,1-17.7,1.8-26.6,2.4c-10.8,0.6-22,0.8-33.4,0.6
		c-13.9-0.3-27.7-1.3-39.4-2.2v-13c0-0.3-0.2-0.5-0.4-0.6L140.2,0c-0.1,0-0.2,0-0.2,0H93.9c-0.1,0-0.2,0-0.2,0l-5.7,2.2
		c-0.3,0.1-0.4,0.3-0.4,0.6v6.9l-1.2,0c-6.9-0.3-14-0.6-21,0c-4.6,0.4-9.2,1.1-13.7,2.2c-6.2,1.5-12.7,3.9-20.1,7.2
		c-3.6,1.6-6.4,3.1-9,4.5c-2.4,1.4-4.9,3-7.2,4.8c0,0-0.1,0.1-0.1,0.1c0,0-0.1,0-0.1,0.1C8.3,33.8,3.6,41.2,1.8,49.5L1.5,51
		c-0.3,1.5-0.6,3-0.8,4.6l-0.5,5.1c0,0,0,0.1,0,0.1c0,0,0,0.1,0,0.1l-0.1,0.7c0,0,0,0,0,0c0,0,0,0,0,0l0,0.8c0,0,0,0.1,0,0.1
		c0,0,0,0.1,0,0.1L0,69.3V70v0.7v0.7v0.7v0.7v0.7V75v2.8v2.8V82v0.7v0.7v0.7v0.7v0.7l0.1,7l0,0.5l0,0c0,0.1,0,0.1,0,0.2l0,0.8l0,0
		c0,0,0,0,0,0l0.1,0.7c0,0,0,0.1,0,0.1c0,0,0,0.1,0,0.1l0,0.5c0,0.1,0.1,2.6,0.4,4.6c0.2,1.6,0.5,3.1,0.8,4.6l0.3,1.4
		c1.8,8.4,6.5,15.8,13.4,20.9c0,0,0.1,0,0.1,0c0,0.1,0.1,0.1,0.1,0.1c4.3,3.3,9.4,6.3,16.1,9.3c7,3.2,13.6,5.5,20.1,7.1
		c4.7,1.2,9.3,1.9,13.6,2.3c3.1,0.2,6.3,0.3,9.4,0.3c0.7,0,1.3,0,2,0c3.6,0,7.3,0,10.9-0.3v6.8c0,0.3,0.2,0.5,0.4,0.6l5.7,2.2
		c0.1,0,0.2,0,0.2,0H140c0.1,0,0.2,0,0.2,0l5.7-2.2c0.3-0.1,0.4-0.3,0.4-0.6v-12.9c27.4-2.3,51.2-2.8,72.7-1.6
		c8.8,0.5,17.7,1.3,26.6,2.3c0.1,0.1,0.2,0.1,0.3,0.1c0.1,0,0.1,0,0.2,0c11.1,1.3,22.1,2.8,32.9,4.2c12.4,1.7,25.2,3.5,37.8,4.8
		c12.4,1.3,23.3,2.1,33.4,2.3c2.3,0.1,4.5,0.1,6.7,0.1c7.6,0,14.6-0.3,21-1c3.6-0.4,7.4-0.9,11.9-1.6c6-1,12.1-2.1,17.9-3.3l0.3-0.1
		v6.7c0,0.3,0.2,0.5,0.4,0.6l5.7,2.2c0.1,0,0.2,0,0.2,0h46.1c0.1,0,0.2,0,0.2,0l5.7-2.2c0.3-0.1,0.4-0.3,0.4-0.6v-27c0,0,0,0,0,0
		c5.6-2.3,11.2-4.8,16.6-7.3l3.2-1.5c3.6-1.6,7.4-3.3,10.8-5.5c2.7-1.7,5.2-3.5,7.2-5.5c0.9-0.9,1.9-2,2.9-3.2c1.1-1.4,2.1-2.7,3-4
		c0,0,0,0,0,0c0,0,0,0,0,0c1.4-2.4,2.4-4.7,3.1-6.8c0.9-3,1.1-6,1.3-8.6C515.1,79.8,515.1,76.2,514.9,72.2z M414.5,1.4h45.9l5.1,2
		v39.9h-56.1v-5.1c0-0.1,0-0.2,0-0.3V25.1c0,0,0,0,0,0c0-0.1,0-0.2,0-0.3V10.6c0,0,0,0,0,0c0-0.1,0-0.2,0-0.3V3.4L414.5,1.4z
		 M462.1,44.7c3.5,1.4,7,3,10.3,4.5c1.4,0.7,2.9,1.3,4.4,2l2.1,0.9c3.1,1.3,6.2,2.7,9.1,4.4c3.4,1.9,5.9,3.9,7.7,6.1
		c0.8,1,1.5,2,2.1,3c0.2,0.4,0.4,0.8,0.6,1.2c0.7,1.6,1,3.4,1.2,5.7c0.1,1.7,0.1,3.4,0,5.1c0,0.9,0,1.9,0,2.8l0,0.7
		c0,0.8,0,1.6,0,2.3c-0.1,2.1-0.7,4.3-1.7,6.4l-0.1,0.2c-0.6,0.9-1.3,1.9-2,2.8c-0.6,0.7-1.2,1.4-1.7,2c-1.2,1.2-2.7,2.4-4.5,3.4
		c-1,0.6-2,1.1-3,1.6c-2.4,1.2-4.9,2.3-7.1,3.4c-5.8,2.7-11.2,5.1-16.5,7.3c-0.2,0.1-0.3,0.2-0.4,0.4h-18.2v-8.3h16.2
		c1.3,0,2.4-1.2,2.4-2.6V55.7c0-1.4-1.1-2.6-2.4-2.6h-16.2v-8.4L462.1,44.7C462.1,44.7,462.1,44.7,462.1,44.7z M431.8,110.9v-9
		c0,0,0,0,0,0c0,0,0,0,0,0c0,0,0,0,0,0c0-2.1-0.5-4.1-1.6-5.7c0,0,0,0,0,0c0,0,0,0,0,0c-0.6-0.9-1.2-1.7-1.9-2.3c0,0,0,0,0,0
		c0,0,0,0,0,0c-0.7-0.7-1.5-1.3-2.4-1.7c0,0,0,0,0,0c0,0,0,0,0,0c-0.7-0.3-1.4-0.4-2.1-0.4l-0.5,0l0,0c0,0,0,0,0,0
		c-0.3,0-0.5,0-0.8,0h-2.1l-6.3,0c-1.6-0.1-3.1-0.4-4.5-0.9l0,0c-2.3-0.9-3.9-2.1-5.5-4c0-0.1-0.1-0.2-0.1-0.2
		c-1.4-1.7-2.2-3.5-2.6-5.7c0,0,0-0.1,0-0.1c-0.4-1.9-0.4-3.7,0-5.7c0,0,0-0.1,0-0.1c0.5-2.1,1.3-4,2.6-5.7c0.1-0.1,0.1-0.2,0.1-0.2
		c1.1-1.4,2.3-2.4,3.9-3.2c0,0,0,0,0,0c0,0,0,0,0,0c1-0.5,2-0.9,3.1-1.2c0,0,0,0,0,0c0,0,0.1,0,0.1,0c0.4-0.1,0.8-0.2,1.1-0.2
		l3.5-0.2h4.6l0,0l0,0h1.7c0,0,0.1,0,0.1,0c0,0,0,0,0.1,0c0.2,0,0.4,0,0.7,0c0,0,0,0,0,0c0,0,0,0,0,0c0,0,0,0,0.1,0
		c0.5,0,1-0.1,1.5-0.3c0,0,0,0,0.1,0c0,0,0.1,0,0.1,0c0.4-0.1,0.8-0.3,1.2-0.5c0,0,0,0,0,0l0,0c0.4-0.2,0.8-0.5,1.2-0.8c0,0,0,0,0,0
		c0,0,0,0,0,0c0.4-0.3,0.7-0.6,1.1-0.9l0,0c0,0,0,0,0,0c0.6-0.6,1.2-1.4,1.8-2.2c0,0,0.1,0,0.1-0.1c1.1-1.7,1.6-3.4,1.6-5.5v-9.1
		H443v66.3H431.8z M408.7,110.9c-0.4,0-0.7,0.3-0.7,0.7v18.6c-6.3,1.5-12.7,2.6-18.1,3.5c-3.9,0.7-8.1,1.3-12.3,1.8
		c-7.9,0.9-16.6,1.2-26.5,1c-9.7-0.2-19.9-0.9-32.3-2.2c-12.7-1.3-25.6-3.1-38.1-4.8c-11.2-1.5-22.6-3.1-34.1-4.4V90.7h14.6h0h2.3
		c0,0,0,0,0,0c0,0,0,0,0,0c0,0,0.1,0,0.1,0.1l-0.1,3.8c0,0,0,0,0,0c0,0,0,0,0,0c0,0,0,0,0,0c0,0,0,0,0,0v9.9c0,0,0,0,0,0.1
		c0,0,0,0.1,0,0.1c0,0,0,0.1,0.1,0.1c0,0,0,0.1,0.1,0.1c0,0,0.1,0.1,0.1,0.1c0,0,0.1,0,0.1,0.1c0,0,0.1,0,0.1,0c0,0,0,0,0.1,0l5.6,1
		c0,0,0,0,0.1,0c0,0,0,0,0,0l0.3,0c0,0,0,0,0.1,0c0,0,0,0,0,0l1.5,0.3v2.3c0,0.4,0.3,0.7,0.7,0.7h4.7c0.1,0,0.1,0,0.2,0
		c0,0,0.1,0,0.1,0c1.9-0.2,3.9-0.2,5.9,0c0,0,0.1,0,0.1,0l0,0l0,0h18.1c0.1,0,0.1,0,0.2,0c0,0,0.1,0,0.1,0c1.9-0.2,3.9-0.2,5.9,0
		c0,0,0.1,0,0.1,0l0,0l0,0h16.9c0.4,0,0.7-0.3,0.7-0.7V94.7c0,0,0-0.1,0-0.1c0,0,0-0.1,0-0.1V80.3c0-0.4-0.3-0.7-0.7-0.7h-16.9
		c0,0,0,0,0,0c0,0,0,0,0,0c-2.1,0.2-4.1,0.2-6.1,0c0,0,0,0,0,0c0,0,0,0,0,0h-18.1c0,0,0,0,0,0c0,0,0,0,0,0c-2.1,0.2-4.1,0.2-6.1,0
		c0,0,0,0,0,0c0,0,0,0,0,0h-4.7c-0.4,0-0.7,0.3-0.7,0.7v1.4h-1.1l0,0l0,0h-0.6c-0.1,0-0.1,0-0.2,0c0,0,0,0,0,0l-1.8-2.7
		c-0.1-0.2-0.4-0.3-0.7-0.3c0,0,0,0-0.1,0h-2.7c0,0,0,0,0,0c0,0,0,0,0,0h-0.3v-0.9c0,0,0,0,0-0.1c0,0,0,0,0-0.1V65.9c0,0,0,0,0,0
		c0,0,0,0,0,0c0-0.3-0.1-0.6-0.3-0.9c0,0,0,0-0.1,0c-0.1-0.2-0.3-0.3-0.5-0.3h-1.6V63h1.9l0,0l0,0c0.4,0,0.7-0.3,0.7-0.7v-5.2
		c0,0,0,0,0,0c0,0,0,0,0,0c0-0.6-0.2-1.1-0.6-1.5c-0.2-0.2-0.4-0.2-0.5-0.3l-0.8-0.3c-0.1,0-0.2-0.1-0.3,0c0,0-0.1,0-0.1,0h-0.4
		h-1.2c-0.1-0.1-0.1-0.2-0.3-0.3l-3.9-2.1c0,0,0,0,0,0c-0.1,0-0.1,0-0.2-0.1c0,0-0.1,0-0.1,0c0,0,0,0,0,0h-1.3h-7.9V30.5
		c11.5-1.3,22.9-2.8,34.1-4.3c12.4-1.7,25.2-3.4,37.9-4.8c12.4-1.3,22.7-2,32.3-2.2c10-0.2,18.8,0.1,26.9,1
		c4.2,0.5,8.3,1.2,12.2,1.8c5.4,0.9,11.7,2,18,3.5v11.4c-8.4-5.2-18.3-6.9-29.3-4.9c-8.9,1.6-18.6,5.7-28.8,12.1l0,0
		c-9,5.5-16.6,9-24.3,11.4c-4.8,1.5-9,2.2-13.1,2.4c-1,0-1.9,0-2.9,0c-0.2,0-0.5,0-0.7,0c-1-0.1-2.1-0.1-3-0.3
		c-1.8-0.3-3.3-0.7-4.7-1.2c-0.5-0.2-1-0.4-1.4-0.7c0,0,0,0,0,0c0,0-0.1,0-0.1-0.1c0,0-0.1,0-0.1,0c0,0-0.1,0-0.1,0c0,0-0.1,0-0.1,0
		c0,0-0.1,0-0.1,0c0,0-0.1,0-0.1,0.1c0,0,0,0,0,0c0,0,0,0.1-0.1,0.1c0,0-0.1,0-0.1,0.1c0,0,0,0,0,0c0,0,0,0.1-0.1,0.1
		c0,0,0,0.1,0,0.1c0,0,0,0.1,0,0.1c0,0,0,0.1,0,0.1c0,0,0,0.1,0,0.1c0,0,0,0.1,0.1,0.1c0,0,0,0,0,0c0.5,0.7,1.1,1.2,1.6,1.8
		c1.4,1.4,2.9,2.8,4.6,4.1c2.3,1.7,4.7,3.2,7.3,4.3c5.3,2.5,10.6,3.6,16.5,3.6c0,0,0,0,0.1,0c10,0,20.6-3.6,31.6-10.8
		c0,0,0,0,0.1-0.1c0,0,0,0,0.1,0c9.9-6.5,19.5-10.8,28.5-13c5.6-1.3,10.5-1.8,15.5-1.4c2.7,0.2,5.2,0.6,7.6,1.4
		c2,0.6,3.7,1.3,5.3,2.1c0.6,0.3,1.2,0.6,1.7,1c0,0,0,0,0.1,0c0,0,0.1,0,0.1,0c0.1,0,0.1,0,0.2,0.1c0,0,0,0,0.1,0c0,0,0,0,0,0
		c0.1,0,0.2,0,0.3-0.1c0,0,0,0,0,0c0,0,0.1-0.1,0.1-0.1c0,0,0.1,0,0.1-0.1c0,0,0,0,0,0c0-0.1,0.1-0.1,0.1-0.2c0,0,0,0,0,0
		c0-0.1,0-0.1,0-0.2c0,0,0-0.1,0-0.1c0,0,0-0.1,0-0.1c0-0.1,0-0.1-0.1-0.2c0,0,0,0,0,0c-0.9-1.5-1.9-2.9-3-4.2h13.4v8.4h-37.6
		c-0.9,0-1.6,0.3-2,0.8c-0.7,0.8-0.6,1.8-0.6,1.8v8.4c0,0,0,0,0,0l0,0V65c0,0,0,0,0,0v0v25.7l0,0l0,0v0.9l0,0c0,0,0,0,0,0v8.4
		c0,0.3-0.1,1.1,0.4,1.8c0.5,0.6,1.2,0.9,2.2,0.9h37.6v8.3H408.7z M145.6,110.9h-21.8v-8.3h37.6c1,0,1.7-0.3,2.2-0.9
		c0.5-0.7,0.5-1.5,0.4-1.8v-8.4l0,0c0,0,0,0,0,0v-0.9c0,0,0,0,0,0c0,0,0,0,0,0V64.9v0c0,0,0,0,0,0V64c0,0,0,0,0,0l0,0l0-8.3
		c0-0.1,0.1-1.1-0.6-1.9c-0.5-0.5-1.1-0.8-2-0.8h-37.6v-8.4h21.8c0.4,0,0.7-0.3,0.7-0.7V31.4c15.5,1.2,27.6,1.8,39,2.1
		c3.2,0.1,6.4,0.1,9.6,0.1c8.5,0,16.8-0.2,24.9-0.7c8.5-0.5,17-1.3,25.5-2.2v22h-7.9c0,0,0,0,0,0c-0.1,0-0.1,0-0.2,0
		c0,0-0.1,0-0.1,0c0,0,0,0,0,0l-4.3,2.3c0,0-0.1,0.1-0.1,0.1H232h-0.2h-0.3h-0.2c0,0-0.1,0-0.1,0c-0.1,0-0.2,0-0.3,0l-0.6,0.2
		c-0.2,0-0.4,0.1-0.6,0.3v-4.9c0,0,0,0,0-0.1c0,0,0-0.1,0-0.1c0,0,0-0.1-0.1-0.1c0,0,0-0.1-0.1-0.1c0,0-0.1-0.1-0.1-0.1
		c0,0-0.1,0-0.1-0.1c0,0-0.1,0-0.1,0c0,0,0,0-0.1,0l-5.6-1l0,0L223,49h0l0,0l-1.6-0.3l0,0v-2.1c0-0.4-0.3-0.7-0.7-0.7H216
		c0,0,0,0,0,0c0,0,0,0,0,0c-2.1,0.2-4.1,0.2-6.1,0c0,0,0,0,0,0c0,0,0,0,0,0h-18.1c0,0,0,0,0,0c0,0,0,0,0,0c-2.1,0.2-4.1,0.2-6.1,0
		c0,0,0,0,0,0c0,0,0,0,0,0h-16.9c-0.4,0-0.7,0.3-0.7,0.7v14.2c0,0,0,0.1,0,0.1c0,0,0,0.1,0,0.1v14.2c0,0.4,0.3,0.7,0.7,0.7h16.9l0,0
		l0,0c0,0,0.1,0,0.1,0c2.1-0.2,4-0.2,5.9,0c0,0,0.1,0,0.1,0c0.1,0,0.1,0,0.2,0h18.1l0,0l0,0c0,0,0.1,0,0.1,0c2.1-0.2,4-0.2,5.9,0
		c0,0,0.1,0,0.1,0c0.1,0,0.1,0,0.2,0h4.7c0.4,0,0.7-0.3,0.7-0.7v-1.5h1.2h0.7c0,0,0.1,0,0.1,0c0,0,0,0,0,0c0,0,0,0,0,0l1.7,2.6
		c0.1,0.3,0.3,0.4,0.6,0.4h2.9h0.3v0.9c0,0,0,0,0,0.1c0,0,0,0,0,0.1v11.7c0,0.4,0.1,0.7,0.3,0.9c0,0,0,0,0,0
		c0.1,0.2,0.3,0.3,0.5,0.3h15.3V125c-8.5-0.9-17-1.7-25.4-2.2c-22-1.3-46-0.8-73.5,1.5v-12.7C146.3,111.2,146,110.9,145.6,110.9z
		 M111.2,110.9V44.6h11.2v9.1c0,2.1,0.5,3.7,1.6,5.5c0,0,0,0,0.1,0.1c0.6,0.9,1.2,1.6,1.8,2.3l0,0c0,0,0,0,0,0
		c0.4,0.4,0.7,0.7,1.1,0.9l0,0c0,0,0,0,0,0c0.4,0.3,0.8,0.5,1.2,0.8l0,0c0,0,0,0,0,0c0.4,0.2,0.8,0.4,1.2,0.5c0,0,0.1,0,0.1,0
		c0,0,0,0,0.1,0c0.5,0.1,1,0.2,1.5,0.3c0,0,0,0,0.1,0c0,0,0,0,0,0c0,0,0,0,0,0c0.2,0,0.4,0,0.7,0c0,0,0,0,0.1,0c0.1,0,0.1,0,0.1,0
		h1.7l0,0l0,0l4.6,0l3.5,0.2c0.4,0.1,0.8,0.1,1.1,0.2c0,0,0.1,0,0.1,0c0,0,0,0,0,0c1.1,0.3,2.1,0.7,3.1,1.2c0,0,0,0,0,0c0,0,0,0,0,0
		c1.5,0.8,2.8,1.9,3.9,3.2c0,0.1,0.1,0.2,0.1,0.2c1.4,1.7,2.2,3.5,2.6,5.7c0,0,0,0.1,0,0.1c0.4,1.9,0.4,3.7,0,5.7c0,0,0,0.1,0,0.1
		c-0.5,2.1-1.3,4-2.6,5.7c-0.1,0.1-0.1,0.2-0.1,0.2c-1.5,1.9-3.2,3.1-5.5,4c0,0,0,0,0,0l0,0c-1.5,0.6-2.9,0.9-4.5,0.9l-6.3,0h-2.1
		c-0.3,0-0.5,0-0.8,0c0,0,0,0,0,0c0,0,0,0,0,0l-0.5,0c-0.7,0.1-1.4,0.1-2.1,0.4c0,0,0,0,0,0c0,0,0,0,0,0c-0.9,0.5-1.7,1-2.4,1.7
		c0,0,0,0,0,0c0,0,0,0,0,0c-0.7,0.6-1.3,1.4-1.9,2.3c0,0,0,0,0,0c0,0,0,0,0,0c-1,1.7-1.6,3.6-1.6,5.7c0,0,0,0,0,0c0,0,0,0,0,0v9
		H111.2z M91.2,110.9c-7.2-3.3-13.2-9-17-16c0,0,0,0,0,0c0,0,0,0,0,0L74,94.6L74,94.5c0,0,0,0,0,0c-3-5.2-5-10.8-7-16.5l-0.8-2.4
		c-1.7-4.8-3.4-9.8-5.9-14.4c0,0,0,0,0,0c0,0,0,0,0,0c-0.9-2-2.1-4-3.4-5.9c-1.2-1.7-2.4-3.2-3.8-4.4c-2.8-2.5-6.2-4.3-9.7-5.1
		c-1.8-0.4-3.8-0.5-5.8-0.4c0,0,0,0-0.1,0c0,0-0.1,0-0.1,0c-1.8,0.1-3.6,0.4-5.4,0.9c-4,1.1-7.9,3.1-11.5,5.9c0,0,0,0,0,0
		c0,0,0,0,0,0c-0.3,0.2-0.5,0.4-0.8,0.6c0,0,0,0-0.1,0.1c0,0,0,0-0.1,0c0,0,0,0-0.1,0.1c-0.2,0.1-0.3,0.3-0.3,0.6
		c0,0.4,0.3,0.7,0.7,0.7c0.1,0,0.3,0,0.5-0.2c2.1-1,4.1-1.5,6.4-1.6c0,0,0,0,0,0l0.5,0l0.4,0c0,0,0,0,0,0c0.3,0,0.6,0,0.9,0
		c8.7,0.6,15.3,7.1,18.6,13c2.4,5.3,4.6,10.8,6.7,16.1c2,5.1,4.1,10.4,6.4,15.5c0.6,1.4,1.4,3,2.2,4.5c0.8,1.3,1.7,2.7,2.7,4
		c1.3,1.7,2.7,3.2,4.2,4.6c0,0.1,0.1,0.1,0.1,0.2c0.6,0.5,1.1,1,1.7,1.5c0.1,0.1,0.1,0.1,0.2,0.1c1.2,1,2.5,2,3.8,2.8
		c3.7,2.3,8,3.9,12.6,4.9v10.4c-3.2,0.3-6.5,0.3-9.7,0.4l-1.4,0c-3.2,0-6.6,0.1-9.8-0.1c-4-0.3-8.1-0.9-13.1-2
		c-7-1.6-14.1-3.8-21.3-6.5c-7.1-2.7-12.7-5.4-17.5-8.5c0,0,0,0-0.1,0l0,0l-0.2-0.1c0,0,0,0,0,0c0,0,0,0,0,0l-0.4-0.3l0,0
		c0,0,0,0,0,0l-0.2-0.1c0,0,0,0,0,0c0,0,0,0,0,0C7.3,109,3.1,102.5,2.2,95l0,0c0,0,0,0,0,0l0-0.4c0,0,0,0,0,0c0,0,0,0,0,0
		c-0.3-1.5-0.3-3-0.3-4.6v-0.1c0-3,0-5.9,0-8.9c0-5-0.1-10.2,0-15.3c0.1-2.5,0.1-5,0.6-7.4c0.6-2.8,1.8-5.6,3.4-8
		c1.6-2.4,3.8-4.6,6.5-6.6c0,0,0.1-0.1,0.1-0.1c0,0,0.1,0,0.1,0l0.2-0.1c0,0,0.1-0.1,0.1-0.1c0,0,0.1,0,0.1,0l0.2-0.1c0,0,0,0,0,0
		c0,0,0,0,0,0c0.2-0.2,0.5-0.3,0.7-0.5c0,0,0,0,0,0c0,0,0,0,0,0l0.2-0.1c0,0,0,0,0,0l0,0l0.2-0.2l0.2-0.2c0,0,0,0,0,0l0.2-0.2h0
		c2.4-1.5,4.9-2.9,7.6-4.2c2.9-1.4,6-2.7,9.8-4.2c7.6-2.9,14.6-5.1,21.3-6.6c4.7-1,8.9-1.7,13-2c6.5-0.5,13.1-0.2,19.6,0.2l1.4,0.1
		v18.6c0,0.4,0.3,0.7,0.7,0.7h21.7V53H93.7c-1.3,0-2.4,1.2-2.4,2.6V100c0,1.4,1.1,2.6,2.4,2.6h16.2v8.3H91.2z M88.2,110.9
		c-0.4,0-0.7,0.3-0.7,0.7v7.1c-4.4-0.9-8.5-2.5-11.9-4.6c-3.6-2.2-6.9-5.2-9.7-8.9c-1-1.3-1.9-2.6-2.6-3.9c-0.5-0.9-0.9-1.7-1.3-2.6
		c-0.8-1.9-1.9-5-3.2-8.5c-3.2-8.6-7.6-20.4-10.1-25.1c-3-5.7-9-12.2-17.3-13.5l-3-0.2c0,0,0,0,0,0c0,0,0,0,0,0c0,0,0,0,0,0
		c-0.1,0-0.2,0-0.3,0c0,0,0,0,0,0c-0.2,0-0.4,0-0.6,0c0,0,0,0,0,0l-0.4,0c0,0,0,0,0,0l-0.5,0c0,0,0,0,0,0c-0.3,0-0.5,0-0.8,0.1
		c2.2-1.5,4.4-2.5,7.2-3.5l1.2-0.3c0.4-0.1,0.8-0.2,1.1-0.3l1.4-0.3c0.1,0,0.3-0.1,0.5-0.1c0.1,0,0.2-0.1,0.3-0.1
		c1.9-0.1,3.8,0,5.5,0.4c3.3,0.7,6.5,2.4,9.1,4.8c1.2,1.1,2.4,2.5,3.6,4.1c1.3,1.8,2.4,3.7,3.2,5.7c0,0,0,0,0.1,0.1c0,0,0,0.1,0,0.1
		c2.5,4.5,4.2,9.4,5.9,14.2l0.8,2.4c2,5.7,4.1,11.3,7.1,16.7c0,0,0,0,0,0c0,0,0,0.1,0,0.1l0.2,0.3l0,0
		C76.5,102,81.9,107.3,88.2,110.9L88.2,110.9z M109.9,101.2H93.7c-0.6,0-1-0.6-1-1.2V55.6c0-0.7,0.5-1.2,1-1.2h16.2V101.2z
		 M162.7,64C162.7,64,162.7,64,162.7,64l0,0.9c0,0,0,0,0,0v0v25.7c0,0,0,0,0,0c0,0,0,0,0,0v0.9c0,0,0,0,0,0l0,0v8.4c0,0,0,0.1,0,0.1
		c0,0,0.1,0.5-0.1,0.8c-0.2,0.3-0.7,0.4-1.1,0.4h-37.6c0.1-1.6,0.5-3.1,1.3-4.4c0.6-0.8,1.1-1.5,1.7-2.1c0,0,0,0,0,0c0,0,0,0,0,0
		c0.6-0.6,1.3-1.1,2-1.5c0.5-0.2,1-0.2,1.6-0.3l0.5,0l0,0l0,0c0.2,0,0.4,0,0.7,0h2.1l6.4,0c1.7-0.1,3.3-0.4,4.9-1c0,0,0,0,0,0
		c0,0,0,0,0,0c2.5-1,4.5-2.4,6.1-4.5c0.1-0.1,0.1-0.2,0.1-0.3c1.4-1.8,2.2-3.7,2.7-5.9c0-0.1,0.1-0.1,0.1-0.2c0.5-2.2,0.5-4.2,0-6.4
		c0-0.1,0-0.1-0.1-0.2c-0.5-2.2-1.4-4.1-2.8-5.9c0-0.1-0.1-0.2-0.1-0.3c-1.2-1.6-2.6-2.7-4.4-3.7c0,0,0,0,0,0c0,0,0,0,0,0
		c-1.1-0.6-2.2-1-3.4-1.3c0,0,0,0-0.1,0c0,0,0,0-0.1,0c-0.4-0.1-0.8-0.2-1.3-0.3l-3.6-0.2h-4.6l0,0l0,0H132c0,0-0.1,0-0.1,0
		c-0.2,0-0.3,0-0.5,0c0,0,0,0,0,0c0,0,0,0,0,0c-0.4,0-0.8-0.1-1.2-0.2c0,0,0,0-0.1,0c0,0,0,0-0.1,0c-0.4-0.1-0.7-0.2-1-0.4l0,0l0,0
		c-0.4-0.2-0.7-0.4-1.1-0.6c0,0,0,0,0,0c0,0,0,0,0,0c-0.3-0.2-0.6-0.5-1-0.8c0,0,0,0,0,0l0,0c-0.6-0.6-1.1-1.2-1.7-2.1c0,0,0,0,0,0
		c-0.8-1.3-1.2-2.6-1.3-4.1h37.6c0.5,0,0.8,0.1,1,0.3c0.3,0.3,0.2,0.8,0.2,0.9L162.7,64L162.7,64z M254.5,53.9h1.1l2.1,1.1h-3.4l0,0
		l0,0h-12.4h-0.5h-6l2.1-1.1H254.5z M261.5,56.4h0.4c0,0,0,0,0,0l0.7,0.3c0,0,0.1,0,0.1,0c0.1,0.1,0.2,0.3,0.2,0.5c0,0,0,0,0,0
		c0,0,0,0,0,0v4.5h-7.7l0,0c0,0,0,0,0,0c0,0,0,0,0,0c0,0,0,0,0,0h-24.7v-4.5c0-0.2,0.1-0.4,0.3-0.6c0.1,0,0.2,0,0.3-0.1l0.4-0.2
		c0,0,0,0,0,0h0.2h0.3h0.2h1.2h8.2h0.5h12.4l0,0l0,0h4.4h0.9H261.5z M267,79.9l1.6,2.4c0,0,0,0,0,0c0.3,0.4,0.7,0.6,1.2,0.6h0.7l0,0
		l0,0h1.1v11.5c0,0,0,0.1,0,0.1c0,0,0,0.1,0,0.1v10.5l-1.3-0.2c0,0,0,0-0.1,0c0,0,0,0,0,0l-0.3,0c0,0,0,0,0,0c0,0,0,0,0,0l-5.1-0.9
		v-8.8h4.9l0,0c0,0,0.1,0,0.1,0c0,0,0,0,0.1,0c0,0,0.1,0,0.1,0c0,0,0.1,0,0.1-0.1c0,0,0.1-0.1,0.1-0.1c0,0,0-0.1,0.1-0.1
		c0,0,0-0.1,0.1-0.1c0,0,0-0.1,0-0.1c0,0,0,0,0-0.1c0,0,0,0,0-0.1c0,0,0,0,0-0.1c-0.1-0.4-0.2-0.9-0.3-1.3c-0.1-0.5-0.2-1-0.3-1.5
		c0,0,0,0,0,0c0,0,0,0,0,0c-0.8-4.1-2.3-7.9-4.3-11.6H267z M276.9,81c1.1,0.1,2.1,0.2,3.2,0.2c1.1,0,2.1-0.1,3.2-0.2h18
		c1.1,0.1,2.1,0.2,3.2,0.2c1.1,0,2.1-0.1,3.2-0.2h16.2v13.5c0,0,0,0.1,0,0.1c0,0,0,0.1,0,0.1v13.5h-16.2c-2.1-0.2-4.2-0.3-6.2,0
		c0,0-0.1,0-0.1,0c0,0,0,0,0,0h-18.1c-2.1-0.2-4.2-0.3-6.2,0c0,0-0.1,0-0.1,0c0,0,0,0,0,0h-4.1V94.7c0,0,0-0.1,0-0.1
		c0,0,0-0.1,0-0.1V81H276.9z M259.8,78.6h-2.7H257c-0.4,0-0.7,0.3-0.7,0.7c0,0.4,0.3,0.7,0.7,0.7h0.2h2.7h4.2
		c2.1,3.7,3.6,7.6,4.5,11.9l0,0c0.1,0.6,0.2,1.1,0.3,1.7c0,0.2,0.1,0.3,0.1,0.5h-4.1l0.1-3.2c0,0,0,0,0-0.1c0,0,0,0,0,0
		c0,0,0,0,0-0.1c0-0.1,0-0.1,0-0.2c-0.2-0.6-0.7-1.1-1.4-1.1c0,0,0,0,0,0c0,0,0,0,0,0h-2.3h0h-30.8V78.3h32.4v0.3H259.8z
		 M226.2,75.4l-1.6-2.4c0,0,0,0,0,0c0,0,0,0,0,0c-0.2-0.3-0.5-0.5-0.9-0.6c-0.1,0-0.1,0-0.2,0c0,0-0.1,0-0.1,0h-0.7h-1.2V61
		c0,0,0-0.1,0-0.1c0,0,0-0.1,0-0.1V50.1l1.4,0.2l0,0l0.4,0.1c0,0,0,0,0,0l5.1,0.9v8.8h-4.8c-0.1,0-0.1,0-0.2,0c0,0-0.1,0-0.1,0
		c-0.4,0.1-0.6,0.4-0.5,0.8c0.1,0.4,0.2,0.8,0.3,1.3c0.1,0.5,0.2,1.1,0.3,1.6c0,0,0,0,0,0c0,0,0,0,0,0c0.8,4.1,2.3,8,4.3,11.6H226.2
		z M216,74.5C216,74.5,215.9,74.5,216,74.5c-0.1,0-0.1,0-0.1,0c-2-0.2-4.1-0.2-6.2,0h-18.1c0,0,0,0,0,0c0,0-0.1,0-0.1,0
		c-2-0.2-4-0.2-6.2,0H169V61c0,0,0-0.1,0-0.1c0,0,0-0.1,0-0.1V47.3h16.2c1.1,0.1,2.1,0.2,3.2,0.2c1.1,0,2.1-0.1,3.2-0.2h18
		c1.1,0.1,2.1,0.2,3.2,0.2c1.1,0,2.1-0.1,3.2-0.2h4v13.5c0,0,0,0.1,0,0.1c0,0,0,0.1,0,0.1v13.5H216z M233.2,63v1.5h-0.3V63H233.2z
		 M237.3,63v1.5h-0.2h-0.5h-2.1V63H237.3z M243.8,63v1.5h-0.7V63H243.8z M248,63v1.5h-1.4h-0.8h-0.6V63H248z M254.1,63v1.5H254h-2
		h-0.7V63H254.1z M258.6,64.5c-0.1,0-0.2-0.1-0.2-0.1h-0.2c0,0-0.1,0-0.1,0c0,0-0.1,0-0.1,0h-2.2V63h2.8V64.5z M250,64.5h-0.7V63
		h0.7V64.5z M241.8,64.5h-1h-0.5h-0.3h-1V63h2.8V64.5z M231.6,64.5L231.6,64.5c-0.3,0-0.3,0-0.9,0l-0.1,0c0,0,0,0,0,0c0,0,0,0,0,0
		h-0.8c-0.1,0-0.1,0-0.1-0.1V63c0,0,0,0,0,0l0,0l0,0h0c0,0,0.1,0,0.1,0h1.8V64.5z M262.8,66v10.9h-32.4v-0.2h2.9h2.8
		c0.4,0,0.7-0.3,0.7-0.7s-0.3-0.7-0.7-0.7h-2.8h-4.2c-2.1-3.8-3.6-7.6-4.5-11.9c0,0,0,0,0,0c-0.1-0.6-0.2-1.1-0.3-1.7
		c0-0.1-0.1-0.3-0.1-0.4h4.1v3c0,0.1,0,0.2,0.1,0.3c0.1,0.6,0.5,1,1.1,1.1c0.1,0,0.2,0.1,0.3,0.1h0.8c0,0,0,0,0,0c0,0,0,0,0,0
		c0.4,0,0.6,0.1,0.7,0.1c0.1,0,0.2,0,0.4,0l0.3,0h4.6h0.5h2.9h0.3h0.5h1.2c0.1,0.1,0.2,0.1,0.4,0.1c0.1,0,0.3-0.1,0.4-0.1h0h1.4h1.4
		h0.8h1.8c0.1,0,0.2,0.1,0.3,0.1s0.2,0,0.3-0.1h3.1h2h0.8h3c0.1,0.1,0.3,0.2,0.5,0.2H262.8z M260.2,64.5L260.2,64.5
		c-0.1,0-0.2,0-0.3,0.1V63h0.3V64.5z M415.3,44.6c0.7,0.8,1.4,1.6,2.1,2.5c-1.5-0.7-3.1-1.3-4.8-1.9c-0.8-0.2-1.7-0.4-2.5-0.6H415.3
		z M359.9,58.4C359.8,58.4,359.8,58.5,359.9,58.4c-0.1,0.1-0.1,0.1-0.1,0.1c-10.7,7-21.1,10.6-30.8,10.6c0,0,0,0-0.1,0
		c-5.7,0-10.8-1.1-16-3.5c-2.5-1.2-4.8-2.5-7.1-4.2c-1.4-1.1-2.6-2.1-3.8-3.3c1.1,0.4,2.3,0.6,3.6,0.8c1,0.1,1.9,0.2,3,0.3
		c0,0,0,0,0.1,0c0.6,0,1.1,0,1.7,0.1h0c0,0,0,0,0,0c0.1,0,0.1,0,0.2,0c0.6,0,1.3,0,1.9,0c4.3-0.2,8.5-1,13.5-2.5
		c7.9-2.4,15.5-6,24.6-11.5c0,0,0,0,0,0c0,0,0,0,0,0c10-6.3,19.5-10.4,28.3-12c8.4-1.5,16.1-0.9,22.9,1.9c0,0,0,0,0,0
		c0.4,0.2,0.9,0.4,1.3,0.5c0,0,0,0,0,0c1.6,0.8,3.2,1.6,4.8,2.6V44c0,0.1,0,0.2,0.1,0.3c-1.1-0.2-2.2-0.3-3.4-0.4
		c-5.1-0.4-10.2,0.1-15.9,1.4C379.6,47.4,369.9,51.9,359.9,58.4z M429.2,58.5C429.1,58.5,429.1,58.5,429.2,58.5
		c-0.6,0.9-1.1,1.5-1.7,2.1l0,0c0,0,0,0,0,0c-0.3,0.3-0.6,0.6-1,0.8c0,0,0,0,0,0c0,0,0,0,0,0c-0.3,0.2-0.7,0.5-1.1,0.6c0,0,0,0,0,0
		c-0.3,0.2-0.7,0.3-1,0.4c0,0,0,0-0.1,0c0,0,0,0-0.1,0c-0.4,0.1-0.8,0.2-1.2,0.2c0,0,0,0,0,0c0,0,0,0,0,0c-0.2,0-0.3,0-0.5,0
		c0,0-0.1,0-0.1,0h-1.9l0,0l0,0l-4.6,0l-3.6,0.2c-0.4,0.1-0.8,0.1-1.2,0.2c0,0,0,0-0.1,0c0,0,0,0-0.1,0c-1.2,0.3-2.3,0.7-3.4,1.3
		c0,0,0,0,0,0c0,0,0,0,0,0c-1.8,1-3.1,2.1-4.4,3.7c-0.1,0.1-0.1,0.2-0.1,0.3c-1.4,1.8-2.3,3.7-2.8,5.9c0,0.1-0.1,0.1-0.1,0.2
		c-0.5,2.2-0.5,4.2,0,6.4c0,0.1,0,0.2,0.1,0.2c0.5,2.2,1.4,4.1,2.7,5.9c0,0.1,0.1,0.2,0.1,0.3c1.7,2.1,3.6,3.5,6.1,4.5l0,0
		c0,0,0,0,0,0c1.6,0.6,3.2,0.9,5,1l6.4,0h2.1c0.2,0,0.4,0,0.7,0c0,0,0,0,0,0l0,0l0.5,0c0.6,0,1.1,0.1,1.6,0.3c0.8,0.4,1.4,0.9,2,1.5
		c0,0,0,0,0,0c0,0,0,0,0,0c0.6,0.6,1.1,1.3,1.7,2.1c0.8,1.3,1.2,2.8,1.3,4.4h-37.6c-0.4,0-0.9-0.1-1.1-0.4c-0.2-0.3-0.1-0.8-0.1-0.8
		c0,0,0-0.1,0-0.2v-8.4c0,0,0,0,0,0l0,0v-0.9l0,0l0,0V65v0c0,0,0,0,0,0v-0.9l0,0c0,0,0,0,0,0l0-8.5c0,0,0-0.5,0.2-0.8
		c0.2-0.2,0.5-0.3,1-0.3h37.6C430.4,55.9,430,57.2,429.2,58.5z M444.4,54.4h16.2c0.6,0,1,0.6,1,1.2V100c0,0.7-0.5,1.2-1,1.2h-16.2
		V54.4z M279.2,12.2c12.4-1.7,25.2-3.5,37.8-4.8c12.6-1.3,23.2-2.1,33.3-2.3c10.2-0.2,19.2,0.1,27.5,0.9c9.3,1,18.7,2.8,27.7,4.5
		L408,11v13c-6.3-1.4-12.5-2.5-17.8-3.4c-3.9-0.7-8.1-1.3-12.3-1.8c-8.1-0.9-17-1.3-27.1-1.1c-9.7,0.2-20,0.9-32.4,2.3
		c-12.7,1.3-25.5,3.1-37.9,4.8c-11.1,1.5-22.5,3.1-33.9,4.3V16.4C257.6,15.1,268.5,13.6,279.2,12.2z M185.6,19.4
		c3.1,0.1,6.3,0.1,9.4,0.1c8.2,0,16.2-0.2,24.1-0.7c8.7-0.5,17.5-1.3,26.2-2.3v12.7c-8.5,0.9-17.1,1.7-25.6,2.2
		c-11,0.6-22.6,0.8-34.3,0.6c-11.5-0.2-23.5-0.9-39.1-2.1V17.3C158,18.2,171.8,19.1,185.6,19.4z M88.9,3.4l5.1-2h45.9l5.1,2v39.9
		H88.9V3.4z M3.1,49.8c1.5-7,5.1-13.2,10.3-18h0c0.3,0,0.6-0.3,0.7-0.6c0.6-0.5,1.2-1.1,1.9-1.5c0.1,0,0.1-0.1,0.1-0.2
		c0,0,0.1,0,0.1,0c2.3-1.7,4.6-3.3,7-4.7c2.5-1.4,5.3-2.9,8.8-4.5c7.3-3.3,13.8-5.6,19.8-7.1c4.4-1.1,8.9-1.8,13.5-2.2
		c6.9-0.6,14-0.3,20.9,0l1.3,0.1v12.8l-1.4-0.1c-6.5-0.3-13.2-0.7-19.7-0.2c-4.2,0.3-8.5,1-13.2,2c-6.8,1.5-13.8,3.7-21.5,6.6
		c-3.9,1.5-7,2.8-9.9,4.2c-2.7,1.3-5.3,2.8-7.8,4.3c0,0,0,0,0,0c0,0,0,0,0,0l-0.2,0.1c0,0,0,0,0,0l-0.2,0.2c0,0,0,0,0,0c0,0,0,0,0,0
		l-0.2,0.2c0,0,0,0,0,0l-0.2,0.2c0,0,0,0,0,0c0,0,0,0,0,0c-0.2,0.2-0.5,0.3-0.7,0.5l0,0l-0.2,0.1c0,0,0,0.1-0.1,0.1c0,0-0.1,0-0.1,0
		l-0.2,0.1c0,0,0,0.1-0.1,0.1c0,0-0.1,0-0.1,0c-2.8,2.1-5.1,4.4-6.8,6.9c-1.1,1.7-2,3.6-2.7,5.5c0.2-1.3,0.4-2.6,0.7-3.8L3.1,49.8z
		 M76.6,144.8c-3.7,0-7.5,0-11.2-0.3c-4.3-0.3-8.8-1.1-13.4-2.2c-6.4-1.6-12.9-3.9-19.8-7.1c-6.6-3-11.6-5.9-15.9-9.1
		c0,0-0.1,0-0.1-0.1c0,0-0.1-0.1-0.1-0.1C9.4,121,4.8,113.8,3.1,105.7l-0.3-1.4c-0.3-1.3-0.5-2.6-0.7-3.9c1.9,5.7,5.8,10.5,11,13.6
		l0.2,0.1c0,0,0,0,0,0l0.4,0.3c0,0,0,0,0,0c0,0,0,0,0,0l0.2,0.1l0,0c0,0,0,0,0.1,0.1c4.9,3.1,10.6,5.8,17.7,8.6
		c7.2,2.8,14.5,5,21.5,6.6c5.1,1.1,9.3,1.8,13.3,2.1c2.1,0.1,4.2,0.2,6.2,0.2c1.2,0,2.5,0,3.7,0l1.4,0c3.2,0,6.4-0.1,9.7-0.4v12.8
		C83.9,144.8,80.2,144.8,76.6,144.8z M145,152.1l-5.1,2H94l-5.1-2v-39.9H145V152.1z M146.3,138.3v-12.7c27.5-2.3,51.5-2.7,73.5-1.5
		c8.5,0.5,17,1.3,25.5,2.2V139c-8.7-1-17.5-1.8-26.2-2.3C197.6,135.5,173.7,136,146.3,138.3z M407.4,144.7
		c-5.9,1.1-11.9,2.3-17.9,3.3c-4.4,0.7-8.2,1.2-11.8,1.6c-8.3,0.9-17.3,1.2-27.5,0.9c-10.1-0.2-21-1-33.3-2.3
		c-12.6-1.3-25.4-3.1-37.8-4.8c-10.7-1.5-21.6-3-32.5-4.2v-12.7c11.4,1.3,22.7,2.8,33.9,4.3c12.5,1.7,25.4,3.5,38.2,4.8
		c12.4,1.3,22.7,2,32.4,2.2c2,0,3.9,0.1,5.7,0.1c7.6,0,14.5-0.4,20.9-1.1c4.2-0.5,8.5-1.2,12.4-1.8c5.4-0.9,11.6-2,17.9-3.4v13
		L407.4,144.7z M465.4,152.2l-5.1,2h-45.9l-5.1-2v-6.8c0-0.1,0-0.2,0-0.3c0,0,0,0,0,0v-14.1c0-0.1,0-0.2,0-0.3c0,0,0,0,0,0v-18.2
		h56.1V152.2z M513.6,83c-0.1,2.5-0.4,5.5-1.2,8.3c-0.6,2.1-1.6,4.3-2.9,6.5c-0.9,1.3-1.8,2.6-2.9,3.9c-1,1.2-1.9,2.2-2.9,3.1
		c-1.9,1.9-4.3,3.7-6.9,5.3c-3.4,2.1-7.1,3.8-10.7,5.4l-3.2,1.5c-5.2,2.4-10.7,4.9-16.1,7.1v-12.6c0-0.4-0.3-0.7-0.7-0.7h-0.7
		c4.7-2,9.5-4.1,14.5-6.5c2.3-1,4.7-2.2,7.1-3.4c0.9-0.5,2-1,3.1-1.6c1.9-1.1,3.5-2.3,4.8-3.6c0.6-0.6,1.2-1.3,1.8-2.1
		c0.7-0.9,1.4-1.9,2-2.8l0.2-0.2c0,0,0-0.1,0-0.1c0,0,0,0,0,0c1.1-2.3,1.7-4.6,1.8-6.9c0.1-0.8,0-1.6,0-2.4l0-0.7c0-0.9,0-1.9,0-2.8
		c0-1.7,0.1-3.4,0-5.2c-0.2-2.5-0.6-4.5-1.3-6.2c-0.2-0.4-0.4-0.9-0.6-1.3c-0.6-1.1-1.4-2.2-2.2-3.3c-2-2.4-4.5-4.4-8.1-6.4
		c-3-1.7-6.2-3.1-9.3-4.5l-2.1-0.9c-1.5-0.7-2.9-1.3-4.4-2c-2.4-1.1-4.9-2.3-7.4-3.3h0.5c0.4,0,0.7-0.3,0.7-0.7V31.4
		c5.1,2,10.1,4.3,14.9,6.6c1.4,0.6,2.8,1.3,4.2,1.9l0.7,0.3c3.5,1.6,7,3.2,10.3,5.2c2.5,1.6,4.9,3.4,7,5.5c2.4,2.3,4.3,4.7,5.8,7.2
		c1.9,3.2,3.2,6.8,3.6,10.3c0.2,1.3,0.2,2.7,0.3,3.8C513.8,76.2,513.8,79.8,513.6,83z"/>
	<path class="st1" d="M417,84L417,84l0.6,0c0,0,0,0,0,0l0,0h1.3h0.6h0c0.5,0,0.8-0.2,1.1-0.6c0,0,0,0,0,0l0.5-0.8
		c0.1-0.1,0.1-0.3,0.1-0.4c0,0,0,0,0,0l0.3-0.3c0.1-0.1,0.1-0.2,0.1-0.2c1-0.9,1.6-2.2,1.6-3.7c0-1.1-0.4-2.1-0.9-2.9
		c0,0,0-0.1,0-0.1c0-0.1-0.1-0.2-0.2-0.4c-0.3-0.5-0.4-0.7-0.5-0.8c0,0,0,0,0,0c0,0,0,0,0,0c-0.2-0.2-0.4-0.3-0.6-0.5
		c0,0,0-0.1,0-0.1l-0.3-0.6c0,0,0,0,0,0c-0.2-0.4-0.6-0.7-1.1-0.7h0h0H419h-1.4H417c0,0,0,0,0,0c0,0,0,0,0,0h-2h-0.6h-1.1
		c0,0,0,0,0,0c0,0,0,0,0,0c-0.3-0.1-0.7-0.1-1,0.5c0,0,0,0.1,0,0.1c0,0-0.1,0.1-0.1,0.1l-2.6,4.8c-0.2,0.4-0.2,0.9,0,1.3l2.6,4.8
		c0,0,0,0,0,0c0.2,0.4,0.6,0.7,1.1,0.7h0h1.1h0.6L417,84C417,84,417,84,417,84z M417.2,82.6c0,0-0.1,0-0.1,0c-1.3,0-2.4-0.5-3.2-1.3
		l-1.3-2.1c-0.1-0.4-0.2-0.8-0.2-1.3c0-0.5,0.1-0.9,0.2-1.3l1.1-1.9c0.7-0.7,1.6-1.2,2.6-1.4c-1.9,0.6-3,2.2-3.2,3.8
		c-0.3,2,0.8,4.5,3.6,5.4C416.8,82.5,417,82.5,417.2,82.6z M418.6,81.5c-2-0.1-3.5-1.7-3.5-3.7c0,0,0,0,0,0s0,0,0,0
		c0-2,1.5-3.6,3.5-3.7c2,0.1,3.4,1.6,3.5,3.7C422.1,79.8,420.6,81.5,418.6,81.5z"/>
	<path class="st1" d="M423.3,68.8C423.3,68.8,423.3,68.8,423.3,68.8c-1-0.5-2-0.9-3.2-1.2c-0.3-0.1-3.4-0.6-4.5-0.5c0,0,0,0,0,0
		c0,0,0,0,0,0h0l0,0c-5.7,0-10.3,4.8-10.3,10.7c0,5.9,4.6,10.6,10.3,10.6l0,0c0,0,0,0,0.1,0l0,0h0c0.3,0,0.6,0,0.9,0
		c1.7,0,3.6-0.3,3.7-0.3c1.1-0.3,2.1-0.7,3-1.2c0,0,0,0,0,0c0,0,0,0,0,0c0,0,0,0,0,0c0,0,0,0,0,0c3.6-1.6,6.1-5,6.5-9c0,0,0,0,0-0.1
		s0,0,0-0.1C429.4,73.9,426.9,70.4,423.3,68.8z M406.5,77.7c0-5.1,4-9.3,9-9.3c5,0,9,4.2,9,9.3s-4,9.3-9,9.3
		C410.6,87.1,406.5,82.9,406.5,77.7z M422.7,85.7C422.7,85.7,422.7,85.7,422.7,85.7C422.7,85.7,422.6,85.7,422.7,85.7
		c-0.2,0.1-0.4,0.2-0.6,0.3c2.3-2,3.8-4.9,3.8-8.2c0-3-1.3-5.8-3.3-7.7c0,0,0,0,0,0c0,0,0,0,0,0c3.2,1.4,5.4,4.4,5.8,7.8
		C428,81.3,425.8,84.3,422.7,85.7z"/>
	<path class="st1" d="M448.8,56c-2,0-3.6,1.6-3.6,3.6c0,1.9,1.6,3.5,3.5,3.6c0,0,0,0,0,0c1.9,0,3.5-1.6,3.6-3.5c0,0,0,0,0,0
		c0,0,0,0,0,0C452.3,57.6,450.7,56,448.8,56z M448.8,61.3c-1,0-1.7-0.8-1.7-1.7s0.8-1.7,1.7-1.7c1,0,1.7,0.8,1.7,1.7
		S449.7,61.3,448.8,61.3z"/>
	<path class="st1" d="M456.5,56c-2,0-3.6,1.6-3.6,3.6s1.6,3.6,3.6,3.6s3.6-1.6,3.6-3.6S458.5,56,456.5,56z M456.5,61.3
		c-1,0-1.7-0.8-1.7-1.7c0,0,0,0,0,0c0,0,0,0,0,0c0-0.9,0.8-1.7,1.7-1.7c1,0,1.7,0.8,1.7,1.7S457.5,61.3,456.5,61.3z"/>
	<path class="st1" d="M456.5,92.6c-2,0-3.6,1.6-3.6,3.6c0,2,1.6,3.6,3.6,3.6s3.6-1.6,3.6-3.6C460.1,94.2,458.5,92.6,456.5,92.6z
		 M456.5,94.4c1,0,1.7,0.8,1.7,1.7c0,0.9-0.8,1.7-1.7,1.7c-1,0-1.7-0.7-1.8-1.7c0,0,0,0,0,0c0,0,0,0,0,0
		C454.8,95.2,455.5,94.4,456.5,94.4z"/>
	<path class="st1" d="M448.8,92.6c-2,0-3.6,1.6-3.6,3.6c0,2,1.6,3.6,3.5,3.6c0,0,0,0,0,0c1.9,0,3.5-1.6,3.6-3.5c0,0,0,0,0,0
		c0,0,0,0,0,0C452.3,94.2,450.7,92.6,448.8,92.6z M448.8,97.9c-1,0-1.7-0.8-1.7-1.7s0.8-1.7,1.7-1.7c1,0,1.7,0.8,1.7,1.7
		S449.7,97.9,448.8,97.9z"/>
	<path class="st1" d="M396.7,92.6c-2,0-3.6,1.6-3.6,3.6c0,2,1.6,3.6,3.6,3.6s3.6-1.6,3.6-3.6C400.3,94.2,398.7,92.6,396.7,92.6z
		 M396.7,97.9c-1,0-1.7-0.8-1.7-1.7s0.8-1.7,1.7-1.7s1.7,0.8,1.7,1.7S397.7,97.9,396.7,97.9z"/>
	<path class="st1" d="M396.7,56c-2,0-3.6,1.6-3.6,3.6s1.6,3.6,3.6,3.6s3.6-1.6,3.6-3.6S398.7,56,396.7,56z M396.7,61.3
		c-1,0-1.7-0.8-1.7-1.7s0.8-1.7,1.7-1.7s1.7,0.8,1.7,1.7S397.7,61.3,396.7,61.3z"/>
</g>
</svg>
