<?xml version="1.0" encoding="utf-8"?>
<!-- Generator: Adobe Illustrator 21.0.0, SVG Export Plug-In . SVG Version: 6.00 Build 0)  -->
<svg version="1.1" id="Layer_1" xmlns="http://www.w3.org/2000/svg" xmlns:xlink="http://www.w3.org/1999/xlink" x="0px" y="0px"
	 viewBox="0 0 919.4 564.2" style="enable-background:new 0 0 919.4 564.2;" xml:space="preserve">
<style type="text/css">
	.st0{fill:none;stroke:#FFFFFF;stroke-width:1.5;stroke-miterlimit:10;}
</style>
<g>
	<g>
		<line class="st0" x1="327.9" y1="296.9" x2="220.9" y2="235.4"/>
		<line class="st0" x1="369" y1="320.5" x2="339.6" y2="303.6"/>
		<line class="st0" x1="348.1" y1="254" x2="265.4" y2="206.6"/>
		<line class="st0" x1="413.5" y1="291.6" x2="359.8" y2="260.8"/>
		<line class="st0" x1="358.4" y1="205.7" x2="309.8" y2="177.8"/>
		<line class="st0" x1="457.9" y1="262.7" x2="370.2" y2="212.4"/>
		<line class="st0" x1="409.6" y1="180.8" x2="354.1" y2="149.1"/>
		<line class="st0" x1="502.3" y1="233.8" x2="421.3" y2="187.5"/>
		<line class="st0" x1="459.2" y1="155.1" x2="398.4" y2="120.4"/>
		<line class="st0" x1="546.6" y1="204.9" x2="470.9" y2="161.8"/>
		<path class="st0" d="M469.3,154.4c9.5-9,17.7-20.4,23.4-35.4"/>
		<path class="st0" d="M421.8,181.8c13-5,26.1-10.9,37.9-19.5"/>
		<path class="st0" d="M368.6,204.9c10.4-7.6,24.7-12.6,39.9-18.1"/>
		<path class="st0" d="M353.6,252.9c-0.8-14.1-3.3-27.5,6.2-39.7"/>
		<path class="st0" d="M337.4,296.2c8-8.3,13.6-17.1,15.3-25.3c0.6-2.9,0.9-5.7,1.1-8.6"/>
		<path class="st0" d="M282.5,326.8c17.2-3.8,33.8-12.6,46.6-23.1"/>
		<g>
			<path class="st0" d="M333.8,296.3c1.9,0,3.7,0.4,5,1.2c1.3,0.7,2,1.7,2,2.7c0,0.9-0.6,1.9-1.8,2.6c-1.4,0.9-3.3,1.4-5.4,1.4
				c-1.9,0-3.7-0.4-5-1.2c-1.3-0.7-2-1.7-2-2.7c0-0.9,0.6-1.9,1.8-2.6C329.8,296.8,331.8,296.3,333.8,296.3 M333.8,295.3
				c-2.2,0-4.3,0.5-5.9,1.6c-3.1,2-2.9,5.1,0.3,7c1.5,0.9,3.5,1.3,5.5,1.3c2.2,0,4.3-0.5,5.9-1.6c3.1-2,2.9-5.1-0.3-7
				C337.8,295.7,335.8,295.3,333.8,295.3L333.8,295.3z"/>
		</g>
		<g>
			<path class="st0" d="M354,253.5c1.9,0,3.7,0.4,5,1.2c1.3,0.7,2,1.7,2,2.7c0,0.9-0.6,1.9-1.8,2.6c-1.4,0.9-3.3,1.4-5.4,1.4
				c-1.9,0-3.7-0.4-5-1.2c-1.3-0.7-2-1.7-2-2.7c0-0.9,0.6-1.9,1.8-2.6C350,254,352,253.5,354,253.5 M354,252.5
				c-2.2,0-4.3,0.5-5.9,1.6c-3.1,2-2.9,5.1,0.3,7c1.5,0.9,3.5,1.3,5.5,1.3c2.2,0,4.3-0.5,5.9-1.6c3.1-2,2.9-5.1-0.3-7
				C358,252.9,356,252.5,354,252.5L354,252.5z"/>
		</g>
		<g>
			<path class="st0" d="M364.4,205.1c1.9,0,3.7,0.4,5,1.2c1.3,0.7,2,1.7,2,2.6s-0.6,1.9-1.8,2.6c-1.4,0.9-3.3,1.4-5.4,1.4
				c-1.9,0-3.7-0.4-5-1.2c-1.3-0.7-2-1.7-2-2.6s0.6-1.9,1.8-2.6C360.3,205.6,362.3,205.1,364.4,205.1 M364.4,204.1
				c-2.2,0-4.3,0.5-5.9,1.6c-3.1,2-2.9,5.1,0.3,7c1.5,0.9,3.5,1.3,5.5,1.3c2.2,0,4.3-0.5,5.9-1.6c3.1-2,2.9-5.1-0.3-7
				C368.3,204.6,366.3,204.1,364.4,204.1L364.4,204.1z"/>
		</g>
		<g>
			<path class="st0" d="M415.5,180.2c1.9,0,3.6,0.4,5,1.2c1.3,0.7,2,1.7,2,2.6s-0.6,1.9-1.7,2.6c-1.4,0.9-3.3,1.4-5.4,1.4
				c-1.9,0-3.7-0.4-5-1.2c-1.3-0.7-2-1.7-2-2.6s0.6-1.9,1.7-2.6C411.5,180.8,413.5,180.2,415.5,180.2 M415.5,179.2
				c-2.2,0-4.3,0.5-5.9,1.6c-3.1,2-2.9,5.1,0.3,6.9c1.5,0.9,3.5,1.3,5.5,1.3c2.2,0,4.3-0.5,5.9-1.6c3.1-2,2.9-5.1-0.3-6.9
				C419.4,179.7,417.5,179.2,415.5,179.2L415.5,179.2z"/>
		</g>
		<g>
			<path class="st0" d="M465.1,154.5c1.9,0,3.6,0.4,5,1.2c1.3,0.7,2,1.7,2,2.6s-0.6,1.8-1.7,2.6c-1.4,0.9-3.3,1.4-5.4,1.4
				c-1.9,0-3.6-0.4-5-1.2c-1.3-0.7-2-1.7-2-2.6s0.6-1.8,1.7-2.6C461.1,155,463,154.5,465.1,154.5 M465.1,153.5
				c-2.2,0-4.3,0.5-5.9,1.6c-3.1,2-2.9,5.1,0.3,6.9c1.5,0.9,3.5,1.3,5.5,1.3c2.2,0,4.3-0.5,5.9-1.6c3.1-2,2.9-5.1-0.3-6.9
				C469,154,467.1,153.5,465.1,153.5L465.1,153.5z"/>
		</g>
	</g>
	<g>
		<path class="st0" d="M121.1,130.8c1.8,0,2.9,0.8,2.9,1.4c0,0.1,0,0.1,0,0.2c-0.9,0.3-1.9,0.4-2.9,0.4s-1.9-0.1-2.8-0.4
			c0-0.1-0.1-0.1-0.1-0.2C118.2,131.6,119.3,130.8,121.1,130.8 M121.1,129.8c-2.2,0-3.9,1.1-3.9,2.4c0,0.4,0.2,0.7,0.4,1.1
			c1,0.3,2.2,0.5,3.4,0.5c1.3,0,2.6-0.2,3.6-0.6c0.2-0.3,0.4-0.6,0.4-1C125,130.9,123.3,129.8,121.1,129.8L121.1,129.8z"/>
	</g>
	<g>
		<path class="st0" d="M121.1,125.7c3.5,0,6.4,1.7,6.4,3.8c0,2-2.9,3.8-6.4,3.8s-6.4-1.7-6.4-3.8
			C114.7,127.4,117.6,125.7,121.1,125.7 M121.1,124.7c-4.1,0-7.4,2.1-7.4,4.8c0,2.6,3.3,4.8,7.4,4.8s7.4-2.1,7.4-4.8
			S125.2,124.7,121.1,124.7L121.1,124.7z"/>
	</g>
	<g>
		<path class="st0" d="M151.1,85.6c2.6,0,4.4,1.3,4.4,2.5s-1.8,2.5-4.4,2.5c-2.6,0-4.4-1.3-4.4-2.5C146.7,87,148.5,85.6,151.1,85.6
			 M151.1,84.6c-3,0-5.4,1.6-5.4,3.5s2.4,3.5,5.4,3.5s5.4-1.6,5.4-3.5S154.1,84.6,151.1,84.6L151.1,84.6z"/>
	</g>
	<g>
		<path class="st0" d="M190.5,83.1c0.8,0,1.5,0.2,2.1,0.6c0.2,0.1,0.4,0.3,0.5,0.5l0,0l-43.2,28.2c-0.4,0.3-1,0.4-1.6,0.4
			c-0.7,0-1.3-0.2-1.9-0.5c-0.2-0.2-0.2-0.4-0.2-0.6c0-0.3,0.3-0.5,0.5-0.6l42.4-27.7C189.3,83.2,189.9,83.1,190.5,83.1 M190.5,82.1
			c-0.8,0-1.5,0.2-2.1,0.6L146,110.4c-1.1,0.7-1.2,1.9-0.4,2.8c0.7,0.5,1.7,0.7,2.5,0.7s1.6-0.2,2.2-0.6l43.2-28.2
			c0.3-0.2,0.5-0.4,0.6-0.6c-0.1-0.6-0.4-1.1-1-1.6C192.4,82.3,191.4,82.1,190.5,82.1L190.5,82.1z"/>
	</g>
	<g>
		<path class="st0" d="M190.3,81.6L190.3,81.6c1.1,0,2.1,0.3,2.7,0.6c0.3,0.2,0.5,0.5,0.5,0.9c0,0.5-0.3,1-0.7,1.2l-43.1,28.1
			c-0.4,0.3-1,0.4-1.6,0.4c-0.8,0-1.6-0.2-2.2-0.6c-0.6-0.4-0.9-1-0.9-1.6c0-0.3,0.1-0.4,0.3-0.6l43.1-28.1
			C188.7,81.8,189.5,81.6,190.3,81.6 M190.3,80.6c-1,0-2,0.2-2.6,0.6l-43.1,28.1c-1.3,0.9-0.8,2.8,0.6,3.8c0.8,0.5,1.8,0.8,2.8,0.8
			c0.8,0,1.6-0.2,2.2-0.6l43.1-28.1c1.3-0.9,1.7-2.8,0.3-3.8C192.8,80.9,191.5,80.6,190.3,80.6L190.3,80.6z"/>
	</g>
	<g>
		<path class="st0" d="M750.5,407.6c19,0,34.4,9.2,34.4,20.6c0,11.3-15.4,20.6-34.4,20.6s-34.4-9.2-34.4-20.6
			S731.5,407.6,750.5,407.6 M750.5,448.2c17.9,0,32.4-8.9,32.4-19.7s-14.5-19.7-32.4-19.7s-32.4,8.8-32.4,19.7
			S732.7,448.2,750.5,448.2 M750.5,406.6c-19.6,0-35.4,9.7-35.4,21.6c0,11.9,15.9,21.6,35.4,21.6c19.6,0,35.4-9.7,35.4-21.6
			C785.9,416.2,770,406.6,750.5,406.6L750.5,406.6z M750.5,447.2c-17.3,0-31.4-8.4-31.4-18.7s14-18.7,31.4-18.7
			c17.3,0,31.4,8.4,31.4,18.7C781.9,438.9,767.9,447.2,750.5,447.2L750.5,447.2z"/>
	</g>
	<g>
		<path class="st0" d="M750,406.1c19.7,0,35.7,9.5,35.7,21.2s-16,21.2-35.7,21.2s-35.7-9.5-35.7-21.2S730.3,406.1,750,406.1
			 M750.3,447.5c8.6,0,16.6-1.9,22.5-5.4c6.1-3.6,9.5-8.5,9.5-13.9c0-11-14.1-19.7-32-19.7c-18,0-32,8.6-32,19.7
			c0,5.3,3.4,10.3,9.5,13.9C733.7,445.6,741.7,447.5,750.3,447.5 M750,405.1c-20.3,0-36.7,9.9-36.7,22.2c0,12.2,16.4,22.2,36.7,22.2
			s36.7-9.9,36.7-22.2C786.8,415,770.3,405.1,750,405.1L750,405.1z M750.3,446.5c-17.4,0-31-7.9-31-18.3c0-10.3,13.7-18.7,31-18.7
			c17.4,0,31,8.4,31,18.7C781.4,438.6,767.7,446.5,750.3,446.5L750.3,446.5z"/>
	</g>
	<g>
		<path class="st0" d="M341.2,34.3c0.2,0,0.4,0.1,0.6,0.2l503,285.7c0.1,0.1,0.3,0.1,0.4,0.2c0.2,0.1,0.7,0.3,0.9,0.5
			c-0.2,0.2-0.6,0.5-1.3,0.9L579.4,494.6c-0.5,0.3-1.1,0.5-1.3,0.5s-1-0.1-1.8-0.6l-502-288.2l-0.2-0.1c-0.3-0.2-1.1-0.6-1.2-0.9
			c0-0.3,0.7-0.7,1-0.9c0.1-0.1,0.2-0.1,0.3-0.2L340.5,34.3C340.8,34.3,341,34.3,341.2,34.3 M341.2,33.3c-0.4,0-0.8,0.1-1.2,0.3
			L73.7,203.5c-0.6,0.4-1.8,1-1.8,1.9s1.2,1.5,1.8,1.8l502,288.2c0.9,0.5,1.9,0.7,2.3,0.7c0.4,0,1.2-0.3,1.8-0.7l265.6-172.8
			c0.7-0.5,1.8-1.1,1.8-1.8s-1.2-1.2-1.9-1.6l-503-285.7C342,33.4,341.6,33.3,341.2,33.3L341.2,33.3z"/>
	</g>
	<g>
		<path class="st0" d="M282,5c13.5,0,27,3.9,41.2,11.9l554.9,314c15.6,8.8,23.6,17.6,23.9,26.1c0.2,8.1-6.5,16.4-20.5,25.4
			l-211,135.4c-9.5,6.1-20,9.2-31.2,9.2c-14.8,0-31.5-5.3-49.7-15.8L42.7,197.7h-0.1c-16.3-9.4-24.7-18.4-24.9-27
			c-0.2-7.7,6.5-13.7,12.1-17.3l2.5-1.6c-5.6,4.7-8.5,10.5-8.4,16.8c0.3,10.4,9,21.2,24.7,30.2l542,310.9
			c16.4,9.4,36.2,15.1,53,15.1c9.7,0,17.8-2,23.7-5.7l0,0l0,0L879.5,381c10.8-7,16.3-15.1,16.1-23.4c-0.3-10-8.9-19.8-25.6-29.3
			l-548.4-310C308.8,11,295.2,7.4,281.3,7.4c-16.1,0-32.3,5-47,14.4l-89.1,57.3l90.6-58.5C251.8,10.1,267,5,282,5 M282,4
			c-17.1,0-32.5,6.3-46.8,15.5l-206,133c-14.3,9.2-23.5,25.2,12.9,46c0,0,0,0,0.1,0L589,511.9c19.2,11,35.8,15.9,50.2,15.9
			c11.9,0,22.4-3.3,31.7-9.3l211-135.4c24.6-15.8,32.5-32.9-3.4-53.2L323.7,16.1C308.7,7.6,294.9,4,282,4L282,4z M643.5,523.7
			c-16.6,0-36.4-5.8-52.5-14.9L49.1,197.9c-29.8-17.1-29.6-37-13-47.7L234.7,22.5c13.1-8.4,29.2-14.2,46.4-14.2
			c12.8,0,26.3,3.2,39.8,10.8l548.4,310c35.1,19.8,28.7,38.4,9.5,50.9L666.7,518.1l0,0C660.8,522,652.7,523.7,643.5,523.7
			L643.5,523.7z"/>
	</g>
	<g>
		<path class="st0" d="M281.9,2.1c14.5,0,28.9,4,42.6,11.8l565.7,321.6c10.6,6.4,16.5,14.4,16.7,22.6c0.2,9.2-6.8,18.6-20.3,27.3
			L684.3,516.6l0,0l0,0h-0.1l0,0c-14.4,9.3-29.7,14.1-45.4,14.1c-14.6,0-29.2-4.1-43.3-12.2l-566-324c-10.6-6.1-17-14.8-17.2-23.5
			c-0.2-8.2,5-16,15.2-22.5l3.9-2.5l0,0L229.5,18.9C246.8,7.7,264.4,2.1,281.9,2.1 M281.9,1.1c-22.2,0-40.8,9.1-53,16.9l-202,129.6
			l0,0c-24.8,15.9-17,36.7,2.1,47.7l565.9,324.1c14,8,28.9,12.3,43.8,12.3c15.4,0,31-4.6,46-14.3l0,0l202.4-131.2
			c30.1-19.5,23.9-39.4,3.6-51.6L325,13C309.7,4.3,295.2,1.1,281.9,1.1L281.9,1.1z"/>
	</g>
	<g>
		<path class="st0" d="M281.3,2.1c15.2,0,30.9,4.5,46.6,13.3l560.9,318.2c13.6,7.7,21.6,17.7,21.9,27.4c0.3,9.5-6.3,18.7-19.5,27.3
			L692.4,518.1c-18.4,12-35.8,17.8-53.2,17.8c-15.8,0-31.9-4.9-49.4-14.9L35.4,203.6l0,0c-17-9.7-25.7-19.8-26-30.1
			c-0.3-12.4,12-22.1,19.4-26.8l6.2-4L228.2,19.6l0,0l1.2-0.8C247.1,7.6,264.1,2.1,281.3,2.1 M281.3,1.1c-18.4,0-35.7,6.3-52.4,16.9
			l0,0L28.2,145.9l0,0c-14.7,9.4-39.1,32.4,6.7,58.6l-0.1-0.1l554.5,317.5c16.6,9.5,32.9,15,49.9,15s34.6-5.5,53.8-18l0,0
			l198.7-129.7c32.7-21.4,20.4-43.6-2.4-56.5L328.4,14.6C311.9,5.2,296.3,1.1,281.3,1.1L281.3,1.1z"/>
	</g>
	<g>
		<path class="st0" d="M281.3,2.1c15.2,0,30.9,4.5,46.6,13.3l560.9,318.2c13.6,7.7,21.6,17.7,21.9,27.4c0.3,9.5-6.3,18.7-19.5,27.3
			L692.4,518.1c-18.4,12-35.8,17.8-53.2,17.8c-15.8,0-31.9-4.9-49.4-14.9L35.4,203.6l0,0c-17-9.7-25.7-19.8-26-30.1
			c-0.3-12.4,12-22.1,19.4-26.8l6.2-4L228.2,19.6l0,0l1.2-0.8C247.1,7.6,264.1,2.1,281.3,2.1 M281.3,1.1c-18.4,0-35.7,6.3-52.4,16.9
			l0,0L28.2,145.9l0,0c-14.7,9.4-39.1,32.4,6.7,58.6l-0.1-0.1l554.5,317.5c16.6,9.5,32.9,15,49.9,15s34.6-5.5,53.8-18l0,0
			l198.7-129.7c32.7-21.4,20.4-43.6-2.4-56.5L328.4,14.6C311.9,5.2,296.3,1.1,281.3,1.1L281.3,1.1z"/>
	</g>
	<g>
		<path class="st0" d="M281.1,2c15.3,0,31.1,4.5,46.9,13.5l557.3,316.1h-0.1l3.3,1.9c18.3,10.3,28.6,24.4,29,39.6
			c0.5,15.4-9.3,30.7-26.8,42l-2.1,1.4h0.2L687.2,547.6c-14.9,9.7-31,14.6-47.7,14.6c-20.6,0-37.7-7.4-48.5-13.6L29.8,226.1
			C12,215.9,2.4,202.7,2.1,188c-0.3-14.9,9-30.2,24.3-40l2.2-1.4h-0.1L227.9,19.5l0,0l1.2-0.8C246.9,7.5,263.9,2,281.1,2 M281.1,1
			c-18.4,0-35.7,6.3-52.4,16.9l0,0L25.8,147.2l0,0c-26.6,17-40.2,54.8,3.4,79.8l561.2,322.5c13.8,7.9,30.7,13.7,49,13.7
			c15.5,0,32-4.2,48.3-14.8L891.3,416c-0.1,0-0.1,0-0.1,0c35.6-23,37.9-60.7-2.2-83.4h0.1l-560.6-318C311.9,5.2,296.1,1,281.1,1
			L281.1,1z"/>
	</g>
	<g>
		<path class="st0" d="M57.5,233.5c0.4,0,0.9,0.2,1.4,0.5l19.3,11.6c1.5,0.9,2.5,2.4,2.5,3.3v1.1c0,0.1,0,0.1,0,0.2c0,0-0.1,0-0.3,0
			c-0.4,0-0.9-0.2-1.4-0.5l-19.3-11.6c-1.5-0.9-2.5-2.4-2.5-3.3v-1.1c0-0.1,0-0.1,0-0.2C57.2,233.5,57.3,233.5,57.5,233.5
			 M57.5,232.5c-0.7,0-1.3,0.4-1.3,1.2v1.2c-0.1,1.3,1.3,3.2,3,4.1l19.3,11.6c0.7,0.4,1.4,0.6,1.9,0.6c0.7,0,1.2-0.4,1.3-1.2v-1.2
			c0.1-1.3-1.3-3.1-3-4.1l-19.3-11.6C58.7,232.7,58,232.5,57.5,232.5L57.5,232.5z"/>
	</g>
	<g>
		<path class="st0" d="M58.5,232.7c0.2,0,0.4,0.1,0.4,0.1l0,0l0,0l0,0c0.2,0.1,17.4,10,20.4,11.8c1.7,1,2.5,2.4,2.5,4.4
			c0,0.8-0.2,0.9-0.6,1c-0.1,0-0.5,0.1-0.9,0.1c-0.1,0-0.1,0-0.2,0H80l0,0l0,0c-0.4,0-0.8-0.2-1.3-0.5L59.4,238
			c-1.5-0.9-2.5-2.4-2.5-3.3v-1.1c0-0.1,0-0.1,0-0.1l0,0l0,0C57.5,233,58,232.7,58.5,232.7 M58.5,231.7c-0.5,0-1.3,0.2-2.1,0.9
			l-0.1,0.1l0,0c-0.2,0.2-0.2,0.4-0.3,0.7v1.2c-0.1,1.3,1.3,3.1,3,4.1l19.3,11.6c0.6,0.4,1.2,0.6,1.7,0.6l0,0c0.1,0,0.3,0,0.4,0
			c0.5,0,0.9-0.1,1.1-0.1c1.3-0.3,1.3-1.4,1.3-2s0.1-3.5-3-5.2c-3-1.8-20.4-11.8-20.4-11.8S59,231.7,58.5,231.7L58.5,231.7z"/>
	</g>
	<path class="st0" d="M58.7,239"/>
	<path class="st0" d="M57.2,237.4c0,1.5,1.6,3.8,3.6,5L80.5,254c2,1.2,3.6,0.9,3.6-0.6v-5.2c0-1.5-1.6-3.7-3.6-4.9l-19.7-11.2
		c-1.4-0.9-2.7-1-3.3-0.4c-0.1,0.1-0.1,0.2-0.2,0.2"/>
	<g>
		<path class="st0" d="M116.1,267.8L116.1,267.8c0.9,0,2,0.3,2.9,0.9l37.2,21.6c2.4,1.4,4.2,4.4,4,6.5c-0.1,1.1-0.8,1.7-1.8,1.7
			c-0.7,0-1.4-0.2-2.2-0.7l-38.1-22.1c-2.4-1.4-4.2-4.4-4-6.5C114.3,268,115.3,267.8,116.1,267.8 M116.1,266.8c-1.5,0-2.8,0.7-3,2.2
			c-0.3,2.5,1.7,5.9,4.4,7.5l38.1,22.1c1,0.6,1.9,0.8,2.7,0.8c1.5,0,2.6-0.9,2.8-2.5c0.3-2.5-1.7-5.9-4.4-7.5l-37.2-21.6
			C118.4,267.1,117.2,266.8,116.1,266.8L116.1,266.8z"/>
	</g>
	<g>
		<path class="st0" d="M116.8,266.6L116.8,266.6c0.9,0,1.9,0.3,2.8,0.8l38.5,22.4c2.5,1.4,4.2,4.8,3.8,7.3c-0.3,1.6-1.7,1.8-2.5,1.8
			c-0.9,0-2-0.3-2.9-0.8L118,275.8c-2.5-1.4-4.2-4.8-3.8-7.3C114.5,266.8,116.1,266.6,116.8,266.6 M116.8,265.6
			c-1.8,0-3.3,0.9-3.6,2.7c-0.5,2.9,1.5,6.6,4.3,8.3l38.5,22.3c1.1,0.6,2.3,1,3.4,1c1.7,0,3.2-0.8,3.5-2.6c0.5-2.9-1.5-6.6-4.3-8.3
			l-38.5-22.5C119,265.9,117.9,265.6,116.8,265.6L116.8,265.6z"/>
	</g>
	<path class="st0" d="M114.2,266.6L114.2,266.6c2.9-2.7,5.8-3.4,7.7-2.3l39.8,22.9c2.9,1.7,4.7,6,3.8,9.6l0,0
		c-0.7,2.9-4,3.6-6.8,2.9"/>
	<g>
		<path class="st0" d="M177,303L177,303c0.9,0,2,0.3,2.9,0.9l37.2,21.6c2.4,1.4,4.2,4.4,4,6.5c-0.1,1.1-0.8,1.7-1.8,1.7
			c-0.7,0-1.4-0.2-2.2-0.7L179,310.9c-2.4-1.4-4.2-4.4-4-6.5C175.2,303.2,176.2,303,177,303 M177,302c-1.5,0-2.8,0.7-3,2.2
			c-0.3,2.5,1.7,5.9,4.4,7.5l38.1,22.1c1,0.6,1.9,0.8,2.7,0.8c1.5,0,2.6-0.9,2.8-2.5c0.3-2.5-1.7-5.9-4.4-7.5L180.4,303
			C179.3,302.4,178.1,302,177,302L177,302z"/>
	</g>
	<path class="st0" d="M174.5,303l0.2-0.3c1-2.2,4.1-2.4,6.6-0.9l38.5,22.4c2.9,1.7,4.8,5.4,4.3,8.3l0,0c-0.5,2.9-4,3.6-6.8,1.9"/>
	<path class="st0" d="M175.5,301.7c2.6-2.8,5.3-3.3,7-2.3l36.4,20.9c4.5,2.4,7.6,8.1,6.7,11.7l0,0c-0.8,3.6-5.3,4.1-8.2,2.4"/>
	<path class="st0" d="M118.4,276.9c-4.3-2.5-6.2-6.9-5.8-10.8l0,0c0.4-3.8,4.2-4.9,8.5-2.4l98.2,56.3c4.3,2.5,7.2,7.6,6.8,11.4l0,0
		c-0.4,3.8-2.5,6-6.8,3.5"/>
	<path class="st0" d="M176.9,310.6l-19.1-11 M113.4,271.2c-0.7-1.7-0.9-3.4-0.8-5l0,0c0.4-3.8,4.2-4.9,8.5-2.4l98.2,56.3
		c4.3,2.5,7.2,7.6,6.8,11.4l0,0c-0.4,3.8-2.5,6-6.8,3.5"/>
	<g>
		<path class="st0" d="M704,521.9L704,521.9c1.2,0,2.3,0.4,3,1c1.7,1.6,2.5,4.7,0.3,7.7c-2.6,3.6-4.4,5.9-8.5,8.6
			c-1.8,1.2-3,1.8-3.7,1.8c-0.4,0-0.7-0.8-0.7-2.4c0-5.1,1.1-11.5,4.1-14.3C700.1,522.7,702.1,521.9,704,521.9 M704,520.9
			c-2,0-4.3,0.8-6.2,2.6c-3.4,3.2-4.4,10.1-4.4,15c0,2.3,0.5,3.4,1.7,3.4c0.9,0,2.3-0.7,4.2-1.9c4.3-2.8,6.3-5.4,8.8-8.8
			s1.7-7-0.4-9C706.8,521.3,705.5,520.9,704,520.9L704,520.9z"/>
	</g>
	<g>
		<path class="st0" d="M704,519.8c1.7,0,3.2,0.6,4.3,1.5c2.3,2.1,3.4,6.2,0.5,10.2c-2.2,3.1-4.3,4.4-7.8,6.6
			c-0.5,0.3-1.1,0.7-1.6,1.1c-0.4,0.3-0.8,0.5-1.1,0.7c-1.6,1.1-3.3,2.2-4.1,2.2c-1,0-1.6,0-1.6-3.8c0-2.7,0.3-11.6,4.7-15.7
			C699.2,520.9,701.6,519.8,704,519.8 M704,518.8c-2.6,0-5.3,1.1-7.5,3.1c-4.6,4.3-5,13.7-5,16.4c0,4.4,1,4.8,2.6,4.8
			c1.3,0,3.3-1.5,5.8-3.1c4.5-2.9,7-4.2,9.7-8c3.2-4.4,1.9-9.1-0.7-11.5C707.7,519.5,706,518.8,704,518.8L704,518.8z"/>
	</g>
	<g>
		<path class="st0" d="M724.2,513.4c-0.1,0.1-0.3,0.2-0.4,0.2c-1.7,1.1-3,3.1-3.5,5c0.3-0.1,0.7-0.3,1.1-0.5
			C722.9,517.1,724.1,515.1,724.2,513.4L724.2,513.4z"/>
	</g>
	<g>
		<path class="st0" d="M726,512.5c0.6,0.3,1.1,1,1.2,1.9c0.2,2.1-1.2,5-3.2,6.4c-0.7,0.5-1.4,0.7-2,0.7c-0.5,0-1-0.2-1.3-0.5
			c0.4,0.7,1,1,1.8,1c0.6,0,1.4-0.2,2.1-0.8c2.1-1.4,3.7-4.4,3.4-6.6C727.9,513.3,727.1,512.5,726,512.5L726,512.5z"/>
	</g>
	<g>
		<path class="st0" d="M725.9,513.5L725.9,513.5c0.7,0,1.1,0.5,1.1,1.3c0.2,1.9-1.2,4.5-3,5.7c-0.6,0.4-1.1,0.6-1.6,0.6
			c-0.4,0-0.7-0.2-0.9-0.5c-0.1-0.2-0.2-0.5-0.2-0.8c-0.2-1.9,1.2-4.5,3-5.7C724.9,513.7,725.5,513.5,725.9,513.5 M725.9,512.5
			c-0.6,0-1.4,0.2-2.2,0.8c-2.1,1.4-3.7,4.4-3.5,6.6c0,0.5,0.2,0.8,0.3,1.2c0.4,0.7,1,1,1.8,1c0.6,0,1.4-0.2,2.2-0.8
			c2.1-1.4,3.7-4.4,3.5-6.6C727.9,513.3,727.1,512.5,725.9,512.5C726,512.5,725.9,512.5,725.9,512.5L725.9,512.5z"/>
	</g>
	<g>
		<path class="st0" d="M765.8,490.3L765.8,490.3L765.8,490.3L765.8,490.3L765.8,490.3 M766.3,488.3c-0.2,0-0.4,0.1-0.5,0.3l-0.4,0.8
			l-0.7,0.3c-0.1,0.1-0.3,0.2-0.3,0.4c-0.1,0.2-0.1,0.3,0,0.4l0.4,0.4l-0.3,0.7c0,0.1-0.1,0.1-0.1,0.2c0,0.2,0.1,0.4,0.3,0.4
			c0,0,0,0,0.1,0l0,0c0.1,0,0.1-0.1,0.2-0.1l0.7-0.7l0.6,0.3c0,0,0,0,0.1,0s0.2-0.1,0.3-0.2c0.1-0.1,0.2-0.3,0.2-0.5v-0.9l0.6-0.7
			c0.1-0.1,0.2-0.3,0.2-0.5c0-0.1-0.1-0.2-0.2-0.2l0,0l-0.6,0.1l-0.2-0.6C766.4,488.3,766.4,488.3,766.3,488.3L766.3,488.3z"/>
	</g>
	<g>
		<path class="st0" d="M767.2,486.4L767.2,486.4c0.7,0,1,0.4,1.1,1.2c0.2,1.8-1.2,4.3-3,5.5c-0.6,0.4-1.1,0.6-1.6,0.6
			c-0.7,0-1-0.4-1.1-1.2c-0.2-1.8,1.2-4.3,3-5.5C766.2,486.6,766.7,486.4,767.2,486.4 M767.2,485.4c-0.6,0-1.4,0.2-2.1,0.7
			c-2.1,1.4-3.7,4.3-3.4,6.5c0.1,1.4,1,2.1,2.1,2.1c0.6,0,1.4-0.2,2.1-0.7c2.1-1.4,3.7-4.3,3.4-6.5
			C769.2,486.2,768.3,485.4,767.2,485.4L767.2,485.4z"/>
	</g>
	<g>
		<path class="st0" d="M767.2,486.4L767.2,486.4c0.7,0,1,0.4,1.1,1.2c0.2,1.8-1.2,4.3-3,5.5c-0.6,0.4-1.1,0.6-1.6,0.6
			c-0.7,0-1-0.4-1.1-1.2c-0.2-1.8,1.2-4.3,3-5.5C766.2,486.6,766.7,486.4,767.2,486.4 M767.2,485.4c-0.6,0-1.4,0.2-2.1,0.7
			c-2.1,1.4-3.7,4.3-3.4,6.5c0.1,1.4,1,2.1,2.1,2.1c0.6,0,1.4-0.2,2.1-0.7c2.1-1.4,3.7-4.3,3.4-6.5
			C769.2,486.2,768.3,485.4,767.2,485.4L767.2,485.4z"/>
	</g>
	<g>
		<path class="st0" d="M807.7,457.7L807.7,457.7c0.9,0,1.2,0.9,1.2,1.6c0,1.8-1.5,4.1-3.5,5.4l-25.6,17.2c-0.8,0.5-1.3,0.6-1.5,0.6
			s-0.5,0-0.5-1.1c0-1.7,2.3-6,4.3-7.2l24.4-16.1C806.9,457.9,807.3,457.7,807.7,457.7 M807.7,456.7c-0.5,0-1.1,0.2-1.7,0.6
			l-24.5,16.1c-2.2,1.4-4.7,5.9-4.7,8.1c0,1.4,0.6,2.1,1.5,2.1c0.6,0,1.3-0.2,2.1-0.8l25.6-17.2c2.2-1.4,3.9-4,3.9-6.2
			C809.8,457.8,809,456.7,807.7,456.7L807.7,456.7z"/>
	</g>
	<g>
		<path class="st0" d="M809.6,456.7L809.6,456.7c0.8,0,1.9,0.2,1.9,2.4v0.4c0,3-1.8,5.5-3.6,6.6l-28.2,18.6
			c-0.8,0.5-1.3,0.6-1.5,0.6s-0.5,0-0.5-1.1v-3c0-1.7,2.3-6,4.3-7.2l25.1-16.5C807.9,457,808.9,456.7,809.6,456.7 M809.6,455.7
			c-1.1,0-2.2,0.4-3.1,1l-25.2,16.5c-2.2,1.4-4.7,5.9-4.7,8.1v3c0,1.4,0.6,2.1,1.5,2.1c0.6,0,1.3-0.2,2.1-0.8l28.2-18.6
			c2.2-1.4,4-4.2,4-7.5v-0.4C812.5,456.5,811.2,455.7,809.6,455.7L809.6,455.7z"/>
	</g>
	<g>
		<path class="st0" d="M809.9,454.6c2.1,0,3.7,1.8,3.7,4.1c0,3.6-2.4,7.4-6.3,10l-26.6,17.2c-1.4,0.9-2.7,1.5-3.5,1.5
			c-0.4,0-1.5,0-1.5-2.6c0-5.6,2-10,5.6-12.4l26-16.9C808.1,454.9,809,454.6,809.9,454.6 M809.9,453.6c-1,0-2.1,0.3-3.2,1.1
			l-26,16.9c-3.9,2.6-6,7.4-6,13.3c0,2.4,0.9,3.6,2.5,3.6c1.1,0,2.5-0.6,4.1-1.6l26.6-17.2c3.9-2.6,6.7-6.7,6.7-10.9
			C814.6,455.7,812.5,453.6,809.9,453.6L809.9,453.6z"/>
	</g>
	<g>
		<path class="st0" d="M824,452.5L824,452.5L824,452.5L824,452.5L824,452.5 M824.5,450.4c-0.2,0-0.4,0.1-0.5,0.3l-0.4,0.8l-0.7,0.3
			c-0.1,0.1-0.3,0.2-0.3,0.4c-0.1,0.2-0.1,0.3,0,0.4l0.4,0.4l-0.3,0.7c0,0.1-0.1,0.1-0.1,0.2c0,0.2,0.1,0.4,0.3,0.4c0,0,0,0,0.1,0
			l0,0c0.1,0,0.1-0.1,0.2-0.1l0.7-0.7l0.6,0.3c0,0,0,0,0.1,0s0.2-0.1,0.3-0.2c0.1-0.1,0.2-0.3,0.2-0.5v-0.9l0.6-0.7
			c0.1-0.1,0.2-0.3,0.2-0.5c0-0.1-0.1-0.2-0.2-0.2l0,0l-0.6,0.1l-0.2-0.6C824.7,450.5,824.6,450.4,824.5,450.4L824.5,450.4z"/>
	</g>
	<g>
		<path class="st0" d="M825.5,448.6L825.5,448.6c0.7,0,1,0.4,1.1,1.2c0.2,1.8-1.2,4.3-3,5.5c-0.6,0.4-1.1,0.6-1.6,0.6
			c-0.7,0-1-0.4-1.1-1.2c-0.2-1.8,1.2-4.3,3-5.5C824.4,448.8,825,448.6,825.5,448.6 M825.5,447.6c-0.6,0-1.4,0.2-2.1,0.7
			c-2.1,1.4-3.7,4.3-3.4,6.5c0.1,1.4,1,2.1,2.1,2.1c0.6,0,1.4-0.2,2.1-0.7c2.1-1.4,3.7-4.3,3.4-6.5
			C827.4,448.4,826.6,447.6,825.5,447.6L825.5,447.6z"/>
	</g>
	<g>
		<path class="st0" d="M825.5,448.6L825.5,448.6c0.7,0,1,0.4,1.1,1.2c0.2,1.8-1.2,4.3-3,5.5c-0.6,0.4-1.1,0.6-1.6,0.6
			c-0.7,0-1-0.4-1.1-1.2c-0.2-1.8,1.2-4.3,3-5.5C824.4,448.8,825,448.6,825.5,448.6 M825.5,447.6c-0.6,0-1.4,0.2-2.1,0.7
			c-2.1,1.4-3.7,4.3-3.4,6.5c0.1,1.4,1,2.1,2.1,2.1c0.6,0,1.4-0.2,2.1-0.7c2.1-1.4,3.7-4.3,3.4-6.5
			C827.4,448.4,826.6,447.6,825.5,447.6L825.5,447.6z"/>
	</g>
	<g>
		<path class="st0" d="M900.7,397.3c-0.1,0.1-0.2,0.2-0.4,0.2c-1.4,1.1-2.4,3.1-2.7,5c0.3-0.1,0.6-0.3,0.9-0.5
			C899.9,401,900.7,399,900.7,397.3L900.7,397.3z"/>
	</g>
	<g>
		<path class="st0" d="M902,396.9c0.6,0.3,1.1,1,1.2,1.9c0.4,2.1-0.8,5-2.5,6.4c-0.6,0.5-1.3,0.7-1.8,0.7s-0.9-0.2-1.3-0.5
			c0.4,0.7,1,1,1.7,1c0.6,0,1.3-0.2,2-0.8c1.9-1.4,3.1-4.4,2.7-6.6C903.9,397.7,903.1,396.9,902,396.9L902,396.9z"/>
	</g>
	<g>
		<path class="st0" d="M902,397.8L902,397.8c0.8,0,1.1,0.9,1.1,1.4c0.3,1.9-0.8,4.5-2.3,5.7c-0.5,0.4-0.9,0.6-1.3,0.6
			c-0.4,0-0.7-0.2-0.9-0.5c-0.1-0.2-0.2-0.5-0.3-0.8c-0.3-1.9,0.8-4.5,2.3-5.7C901.1,398,901.6,397.8,902,397.8 M902,396.8
			c-0.6,0-1.3,0.2-1.9,0.8c-1.9,1.4-3.1,4.4-2.7,6.6c0.1,0.5,0.2,0.8,0.4,1.2c0.4,0.7,1,1,1.7,1c0.6,0,1.3-0.2,1.9-0.8
			c1.9-1.4,3.1-4.4,2.7-6.6C903.9,397.7,903.1,396.9,902,396.8L902,396.8L902,396.8z"/>
	</g>
	<g>
		<path class="st0" d="M890.7,404.7c-0.1,0.1-0.3,0.2-0.4,0.2c-1.6,1.1-2.8,3.1-3.1,5c0.3-0.1,0.7-0.3,1-0.5
			C889.7,408.4,890.7,406.4,890.7,404.7L890.7,404.7z"/>
	</g>
	<g>
		<path class="st0" d="M892.3,404.2c0.6,0.3,1.1,1,1.3,1.9c0.4,2.1-0.8,5-2.7,6.4c-0.7,0.5-1.3,0.7-1.9,0.7c-0.5,0-1-0.2-1.3-0.5
			c0.4,0.7,1.1,1,1.9,1c0.6,0,1.4-0.2,2.1-0.8c2-1.4,3.3-4.4,2.9-6.6C894.3,405.1,893.4,404.3,892.3,404.2L892.3,404.2z"/>
	</g>
	<g>
		<path class="st0" d="M892.3,405.2L892.3,405.2c0.9,0,1.2,0.9,1.3,1.4c0.3,1.8-0.8,4.4-2.5,5.6c-0.5,0.4-1,0.6-1.5,0.6
			c-0.4,0-0.8-0.2-1-0.6c-0.1-0.2-0.2-0.5-0.3-0.8c-0.3-1.8,0.8-4.4,2.5-5.6C891.3,405.4,891.8,405.2,892.3,405.2 M892.3,404.2
			c-0.6,0-1.4,0.2-2.1,0.8c-2,1.4-3.3,4.4-2.9,6.6c0.1,0.5,0.2,0.8,0.4,1.2c0.4,0.7,1.1,1,1.8,1c0.6,0,1.3-0.2,2.1-0.8
			c2-1.4,3.3-4.4,2.9-6.6C894.3,405,893.4,404.3,892.3,404.2L892.3,404.2L892.3,404.2z"/>
	</g>
	<g>
		<path class="st0" d="M880.7,411.2c-0.1,0.1-0.3,0.2-0.4,0.2c-1.7,1.1-3,3.1-3.5,5c0.3-0.1,0.7-0.3,1.1-0.5
			C879.4,414.9,880.6,412.9,880.7,411.2L880.7,411.2z"/>
	</g>
	<g>
		<path class="st0" d="M882.5,410.3c0.6,0.3,1.1,1,1.2,1.9c0.2,2.1-1.2,5-3.2,6.4c-0.7,0.5-1.4,0.7-2,0.7c-0.5,0-1-0.2-1.3-0.5
			c0.4,0.7,1,1,1.8,1c0.6,0,1.4-0.2,2.1-0.8c2.1-1.4,3.7-4.4,3.4-6.6C884.4,411.1,883.6,410.4,882.5,410.3L882.5,410.3z"/>
	</g>
	<g>
		<path class="st0" d="M882.4,411.3L882.4,411.3c0.7,0,1.1,0.5,1.1,1.3c0.2,1.9-1.2,4.5-3,5.7c-0.6,0.4-1.1,0.6-1.6,0.6
			c-0.4,0-0.7-0.2-0.9-0.5c-0.1-0.2-0.2-0.5-0.2-0.8c-0.2-1.9,1.2-4.5,3-5.7C881.4,411.5,882,411.3,882.4,411.3 M882.4,410.3
			c-0.6,0-1.4,0.2-2.2,0.8c-2.1,1.4-3.7,4.4-3.5,6.6c0,0.5,0.2,0.8,0.3,1.2c0.4,0.7,1,1,1.8,1c0.6,0,1.4-0.2,2.2-0.8
			c2.1-1.4,3.7-4.4,3.5-6.6C884.4,411.1,883.6,410.4,882.4,410.3C882.5,410.3,882.5,410.3,882.4,410.3L882.4,410.3z"/>
	</g>
	<g>
		<path class="st0" d="M870.3,418.2c-0.1,0.1-0.3,0.2-0.4,0.2c-1.7,1.1-3,3.1-3.5,5c0.3-0.1,0.7-0.3,1.1-0.5
			C869,421.8,870.2,419.8,870.3,418.2L870.3,418.2z"/>
	</g>
	<g>
		<path class="st0" d="M872.1,417.3c0.6,0.3,1.1,1,1.2,1.9c0.2,2.1-1.2,5-3.2,6.4c-0.7,0.5-1.4,0.7-2,0.7c-0.5,0-1-0.2-1.3-0.5
			c0.4,0.7,1,1,1.8,1c0.6,0,1.4-0.2,2.1-0.8c2.1-1.4,3.7-4.4,3.4-6.6C874,418.1,873.2,417.3,872.1,417.3L872.1,417.3z"/>
	</g>
	<g>
		<path class="st0" d="M872,418.3L872,418.3c0.7,0,1.1,0.5,1.1,1.3c0.2,1.9-1.2,4.5-3,5.7c-0.6,0.4-1.1,0.6-1.6,0.6
			c-0.4,0-0.7-0.2-0.9-0.5c-0.1-0.2-0.2-0.5-0.2-0.8c-0.2-1.9,1.2-4.5,3-5.7C871,418.5,871.5,418.3,872,418.3 M872,417.3
			c-0.6,0-1.4,0.2-2.2,0.8c-2.1,1.4-3.7,4.4-3.5,6.6c0,0.5,0.2,0.8,0.3,1.2c0.4,0.7,1,1,1.8,1c0.6,0,1.4-0.2,2.2-0.8
			c2.1-1.4,3.7-4.4,3.5-6.6C874,418.1,873.2,417.3,872,417.3C872.1,417.3,872,417.3,872,417.3L872,417.3z"/>
	</g>
	<g>
		<path class="st0" d="M860.3,424.7c-0.1,0.1-0.3,0.2-0.4,0.2c-1.7,1.1-3,3.1-3.5,5c0.3-0.1,0.7-0.3,1.1-0.5
			C859,428.4,860.2,426.4,860.3,424.7L860.3,424.7z"/>
	</g>
	<g>
		<path class="st0" d="M862.1,423.8c0.6,0.3,1.1,1,1.2,1.9c0.2,2.1-1.2,5-3.2,6.4c-0.7,0.5-1.4,0.7-2,0.7c-0.5,0-1-0.2-1.3-0.5
			c0.4,0.7,1,1,1.8,1c0.6,0,1.4-0.2,2.1-0.8c2.1-1.4,3.7-4.4,3.4-6.6C864,424.6,863.2,423.9,862.1,423.8L862.1,423.8z"/>
	</g>
	<g>
		<path class="st0" d="M862,424.8L862,424.8c0.7,0,1.1,0.5,1.1,1.3c0.2,1.9-1.2,4.5-3,5.7c-0.6,0.4-1.1,0.6-1.6,0.6
			c-0.4,0-0.7-0.2-0.9-0.5c-0.1-0.2-0.2-0.5-0.2-0.8c-0.2-1.9,1.2-4.5,3-5.7C861,425,861.5,424.8,862,424.8 M862,423.8
			c-0.6,0-1.4,0.2-2.2,0.8c-2.1,1.4-3.7,4.4-3.5,6.6c0,0.5,0.2,0.8,0.3,1.2c0.4,0.7,1,1,1.8,1c0.6,0,1.4-0.2,2.2-0.8
			c2.1-1.4,3.7-4.4,3.5-6.6C864,424.6,863.2,423.9,862,423.8C862.1,423.8,862,423.8,862,423.8L862,423.8z"/>
	</g>
	<g>
		<path class="st0" d="M849.8,431.2c-0.1,0.1-0.3,0.2-0.4,0.2c-1.7,1.1-3,3.1-3.5,5c0.3-0.1,0.7-0.3,1.1-0.5
			C848.6,434.9,849.7,432.9,849.8,431.2L849.8,431.2z"/>
	</g>
	<g>
		<path class="st0" d="M851.7,430.3c0.6,0.3,1.1,1,1.2,1.9c0.2,2.1-1.2,5-3.2,6.4c-0.7,0.5-1.4,0.7-2,0.7c-0.5,0-1-0.2-1.3-0.5
			c0.4,0.7,1,1,1.8,1c0.6,0,1.4-0.2,2.1-0.8c2.1-1.4,3.7-4.4,3.4-6.6C853.6,431.1,852.8,430.4,851.7,430.3L851.7,430.3z"/>
	</g>
	<g>
		<path class="st0" d="M851.6,431.3L851.6,431.3c0.7,0,1.1,0.5,1.1,1.3c0.2,1.9-1.2,4.5-3,5.7c-0.6,0.4-1.1,0.6-1.6,0.6
			c-0.4,0-0.7-0.2-0.9-0.5c-0.1-0.2-0.2-0.5-0.2-0.8c-0.2-1.9,1.2-4.5,3-5.7C850.5,431.5,851.1,431.3,851.6,431.3 M851.6,430.3
			c-0.6,0-1.4,0.2-2.2,0.8c-2.1,1.4-3.7,4.4-3.5,6.6c0,0.5,0.2,0.8,0.3,1.2c0.4,0.7,1,1,1.8,1c0.6,0,1.4-0.2,2.2-0.8
			c2.1-1.4,3.7-4.4,3.5-6.6C853.6,431.1,852.8,430.4,851.6,430.3L851.6,430.3L851.6,430.3z"/>
	</g>
	<path class="st0" d="M800.2,329c2-1.3,1.9-3.3-0.3-4.5c-2.1-1.2-5.4-1.1-7.4,0.2s-1.9,3.3,0.3,4.5
		C794.9,330.3,798.2,330.3,800.2,329"/>
	<path class="st0" d="M801.2,329.5c-4.2,2.8-4.8,6-1.4,8l1,0.5l14.3-9.4l-1-0.5C810.7,326.2,805.4,326.8,801.2,329.5"/>
	<g>
		<g>
			<path class="st0" d="M201.3,155.7c-0.1,0-0.3,0-0.4,0c-0.9,0.1-1.9,0.5-3,1.2l-2.4,1.5l9.1,5.2l1-0.7l-3.8-2.2l1.8-1.2l5.9,0.8
				l1.2-0.8l-6.5-0.8c0.7-1,0.5-1.8-0.7-2.5C202.9,155.9,202.1,155.7,201.3,155.7L201.3,155.7z M200.9,160.3l-3.5-2l1.3-0.8
				c0.7-0.5,1.4-0.8,2-0.8c0.1,0,0.2,0,0.3,0c0.5,0,1,0.1,1.5,0.4c0.6,0.3,0.9,0.7,0.8,1.1c0,0.4-0.4,0.8-1.1,1.3L200.9,160.3
				L200.9,160.3z"/>
		</g>
		<g>
			<path class="st0" d="M203.7,153L203.7,153c-0.3,0-0.5,0.1-0.6,0.2c-0.2,0.1-0.2,0.2-0.2,0.4c0,0.1,0.1,0.3,0.4,0.4
				c0.2,0.1,0.4,0.2,0.7,0.2l0,0c0.2,0,0.4-0.1,0.6-0.2c0.2-0.1,0.2-0.2,0.2-0.4c0-0.1-0.1-0.3-0.3-0.4
				C204.2,153.1,204,153,203.7,153L203.7,153z M206.2,154.3l-1,0.6l6.8,3.9l1-0.6L206.2,154.3L206.2,154.3z"/>
		</g>
		<g>
			<path class="st0" d="M210.7,147.9l-1,0.6l2.8,1.6l0.5,0.3l0.5,0.3h-0.1c-0.1,0-0.3,0-0.4,0c-1,0-1.8,0.2-2.6,0.7s-1.2,1.2-1,1.8
				c0.1,0.7,0.8,1.3,1.9,2c1.1,0.6,2.2,1,3.3,1c0.1,0,0.2,0,0.2,0c1,0,1.9-0.3,2.7-0.8c0.9-0.6,1.2-1.2,1-1.9h0.1l1,0.4l0.8-0.5
				L210.7,147.9L210.7,147.9z M215.1,155.4c-0.1,0-0.2,0-0.3,0c-0.8-0.1-1.6-0.3-2.4-0.8c-0.9-0.5-1.4-1-1.5-1.4
				c-0.2-0.5,0-0.9,0.6-1.3s1.3-0.6,1.9-0.6c0.1,0,0.1,0,0.2,0c0.7,0,1.6,0.3,2.5,0.9l0.2,0.1c0.9,0.5,1.3,0.9,1.4,1.4
				c0.1,0.4-0.2,0.8-0.9,1.3C216.3,155.2,215.7,155.4,215.1,155.4L215.1,155.4z"/>
		</g>
		<g>
			<path class="st0" d="M220.8,145.7c-1,0-1.9,0.3-2.7,0.8c-0.9,0.6-1.2,1.2-1.1,1.9c0.1,0.7,0.8,1.4,1.9,2c1.1,0.6,2.2,0.9,3.4,0.9
				l0,0c1.2,0,2.2-0.3,3.2-0.9c0.4-0.3,0.8-0.5,1-0.8c0.2-0.2,0.5-0.5,0.6-0.8l-0.9-0.5c-0.4,0.6-0.9,1.2-1.6,1.6
				c-0.7,0.4-1.4,0.6-2.2,0.6l0,0c-0.8,0-1.6-0.2-2.4-0.7l4.5-2.9l-0.7-0.4C222.9,146,221.9,145.7,220.8,145.7L220.8,145.7
				L220.8,145.7z M219.1,149.3c-0.6-0.4-0.9-0.8-0.9-1.2c0-0.4,0.2-0.8,0.7-1.1c0.5-0.3,1-0.5,1.6-0.5h0.1c0.6,0,1.3,0.2,1.9,0.6
				L219.1,149.3L219.1,149.3z"/>
		</g>
		<g>
			<path class="st0" d="M228.6,137.5c-1.1,0.3-2,0.7-2.9,1.3c-0.8,0.5-1.3,1.1-1.4,1.6c-0.1,0.6,0.2,1,0.9,1.5
				c0.7,0.4,1.4,0.6,2.2,0.6h0.1c0.7,0,1.7-0.2,2.7-0.5c0.8-0.2,1.4-0.4,1.9-0.5c0.3-0.1,0.6-0.1,0.9-0.1c0.1,0,0.2,0,0.3,0
				c0.3,0,0.6,0.1,1,0.3c0.5,0.3,0.7,0.6,0.6,1c-0.1,0.4-0.4,0.8-1.1,1.2c-0.4,0.3-0.9,0.5-1.4,0.7s-1,0.4-1.5,0.5l1,0.6
				c0.8-0.2,1.8-0.6,2.8-1.3c1-0.6,1.5-1.2,1.6-1.8c0.1-0.6-0.2-1.2-1-1.6c-0.6-0.4-1.3-0.5-2-0.5l0,0c-0.7,0-1.7,0.2-3,0.6
				c-0.7,0.2-1.3,0.4-1.8,0.5c-0.3,0-0.5,0.1-0.7,0.1c-0.1,0-0.3,0-0.4,0c-0.3,0-0.6-0.2-0.9-0.3c-0.4-0.2-0.6-0.5-0.6-0.9
				c0.1-0.3,0.4-0.7,0.9-1c0.7-0.4,1.5-0.8,2.6-1.1L228.6,137.5L228.6,137.5z"/>
		</g>
		<g>
			<path class="st0" d="M235.3,135.5l-1.9,1.2l-1.6-0.9l-0.6,0.4l1,1.1l-0.5,0.8l0.5,0.3l0.9-0.6l4.1,2.3c0.7,0.4,1.4,0.6,2,0.6
				c0.7,0,1.3-0.2,2-0.6c0.2-0.1,0.3-0.2,0.5-0.4c0.2-0.2,0.3-0.3,0.3-0.4l-0.8-0.5c-0.1,0.1-0.2,0.2-0.3,0.3
				c-0.1,0.1-0.3,0.2-0.5,0.3c-0.3,0.2-0.7,0.3-1.1,0.3l0,0c-0.4,0-0.8-0.1-1.2-0.4l-4-2.3l1.9-1.2L235.3,135.5L235.3,135.5z"/>
		</g>
		<g>
			<path class="st0" d="M241.4,132.2c-0.1,0-0.1,0-0.2,0c-0.7,0-1.5,0.3-2.3,0.8c-0.4,0.2-0.7,0.5-1,0.8s-0.5,0.6-0.6,0.9l1.1,0.3
				c0.3-0.6,0.8-1.1,1.3-1.5c0.5-0.3,0.9-0.5,1.4-0.5l0,0c0.5,0,1,0.2,1.5,0.5l0.4,0.2l-1.1,0.7c-2,1.4-2.4,2.5-1,3.3
				c0.6,0.3,1.2,0.5,1.9,0.5c0.1,0,0.1,0,0.2,0c0.7,0,1.4-0.3,2-0.7c0.5-0.3,0.8-0.6,1-0.9s0.2-0.7,0.1-1.1l0,0l1.2,0.4l0.7-0.5
				l-4.7-2.7C242.8,132.4,242.1,132.2,241.4,132.2L241.4,132.2z M243.2,137.4c-0.4,0-0.7-0.1-1-0.3c-0.5-0.3-0.7-0.6-0.5-0.9
				c0.1-0.4,0.6-0.8,1.3-1.3l0.9-0.7l0.6,0.4c0.6,0.4,1,0.8,1,1.2c0,0.4-0.3,0.8-0.9,1.2c-0.4,0.3-0.8,0.4-1.2,0.4
				C243.3,137.4,243.2,137.4,243.2,137.4L243.2,137.4z"/>
		</g>
		<g>
			<path class="st0" d="M246.3,128.3l-1.9,1.2l-1.6-0.9l-0.6,0.4l1,1.1l-0.5,0.8l0.5,0.3l0.9-0.6l4.1,2.3c0.7,0.4,1.4,0.6,2,0.6
				c0.7,0,1.3-0.2,2-0.6c0.2-0.1,0.3-0.2,0.5-0.4c0.2-0.2,0.3-0.3,0.3-0.4l-0.8-0.5c-0.1,0.1-0.2,0.2-0.3,0.3
				c-0.1,0.1-0.3,0.2-0.5,0.3c-0.3,0.2-0.7,0.3-1.1,0.3l0,0c-0.4,0-0.8-0.1-1.2-0.4l-4-2.3l1.9-1.2L246.3,128.3L246.3,128.3z"/>
		</g>
		<g>
			<path class="st0" d="M246.3,125.5C246.3,125.5,246.2,125.5,246.3,125.5c-0.3,0-0.5,0.1-0.6,0.2c-0.2,0.1-0.2,0.2-0.2,0.4
				s0.1,0.3,0.4,0.4c0.2,0.1,0.4,0.2,0.7,0.2l0,0c0.2,0,0.4-0.1,0.6-0.2c0.2-0.1,0.2-0.2,0.2-0.4c0-0.1-0.1-0.3-0.3-0.4
				C246.7,125.6,246.5,125.5,246.3,125.5L246.3,125.5z M248.7,126.8l-1,0.6l6.8,3.9l1-0.6L248.7,126.8L248.7,126.8z"/>
		</g>
		<g>
			<path class="st0" d="M255.2,123c-1,0.3-1.8,0.6-2.5,1.1c-0.8,0.5-1.2,1-1.3,1.4s0.1,0.9,0.7,1.2c0.3,0.2,0.6,0.3,1,0.3
				c0.2,0,0.3,0,0.5,0s0.5,0,0.7-0.1c0.4-0.1,1.1-0.2,1.9-0.5c0.9-0.3,1.5-0.4,2-0.4c0.1,0,0.1,0,0.2,0c0.3,0,0.6,0.1,0.8,0.2
				c0.4,0.2,0.5,0.4,0.4,0.7s-0.4,0.6-0.9,0.9c-0.3,0.2-0.7,0.4-1.2,0.6s-0.9,0.3-1.4,0.4l1,0.6c0.8-0.1,1.6-0.5,2.4-1.1
				c0.8-0.5,1.3-1,1.4-1.5s-0.2-0.9-0.8-1.3c-0.4-0.3-1-0.4-1.5-0.4l0,0c-0.6,0-1.4,0.2-2.5,0.5c-0.8,0.2-1.3,0.4-1.6,0.4
				c-0.2,0-0.5,0.1-0.7,0.1c-0.1,0-0.1,0-0.1,0c-0.2,0-0.4-0.1-0.6-0.2c-0.3-0.2-0.4-0.4-0.3-0.6c0.1-0.2,0.4-0.5,0.8-0.8
				c0.5-0.3,1.3-0.6,2.2-0.9L255.2,123L255.2,123z"/>
		</g>
		<g>
			<path class="st0" d="M259.5,119.8l-1.9,1.2l-1.6-0.9l-0.6,0.4l1,1.1l-0.5,0.8l0.5,0.3l0.9-0.6l4.1,2.3c0.7,0.4,1.4,0.6,2,0.6
				c0.7,0,1.3-0.2,2-0.6c0.2-0.1,0.3-0.2,0.5-0.4c0.2-0.2,0.3-0.3,0.3-0.4l-0.8-0.5c-0.1,0.1-0.2,0.2-0.3,0.3
				c-0.1,0.1-0.3,0.2-0.5,0.3c-0.3,0.2-0.7,0.3-1.1,0.3l0,0c-0.4,0-0.8-0.1-1.2-0.4l-4-2.3l1.9-1.2L259.5,119.8L259.5,119.8z"/>
		</g>
		<g>
			<path class="st0" d="M259.4,117L259.4,117c-0.3,0-0.5,0.1-0.6,0.2c-0.2,0.1-0.2,0.2-0.2,0.4c0,0.1,0.1,0.3,0.4,0.4
				c0.2,0.1,0.4,0.2,0.7,0.2l0,0c0.2,0,0.4-0.1,0.6-0.2s0.2-0.2,0.2-0.4c0-0.1-0.1-0.3-0.3-0.4C259.9,117.1,259.6,117,259.4,117
				L259.4,117z M261.8,118.3l-1,0.6l6.8,3.9l1-0.6L261.8,118.3L261.8,118.3z"/>
		</g>
		<g>
			<path class="st0" d="M268.5,114.3c-0.3,0.1-0.6,0.2-1,0.3c-0.4,0.2-0.7,0.3-1,0.5c-1,0.6-1.4,1.3-1.3,2s0.7,1.4,1.9,2
				c1.1,0.6,2.2,1,3.4,1h0.1c1.1,0,2.1-0.3,3-0.9c0.7-0.4,1.1-0.8,1.3-1.3l-0.9-0.5c-0.3,0.5-0.8,0.9-1.3,1.3
				c-0.6,0.4-1.2,0.5-1.9,0.5c-0.1,0-0.2,0-0.2,0c-0.8,0-1.6-0.3-2.4-0.8c-1.8-1-2-1.9-0.7-2.8c0.2-0.1,0.5-0.3,0.8-0.4
				s0.6-0.2,0.9-0.3L268.5,114.3L268.5,114.3z"/>
		</g>
		<g>
			<path class="st0" d="M274.1,110.8c-1,0.3-1.8,0.6-2.5,1.1c-0.8,0.5-1.2,1-1.3,1.4s0.1,0.9,0.7,1.2c0.3,0.2,0.6,0.3,1,0.3
				c0.2,0,0.3,0,0.5,0s0.5,0,0.7-0.1c0.4-0.1,1.1-0.2,1.9-0.5c0.9-0.3,1.5-0.4,2-0.4c0.1,0,0.1,0,0.2,0c0.3,0,0.6,0.1,0.8,0.2
				c0.4,0.2,0.5,0.4,0.4,0.7c-0.1,0.3-0.4,0.6-0.9,0.9c-0.3,0.2-0.7,0.4-1.2,0.6s-0.9,0.3-1.4,0.4l1,0.6c0.8-0.1,1.6-0.5,2.4-1.1
				c0.8-0.5,1.3-1,1.4-1.5s-0.2-0.9-0.8-1.3c-0.4-0.3-1-0.4-1.5-0.4l0,0c-0.6,0-1.4,0.2-2.5,0.5c-0.8,0.2-1.3,0.4-1.6,0.4
				c-0.2,0-0.5,0.1-0.7,0.1c-0.1,0-0.1,0-0.1,0c-0.2,0-0.4-0.1-0.6-0.2c-0.3-0.2-0.4-0.4-0.3-0.6s0.4-0.5,0.8-0.8
				c0.5-0.3,1.3-0.6,2.2-0.9L274.1,110.8L274.1,110.8z"/>
		</g>
	</g>
	<path class="st0" d="M694.1,356.1"/>
	<g>
		<polygon class="st0" points="721.3,377.8 719.9,378.8 729.9,384.5 731.3,383.5 		"/>
	</g>
	<g>
		<polygon class="st0" points="718.8,372.9 717.4,373.8 732.7,382.6 734.2,381.7 		"/>
	</g>
	<g>
		<polygon class="st0" points="725.5,373.2 724.1,374.1 735.6,380.7 737,379.8 		"/>
	</g>
	<g>
		<polygon class="st0" points="733,374 731.6,374.9 738.5,378.8 739.9,377.9 		"/>
	</g>
	<g>
		<polygon class="st0" points="734.3,371.2 732.9,372.1 741.3,377 742.8,376 		"/>
	</g>
	<g>
		<path class="st0" d="M350.9,59.9c-1.6,1-1.5,2.6,0.2,3.6c1.7,0.9,4.3,0.9,5.9-0.1s1.5-2.6-0.2-3.6
			C355.1,58.8,352.4,58.9,350.9,59.9z M362.4,57.8l-2.1,1.4c0.4,0.3,0.6,0.7,0.8,1.1l2.8-0.1l0.1,2.4l-2.8,0.1
			c-0.2,0.4-0.4,0.8-0.7,1.1l2.2,1.3l-2.6,1.7l-2.2-1.3c-0.6,0.2-1.2,0.4-1.8,0.5l0.1,1.7l-4,0.1l-0.1-1.7c-0.6-0.1-1.2-0.2-1.8-0.4
			l-2.1,1.4l-2.7-1.6l2.1-1.4c-0.4-0.3-0.6-0.7-0.8-1.1l-2.8,0.1l-0.1-2.4l2.8-0.1c0.2-0.4,0.4-0.8,0.7-1.1l-2.2-1.3l2.6-1.7
			l2.2,1.3c0.6-0.2,1.2-0.4,1.8-0.5l-0.1-1.7l4-0.1l0.1,1.7c0.6,0.1,1.2,0.2,1.8,0.4l2.1-1.4L362.4,57.8z"/>
	</g>
	<path class="st0" d="M355.2,298.8"/>
	<g>
		<g>
			<path class="st0" d="M368.3,331.1l-0.6,0.4l5.4,3.1c0.3,0.2,0.4,0.3,0.5,0.5c0,0.2-0.1,0.3-0.3,0.5c-0.2,0.1-0.4,0.2-0.6,0.3
				l0.5,0.3c0.2,0,0.4-0.1,0.6-0.3c0.4-0.3,0.6-0.6,0.6-0.9c0-0.3-0.3-0.6-0.8-0.8L368.3,331.1L368.3,331.1z"/>
		</g>
		<g>
			<path class="st0" d="M373.5,327.7l-0.6,0.4l3.5,2c0.5,0.3,0.7,0.5,0.7,0.8s-0.2,0.6-0.6,0.9c-0.5,0.3-0.9,0.4-1.4,0.5
				c0,0,0,0-0.1,0c-0.5,0-0.9-0.1-1.3-0.4l-3.5-2l-0.6,0.4l3.5,2c0.6,0.3,1.2,0.5,1.9,0.5h0.1c0.7,0,1.3-0.2,2-0.6
				c0.6-0.4,0.9-0.8,0.9-1.3s-0.3-0.8-0.9-1.2L373.5,327.7L373.5,327.7z"/>
		</g>
		<g>
			<polygon class="st0" points="375.5,326.4 374.9,326.8 380.3,329.9 383.2,328.1 382.6,327.7 380.4,329.2 			"/>
		</g>
		<g>
			<path class="st0" d="M383,321.5l-0.6,0.4l1.2,3.7l0.5,0.3l2.5-1.6l1.2,0.7l0.6-0.4l-1.2-0.7l0.8-0.5l-0.6-0.3l-0.8,0.5L383,321.5
				L383,321.5z M384.1,325.2l-0.8-2.4c-0.1-0.2-0.1-0.3-0.3-0.5l0,0c0.4,0.3,0.8,0.5,1.2,0.7l1.8,1L384.1,325.2L384.1,325.2z"/>
		</g>
	</g>
	<g>
		<g>
			<path class="st0" d="M305.2,289.9l-1,0.6l1.5,4.3l0.8,0.5l2.8-1.8l1.4,0.8l1-0.6l-1.4-0.8l0.8-0.5l-0.9-0.5l-0.8,0.5L305.2,289.9
				L305.2,289.9z M306.6,294.2l-0.8-2.3c-0.1-0.3-0.2-0.5-0.3-0.6l0,0c0.3,0.2,0.8,0.5,1.4,0.8l1.6,0.9L306.6,294.2L306.6,294.2z"/>
		</g>
		<g>
			<path class="st0" d="M313.3,291.4L313.3,291.4c-0.2,0-0.4,0.1-0.6,0.2c-0.2,0.1-0.3,0.3-0.3,0.4c0,0.1,0.1,0.3,0.3,0.4
				c0.2,0.1,0.4,0.2,0.7,0.2l0,0c0.2,0,0.4-0.1,0.6-0.2c0.2-0.1,0.3-0.3,0.3-0.4s-0.1-0.3-0.3-0.4
				C313.7,291.4,313.5,291.4,313.3,291.4L313.3,291.4z"/>
		</g>
		<g>
			<path class="st0" d="M313,285.5c-0.1,0-0.2,0-0.2,0c-0.7,0-1.3,0.3-1.8,0.6c-0.4,0.2-0.6,0.5-0.8,0.8c-0.2,0.3-0.3,0.6-0.3,1h1.2
				c0-0.3,0.1-0.6,0.3-0.8c0.1-0.2,0.3-0.4,0.5-0.5c0.3-0.2,0.6-0.3,0.9-0.3c0,0,0,0,0.1,0c0.3,0,0.6,0.1,0.9,0.2
				c0.2,0.1,0.4,0.3,0.5,0.4s0.2,0.3,0.3,0.6s0.1,0.6,0.1,1.2l0.1,2l0.8,0.5l4.2-2.7l-0.9-0.5l-2.9,1.9l0,0v-1.3c0-0.6,0-1-0.1-1.3
				s-0.2-0.5-0.4-0.8c-0.2-0.2-0.4-0.4-0.7-0.6C314.1,285.6,313.6,285.5,313,285.5L313,285.5z"/>
		</g>
		<g>
			<path class="st0" d="M317.8,282.4c-0.7,0-1.4,0.2-1.9,0.5c-0.7,0.5-1,1-0.8,1.5s0.9,1.1,2,1.8c1.1,0.6,2.1,1,3,1.1
				c0.2,0,0.3,0,0.5,0c0.7,0,1.4-0.2,1.9-0.5c0.7-0.5,1-1,0.8-1.5s-0.9-1.1-2-1.8c-1.1-0.6-2.1-1-3-1.1
				C318.1,282.4,317.9,282.4,317.8,282.4L317.8,282.4z M320.7,286.5c-0.2,0-0.3,0-0.5,0c-0.6-0.1-1.3-0.4-2.2-0.9
				c-0.9-0.5-1.4-0.9-1.6-1.3c-0.2-0.3-0.1-0.6,0.3-0.9c0.3-0.2,0.6-0.3,0.9-0.3c0.2,0,0.3,0,0.5,0.1c0.6,0.1,1.3,0.4,2.2,0.9
				c0.9,0.5,1.4,0.9,1.6,1.3c0.2,0.3,0.1,0.6-0.3,0.9C321.4,286.4,321.1,286.5,320.7,286.5L320.7,286.5z"/>
		</g>
	</g>
	<g>
		<g>
			<path class="st0" d="M325.9,246.8l-3.2,2.1l2.9,2l0.7-0.1c0.1-0.1,0.2-0.2,0.4-0.4c0.2-0.1,0.3-0.3,0.4-0.3
				c0.5-0.4,1.1-0.5,1.5-0.5s0.7,0.1,1,0.3c0.4,0.2,0.6,0.5,0.6,0.8c0,0.3-0.3,0.6-0.7,0.8c-0.3,0.2-0.6,0.3-0.9,0.5
				s-0.7,0.3-1.1,0.3l0.9,0.5c0.6-0.1,1.3-0.4,2-0.8c0.8-0.5,1.1-1,1.2-1.5c0-0.5-0.3-0.9-1-1.3c-0.5-0.3-1.1-0.5-1.8-0.5
				c-0.1,0-0.1,0-0.2,0c-0.7,0-1.4,0.3-2,0.7c-0.2,0.1-0.4,0.3-0.5,0.4s-0.2,0.2-0.3,0.3l-1.5-1l2.3-1.5L325.9,246.8L325.9,246.8z"
				/>
		</g>
		<g>
			<path class="st0" d="M333.9,248.3L333.9,248.3c-0.2,0-0.4,0.1-0.6,0.2s-0.3,0.3-0.3,0.4s0.1,0.3,0.3,0.4c0.2,0.1,0.4,0.2,0.7,0.2
				l0,0c0.2,0,0.4-0.1,0.6-0.2s0.3-0.3,0.3-0.4s-0.1-0.3-0.3-0.4C334.3,248.4,334.1,248.3,333.9,248.3L333.9,248.3z"/>
		</g>
		<g>
			<path class="st0" d="M333.6,242.5c-0.1,0-0.2,0-0.3,0c-0.6,0.1-1.3,0.3-1.9,0.7c-0.7,0.5-1.2,1-1.3,1.6l1.2,0.1
				c0.1-0.3,0.2-0.5,0.4-0.7c0.1-0.2,0.3-0.3,0.6-0.5c0.3-0.2,0.7-0.3,1-0.4h0.1c0.3,0,0.5,0.1,0.8,0.2c0.7,0.4,0.6,0.9-0.4,1.6
				l-0.5,0.4l0.8,0.5l0.5-0.3c0.6-0.4,1-0.6,1.5-0.7c0.1,0,0.2,0,0.3,0c0.3,0,0.6,0.1,0.8,0.2c0.4,0.2,0.6,0.5,0.5,0.7
				c0,0.3-0.3,0.5-0.8,0.9c-0.3,0.2-0.6,0.3-1,0.5c-0.4,0.1-0.7,0.3-1.1,0.4l0.9,0.5c0.7-0.2,1.4-0.5,2.1-0.9c0.8-0.5,1.2-1,1.3-1.4
				c0.1-0.5-0.2-0.9-0.8-1.2c-0.4-0.2-0.9-0.4-1.3-0.4c0,0,0,0-0.1,0c-0.5,0-1,0.2-1.6,0.4l0,0c0.3-0.3,0.5-0.6,0.4-0.9
				c0-0.3-0.3-0.6-0.7-0.8C334.6,242.6,334.1,242.5,333.6,242.5L333.6,242.5z"/>
		</g>
		<g>
			<path class="st0" d="M338.4,239.4c-0.7,0-1.4,0.2-1.9,0.5c-0.7,0.5-1,1-0.8,1.5s0.9,1.1,2,1.8c1.1,0.6,2.1,1,3,1.1
				c0.2,0,0.3,0,0.5,0c0.7,0,1.4-0.2,1.9-0.5c0.7-0.5,1-1,0.8-1.5s-0.9-1.1-2-1.8c-1.1-0.6-2.1-1-3-1.1
				C338.7,239.4,338.5,239.4,338.4,239.4L338.4,239.4z M341.3,243.5c-0.1,0-0.3,0-0.5,0c-0.6-0.1-1.3-0.4-2.2-0.9
				c-0.9-0.5-1.4-0.9-1.6-1.3c-0.2-0.3-0.1-0.6,0.3-0.9c0.3-0.2,0.6-0.3,0.9-0.3c0.2,0,0.3,0,0.5,0.1c0.6,0.1,1.3,0.4,2.1,0.9
				c0.9,0.5,1.4,0.9,1.6,1.3c0.2,0.3,0.1,0.6-0.3,0.9C342,243.4,341.7,243.5,341.3,243.5L341.3,243.5z"/>
		</g>
	</g>
	<g>
		<g>
			<path class="st0" d="M336.4,198.5c-0.3,0.1-0.5,0.3-0.9,0.5c-2,1.3-1.7,2.6,0.9,4.1c0.6,0.3,1.2,0.6,1.8,0.7
				c0.4,0.1,0.7,0.1,1.1,0.1c0.2,0,0.4,0,0.6,0c0.5-0.1,1-0.3,1.5-0.6c0.6-0.4,0.9-0.8,0.9-1.3s-0.4-0.9-1.1-1.3
				c-0.6-0.4-1.3-0.5-1.9-0.5l0,0c-0.7,0-1.3,0.2-1.8,0.5c-0.3,0.2-0.5,0.4-0.6,0.7c-0.1,0.2-0.1,0.5,0,0.7h-0.1
				c-0.8-0.5-1.2-0.9-1.3-1.4c0-0.4,0.3-0.9,0.9-1.3c0.3-0.2,0.6-0.3,0.8-0.4L336.4,198.5L336.4,198.5z M339.4,203h-0.1
				c-0.5,0-1-0.2-1.4-0.4c-0.2-0.1-0.3-0.2-0.4-0.4c-0.1-0.2-0.1-0.3,0-0.5s0.2-0.3,0.4-0.5c0.3-0.2,0.7-0.3,1-0.3c0,0,0,0,0.1,0
				c0.4,0,0.8,0.1,1.1,0.3c0.4,0.2,0.7,0.5,0.7,0.7c0,0.3-0.1,0.5-0.4,0.7C340.2,202.9,339.8,203,339.4,203L339.4,203z"/>
		</g>
		<g>
			<path class="st0" d="M344.2,200L344.2,200c-0.2,0-0.4,0.1-0.6,0.2s-0.3,0.3-0.3,0.4s0.1,0.3,0.3,0.4c0.2,0.1,0.4,0.2,0.7,0.2l0,0
				c0.2,0,0.4-0.1,0.6-0.2s0.3-0.3,0.3-0.4s-0.1-0.3-0.3-0.4C344.7,200.1,344.5,200,344.2,200L344.2,200z"/>
		</g>
		<g>
			<path class="st0" d="M343.4,193.9l-1,0.6l1.5,4.3l0.8,0.5l2.8-1.8l1.4,0.8l1-0.6l-1.4-0.8l0.8-0.5l-0.9-0.5l-0.8,0.5L343.4,193.9
				L343.4,193.9z M344.8,198.1l-0.8-2.3c-0.1-0.3-0.2-0.5-0.3-0.6l0,0c0.3,0.2,0.8,0.5,1.4,0.8l1.6,0.9L344.8,198.1L344.8,198.1z"/>
		</g>
		<g>
			<path class="st0" d="M348.5,190.6l-3.2,2.1l2.9,2l0.7-0.1c0.1-0.1,0.2-0.2,0.4-0.4c0.2-0.1,0.3-0.3,0.4-0.3
				c0.5-0.3,1.1-0.5,1.5-0.5s0.7,0.1,1,0.3c0.4,0.2,0.6,0.5,0.6,0.8s-0.3,0.5-0.7,0.8c-0.3,0.2-0.6,0.3-0.9,0.5
				c-0.4,0.1-0.7,0.3-1.1,0.3l0.9,0.5c0.6-0.1,1.3-0.4,2-0.8c0.8-0.5,1.1-1,1.2-1.5s-0.3-0.9-1-1.3c-0.5-0.3-1.1-0.5-1.8-0.5
				c-0.1,0-0.1,0-0.2,0c-0.7,0-1.4,0.3-2,0.7c-0.2,0.1-0.4,0.3-0.5,0.4s-0.2,0.2-0.3,0.3l-1.5-1l2.3-1.5L348.5,190.6L348.5,190.6z"
				/>
		</g>
	</g>
	<g>
		<g>
			<path class="st0" d="M386.8,174c-0.3,0.1-0.5,0.3-0.9,0.5c-2,1.3-1.7,2.6,0.9,4.1c0.6,0.3,1.2,0.6,1.8,0.7
				c0.4,0.1,0.7,0.1,1.1,0.1c0.2,0,0.4,0,0.6,0c0.5-0.1,1-0.3,1.5-0.6c0.6-0.4,0.9-0.8,0.9-1.3s-0.4-0.9-1.1-1.3
				c-0.6-0.4-1.3-0.5-1.9-0.5l0,0c-0.7,0-1.3,0.2-1.8,0.5c-0.3,0.2-0.5,0.4-0.6,0.7c-0.1,0.2-0.1,0.5,0,0.7h-0.1
				c-0.8-0.5-1.2-0.9-1.3-1.4c0-0.4,0.3-0.9,0.9-1.3c0.3-0.2,0.6-0.3,0.8-0.4L386.8,174L386.8,174z M389.8,178.6h-0.1
				c-0.5,0-1-0.2-1.4-0.4c-0.2-0.1-0.3-0.2-0.4-0.4c-0.1-0.2-0.1-0.3,0-0.5s0.2-0.3,0.4-0.5c0.3-0.2,0.7-0.3,1-0.3c0,0,0,0,0.1,0
				c0.4,0,0.8,0.1,1.1,0.3c0.4,0.2,0.7,0.5,0.7,0.7c0,0.3-0.1,0.5-0.4,0.7C390.6,178.5,390.3,178.6,389.8,178.6L389.8,178.6z"/>
		</g>
		<g>
			<path class="st0" d="M394.7,175.6L394.7,175.6c-0.2,0-0.4,0.1-0.6,0.2s-0.3,0.3-0.3,0.4s0.1,0.3,0.3,0.4c0.2,0.1,0.4,0.2,0.7,0.2
				l0,0c0.2,0,0.4-0.1,0.6-0.2s0.3-0.3,0.3-0.4s-0.1-0.3-0.3-0.4C395.1,175.6,394.9,175.6,394.7,175.6L394.7,175.6z"/>
		</g>
		<g>
			<path class="st0" d="M394.4,169.8c-0.1,0-0.2,0-0.2,0c-0.7,0-1.3,0.2-1.8,0.6c-0.4,0.2-0.6,0.5-0.8,0.8s-0.3,0.6-0.3,1h1.2
				c0-0.3,0.1-0.6,0.3-0.8c0.1-0.2,0.3-0.4,0.5-0.5c0.3-0.2,0.6-0.3,0.9-0.3c0,0,0,0,0.1,0c0.3,0,0.6,0.1,0.9,0.2
				c0.2,0.1,0.4,0.3,0.5,0.4c0.1,0.2,0.2,0.3,0.3,0.6c0.1,0.2,0.1,0.6,0.1,1.2l0.1,2l0.8,0.5l4.1-2.7l-0.9-0.5l-2.9,1.9l0,0v-1.3
				c0-0.6,0-1-0.1-1.3s-0.2-0.5-0.4-0.8c-0.2-0.2-0.4-0.4-0.7-0.6C395.5,169.9,394.9,169.8,394.4,169.8L394.4,169.8z"/>
		</g>
		<g>
			<path class="st0" d="M399.1,166.6c-0.7,0-1.4,0.2-1.9,0.5c-0.7,0.5-1,0.9-0.8,1.5c0.2,0.5,0.9,1.1,2,1.8c1.1,0.6,2.1,1,3,1.1
				c0.2,0,0.3,0,0.5,0c0.7,0,1.4-0.2,1.9-0.5c0.7-0.5,1-1,0.7-1.5c-0.2-0.5-0.9-1.1-2-1.8c-1.1-0.6-2.1-1-3-1.1
				C399.4,166.6,399.3,166.6,399.1,166.6L399.1,166.6z M402.1,170.8c-0.1,0-0.3,0-0.5,0c-0.5-0.1-1.3-0.4-2.2-0.9
				c-0.9-0.5-1.4-0.9-1.6-1.3c-0.2-0.3-0.1-0.6,0.3-0.9c0.3-0.2,0.6-0.3,0.9-0.3c0.2,0,0.3,0,0.5,0.1c0.6,0.1,1.3,0.4,2.1,0.9
				c0.9,0.5,1.4,0.9,1.6,1.2c0.2,0.3,0.1,0.6-0.3,0.9C402.7,170.7,402.4,170.8,402.1,170.8L402.1,170.8z"/>
		</g>
	</g>
	<g>
		<g>
			<path class="st0" d="M437.1,147.9c-0.3,0.1-0.5,0.3-0.9,0.5c-1.9,1.3-1.7,2.6,0.9,4.1c0.6,0.3,1.2,0.6,1.8,0.7
				c0.4,0.1,0.7,0.1,1.1,0.1c0.2,0,0.4,0,0.6,0c0.5-0.1,1-0.3,1.5-0.6c0.6-0.4,0.9-0.8,0.9-1.3s-0.4-0.9-1.1-1.3
				c-0.6-0.4-1.3-0.5-1.9-0.5l0,0c-0.7,0-1.3,0.2-1.8,0.5c-0.3,0.2-0.5,0.4-0.6,0.7s-0.1,0.5,0,0.7h-0.1c-0.8-0.5-1.2-0.9-1.3-1.4
				c0-0.4,0.3-0.9,0.9-1.3c0.3-0.2,0.6-0.3,0.8-0.4L437.1,147.9L437.1,147.9z M440.1,152.4H440c-0.5,0-1-0.2-1.4-0.4
				c-0.2-0.1-0.3-0.2-0.4-0.4c-0.1-0.2-0.1-0.3,0-0.5s0.2-0.3,0.4-0.5c0.3-0.2,0.7-0.3,1-0.3c0,0,0,0,0.1,0c0.4,0,0.8,0.1,1.1,0.3
				c0.4,0.2,0.7,0.5,0.7,0.7c0,0.3-0.1,0.5-0.4,0.7C440.9,152.4,440.6,152.4,440.1,152.4L440.1,152.4z"/>
		</g>
		<g>
			<path class="st0" d="M445,149.4L445,149.4c-0.2,0-0.4,0.1-0.6,0.2s-0.3,0.3-0.3,0.4s0.1,0.3,0.3,0.4c0.2,0.1,0.4,0.2,0.7,0.2l0,0
				c0.2,0,0.4-0.1,0.6-0.2s0.3-0.3,0.3-0.4s-0.1-0.3-0.3-0.4C445.4,149.5,445.2,149.4,445,149.4L445,149.4z"/>
		</g>
		<g>
			<path class="st0" d="M443.5,143.7l-0.8,0.5l-0.3,2l1.2,0.1c0.1-0.6,0.1-1,0.1-1.1s0-0.2,0-0.3c0.3,0.2,0.7,0.4,1.2,0.7l4.2,2.4
				l1-0.6L443.5,143.7L443.5,143.7z"/>
		</g>
		<g>
			<path class="st0" d="M449.4,140.5c-0.7,0-1.4,0.2-1.9,0.5c-0.7,0.5-0.9,0.9-0.7,1.5c0.2,0.5,0.9,1.1,2,1.8c1.1,0.6,2.1,1,3,1.1
				c0.2,0,0.3,0,0.5,0c0.7,0,1.4-0.2,1.9-0.5c0.7-0.5,1-1,0.7-1.5c-0.2-0.5-0.9-1.1-2-1.8c-1.1-0.6-2.1-1-3-1.1
				C449.7,140.5,449.6,140.5,449.4,140.5L449.4,140.5z M452.4,144.6c-0.1,0-0.3,0-0.5,0c-0.5-0.1-1.3-0.4-2.2-0.9
				c-0.9-0.5-1.4-0.9-1.6-1.2c-0.2-0.3-0.1-0.6,0.2-0.9c0.3-0.2,0.6-0.3,0.9-0.3c0.2,0,0.3,0,0.5,0.1c0.6,0.1,1.3,0.4,2.1,0.9
				c0.9,0.5,1.4,0.9,1.6,1.2c0.2,0.3,0.1,0.6-0.2,0.9C453,144.5,452.7,144.6,452.4,144.6L452.4,144.6z"/>
		</g>
	</g>
	<g>
		<g>
			<path class="st0" d="M414.2,301.2l-0.6,0.4l5.4,3.1c0.3,0.2,0.4,0.3,0.5,0.5c0,0.2-0.1,0.3-0.3,0.5c-0.2,0.1-0.4,0.2-0.6,0.3
				l0.5,0.3c0.2,0,0.4-0.1,0.6-0.3c0.4-0.3,0.6-0.6,0.6-0.9c0-0.3-0.3-0.6-0.8-0.8L414.2,301.2L414.2,301.2z"/>
		</g>
		<g>
			<path class="st0" d="M419.5,297.8l-0.6,0.4l3.5,2c0.5,0.3,0.7,0.5,0.7,0.8s-0.2,0.6-0.6,0.9c-0.5,0.3-0.9,0.4-1.4,0.5
				c0,0,0,0-0.1,0c-0.5,0-0.9-0.1-1.3-0.4l-3.5-2l-0.6,0.4l3.5,2c0.6,0.3,1.2,0.5,1.9,0.5h0.1c0.7,0,1.3-0.2,2-0.6
				c0.6-0.4,0.9-0.8,0.9-1.3c0-0.4-0.3-0.8-0.9-1.2L419.5,297.8L419.5,297.8z"/>
		</g>
		<g>
			<polygon class="st0" points="421.4,296.5 420.8,296.9 426.3,300 429.1,298.2 428.5,297.8 426.3,299.3 			"/>
		</g>
		<g>
			<path class="st0" d="M429,291.6l-2.5,1.7l2.3,1.6l0.5-0.1c0.3-0.3,0.6-0.5,0.8-0.6c0.5-0.3,1-0.5,1.4-0.5c0.3,0,0.7,0.1,1,0.3
				c0.4,0.2,0.6,0.5,0.5,0.7c0,0.3-0.2,0.5-0.6,0.8c-0.2,0.2-0.5,0.3-0.8,0.4c-0.3,0.1-0.6,0.2-0.9,0.2l0.6,0.3
				c0.5-0.1,1-0.3,1.6-0.7s0.9-0.8,0.9-1.2s-0.3-0.8-0.8-1.1c-0.4-0.2-0.9-0.4-1.4-0.4c-0.1,0-0.1,0-0.2,0c-0.6,0-1.2,0.2-1.7,0.6
				c-0.3,0.2-0.5,0.4-0.7,0.6l-1.5-1l2-1.3L429,291.6L429,291.6z"/>
		</g>
	</g>
	<g>
		<g>
			<path class="st0" d="M459.4,271.8l-0.6,0.4l5.4,3.1c0.3,0.2,0.4,0.3,0.5,0.5s-0.1,0.3-0.3,0.5c-0.2,0.1-0.4,0.2-0.6,0.3l0.5,0.3
				c0.2,0,0.4-0.1,0.6-0.3c0.4-0.3,0.6-0.6,0.6-0.9c0-0.3-0.3-0.6-0.8-0.8L459.4,271.8L459.4,271.8z"/>
		</g>
		<g>
			<path class="st0" d="M464.6,268.4l-0.6,0.4l3.5,2c0.5,0.3,0.7,0.5,0.7,0.8s-0.2,0.6-0.6,0.9c-0.5,0.3-0.9,0.4-1.4,0.5
				c0,0,0,0-0.1,0c-0.5,0-0.9-0.1-1.3-0.4l-3.5-2l-0.6,0.4l3.5,2c0.6,0.3,1.2,0.5,1.9,0.5h0.1c0.7,0,1.3-0.2,2-0.6s0.9-0.8,0.9-1.2
				s-0.3-0.8-0.9-1.2L464.6,268.4L464.6,268.4z"/>
		</g>
		<g>
			<polygon class="st0" points="466.6,267.1 466,267.5 471.4,270.6 474.2,268.8 473.7,268.4 471.4,269.9 			"/>
		</g>
		<g>
			<path class="st0" d="M474.2,262.2c-0.2,0.1-0.4,0.2-0.7,0.4c-0.8,0.5-1.1,1-0.9,1.6c0.1,0.6,0.7,1.1,1.8,1.8
				c0.8,0.4,1.5,0.7,2.2,0.7c0.1,0,0.1,0,0.2,0c0.6,0,1.2-0.2,1.7-0.5s0.7-0.7,0.7-1c0-0.4-0.3-0.7-0.9-1c-0.5-0.3-1-0.4-1.6-0.4
				l0,0c-0.6,0-1.1,0.2-1.5,0.5c-0.6,0.4-0.7,0.7-0.6,1.2l0,0c-0.7-0.5-1.2-0.9-1.2-1.3c-0.1-0.4,0.2-0.8,0.7-1.1
				c0.2-0.2,0.5-0.3,0.7-0.3L474.2,262.2L474.2,262.2z M476.8,266.1c-0.2,0-0.4,0-0.6-0.1c-0.3-0.1-0.6-0.2-0.9-0.3
				c-0.2-0.1-0.3-0.2-0.3-0.4s0-0.3,0-0.5c0.1-0.2,0.2-0.3,0.4-0.5c0.3-0.2,0.7-0.3,1-0.3l0,0c0.4,0,0.7,0.1,1.1,0.3
				s0.6,0.5,0.7,0.7c0,0.2-0.1,0.5-0.4,0.7c-0.2,0.1-0.5,0.2-0.8,0.3C477.1,266.1,477,266.1,476.8,266.1L476.8,266.1z"/>
		</g>
	</g>
	<g>
		<g>
			<path class="st0" d="M503.8,242.9l-0.6,0.4l5.4,3.1c0.3,0.2,0.4,0.3,0.5,0.5c0,0.2-0.1,0.3-0.3,0.5c-0.2,0.1-0.4,0.2-0.6,0.3
				l0.5,0.3c0.2,0,0.4-0.1,0.6-0.3c0.4-0.3,0.6-0.6,0.6-0.8c0-0.3-0.3-0.6-0.8-0.8L503.8,242.9L503.8,242.9z"/>
		</g>
		<g>
			<path class="st0" d="M509,239.5l-0.6,0.4l3.5,2c0.5,0.3,0.7,0.5,0.7,0.8s-0.2,0.6-0.6,0.9c-0.5,0.3-0.9,0.4-1.4,0.5
				c0,0,0,0-0.1,0c-0.5,0-0.9-0.1-1.3-0.4l-3.5-2l-0.6,0.4l3.5,2c0.6,0.3,1.2,0.5,1.9,0.5h0.1c0.7,0,1.3-0.2,2-0.6s0.9-0.8,0.9-1.2
				c0-0.4-0.3-0.8-0.9-1.2L509,239.5L509,239.5z"/>
		</g>
		<g>
			<polygon class="st0" points="510.9,238.3 510.3,238.6 515.8,241.7 518.6,239.9 518,239.6 515.8,241 			"/>
		</g>
		<g>
			<polygon class="st0" points="518.9,233 515.5,235.3 516.1,235.6 518.9,233.8 521.6,237.9 522.3,237.5 519.4,233.3 			"/>
		</g>
	</g>
	<g>
		<g>
			<path class="st0" d="M547.4,214.5l-0.6,0.4l5.4,3.1c0.3,0.2,0.4,0.3,0.5,0.5c0,0.2-0.1,0.3-0.3,0.5c-0.2,0.1-0.4,0.2-0.6,0.3
				l0.5,0.3c0.2,0,0.4-0.1,0.6-0.3c0.4-0.3,0.6-0.6,0.6-0.8c0-0.3-0.3-0.6-0.8-0.8L547.4,214.5L547.4,214.5z"/>
		</g>
		<g>
			<path class="st0" d="M552.6,211.1l-0.6,0.4l3.5,2c0.5,0.3,0.7,0.5,0.7,0.8s-0.2,0.6-0.6,0.9c-0.5,0.3-0.9,0.4-1.4,0.5
				c0,0,0,0-0.1,0c-0.5,0-0.9-0.1-1.3-0.4l-3.5-2l-0.6,0.4l3.5,2c0.6,0.3,1.2,0.5,1.9,0.5h0.1c0.7,0,1.3-0.2,2-0.6
				c0.6-0.4,0.9-0.8,0.9-1.2s-0.3-0.8-0.9-1.2L552.6,211.1L552.6,211.1z"/>
		</g>
		<g>
			<polygon class="st0" points="554.5,209.9 553.9,210.3 559.4,213.4 562.2,211.5 561.6,211.2 559.4,212.6 			"/>
		</g>
		<g>
			<path class="st0" d="M562.5,205.2c-0.1,0-0.2,0-0.2,0c-0.5,0-1,0.2-1.5,0.5s-0.7,0.6-0.7,0.9s0.1,0.6,0.5,0.8
				c0.3,0.2,0.6,0.3,1,0.3c0.1,0,0.2,0,0.3,0c0.3,0,0.6,0,1-0.1c-0.4,0.7-0.2,1.2,0.4,1.5c0.4,0.2,0.8,0.3,1.3,0.3
				c0.1,0,0.2,0,0.2,0c0.5,0,1.1-0.2,1.6-0.6c0.5-0.3,0.8-0.7,0.8-1s-0.2-0.6-0.6-0.9c-0.3-0.2-0.7-0.3-1.1-0.3h-0.1
				c-0.4,0-0.9,0.1-1.4,0.2c0.2-0.3,0.2-0.6,0.1-0.8c-0.1-0.2-0.2-0.4-0.5-0.6C563.2,205.3,562.9,205.2,562.5,205.2L562.5,205.2z
				 M562,207.3C561.9,207.3,561.9,207.3,562,207.3c-0.3,0-0.6-0.1-0.8-0.2s-0.4-0.3-0.3-0.5s0.2-0.4,0.5-0.6s0.6-0.3,0.9-0.3h0.1
				c0.3,0,0.5,0.1,0.7,0.2s0.4,0.3,0.4,0.5s0,0.4-0.2,0.7C562.7,207.2,562.3,207.3,562,207.3L562,207.3z M564.6,209
				c-0.3,0-0.6-0.1-0.8-0.2c-0.3-0.2-0.4-0.3-0.5-0.5c0-0.2,0-0.5,0.2-0.8c0.6-0.2,1.1-0.3,1.5-0.3h0.1c0.3,0,0.6,0.1,0.8,0.2
				c0.3,0.2,0.4,0.4,0.4,0.6s-0.2,0.4-0.5,0.7c-0.4,0.2-0.7,0.4-1.1,0.4C564.7,209,564.7,209,564.6,209L564.6,209z"/>
		</g>
	</g>
	<g>
		<g>
			<path class="st0" d="M443.5,309.3h-0.1c-1.2,0-2.3,0.4-3.3,1l-2,1.3l7.1,4.1l1.8-1.2c1.1-0.7,1.7-1.5,1.6-2.2
				c0-0.7-0.6-1.4-1.8-2.1C445.8,309.6,444.7,309.3,443.5,309.3L443.5,309.3z M445.1,314.8l-5.6-3.2l1.1-0.7
				c0.9-0.6,1.7-0.8,2.6-0.9h0.1c0.9,0,1.8,0.3,2.7,0.8c0.9,0.5,1.4,1.1,1.4,1.7c0,0.6-0.4,1.2-1.4,1.8L445.1,314.8L445.1,314.8z"/>
		</g>
		<g>
			<path class="st0" d="M445.4,306.8L445.4,306.8c-0.2,0-0.4,0.1-0.5,0.1c-0.1,0.1-0.2,0.2-0.2,0.3s0.1,0.2,0.3,0.3
				c0.2,0.1,0.3,0.1,0.5,0.1l0,0c0.2,0,0.3,0,0.5-0.1c0.1-0.1,0.2-0.2,0.2-0.3s-0.1-0.2-0.3-0.3S445.5,306.8,445.4,306.8
				L445.4,306.8z M447.2,307.8l-0.8,0.5l5.3,3l0.8-0.5L447.2,307.8L447.2,307.8z"/>
		</g>
		<g>
			<path class="st0" d="M452.2,304.9c-0.7,0.2-1.4,0.5-1.9,0.8c-0.6,0.4-0.9,0.7-1,1.1c-0.1,0.4,0.1,0.7,0.5,0.9
				c0.2,0.1,0.5,0.2,0.8,0.3c0.1,0,0.2,0,0.4,0c0.2,0,0.3,0,0.5,0c0.3,0,0.8-0.2,1.5-0.4s1.2-0.3,1.5-0.3c0.1,0,0.1,0,0.2,0
				c0.2,0,0.4,0,0.6,0.1c0.3,0.2,0.4,0.3,0.3,0.6s-0.3,0.5-0.7,0.7c-0.3,0.2-0.6,0.3-0.9,0.5c-0.3,0.1-0.7,0.2-1.1,0.3l0.7,0.4
				c0.6-0.1,1.2-0.4,1.9-0.8c0.6-0.4,1-0.8,1.1-1.2s-0.1-0.7-0.6-1c-0.3-0.2-0.7-0.3-1.2-0.3l0,0c-0.4,0-1.1,0.1-1.9,0.4
				c-0.6,0.2-1,0.3-1.3,0.3c-0.2,0-0.4,0.1-0.5,0.1H451c-0.2,0-0.3-0.1-0.5-0.1c-0.2-0.1-0.3-0.3-0.2-0.5c0.1-0.2,0.3-0.4,0.6-0.6
				c0.4-0.3,1-0.5,1.7-0.7L452.2,304.9L452.2,304.9z"/>
		</g>
		<g>
			<path class="st0" d="M455.5,302.4l-1.4,0.9l-1.2-0.7l-0.4,0.3l0.8,0.9l-0.4,0.7l0.4,0.2l0.7-0.5l3.1,1.8c0.5,0.3,1.1,0.5,1.6,0.5
				s1-0.2,1.5-0.5c0.1-0.1,0.3-0.2,0.4-0.3s0.2-0.2,0.3-0.3l-0.6-0.4c-0.1,0.1-0.1,0.1-0.2,0.2c-0.1,0.1-0.2,0.2-0.4,0.3
				c-0.2,0.2-0.5,0.2-0.8,0.2l0,0c-0.3,0-0.6-0.1-0.9-0.3l-3.1-1.8l1.4-0.9L455.5,302.4L455.5,302.4z"/>
		</g>
		<g>
			<path class="st0" d="M460.2,299.8h-0.1c-0.6,0-1.1,0.2-1.7,0.6c-0.3,0.2-0.5,0.4-0.8,0.6c-0.2,0.2-0.4,0.5-0.5,0.7l0.8,0.2
				c0.3-0.5,0.6-0.9,1-1.2c0.4-0.2,0.7-0.4,1.1-0.4l0,0c0.4,0,0.8,0.1,1.2,0.4l0.3,0.2l-0.8,0.6c-1.6,1.1-1.8,1.9-0.7,2.5
				c0.5,0.3,0.9,0.4,1.4,0.4h0.1c0.6,0,1.1-0.2,1.6-0.5c0.4-0.2,0.6-0.5,0.8-0.7c0.1-0.2,0.2-0.5,0.1-0.9l0,0l0.9,0.3l0.6-0.4
				l-3.6-2.1C461.3,300,460.8,299.8,460.2,299.8L460.2,299.8z M461.6,303.9c-0.3,0-0.5-0.1-0.8-0.2c-0.4-0.2-0.5-0.5-0.4-0.7
				c0.1-0.3,0.4-0.6,1-1l0.7-0.5l0.5,0.3c0.5,0.3,0.7,0.6,0.7,0.9c0,0.3-0.2,0.7-0.7,1c-0.3,0.2-0.6,0.3-0.9,0.3
				C461.7,303.9,461.7,303.9,461.6,303.9L461.6,303.9z"/>
		</g>
		<g>
			<path class="st0" d="M465.9,296.1L465.9,296.1c-0.7,0-1.3,0.2-1.9,0.6c-0.3,0.2-0.6,0.5-0.7,0.7c-0.1,0.3-0.2,0.5,0,0.8l0,0
				l-0.8-0.3l-0.6,0.4l5.3,3l0.8-0.5l-2.8-1.6c-0.7-0.4-1.1-0.8-1.1-1.1c-0.1-0.3,0.2-0.7,0.7-1c0.4-0.3,0.8-0.4,1.2-0.4l0,0
				c0.4,0,0.8,0.1,1.2,0.4l3.4,2l0.8-0.5l-3.5-2C467.1,296.3,466.5,296.1,465.9,296.1L465.9,296.1z"/>
		</g>
		<g>
			<path class="st0" d="M471,292.6c-0.2,0-0.5,0.1-0.8,0.3c-0.3,0.1-0.6,0.3-0.8,0.4c-0.7,0.5-1.1,1-1,1.5s0.6,1.1,1.4,1.6
				c0.9,0.5,1.7,0.7,2.6,0.8c0,0,0,0,0.1,0c0.8,0,1.6-0.2,2.3-0.7c0.5-0.3,0.8-0.7,1-1l-0.7-0.4c-0.2,0.4-0.6,0.7-1,1
				s-0.9,0.4-1.4,0.4c-0.1,0-0.1,0-0.2,0c-0.6,0-1.2-0.2-1.9-0.6c-1.4-0.8-1.5-1.5-0.5-2.2c0.2-0.1,0.3-0.2,0.6-0.3
				c0.2-0.1,0.5-0.2,0.7-0.3L471,292.6L471,292.6z"/>
		</g>
		<g>
			<path class="st0" d="M475.8,289.9c-0.8,0-1.5,0.2-2.1,0.6c-0.7,0.4-0.9,0.9-0.8,1.5c0.1,0.5,0.6,1.1,1.4,1.6s1.7,0.7,2.6,0.7l0,0
				c0.9,0,1.7-0.2,2.5-0.7c0.3-0.2,0.6-0.4,0.8-0.6c0.2-0.2,0.3-0.4,0.5-0.6L480,292c-0.3,0.5-0.7,0.9-1.2,1.2s-1.1,0.5-1.7,0.5l0,0
				c-0.6,0-1.2-0.2-1.9-0.5l3.4-2.2l-0.5-0.3C477.4,290.1,476.7,289.9,475.8,289.9L475.8,289.9L475.8,289.9z M474.6,292.6
				c-0.4-0.3-0.7-0.6-0.7-0.9c0-0.3,0.1-0.6,0.5-0.9c0.4-0.2,0.8-0.4,1.2-0.4h0.1c0.5,0,1,0.2,1.5,0.5L474.6,292.6L474.6,292.6z"/>
		</g>
		<g>
			<polygon class="st0" points="482.1,283 477.1,286.2 477.8,286.6 479.9,285.3 486.2,288.9 487,288.4 480.7,284.8 482.8,283.4 			
				"/>
		</g>
		<g>
			<path class="st0" d="M487.1,281.8c-0.2,0.1-0.4,0.2-0.7,0.4c-0.3,0.2-0.5,0.4-0.6,0.7s0,0.6,0.1,0.9l0,0l-1.1-0.5l-0.6,0.4l5.3,3
				l0.8-0.5l-2.8-1.6c-0.5-0.3-0.8-0.6-0.9-1s0.1-0.7,0.5-1c0.2-0.1,0.4-0.2,0.6-0.3L487.1,281.8L487.1,281.8z"/>
		</g>
		<g>
			<path class="st0" d="M491.5,279.5h-0.1c-0.6,0-1.1,0.2-1.7,0.6c-0.3,0.2-0.5,0.4-0.8,0.6c-0.2,0.2-0.4,0.5-0.5,0.7l0.8,0.2
				c0.3-0.5,0.6-0.9,1-1.2c0.4-0.2,0.7-0.4,1.1-0.4l0,0c0.4,0,0.8,0.1,1.2,0.4l0.3,0.2l-0.8,0.6c-1.6,1.1-1.8,1.9-0.7,2.5
				c0.5,0.3,0.9,0.4,1.4,0.4h0.1c0.6,0,1.1-0.2,1.6-0.5c0.4-0.2,0.6-0.5,0.7-0.7s0.2-0.5,0.1-0.9l0,0l0.9,0.3l0.6-0.4l-3.6-2.1
				C492.6,279.6,492,279.5,491.5,279.5L491.5,279.5z M492.9,283.5c-0.3,0-0.5-0.1-0.8-0.2c-0.4-0.2-0.5-0.5-0.4-0.7
				c0.1-0.3,0.4-0.6,1-1l0.7-0.5l0.5,0.3c0.5,0.3,0.7,0.6,0.7,0.9c0,0.3-0.2,0.7-0.7,1c-0.3,0.2-0.6,0.3-0.9,0.3
				C493,283.5,493,283.5,492.9,283.5L492.9,283.5z"/>
		</g>
		<g>
			<path class="st0" d="M496.9,275.5l-0.8,0.5c1.2,1.4,2,2.4,2.3,2.8c0.4,0.4,0.6,0.7,0.7,0.8l0,0c-0.3-0.1-0.9-0.3-1.9-0.5L493,278
				l-0.8,0.5l7.2,1.8l0.9-0.6L496.9,275.5L496.9,275.5z"/>
		</g>
		<g>
			<path class="st0" d="M501.6,273c-0.8,0-1.5,0.2-2.1,0.6c-0.7,0.4-0.9,0.9-0.8,1.5c0.1,0.5,0.6,1.1,1.4,1.5
				c0.8,0.5,1.7,0.7,2.6,0.7l0,0c0.9,0,1.7-0.2,2.5-0.7c0.3-0.2,0.6-0.4,0.8-0.6c0.2-0.2,0.3-0.4,0.5-0.6l-0.7-0.4
				c-0.3,0.5-0.7,0.9-1.2,1.2s-1.1,0.5-1.7,0.5l0,0c-0.6,0-1.2-0.2-1.9-0.5l3.4-2.2l-0.5-0.3C503.2,273.3,502.5,273.1,501.6,273
				L501.6,273L501.6,273z M500.4,275.8c-0.4-0.3-0.7-0.6-0.7-0.9c0-0.3,0.1-0.6,0.5-0.9c0.4-0.2,0.8-0.4,1.2-0.4h0.1
				c0.5,0,1,0.2,1.5,0.5L500.4,275.8L500.4,275.8z"/>
		</g>
		<g>
			<polygon class="st0" points="501.5,269.8 500.7,270.3 508.2,274.6 509,274.1 			"/>
		</g>
		<g>
			<polygon class="st0" points="503.8,268.2 503.1,268.7 510.6,273 511.3,272.5 			"/>
		</g>
		<g>
			<path class="st0" d="M511.5,266.6c-0.8,0-1.5,0.2-2.1,0.6c-0.7,0.4-0.9,0.9-0.8,1.5c0.1,0.5,0.6,1.1,1.4,1.5
				c0.8,0.5,1.7,0.7,2.6,0.7l0,0c0.9,0,1.7-0.2,2.5-0.7c0.3-0.2,0.6-0.4,0.8-0.6c0.2-0.2,0.3-0.4,0.5-0.6l-0.7-0.4
				c-0.3,0.5-0.7,0.9-1.2,1.2s-1.1,0.5-1.7,0.5l0,0c-0.6,0-1.2-0.2-1.9-0.5l3.4-2.2l-0.5-0.3C513.1,266.8,512.4,266.6,511.5,266.6
				C511.6,266.6,511.5,266.6,511.5,266.6L511.5,266.6z M510.3,269.3c-0.4-0.3-0.7-0.6-0.7-0.9c0-0.3,0.1-0.6,0.5-0.9
				c0.4-0.2,0.8-0.4,1.2-0.4h0.1c0.5,0,1,0.2,1.5,0.5L510.3,269.3L510.3,269.3z"/>
		</g>
		<g>
			<path class="st0" d="M514.7,261.1l-0.8,0.5l2.2,1.2l0.4,0.2l0.4,0.2h-0.1c-0.1,0-0.2,0-0.3,0c-0.7,0-1.4,0.2-2,0.6
				c-0.6,0.4-0.9,0.9-0.8,1.4c0.1,0.5,0.6,1,1.5,1.5s1.7,0.8,2.6,0.8c0.1,0,0.1,0,0.2,0c0.8,0,1.4-0.2,2-0.6
				c0.7-0.5,0.9-0.9,0.8-1.5l0,0l0.8,0.3l0.6-0.4L514.7,261.1L514.7,261.1z M518.1,266.9c-0.1,0-0.2,0-0.2,0c-0.6,0-1.2-0.3-1.9-0.6
				c-0.7-0.4-1.1-0.8-1.2-1.1c-0.1-0.4,0-0.7,0.5-1s1-0.5,1.5-0.5h0.1c0.6,0,1.2,0.3,2,0.7l0.2,0.1c0.7,0.4,1,0.7,1.1,1.1
				c0.1,0.3-0.2,0.6-0.7,1C519.1,266.8,518.6,266.9,518.1,266.9L518.1,266.9z"/>
		</g>
		<g>
			<path class="st0" d="M520.9,257.7l-0.7,0.5c0.1,0.6,0.4,1.2,0.9,1.8s1.2,1.1,2,1.6s1.7,0.9,2.7,1.1c1,0.3,1.9,0.4,2.9,0.4
				l0.7-0.5c-1-0.1-2-0.2-3-0.5s-1.8-0.6-2.6-1.1c-0.8-0.4-1.4-1-2-1.5C521.4,258.9,521.1,258.3,520.9,257.7L520.9,257.7z"/>
		</g>
		<g>
			<polygon class="st0" points="526.8,253.8 525.9,254.4 526.4,258.4 522.9,256.4 522.1,256.9 529.1,260.9 529.9,260.4 527.1,258.9 
				527.2,258 533,258.4 533.9,257.8 527.2,257.3 			"/>
		</g>
		<g>
			<path class="st0" d="M536.5,250.1L536.5,250.1c-0.6,0-1.2,0.2-1.8,0.6c-0.4,0.2-0.6,0.5-0.7,0.8c-0.1,0.3-0.1,0.5,0,0.8l0,0
				c-0.2-0.1-0.4-0.1-0.7-0.1c-0.6,0-1.2,0.2-1.8,0.6c-0.3,0.2-0.5,0.4-0.7,0.7c-0.1,0.3-0.1,0.5,0,0.7l0,0l-0.8-0.3l-0.6,0.4l5.3,3
				l0.8-0.5l-2.8-1.6c-0.7-0.4-1.1-0.7-1.2-1.1c-0.1-0.3,0.1-0.6,0.6-0.9c0.3-0.2,0.7-0.3,1.1-0.3l0,0c0.4,0,0.8,0.1,1.2,0.4l3.4,2
				l0.8-0.5l-3-1.7c-0.6-0.3-0.9-0.7-1-1s0.1-0.6,0.6-0.9c0.3-0.2,0.7-0.3,1.1-0.3l0,0c0.4,0,0.8,0.1,1.2,0.4l3.4,2l0.8-0.5l-3.5-2
				C537.7,250.3,537.1,250.1,536.5,250.1L536.5,250.1z"/>
		</g>
		<g>
			<path class="st0" d="M536.5,247.5l-0.7,0.5c1.1,0.1,2.1,0.2,3,0.5c1,0.3,1.8,0.6,2.6,1.1c0.8,0.4,1.4,0.9,1.9,1.5
				c0.5,0.6,0.9,1.2,1.1,1.8l0.7-0.5c-0.1-0.6-0.4-1.2-0.9-1.8c-0.5-0.6-1.2-1.1-2-1.6s-1.8-0.9-2.7-1.1
				C538.5,247.7,537.5,247.5,536.5,247.5L536.5,247.5z"/>
		</g>
	</g>
	<g>
		<g>
			<polygon class="st0" points="472.5,385.4 465.1,390.2 465.8,390.6 469.1,388.5 479.3,394.3 480,393.8 469.9,388 473.2,385.8 			
				"/>
		</g>
		<g>
			<path class="st0" d="M481.8,383.8c-1.3,0-2.4,0.3-3.4,1c-1.1,0.7-1.5,1.4-1.4,2.3c0.1,0.8,0.9,1.6,2.2,2.4c0.8,0.5,1.7,0.8,2.6,1
				c0.5,0.1,1.1,0.2,1.6,0.2c0.4,0,0.7,0,1.1-0.1c0.9-0.1,1.6-0.4,2.3-0.9c1.1-0.7,1.5-1.5,1.4-2.3s-0.9-1.6-2.2-2.4
				c-1.3-0.7-2.6-1.1-4-1.2C481.9,383.8,481.9,383.8,481.8,383.8L481.8,383.8z M483.6,390c-0.1,0-0.2,0-0.3,0
				c-1.1-0.1-2.2-0.4-3.3-1c-1.1-0.6-1.8-1.3-1.9-1.9c-0.2-0.7,0.2-1.3,1-1.8s1.6-0.8,2.6-0.8c0.1,0,0.2,0,0.3,0
				c1.1,0.1,2.2,0.4,3.3,1c1.1,0.6,1.8,1.3,1.9,1.9c0.2,0.7-0.2,1.3-1,1.8C485.4,389.7,484.5,390,483.6,390L483.6,390z"/>
		</g>
		<g>
			<path class="st0" d="M487,379.3l-2.2,1.5l-2-1.1l-0.4,0.2l1.5,1.3l-0.8,0.9l0.4,0.2l1.1-0.7l5.2,3c0.8,0.5,1.6,0.7,2.3,0.7l0,0
				c0.7,0,1.4-0.2,2-0.6c0.4-0.3,0.8-0.6,1-0.9l-0.6-0.3c-0.2,0.3-0.6,0.5-1,0.8s-0.8,0.4-1.2,0.4c-0.1,0-0.1,0-0.2,0
				c-0.5,0-1.1-0.2-1.7-0.6l-5.1-2.9l2.2-1.5L487,379.3L487,379.3z"/>
		</g>
		<g>
			<path class="st0" d="M494,375.5C493.9,375.5,493.9,375.5,494,375.5c-0.9,0-1.8,0.3-2.6,0.8c-0.8,0.5-1.4,1.2-1.9,2l0.9,0.2
				c0.3-0.7,0.9-1.3,1.6-1.8c0.6-0.4,1.2-0.6,1.9-0.6h0.1c0.7,0,1.4,0.3,2.2,0.7l0.5,0.3l-1.4,1c-1.1,0.8-1.8,1.5-2,2.2
				s0.1,1.2,0.9,1.7c0.7,0.4,1.4,0.6,2.1,0.6c0.1,0,0.1,0,0.2,0c0.8,0,1.6-0.3,2.4-0.8c0.6-0.4,0.9-0.7,1.1-1.1s0.2-0.9,0.1-1.4h0.1
				l1.5,0.6l0.5-0.3l-5.4-3.1C495.7,375.8,494.8,375.5,494,375.5L494,375.5z M496.4,381.9c-0.5,0-1-0.1-1.5-0.4
				c-0.6-0.4-0.9-0.8-0.7-1.3c0.2-0.5,0.7-1.1,1.8-1.8l1.3-0.9l0.8,0.5c0.9,0.5,1.3,1.1,1.4,1.6c0,0.6-0.4,1.2-1.2,1.7
				c-0.5,0.3-1.1,0.5-1.7,0.6C496.5,381.9,496.5,381.9,496.4,381.9L496.4,381.9z"/>
		</g>
		<g>
			<polygon class="st0" points="493.7,370.7 493,371.2 504.6,377.8 505.3,377.4 			"/>
		</g>
		<g>
			<polygon class="st0" points="507.6,362.5 506.7,363.1 507.1,368.2 507.2,369.7 501.5,366.4 500.8,366.9 511.7,373.1 512.4,372.7 
				508,370.1 508.1,368.5 517.7,369.2 518.6,368.6 508,367.8 			"/>
		</g>
		<g>
			<path class="st0" d="M521.9,357.2L521.9,357.2c-0.9,0-1.8,0.3-2.6,0.8c-0.5,0.3-0.9,0.7-1.1,1.1c-0.2,0.4-0.1,0.8,0.1,1.3l0,0
				c-0.4-0.1-0.8-0.1-1.1-0.1c-0.9,0-1.8,0.3-2.6,0.8c-0.5,0.3-0.8,0.6-1,1s-0.2,0.8,0,1.1l0,0l-1.3-0.5l-0.6,0.4l8.1,4.6l0.7-0.5
				l-4.5-2.6c-1.1-0.6-1.7-1.2-1.8-1.7s0.2-1,1-1.6c0.6-0.4,1.2-0.6,1.8-0.6s1.3,0.2,2,0.6l5.5,3.2l0.7-0.5l-4.7-2.7
				c-1-0.6-1.5-1.1-1.6-1.6s0.3-1,1-1.5c0.6-0.4,1.2-0.6,1.8-0.6h0.1c0.7,0,1.4,0.3,2.2,0.7l5.3,3l0.7-0.4l-5.3-3
				C523.8,357.5,522.8,357.2,521.9,357.2L521.9,357.2z"/>
		</g>
	</g>
	<g>
		<g>
			<path class="st0" d="M460.6,379.3l-2.1,1.3l-8.8-5.1c-1-0.6-1.9-1.1-2.4-1.5c0,0.2,0,0.4,0,0.6c0,0.2-0.1,1-0.3,2.3l-2.4-0.1
				l0.6-4.3l1.7-1.1L460.6,379.3z"/>
		</g>
		<g>
			<path class="st0" d="M460.7,368.9c1.3-0.8,2.7-1.3,4.2-1.4s2.8,0.2,4.1,1c1.5,0.8,2.2,1.8,2.1,2.8c0,1-0.8,2.1-2.4,3.1
				c-1.4,0.9-2.8,1.5-4.1,1.8l-2-1.1c0.8-0.1,1.5-0.4,2.3-0.7s1.4-0.6,1.9-1c0.9-0.6,1.4-1.2,1.5-1.8c0-0.6-0.4-1.1-1.2-1.6
				c-1.6-0.9-3.4-0.8-5.4,0.5c-0.3,0.2-0.6,0.4-0.9,0.7s-0.6,0.6-0.9,0.8l-1.5,0.3l-6.2-4.1l6.7-4.3l1.9,1.1l-4.8,3.2l3.1,2.1
				c0.2-0.2,0.4-0.3,0.6-0.6C459.9,369.4,460.3,369.2,460.7,368.9z"/>
		</g>
		<g>
			<path class="st0" d="M474.3,369c-0.5-0.3-0.7-0.5-0.7-0.8s0.2-0.6,0.6-0.8c0.4-0.3,0.9-0.4,1.3-0.4c0.5,0,0.9,0.1,1.4,0.4
				c0.4,0.3,0.7,0.5,0.7,0.8s-0.2,0.6-0.6,0.9s-0.9,0.4-1.3,0.4C475.2,369.4,474.7,369.3,474.3,369z"/>
		</g>
		<g>
			<path class="st0" d="M480.9,356.6c2.7,1.5,4.2,3,4.5,4.4s-0.6,2.8-2.6,4.1c-0.8,0.5-1.4,0.8-1.8,1l-1.8-1.1
				c0.7-0.3,1.3-0.5,1.8-0.9c1.4-0.9,2-1.8,1.9-2.7s-1-1.9-2.6-2.9l-0.1,0.1c0.2,0.5,0.2,1,0,1.5s-0.7,0.9-1.3,1.3
				c-1.1,0.7-2.4,1.1-3.8,1.1s-2.8-0.4-4.1-1.1c-1.4-0.8-2.2-1.7-2.3-2.7c-0.1-1,0.5-1.9,1.8-2.7c0.9-0.6,1.9-1,3.1-1.1
				c1.1-0.2,2.4-0.1,3.6,0.2C478.4,355.3,479.6,355.8,480.9,356.6z M472.3,357.1c-0.7,0.5-1,1-0.9,1.5s0.6,1.1,1.5,1.6
				c0.8,0.4,1.6,0.7,2.4,0.7s1.6-0.2,2.3-0.7c0.7-0.5,1.1-1,1.1-1.5c0-0.6-0.2-1-0.8-1.4c-0.6-0.3-1.2-0.5-1.9-0.7
				c-0.7-0.1-1.3-0.2-2-0.1S472.7,356.8,472.3,357.1z"/>
		</g>
		<g>
			<path class="st0" d="M486.1,352.3c1.3-0.8,2.7-1.3,4.2-1.4c1.5-0.1,2.8,0.2,4.1,1c1.5,0.8,2.2,1.8,2.1,2.8c0,1-0.8,2.1-2.4,3.1
				c-1.4,0.9-2.8,1.5-4.1,1.8l-2-1.1c0.8-0.1,1.5-0.4,2.3-0.7s1.4-0.6,1.9-1c0.9-0.6,1.4-1.2,1.5-1.8c0-0.6-0.4-1.1-1.2-1.6
				c-1.6-0.9-3.4-0.8-5.4,0.5c-0.3,0.2-0.6,0.4-0.9,0.7s-0.6,0.6-0.9,0.8l-1.5,0.3l-6.2-4.1l6.7-4.3l1.9,1.1l-4.8,3.2l3.1,2.1
				c0.2-0.2,0.4-0.3,0.6-0.6C485.4,352.8,485.7,352.6,486.1,352.3z"/>
		</g>
	</g>
	<g>
		<g>
			<polygon class="st0" points="541.1,423.1 540.4,423.6 545.2,426.4 539.2,430.3 534.4,427.5 533.7,428 544.6,434.2 545.3,433.8 
				539.9,430.7 545.9,426.8 551.3,429.9 552,429.4 			"/>
		</g>
		<g>
			<path class="st0" d="M552.8,419.9c-1.3,0-2.4,0.3-3.4,1c-1.1,0.7-1.5,1.4-1.4,2.3c0.1,0.8,0.9,1.6,2.2,2.4c0.8,0.5,1.7,0.8,2.6,1
				c0.5,0.1,1.1,0.2,1.6,0.2c0.4,0,0.7,0,1.1-0.1c0.9-0.1,1.6-0.4,2.3-0.9c1.1-0.7,1.5-1.5,1.4-2.3s-0.9-1.6-2.2-2.4
				c-1.3-0.8-2.6-1.1-4-1.2C553,419.9,552.9,419.9,552.8,419.9L552.8,419.9z M554.6,426.1c-0.1,0-0.2,0-0.3,0
				c-1.1-0.1-2.2-0.4-3.3-1s-1.8-1.3-1.9-1.9c-0.2-0.7,0.2-1.3,1-1.8s1.6-0.8,2.6-0.8c0.1,0,0.2,0,0.3,0c1.1,0.1,2.2,0.4,3.3,1
				s1.8,1.3,1.9,2c0.2,0.7-0.2,1.3-1,1.8S555.6,426.1,554.6,426.1L554.6,426.1z"/>
		</g>
		<g>
			<path class="st0" d="M561,413.5l-0.7,0.4l4.5,2.6c1.1,0.6,1.7,1.2,1.7,1.8s-0.4,1.1-1.3,1.7c-0.7,0.4-1.4,0.7-2,0.7l0,0
				c-0.7,0-1.4-0.2-2.3-0.7l-5.3-3l-0.7,0.4l5.3,3c1,0.6,1.9,0.9,2.9,0.9c0.9,0,1.8-0.3,2.7-0.9c1.3-0.8,1.7-1.6,1.4-2.5l0,0
				l1.2,0.6l0.6-0.4L561,413.5L561,413.5z"/>
		</g>
		<g>
			<path class="st0" d="M567.5,409.2c-0.4,0.2-0.8,0.4-1.1,0.6c-0.5,0.3-0.8,0.7-0.9,1.1c-0.1,0.4,0,0.8,0.3,1.4l0,0l-1.5-0.8
				l-0.6,0.4l8.1,4.7l0.7-0.5l-4.5-2.6c-0.9-0.5-1.4-1.1-1.6-1.7s0.1-1.1,0.7-1.6c0.3-0.2,0.7-0.4,1.1-0.6L567.5,409.2L567.5,409.2z
				"/>
		</g>
		<g>
			<path class="st0" d="M574,405.4c-1.1,0.3-2,0.7-2.8,1.2c-0.9,0.6-1.4,1.1-1.5,1.6s0.1,0.9,0.7,1.3c0.4,0.2,0.8,0.4,1.2,0.4
				c0.2,0,0.3,0,0.5,0c0.3,0,0.6,0,0.9-0.1c0.5-0.1,1.3-0.3,2.4-0.6c1-0.3,1.8-0.5,2.4-0.5c0.1,0,0.2,0,0.3,0c0.5,0,0.9,0.1,1.2,0.3
				c0.4,0.3,0.6,0.6,0.5,1s-0.6,0.9-1.3,1.4c-0.9,0.6-1.9,1-3,1.2l0.8,0.5c0.9-0.2,1.9-0.6,2.9-1.3c1-0.6,1.5-1.2,1.6-1.8
				s-0.2-1.1-0.9-1.5c-0.4-0.2-0.8-0.3-1.2-0.4c-0.2,0-0.3,0-0.5,0c-0.3,0-0.6,0-0.9,0.1c-0.5,0.1-1.3,0.3-2.2,0.6
				c-1.1,0.4-2,0.6-2.5,0.6c-0.1,0-0.1,0-0.2,0c-0.4,0-0.9-0.1-1.2-0.3c-0.4-0.2-0.5-0.5-0.4-0.9s0.5-0.8,1.2-1.2
				c0.6-0.4,1.5-0.8,2.6-1.1L574,405.4L574,405.4z"/>
		</g>
	</g>
	<g>
		<g>
			<path class="st0" d="M527.1,417.5l-2.1,1.3l-8.8-5.1c-1.1-0.6-1.9-1.1-2.4-1.5c0,0.2,0,0.4,0,0.6c0,0.2-0.1,1-0.3,2.3l-2.4-0.1
				l0.6-4.3l1.7-1.1L527.1,417.5z"/>
		</g>
		<g>
			<path class="st0" d="M530.5,413.9c-0.5-0.3-0.7-0.5-0.7-0.8s0.2-0.6,0.6-0.8c0.4-0.3,0.9-0.4,1.4-0.4s0.9,0.1,1.4,0.4
				c0.4,0.3,0.7,0.5,0.7,0.8s-0.2,0.6-0.6,0.9c-0.4,0.3-0.9,0.4-1.3,0.4C531.4,414.3,530.9,414.1,530.5,413.9z"/>
		</g>
		<g>
			<path class="st0" d="M542.4,403.9l-1.7,1.1l3,1.7l-2,1.3l-3-1.7l-5.9,3.8l-1.7-1l-3.2-9l2-1.3l8.9,5.1l1.7-1.1L542.4,403.9z
				 M536.8,405.3l-3.4-2c-1.2-0.7-2.2-1.3-2.9-1.8h-0.1c0.2,0.3,0.5,0.8,0.7,1.4l1.7,4.9L536.8,405.3z"/>
		</g>
		<g>
			<path class="st0" d="M548.3,395.3c2.4,1.4,3.8,2.6,4.2,3.7c0.4,1.1-0.1,2.2-1.6,3.1c-1.4,0.9-3.1,1.3-5,1.1s-4-1-6.3-2.3
				c-2.4-1.4-3.8-2.6-4.2-3.8c-0.4-1.1,0.1-2.2,1.6-3.1c1.4-0.9,3.1-1.3,5-1.1C543.9,393.2,546,393.9,548.3,395.3z M541.7,399.6
				c1.9,1.1,3.4,1.7,4.5,1.9c1.2,0.2,2.1,0.1,2.9-0.4c0.8-0.5,1-1.1,0.5-1.8c-0.4-0.7-1.6-1.6-3.4-2.6c-1.8-1.1-3.3-1.7-4.5-1.9
				s-2.2-0.1-3,0.4s-1,1.1-0.5,1.8C538.7,397.6,539.8,398.5,541.7,399.6z"/>
		</g>
	</g>
	<g>
		<path class="st0" d="M299.3,122l19.9,11.4l-80.4,52L218.9,174L299.3,122 M299.3,120.8L217.1,174l21.9,12.5l82.3-53.3L299.3,120.8
			L299.3,120.8z"/>
	</g>
	<g>
		<g>
			<path class="st0" d="M342,103l-1.2,0.7l3.7,4.7l0,0l-7.9-1.9l-1.2,0.8l7,4l0.7-0.5l-4.5-2.5c-0.7-0.4-1.3-0.7-1.8-1l0,0l8.5,2.1
				l0.6-0.4l-3.9-5l0,0c0.6,0.4,1.1,0.7,1.6,1l4.5,2.6l0.8-0.5L342,103L342,103z"/>
		</g>
		<g>
			<path class="st0" d="M349.7,100.9c-0.9,0-1.6,0.2-2.3,0.7c-0.7,0.5-1,1-1,1.5c0.1,0.5,0.5,1,1.4,1.5c0.6,0.3,1.1,0.5,1.7,0.6
				c0.3,0.1,0.6,0.1,1,0.1c0.3,0,0.5,0,0.8-0.1c0.6-0.1,1.1-0.3,1.5-0.6c0.7-0.5,1-1,1-1.5c-0.1-0.5-0.5-1.1-1.4-1.5
				C351.5,101.2,350.7,100.9,349.7,100.9L349.7,100.9L349.7,100.9z M350.7,104.7c-0.1,0-0.1,0-0.2,0c-0.6,0-1.2-0.2-1.9-0.6
				c-0.7-0.4-1.1-0.8-1.2-1.1c-0.1-0.4,0.1-0.7,0.6-1s0.9-0.4,1.5-0.4c0.1,0,0.1,0,0.2,0c0.6,0,1.2,0.2,1.9,0.6
				c0.7,0.4,1.1,0.8,1.2,1.1c0.1,0.4-0.1,0.7-0.6,1S351.2,104.7,350.7,104.7L350.7,104.7z"/>
		</g>
		<g>
			<path class="st0" d="M355.2,97.1C355.1,97.1,355.1,97.1,355.2,97.1c-0.7,0-1.3,0.2-1.9,0.6c-0.3,0.2-0.6,0.5-0.7,0.7
				s-0.2,0.5,0,0.8l0,0l-0.8-0.3l-0.6,0.4l5.2,3l0.8-0.5l-2.8-1.6c-0.7-0.4-1.1-0.7-1.1-1.1c-0.1-0.3,0.2-0.7,0.7-1
				c0.4-0.3,0.8-0.4,1.2-0.4l0,0c0.4,0,0.8,0.1,1.2,0.4l3.4,1.9l0.8-0.5l-3.4-2C356.3,97.3,355.7,97.1,355.2,97.1L355.2,97.1z"/>
		</g>
		<g>
			<path class="st0" d="M358.9,94.2l-1.4,0.9l-1.2-0.7l-0.4,0.3l0.8,0.8l-0.4,0.6l0.4,0.2l0.7-0.5l3.1,1.8c0.5,0.3,1,0.5,1.5,0.5
				s1-0.2,1.5-0.5c0.1-0.1,0.3-0.2,0.4-0.3c0.1-0.1,0.2-0.2,0.3-0.3l-0.6-0.3c-0.1,0.1-0.1,0.1-0.2,0.2s-0.2,0.2-0.4,0.3
				c-0.2,0.2-0.5,0.2-0.8,0.2l0,0c-0.3,0-0.6-0.1-0.9-0.3l-3.1-1.8l1.4-0.9L358.9,94.2L358.9,94.2z"/>
		</g>
		<g>
			<path class="st0" d="M364,91.4h-0.1c-0.6,0-1.2,0.2-1.8,0.6c-0.3,0.2-0.6,0.5-0.7,0.7c-0.1,0.3-0.1,0.5,0,0.7l0,0
				c-0.2-0.1-0.4-0.3-0.6-0.4l-2.3-1.3l-0.8,0.5l7.4,4.2l0.8-0.5l-2.7-1.6c-0.7-0.4-1.1-0.7-1.1-1.1c-0.1-0.3,0.2-0.7,0.7-1
				c0.4-0.3,0.8-0.4,1.2-0.4l0,0c0.4,0,0.8,0.1,1.2,0.4l3.4,1.9l0.8-0.5l-3.4-2C365.2,91.6,364.6,91.4,364,91.4L364,91.4z"/>
		</g>
	</g>
	<g>
		<g>
			<path class="st0" d="M262.6,154.4l-0.8,0.5l3.3,3.1c0.5,0.5,0.9,0.9,1.3,1.2c-0.7-0.3-1.4-0.5-2-0.7l-5.5-1.6l-0.8,0.5l3.1,3.2
				c0.4,0.4,0.8,0.8,1.3,1.2c-0.6-0.2-1.2-0.5-2-0.7l-5.4-1.8l-0.8,0.5l8.8,2.9l0.8-0.5l-3.4-3.5c-0.4-0.4-0.7-0.7-1.1-1
				c0.1,0,0.3,0.1,0.7,0.2c0.4,0.1,0.7,0.2,1,0.3l6,1.8l0.8-0.5L262.6,154.4L262.6,154.4z"/>
		</g>
		<g>
			<path class="st0" d="M268.9,153.1c-0.8,0-1.5,0.2-2.1,0.6c-0.7,0.4-0.9,0.9-0.8,1.5c0.1,0.5,0.6,1.1,1.4,1.5
				c0.8,0.5,1.7,0.7,2.6,0.7l0,0c0.9,0,1.7-0.2,2.4-0.7c0.3-0.2,0.6-0.4,0.8-0.6c0.2-0.2,0.3-0.4,0.5-0.6l-0.7-0.4
				c-0.3,0.5-0.7,0.9-1.2,1.2c-0.5,0.3-1.1,0.5-1.7,0.5l0,0c-0.6,0-1.2-0.2-1.8-0.5l3.4-2.2l-0.5-0.3
				C270.5,153.3,269.8,153.1,268.9,153.1C269,153.1,268.9,153.1,268.9,153.1L268.9,153.1z M267.7,155.8c-0.4-0.3-0.7-0.6-0.7-0.9
				s0.1-0.6,0.5-0.9c0.4-0.2,0.8-0.4,1.2-0.4h0.1c0.5,0,1,0.2,1.5,0.5L267.7,155.8L267.7,155.8z"/>
		</g>
		<g>
			<path class="st0" d="M274.1,149.7c-0.8,0-1.5,0.2-2.1,0.6c-0.7,0.4-0.9,0.9-0.8,1.5c0.1,0.5,0.6,1.1,1.4,1.5
				c0.8,0.5,1.7,0.7,2.6,0.7l0,0c0.9,0,1.7-0.2,2.4-0.7c0.3-0.2,0.6-0.4,0.8-0.6c0.2-0.2,0.3-0.4,0.5-0.6l-0.7-0.4
				c-0.3,0.5-0.7,0.9-1.2,1.2c-0.5,0.3-1.1,0.5-1.7,0.5l0,0c-0.6,0-1.2-0.2-1.8-0.5l3.4-2.2l-0.5-0.3
				C275.7,149.9,275,149.7,274.1,149.7L274.1,149.7L274.1,149.7z M272.9,152.5c-0.4-0.3-0.7-0.6-0.7-0.9s0.1-0.6,0.5-0.9
				c0.4-0.2,0.8-0.4,1.2-0.4h0.1c0.5,0,1,0.2,1.5,0.5L272.9,152.5L272.9,152.5z"/>
		</g>
		<g>
			<path class="st0" d="M279.2,145.8l-0.9,0.6l0.2,2.1c0,0.4,0.1,0.6,0.2,0.8l0,0c-0.3-0.2-0.6-0.4-0.8-0.5l-3.9-2.3l-0.7,0.5
				l7.4,4.3l0.7-0.5l-2-1.1l0.1-0.7l4.2,0.3l0.9-0.6l-5.2-0.3L279.2,145.8L279.2,145.8z"/>
		</g>
	</g>
	<g>
		<g>
			<path class="st0" d="M179.2,208.7h-0.1c-1.2,0-2.3,0.4-3.3,1l-2,1.3l7,4l1.8-1.2c1.1-0.7,1.7-1.5,1.7-2.2s-0.6-1.4-1.8-2.1
				C181.4,209,180.3,208.7,179.2,208.7L179.2,208.7z M180.7,214.2l-5.6-3.2l1.1-0.7c0.9-0.6,1.7-0.8,2.6-0.9h0.1
				c0.9,0,1.7,0.3,2.6,0.8c0.9,0.5,1.4,1.1,1.4,1.7s-0.4,1.2-1.4,1.8L180.7,214.2L180.7,214.2z"/>
		</g>
		<g>
			<path class="st0" d="M185.7,205.9h-0.1c-0.6,0-1.1,0.2-1.7,0.6c-0.3,0.2-0.5,0.4-0.8,0.6c-0.2,0.2-0.4,0.5-0.5,0.7l0.8,0.2
				c0.3-0.5,0.6-0.9,1-1.1s0.7-0.4,1.1-0.4l0,0c0.4,0,0.8,0.1,1.2,0.4l0.3,0.2l-0.8,0.6c-1.6,1.1-1.8,1.9-0.8,2.5
				c0.5,0.3,0.9,0.4,1.4,0.4h0.1c0.5,0,1.1-0.2,1.6-0.5c0.4-0.2,0.6-0.5,0.8-0.7c0.1-0.2,0.2-0.5,0.1-0.9l0,0l0.9,0.3l0.6-0.4
				l-3.6-2.1C186.8,206,186.2,205.9,185.7,205.9L185.7,205.9z M187.1,209.9c-0.3,0-0.5-0.1-0.8-0.2c-0.4-0.2-0.5-0.5-0.4-0.7
				c0.1-0.3,0.4-0.6,1-1l0.7-0.5l0.5,0.3c0.5,0.3,0.7,0.6,0.7,0.9s-0.2,0.6-0.7,1c-0.3,0.2-0.6,0.3-0.9,0.3
				C187.1,209.9,187.1,209.9,187.1,209.9L187.1,209.9z"/>
		</g>
		<g>
			<path class="st0" d="M191,201.9l-0.8,0.5c1.3,1.6,2.1,2.6,2.4,2.9c0.3,0.3,0.5,0.5,0.6,0.6l0,0c-0.4-0.1-1-0.3-1.9-0.6l-4.1-1
				l-0.8,0.5l7.3,1.7l0.5,0.6c0.4,0.5,0.3,0.9-0.2,1.2c-0.2,0.1-0.4,0.2-0.6,0.3l0.6,0.4c0.3-0.1,0.5-0.2,0.8-0.4
				c0.4-0.3,0.6-0.6,0.7-0.9c0-0.3-0.1-0.7-0.5-1.2L191,201.9L191,201.9z"/>
		</g>
	</g>
	<g>
		<path class="st0" d="M338.9,40l3.7,2.1l-12.7,8.2l-3.7-2.1L338.9,40 M338.9,38.3c-0.4,0-0.8,0.1-1.1,0.3l-13.9,9
			c-0.6,0.4-0.6,1,0.1,1.3l4.9,2.8c0.3,0.2,0.7,0.3,1.1,0.3s0.8-0.1,1.1-0.3l13.9-9c0.6-0.4,0.6-1-0.1-1.3l-4.9-2.8
			C339.7,38.4,339.3,38.3,338.9,38.3L338.9,38.3z M329.9,51.7c-0.3,0-0.5-0.1-0.7-0.2l-4.9-2.8c-0.4-0.2-0.4-0.6,0-0.9l13.9-9
			c0.2-0.1,0.5-0.2,0.8-0.2s0.5,0.1,0.7,0.2l4.9,2.8c0.4,0.2,0.4,0.6,0,0.9l-13.9,9C330.5,51.6,330.2,51.7,329.9,51.7L329.9,51.7z
			 M342.6,38.5c-0.2,0-0.4,0.1-0.6,0.2l-0.5,0.3l2.6,1.5l0.5-0.3c0.3-0.2,0.3-0.5,0-0.7l-1.5-0.9C343,38.5,342.8,38.5,342.6,38.5
			L342.6,38.5z M338.9,38.9c-0.1,0-0.3,0-0.4,0.1l-13.9,9c-0.2,0.1-0.2,0.3,0,0.4l4.9,2.8c0.1,0.1,0.2,0.1,0.3,0.1
			c0.1,0,0.3,0,0.4-0.1l13.9-9c0.2-0.1,0.2-0.3,0-0.4l-4.9-2.8C339.2,39,339.1,38.9,338.9,38.9L338.9,38.9z"/>
	</g>
	<g>
		<g>
			<path class="st0" d="M303.2,62.4l-0.7,0.5c-0.1,0.3-0.1,0.6-0.2,0.9c-0.1,0.2-0.1,0.5-0.2,0.9l0.8,0.5c0.1-0.3,0.1-0.6,0.2-0.8
				s0.1-0.5,0.2-0.8h0.1c0.5,0.3,1,0.6,1.4,0.8c0.4,0.2,0.9,0.5,1.3,0.8c0.5,0.3,0.9,0.5,1.3,0.8c0.4,0.2,0.9,0.5,1.4,0.8l0.8-0.5
				L303.2,62.4L303.2,62.4z"/>
		</g>
		<g>
			<path class="st0" d="M308.9,59.3c-0.8,0-1.4,0.2-2,0.5c-0.7,0.4-0.9,0.9-0.7,1.5c0.2,0.6,0.8,1.2,1.9,1.8c1.1,0.6,2.1,1,3,1
				c0.2,0,0.3,0,0.5,0c0.8,0,1.4-0.2,2-0.5c0.7-0.4,0.9-0.9,0.7-1.5c-0.2-0.6-0.8-1.2-1.9-1.8c-1.1-0.6-2.1-0.9-3-1
				C309.2,59.3,309,59.3,308.9,59.3L308.9,59.3z M311.7,63.5c-0.2,0-0.3,0-0.5,0c-0.7-0.1-1.5-0.4-2.3-0.9s-1.4-0.9-1.6-1.3
				s-0.1-0.8,0.3-1.1c0.3-0.2,0.7-0.3,1.2-0.3c0.2,0,0.3,0,0.5,0c0.7,0.1,1.5,0.4,2.3,0.9c0.9,0.5,1.4,0.9,1.6,1.3s0.1,0.8-0.3,1
				C312.6,63.4,312.2,63.5,311.7,63.5L311.7,63.5z"/>
		</g>
		<g>
			<path class="st0" d="M314.3,55.8c-0.8,0-1.4,0.2-2,0.5c-0.7,0.4-0.9,0.9-0.7,1.5c0.2,0.6,0.8,1.2,1.9,1.8c1.1,0.6,2.1,1,3,1
				c0.2,0,0.3,0,0.5,0c0.8,0,1.4-0.2,2-0.5c0.7-0.4,0.9-0.9,0.7-1.5c-0.2-0.6-0.8-1.2-1.9-1.8c-1.1-0.6-2.1-0.9-3-1
				C314.6,55.8,314.4,55.8,314.3,55.8L314.3,55.8z M317.1,60.1c-0.2,0-0.3,0-0.5,0c-0.7-0.1-1.5-0.4-2.3-0.9s-1.4-0.9-1.6-1.3
				s-0.1-0.8,0.3-1.1c0.3-0.2,0.7-0.3,1.2-0.3c0.2,0,0.3,0,0.5,0c0.7,0.1,1.5,0.4,2.3,0.9c0.9,0.5,1.4,0.9,1.6,1.3s0.1,0.8-0.3,1
				C317.9,59.9,317.6,60.1,317.1,60.1L317.1,60.1z"/>
		</g>
		<g>
			<path class="st0" d="M321.1,50.8l-0.8,0.5l0.9,3.1l1,3.4c0.2-0.1,0.3-0.2,0.4-0.2c0.1-0.1,0.2-0.1,0.4-0.2l-0.9-3L321.1,50.8
				L321.1,50.8z M325,53c-0.5,0-0.9,0.1-1.3,0.4c-0.4,0.2-0.5,0.5-0.5,0.8s0.3,0.6,0.7,0.9c0.4,0.3,0.9,0.4,1.5,0.4l0,0
				c0.5,0,0.9-0.1,1.3-0.4c0.4-0.2,0.5-0.5,0.5-0.8s-0.3-0.6-0.7-0.9S325.5,53,325,53L325,53L325,53z M325.6,54.9
				c-0.1,0-0.1,0-0.2,0c-0.3,0-0.6-0.1-0.9-0.3c-0.3-0.2-0.5-0.3-0.5-0.5c-0.1-0.2,0-0.3,0.2-0.4s0.3-0.1,0.6-0.1c0,0,0.1,0,0.2,0
				c0.3,0,0.6,0.1,0.9,0.3c0.3,0.2,0.5,0.3,0.5,0.5c0.1,0.2,0,0.3-0.2,0.4C326,54.8,325.8,54.9,325.6,54.9L325.6,54.9z M318,53.2
				c-0.5,0-0.9,0.1-1.3,0.4c-0.4,0.2-0.5,0.5-0.5,0.8s0.3,0.6,0.7,0.9c0.4,0.3,0.9,0.4,1.5,0.4l0,0c0.5,0,0.9-0.1,1.3-0.4
				c0.4-0.2,0.5-0.5,0.5-0.8s-0.3-0.6-0.7-0.9C319,53.4,318.5,53.2,318,53.2L318,53.2L318,53.2z M318.6,55.1c-0.1,0-0.1,0-0.2,0
				c-0.3,0-0.6-0.1-0.9-0.3c-0.3-0.2-0.5-0.3-0.5-0.5c-0.1-0.2,0-0.3,0.2-0.4s0.3-0.1,0.6-0.1c0,0,0.1,0,0.2,0
				c0.3,0,0.6,0.1,0.9,0.3c0.3,0.2,0.5,0.3,0.5,0.5c0.1,0.2,0,0.3-0.2,0.4S318.8,55.1,318.6,55.1L318.6,55.1z"/>
		</g>
	</g>
	<g>
		<g>
			<path class="st0" d="M199.2,129.7c-0.8,0-1.5,0.2-2.1,0.6s-0.9,0.8-0.9,1.3s0.3,0.9,1,1.3c0.6,0.3,1.3,0.5,2,0.5h0.1
				c0.8,0,1.5-0.2,2-0.6c0.4-0.2,0.6-0.5,0.7-0.8s0.1-0.6-0.1-0.8l0,0l0,0l0,0c0.8,0.5,1.3,1,1.5,1.4s0,0.8-0.5,1.1
				c-0.3,0.2-0.6,0.3-1,0.4c-0.1,0-0.2,0-0.3,0c-0.3,0-0.6,0-0.8-0.1l-0.8,0.5c0.5,0.2,1,0.3,1.5,0.3c0.1,0,0.3,0,0.4,0
				c0.7-0.1,1.2-0.3,1.8-0.6c0.7-0.5,1-1,0.8-1.6s-0.8-1.2-1.9-1.8c-0.7-0.4-1.4-0.7-2.1-0.8C200.1,129.8,199.6,129.7,199.2,129.7
				L199.2,129.7z M199.3,132.8c-0.5,0-1-0.1-1.4-0.4c-0.4-0.2-0.6-0.5-0.7-0.9c0-0.3,0.2-0.6,0.6-0.9c0.4-0.3,0.9-0.4,1.4-0.4l0,0
				c0.5,0,1,0.1,1.4,0.4c0.4,0.2,0.6,0.5,0.6,0.8s-0.2,0.6-0.6,0.9C200.3,132.7,199.9,132.8,199.3,132.8L199.3,132.8L199.3,132.8z"
				/>
		</g>
		<g>
			<path class="st0" d="M203.8,128.7L203.8,128.7c-0.2,0-0.4,0.1-0.6,0.2c-0.1,0.1-0.2,0.2-0.2,0.3c0,0.1,0.1,0.2,0.2,0.3
				c0.1,0.1,0.3,0.1,0.5,0.1l0,0c0.2,0,0.4-0.1,0.6-0.2c0.2-0.1,0.2-0.2,0.2-0.3c0-0.1-0.1-0.2-0.2-0.3
				C204.2,128.7,204,128.7,203.8,128.7L203.8,128.7z M207.2,130.6C207.2,130.6,207.1,130.6,207.2,130.6c-0.2,0-0.4,0.1-0.6,0.2
				c-0.1,0.1-0.2,0.2-0.2,0.3s0.1,0.2,0.2,0.3c0.1,0.1,0.3,0.1,0.5,0.1l0,0c0.2,0,0.4-0.1,0.6-0.2c0.2-0.1,0.2-0.2,0.2-0.3
				c0-0.1-0.1-0.2-0.2-0.3C207.5,130.7,207.4,130.6,207.2,130.6L207.2,130.6z"/>
		</g>
		<g>
			<path class="st0" d="M206.8,124.3l-1.1,0.7c0.2,0.4,0.3,0.8,0.5,1.2c0.2,0.4,0.3,0.8,0.5,1.1c0.1,0.4,0.3,0.7,0.4,1
				s0.3,0.6,0.4,0.8l0.7,0.4l2.9-1.9c0.3,0.2,0.5,0.3,0.7,0.4s0.4,0.2,0.7,0.4l0.7-0.5l-1.3-0.8l0.9-0.6l-0.7-0.4l-0.9,0.6
				L206.8,124.3L206.8,124.3z M208.2,128.6L208.2,128.6c-0.2-0.3-0.3-0.6-0.5-0.9c-0.1-0.3-0.3-0.6-0.4-0.9s-0.2-0.6-0.3-0.8
				c-0.1-0.3-0.2-0.5-0.3-0.8h0.1l3.6,2.1L208.2,128.6L208.2,128.6z"/>
		</g>
		<g>
			<path class="st0" d="M211,121.5l-0.7,0.5c-0.1,0.3-0.1,0.6-0.2,0.9c-0.1,0.2-0.1,0.5-0.2,0.9l0.8,0.5c0.1-0.3,0.1-0.6,0.2-0.8
				c0-0.2,0.1-0.5,0.2-0.8h0.1c0.5,0.3,1,0.6,1.4,0.8s0.9,0.5,1.3,0.8s0.9,0.5,1.3,0.8c0.4,0.2,0.9,0.5,1.4,0.8l0.8-0.5L211,121.5
				L211,121.5z"/>
		</g>
		<g>
			<path class="st0" d="M215.4,118.7l-0.7,0.5l4.1,5.1l0.8-0.5l-1.2-1.4l2.4-1.6c0.5,0.1,0.9,0.2,1.2,0.3s0.7,0.2,1.2,0.3l0.8-0.5
				L215.4,118.7L215.4,118.7z M217.9,121.8c-0.3-0.3-0.5-0.6-0.7-0.8c-0.2-0.2-0.4-0.4-0.6-0.7s-0.4-0.5-0.7-0.8h0.1l3.8,1
				L217.9,121.8L217.9,121.8z"/>
		</g>
		<g>
			<path class="st0" d="M224.6,112.7l-0.9,0.6l3.2,4.3h-0.1l-7.3-1.7l-0.9,0.6l6.4,3.6l0.7-0.5l-4.9-2.8h0.1l6.7,1.5l0.6-0.4l-2.9-4
				h0.1l4.9,2.8c0.1-0.1,0.3-0.2,0.4-0.2c0.1-0.1,0.2-0.1,0.4-0.2L224.6,112.7L224.6,112.7z"/>
		</g>
	</g>
	<g>
		<path class="st0" d="M152.3,161c-2.4,0-4.9,0.7-6.7,1.8c-1.8,1.2-2.7,2.7-2.6,4.2h1.6c-0.1-1.2,0.7-2.5,2.2-3.5s3.6-1.5,5.6-1.5
			L152.3,161L152.3,161z M152.4,162.9c-1.6,0-3.3,0.4-4.5,1.2c-1.2,0.8-1.8,1.8-1.7,2.8h1.6c-0.1-0.7,0.4-1.5,1.3-2.1
			c0.9-0.6,2.2-0.9,3.4-0.9l0,0L152.4,162.9L152.4,162.9z M152.3,164.8c-0.8,0-1.6,0.2-2.2,0.6c-0.6,0.4-0.9,0.9-0.8,1.4l3.1-0.1
			L152.3,164.8C152.4,164.8,152.3,164.8,152.3,164.8L152.3,164.8z"/>
	</g>
	<g>
		<g>
			<path class="st0" d="M114,184.7l-0.9,0.6l0.4,3.5h-0.1l-3.1-1.8l-0.8,0.5l6.4,3.7c0.2-0.1,0.3-0.2,0.4-0.2
				c0.1-0.1,0.2-0.1,0.4-0.2l-2.2-1.3l-0.1-1l5.2,0.3l1-0.6l-6.3-0.4L114,184.7L114,184.7z"/>
		</g>
		<g>
			<path class="st0" d="M115.7,183.3L115.7,183.3c-0.2,0-0.4,0.1-0.5,0.1c-0.1,0.1-0.2,0.2-0.2,0.3c0,0.1,0.1,0.2,0.2,0.3
				c0.1,0.1,0.3,0.1,0.5,0.1l0,0c0.2,0,0.4-0.1,0.5-0.1c0.1-0.1,0.2-0.2,0.2-0.3c0-0.1-0.1-0.2-0.2-0.3
				C116,183.3,115.9,183.3,115.7,183.3L115.7,183.3z M117.5,184.4l-0.7,0.5c0.6,0.4,1.2,0.7,1.7,1s0.9,0.5,1.4,0.8s1,0.6,1.7,1
				l0.7-0.5L117.5,184.4L117.5,184.4z"/>
		</g>
		<g>
			<path class="st0" d="M118.7,182.1c-0.1,0.1-0.3,0.2-0.4,0.2c-0.1,0.1-0.2,0.1-0.4,0.2l1.2,0.7l-0.7,0.5l0.6,0.4l0.7-0.5l2.9,1.7
				c0.4,0.2,0.8,0.4,1.2,0.4h0.1c0.4,0,0.8-0.2,1.3-0.5c0.1,0,0.1-0.1,0.2-0.1s0.1-0.1,0.2-0.2l-0.6-0.4c-0.1,0-0.1,0.1-0.2,0.1
				c0,0-0.1,0.1-0.2,0.1c-0.2,0.1-0.5,0.2-0.7,0.2l0,0c-0.2,0-0.5-0.1-0.8-0.2l-2.7-1.5l1-0.7l-0.6-0.4l-1,0.7L118.7,182.1
				L118.7,182.1z"/>
		</g>
		<g>
			<path class="st0" d="M125.4,179.8c-0.1,0-0.3,0-0.4,0c-0.5,0.1-1,0.3-1.5,0.6c-0.5,0.3-0.8,0.6-0.8,1c-0.1,0.4,0.1,0.7,0.5,0.9
				c0.3,0.2,0.7,0.3,1,0.3c0,0,0,0,0.1,0c0.4,0,0.9-0.1,1.4-0.3l1-0.4c0.3-0.1,0.6-0.2,0.8-0.2h0.1c0.2,0,0.4,0,0.5,0.1
				c0.2,0.1,0.3,0.3,0.2,0.5c-0.1,0.2-0.2,0.4-0.5,0.6s-0.6,0.3-0.9,0.4c-0.1,0-0.2,0-0.3,0c-0.2,0-0.3,0-0.5-0.1l-0.7,0.5
				c0.3,0.1,0.7,0.2,1.1,0.2c0.1,0,0.3,0,0.4,0c0.6-0.1,1.1-0.3,1.6-0.6c0.5-0.3,0.8-0.7,0.9-1.1c0.1-0.4-0.1-0.7-0.5-0.9
				c-0.3-0.2-0.7-0.3-1-0.3h-0.1c-0.4,0-0.9,0.1-1.4,0.3l-0.9,0.3c-0.3,0.1-0.6,0.2-0.9,0.2h-0.1c-0.2,0-0.3,0-0.5-0.1
				s-0.3-0.3-0.2-0.5s0.2-0.4,0.5-0.6s0.6-0.3,0.8-0.3c0.1,0,0.2,0,0.3,0c0.2,0,0.3,0,0.5,0.1l0.7-0.5
				C126.2,179.9,125.8,179.8,125.4,179.8L125.4,179.8z"/>
		</g>
		<g>
			<path class="st0" d="M130.2,176.2l-0.7,0.5l2.8,1.6c0.4,0.2,0.6,0.5,0.7,0.8c0,0.3-0.2,0.5-0.6,0.8c-0.3,0.2-0.7,0.3-1,0.3
				c0,0,0,0-0.1,0c-0.4,0-0.8-0.1-1.2-0.4l-2.9-1.7l-0.7,0.5l3.1,1.8c0.6,0.3,1.1,0.5,1.7,0.5l0,0c0.6,0,1.1-0.2,1.6-0.5
				c0.3-0.2,0.6-0.5,0.7-0.7s0.1-0.5-0.1-0.7h0.1l0.7,0.4l0.7-0.4c-0.6-0.4-1.2-0.7-1.7-1s-0.9-0.5-1.4-0.8
				C131.4,176.9,130.8,176.5,130.2,176.2L130.2,176.2z"/>
		</g>
		<g>
			<path class="st0" d="M135.2,173.4L135.2,173.4c-0.6,0-1.1,0.2-1.6,0.5c-0.3,0.2-0.6,0.5-0.6,0.7c-0.1,0.2,0,0.5,0.1,0.7H133
				l-0.7-0.4l-0.7,0.4c0.6,0.4,1.2,0.7,1.7,1s0.9,0.5,1.4,0.8s1,0.6,1.7,1l0.7-0.5l-2.8-1.6c-0.4-0.2-0.6-0.5-0.7-0.8
				c0-0.3,0.1-0.5,0.5-0.8c0.4-0.2,0.7-0.3,1.1-0.3l0,0c0.4,0,0.8,0.1,1.2,0.4l2.9,1.7l0.7-0.5l-3.1-1.8
				C136.4,173.5,135.8,173.4,135.2,173.4L135.2,173.4z"/>
		</g>
		<g>
			<path class="st0" d="M140.3,170.3c-0.7,0-1.4,0.2-2,0.6s-0.9,0.9-0.8,1.3c0.1,0.5,0.5,1,1.2,1.4c0.8,0.4,1.5,0.7,2.3,0.7h0.1
				c0.8,0,1.5-0.2,2.1-0.6c0.5-0.3,0.8-0.7,0.9-1s0-0.7-0.3-1c-0.1,0.1-0.3,0.2-0.4,0.2c-0.1,0.1-0.2,0.1-0.4,0.2
				c0.1,0.2,0.1,0.4,0,0.6s-0.3,0.4-0.6,0.6c-0.4,0.2-0.8,0.4-1.3,0.4l0,0c-0.5,0-1-0.1-1.5-0.4l0,0l3.3-2.1l-0.3-0.2
				C141.9,170.6,141.1,170.4,140.3,170.3L140.3,170.3L140.3,170.3z M139.1,172.9c-0.4-0.3-0.6-0.5-0.6-0.8s0.1-0.6,0.5-0.8
				c0.4-0.2,0.8-0.3,1.2-0.3l0,0c0.5,0,0.9,0.1,1.4,0.4L139.1,172.9L139.1,172.9z"/>
		</g>
	</g>
	<g>
		<path class="st0" d="M106.4,191.8c0.5,0,1.1,0.1,1.4,0.3c0.3,0.2,0.4,0.3,0.4,0.4s-0.1,0.2-0.3,0.4c-0.4,0.3-1,0.4-1.6,0.4
			c-0.5,0-1.1-0.1-1.4-0.3c-0.3-0.2-0.4-0.3-0.4-0.4s0.1-0.2,0.3-0.4C105.3,191.9,105.8,191.8,106.4,191.8 M101.4,195
			c0.5,0,1.1,0.1,1.4,0.3c0.3,0.2,0.4,0.3,0.4,0.4s-0.1,0.2-0.3,0.4c-0.4,0.3-1,0.4-1.6,0.4c-0.5,0-1.1-0.1-1.4-0.3
			c-0.3-0.2-0.4-0.3-0.4-0.4s0.1-0.2,0.3-0.4C100.2,195.2,100.8,195,101.4,195 M96.4,198.3c0.5,0,1.1,0.1,1.4,0.3
			c0.3,0.2,0.4,0.3,0.4,0.4s-0.1,0.2-0.3,0.4c-0.4,0.3-1,0.4-1.6,0.4c-0.5,0-1.1-0.1-1.4-0.3c-0.3-0.2-0.4-0.3-0.4-0.4
			s0.1-0.2,0.3-0.4C95.2,198.4,95.8,198.3,96.4,198.3 M91.4,201.5c0.5,0,1.1,0.1,1.4,0.3c0.3,0.2,0.4,0.3,0.4,0.4s-0.1,0.2-0.3,0.4
			c-0.4,0.3-1,0.4-1.6,0.4c-0.5,0-1.1-0.1-1.4-0.3c-0.3-0.2-0.4-0.3-0.4-0.4s0.1-0.2,0.3-0.4C90.2,201.7,90.8,201.5,91.4,201.5
			 M86.3,204.8c0.5,0,1.1,0.1,1.4,0.3c0.3,0.2,0.4,0.3,0.4,0.4s-0.1,0.2-0.3,0.4c-0.4,0.3-1,0.4-1.6,0.4c-0.5,0-1.1-0.1-1.4-0.3
			c-0.3-0.2-0.4-0.3-0.4-0.4s0.1-0.2,0.3-0.4C85.2,204.9,85.7,204.8,86.3,204.8 M106.4,190.8c-0.8,0-1.5,0.2-2.1,0.6
			c-1.1,0.7-1,1.8,0.1,2.5c0.5,0.3,1.2,0.5,1.9,0.5c0.8,0,1.5-0.2,2.1-0.6c1.1-0.7,1-1.8-0.1-2.5
			C107.8,190.9,107.1,190.8,106.4,190.8L106.4,190.8z M101.4,194c-0.8,0-1.5,0.2-2.1,0.6c-1.1,0.7-1,1.8,0.1,2.5
			c0.5,0.3,1.2,0.5,1.9,0.5c0.8,0,1.5-0.2,2.1-0.6c1.1-0.7,1-1.8-0.1-2.5C102.8,194.2,102.1,194,101.4,194L101.4,194z M96.4,197.3
			c-0.8,0-1.5,0.2-2.1,0.6c-1.1,0.7-1,1.8,0.1,2.5c0.5,0.3,1.2,0.5,1.9,0.5c0.8,0,1.5-0.2,2.1-0.6c1.1-0.7,1-1.8-0.1-2.5
			C97.8,197.4,97.1,197.3,96.4,197.3L96.4,197.3z M91.4,200.5c-0.8,0-1.5,0.2-2.1,0.6c-1.1,0.7-1,1.8,0.1,2.5
			c0.5,0.3,1.2,0.5,1.9,0.5c0.8,0,1.5-0.2,2.1-0.6c1.1-0.7,1-1.8-0.1-2.5C92.8,200.7,92.1,200.5,91.4,200.5L91.4,200.5z M86.3,203.8
			c-0.8,0-1.5,0.2-2.1,0.6c-1.1,0.7-1,1.8,0.1,2.5c0.5,0.3,1.2,0.5,1.9,0.5c0.8,0,1.5-0.2,2.1-0.6c1.1-0.7,1-1.8-0.1-2.5
			C87.7,203.9,87,203.8,86.3,203.8L86.3,203.8z"/>
	</g>
	<path class="st0" d="M594.3,462.3l-13.4,0.3c-0.6,0-1,0.3-1,0.7l0.4,8.2c0,0.3,0.3,0.5,0.7,0.6s0.8,0,1.1-0.2l1.4-0.9l6.1,3.5
		l3.6-2.4l-3.8-2.2l2.9-1.9l3.8,2.2l3.6-2.4l-6.1-3.5l1.4-0.9c0.3-0.2,0.4-0.5,0.2-0.7C595.2,462.4,594.8,462.2,594.3,462.3"/>
	<g>
		<g>
			<path class="st0" d="M596.9,295.1c-0.8,0.2-1.5,0.5-2.1,0.9s-0.9,0.8-1,1.3c-0.1,0.4,0.2,0.8,0.7,1.1s1,0.4,1.5,0.4l0,0
				c0.5,0,1.3-0.2,2.2-0.5c0.6-0.2,1.1-0.3,1.5-0.4c0.3-0.1,0.5-0.1,0.7-0.1c0.1,0,0.2,0,0.3,0c0.3,0,0.6,0.1,0.8,0.3
				c0.4,0.2,0.6,0.6,0.6,0.9c-0.1,0.4-0.4,0.7-0.9,1.1c-0.7,0.5-1.5,0.8-2.2,1l0.5,0.3c0.6-0.2,1.3-0.5,2.2-1.1
				c0.7-0.4,1-0.9,1.1-1.4s-0.2-0.9-0.8-1.2c-0.3-0.2-0.7-0.3-1-0.4c-0.2,0-0.3,0-0.5,0s-0.5,0-0.7,0.1c-0.4,0.1-1,0.2-1.7,0.4
				s-1.2,0.4-1.5,0.4c-0.2,0-0.4,0.1-0.6,0.1c-0.1,0-0.2,0-0.3,0c-0.3,0-0.5-0.1-0.8-0.3c-0.4-0.2-0.6-0.5-0.6-0.8s0.3-0.7,0.8-1
				s1.2-0.6,1.9-0.8L596.9,295.1L596.9,295.1z"/>
		</g>
		<g>
			<path class="st0" d="M604,293c-0.7,0-1.4,0.2-2,0.6c-0.7,0.5-1,1-0.8,1.5l0,0l-0.8-0.4l-0.4,0.2l7.7,4.4l0.4-0.3l-2-1.1
				c-0.3-0.2-0.6-0.3-0.8-0.4l-0.4-0.2l0,0c0.2,0,0.4,0,0.5,0c0.7,0,1.4-0.2,2-0.6c0.6-0.4,0.9-0.9,0.8-1.4c-0.1-0.5-0.6-1-1.5-1.5
				s-1.7-0.8-2.6-0.8C604.1,293,604.1,293,604,293L604,293z M605.3,297L605.3,297c-0.7,0-1.4-0.3-2.3-0.8l-0.2-0.1
				c-0.8-0.4-1.2-0.8-1.2-1.2c-0.1-0.4,0.2-0.7,0.8-1.1c0.5-0.3,1-0.4,1.5-0.4c0.7,0,1.5,0.2,2.4,0.7c0.7,0.4,1.1,0.8,1.3,1.2
				c0.1,0.4-0.1,0.8-0.6,1.1C606.4,296.9,605.9,297,605.3,297L605.3,297z"/>
		</g>
		<g>
			<path class="st0" d="M609.1,289.6c-0.7,0-1.3,0.2-1.9,0.5c-0.7,0.4-0.9,0.9-0.8,1.5s0.6,1.1,1.4,1.5c0.8,0.5,1.7,0.7,2.6,0.7l0,0
				c0.9,0,1.6-0.2,2.3-0.7c0.3-0.2,0.5-0.4,0.7-0.5c0.2-0.2,0.4-0.4,0.5-0.7l-0.4-0.2c-0.2,0.3-0.4,0.5-0.5,0.7
				c-0.2,0.2-0.4,0.3-0.7,0.5c-0.6,0.4-1.2,0.5-1.8,0.5h-0.1c-0.7,0-1.4-0.2-2.1-0.6l3.6-2.3l-0.4-0.2
				C610.8,289.9,610,289.6,609.1,289.6C609.2,289.6,609.2,289.6,609.1,289.6L609.1,289.6z M608,292.6c-0.6-0.4-0.9-0.8-0.9-1.2
				s0.2-0.7,0.6-1c0.4-0.3,0.8-0.4,1.4-0.4c0.1,0,0.1,0,0.2,0c0.6,0,1.2,0.2,1.8,0.6L608,292.6L608,292.6z"/>
		</g>
		<g>
			<path class="st0" d="M614.2,286.3c-0.7,0-1.3,0.2-1.9,0.5c-0.7,0.4-0.9,0.9-0.8,1.5c0.1,0.5,0.6,1.1,1.4,1.5
				c0.8,0.5,1.7,0.7,2.6,0.7l0,0c0.9,0,1.6-0.2,2.3-0.7c0.3-0.2,0.5-0.4,0.7-0.5s0.4-0.4,0.5-0.7l-0.4-0.2c-0.2,0.3-0.4,0.5-0.5,0.7
				c-0.2,0.2-0.4,0.3-0.7,0.5c-0.6,0.4-1.2,0.5-1.8,0.5h-0.1c-0.7,0-1.4-0.2-2.1-0.6l3.6-2.3l-0.4-0.2
				C615.9,286.6,615.1,286.3,614.2,286.3C614.3,286.3,614.3,286.3,614.2,286.3L614.2,286.3z M613.1,289.3c-0.6-0.4-0.9-0.8-0.9-1.2
				s0.2-0.7,0.6-1c0.4-0.3,0.8-0.4,1.4-0.4c0.1,0,0.1,0,0.2,0c0.6,0,1.2,0.2,1.8,0.6L613.1,289.3L613.1,289.3z"/>
		</g>
		<g>
			<path class="st0" d="M617.3,281l-0.4,0.3l1.9,1.1c0.4,0.2,0.8,0.4,1.2,0.7l0,0c-0.2,0-0.4,0-0.6,0c-0.3,0-0.6,0-0.8,0.1
				c-0.4,0.1-0.8,0.3-1.1,0.5c-0.7,0.4-1,0.9-0.8,1.4c0.1,0.5,0.6,1,1.6,1.5c0.9,0.5,1.7,0.8,2.5,0.8h0.1c0.8,0,1.5-0.2,2.1-0.6
				c0.7-0.5,0.9-1,0.7-1.6l0,0l0.9,0.4l0.3-0.2L617.3,281L617.3,281z M620.8,286.9c-0.7,0-1.4-0.2-2.3-0.7c-0.8-0.4-1.2-0.9-1.4-1.3
				c-0.1-0.4,0.1-0.8,0.6-1.1s1.1-0.5,1.6-0.5c0.1,0,0.1,0,0.2,0c0.6,0,1.3,0.3,2.1,0.8h0.1c0.8,0.5,1.2,0.9,1.3,1.2
				c0.1,0.4-0.1,0.7-0.7,1.1C621.9,286.7,621.4,286.9,620.8,286.9L620.8,286.9z"/>
		</g>
		<g>
			<path class="st0" d="M623.2,277.6l-0.5,0.3c0.1,0.6,0.4,1.2,0.9,1.8s1.2,1.1,2.1,1.6c0.8,0.5,1.7,0.9,2.7,1.1
				c1,0.3,1.9,0.4,2.9,0.4l0.5-0.3c-2.2-0.1-4.1-0.7-5.7-1.6c-0.8-0.5-1.5-1-2-1.6S623.4,278.3,623.2,277.6L623.2,277.6z"/>
		</g>
		<g>
			<polygon class="st0" points="629.7,275.7 629.1,276 629.6,279.3 629.5,279.4 628.1,278.5 624.3,276.4 623.9,276.7 631.4,281 
				631.9,280.7 630,279.6 630,278.6 634.6,278.9 635.1,278.6 630,278.2 			"/>
		</g>
		<g>
			<path class="st0" d="M637.2,271.2L637.2,271.2c-0.6,0-1.1,0.2-1.7,0.5c-0.3,0.2-0.6,0.5-0.7,0.7c-0.1,0.3-0.1,0.5,0,0.8l0,0
				c-0.2-0.1-0.5-0.1-0.7-0.1c-0.6,0-1.1,0.2-1.7,0.5c-0.3,0.2-0.5,0.4-0.6,0.7c-0.1,0.2-0.1,0.5,0,0.7l0,0l-0.8-0.4l-0.4,0.2l5.3,3
				l0.4-0.3l-2.9-1.7c-0.7-0.4-1.1-0.8-1.2-1.1c-0.1-0.3,0.1-0.7,0.6-1c0.4-0.2,0.8-0.4,1.2-0.4s0.8,0.1,1.3,0.4l3.6,2.1l0.5-0.3
				l-3.1-1.8c-0.6-0.4-1-0.7-1-1c-0.1-0.3,0.2-0.7,0.7-1c0.4-0.2,0.8-0.4,1.2-0.4c0,0,0,0,0.1,0c0.4,0,0.9,0.2,1.4,0.5l3.5,2
				l0.4-0.3l-3.4-2C638.4,271.4,637.8,271.2,637.2,271.2L637.2,271.2z"/>
		</g>
		<g>
			<polygon class="st0" points="639.3,267.2 638.8,267.5 643.4,273.1 643.9,272.8 			"/>
		</g>
		<g>
			<path class="st0" d="M645.9,265.5c-0.6,0-1.2,0.2-1.7,0.5c-0.4,0.3-0.7,0.5-0.8,0.8s-0.1,0.5,0,0.8l0,0l-0.7-0.4l-2.4-1.4
				l-0.4,0.3l7.5,4.3l0.4-0.3l-2.9-1.7c-0.7-0.4-1.1-0.8-1.1-1.2s0.2-0.7,0.8-1.1c0.4-0.3,0.9-0.4,1.3-0.4l0,0
				c0.4,0,0.9,0.2,1.5,0.5l3.4,1.9l0.4-0.3l-3.4-2C647.1,265.7,646.5,265.5,645.9,265.5L645.9,265.5z"/>
		</g>
		<g>
			<path class="st0" d="M645.7,263l-0.5,0.3c1,0,2,0.2,3,0.5s1.9,0.6,2.7,1.1c1.6,0.9,2.5,2,2.9,3.4l0.5-0.3
				c-0.1-0.6-0.4-1.2-0.9-1.8s-1.2-1.1-2-1.6s-1.8-0.9-2.7-1.1C647.7,263.2,646.7,263,645.7,263L645.7,263z"/>
		</g>
	</g>
	<g>
		<g>
			<path class="st0" d="M587,291.3l-1.3,0.9l-5.6-3.2c-0.7-0.4-1.2-0.7-1.6-0.9c0,0.1,0,0.2,0,0.4c0,0.1-0.1,0.6-0.2,1.4l-1.5-0.1
				l0.4-2.7l1.1-0.7L587,291.3z"/>
		</g>
		<g>
			<path class="st0" d="M590.8,283.4c1.5,0.9,2.4,1.7,2.7,2.4s-0.1,1.4-1,2s-2,0.8-3.2,0.7s-2.6-0.6-4-1.4c-1.5-0.9-2.4-1.7-2.7-2.4
				s0.1-1.4,1-2s2-0.8,3.2-0.7C588,282.1,589.4,282.6,590.8,283.4z M586.6,286.2c1.2,0.7,2.2,1.1,2.9,1.2c0.7,0.1,1.4,0,1.9-0.3
				s0.6-0.7,0.3-1.2c-0.3-0.4-1-1-2.2-1.7s-2.1-1.1-2.9-1.2c-0.8-0.1-1.4-0.1-1.9,0.3c-0.5,0.3-0.6,0.7-0.3,1.2
				C584.7,284.9,585.4,285.5,586.6,286.2z"/>
		</g>
		<g>
			<path class="st0" d="M595.7,284.7c-0.3-0.2-0.4-0.3-0.5-0.5c0-0.2,0.1-0.4,0.4-0.5c0.3-0.2,0.6-0.3,0.9-0.3
				c0.3,0,0.6,0.1,0.9,0.2c0.3,0.2,0.4,0.3,0.5,0.5c0,0.2-0.1,0.4-0.4,0.5c-0.3,0.2-0.6,0.3-0.9,0.3
				C596.3,284.9,596,284.9,595.7,284.7z"/>
		</g>
		<g>
			<path class="st0" d="M604.9,279.6l-5.5,3.6l-1.1-0.6l-0.2-2.7c-0.1-0.8-0.1-1.3-0.2-1.6c-0.1-0.3-0.2-0.5-0.4-0.7
				s-0.4-0.4-0.7-0.6c-0.4-0.2-0.8-0.3-1.3-0.3c-0.4,0-0.9,0.2-1.3,0.4c-0.3,0.2-0.6,0.4-0.7,0.7c-0.2,0.3-0.3,0.6-0.3,1l-1.6-0.1
				c0-0.5,0.2-1,0.5-1.4s0.6-0.7,1.1-1c0.8-0.5,1.6-0.8,2.5-0.8c0.9-0.1,1.7,0.1,2.4,0.5c0.4,0.2,0.7,0.5,0.9,0.8s0.4,0.6,0.5,1
				s0.2,1,0.2,1.8v1.8h0.1l3.9-2.5L604.9,279.6z"/>
		</g>
	</g>
	<g>
		<g>
			<path class="st0" d="M637.1,317.1c-0.1,0-0.2,0-0.3,0c-0.7,0.1-1.5,0.4-2.3,0.9l-1.6,1l7.1,4.1l0.5-0.3l-3.1-1.8l1.6-1.1l4.8,0.6
				l0.6-0.4l-5-0.7c0.3-0.4,0.5-0.8,0.4-1.1s-0.4-0.6-0.9-0.9C638.2,317.2,637.7,317.1,637.1,317.1L637.1,317.1z M636.9,320.8
				l-3.1-1.8l1.1-0.7c0.7-0.4,1.3-0.7,1.9-0.8c0.1,0,0.2,0,0.3,0c0.5,0,0.9,0.1,1.4,0.4c0.5,0.3,0.8,0.6,0.7,1
				c0,0.4-0.3,0.7-0.9,1.1L636.9,320.8L636.9,320.8z"/>
		</g>
		<g>
			<path class="st0" d="M643.7,314.8c-0.7,0-1.3,0.2-1.9,0.5c-0.7,0.4-0.9,0.9-0.8,1.5c0.1,0.5,0.6,1.1,1.4,1.5
				c0.9,0.5,1.7,0.7,2.6,0.7l0,0c0.9,0,1.6-0.2,2.3-0.7c0.3-0.2,0.5-0.4,0.7-0.6s0.4-0.4,0.5-0.7l-0.4-0.2c-0.2,0.3-0.4,0.5-0.5,0.7
				c-0.2,0.2-0.4,0.3-0.7,0.5c-0.6,0.4-1.2,0.5-1.8,0.5H645c-0.7,0-1.4-0.2-2.1-0.6l3.6-2.3l-0.4-0.2
				C645.4,315,644.6,314.7,643.7,314.8C643.8,314.8,643.8,314.8,643.7,314.8L643.7,314.8z M642.6,317.7c-0.6-0.4-0.9-0.8-0.9-1.2
				s0.2-0.7,0.6-1c0.4-0.3,0.8-0.4,1.4-0.4c0.1,0,0.1,0,0.2,0c0.6,0,1.2,0.2,1.8,0.6L642.6,317.7L642.6,317.7z"/>
		</g>
		<g>
			<path class="st0" d="M649.2,311.2c-0.7,0-1.4,0.2-2,0.6c-0.7,0.5-1,1-0.8,1.6l0,0l-0.8-0.4l-0.4,0.2l7.7,4.4l0.4-0.3l-2-1.1
				c-0.3-0.2-0.6-0.3-0.8-0.4l-0.4-0.2l0,0c0.2,0,0.4,0,0.5,0c0.7,0,1.4-0.2,2-0.6c0.6-0.4,0.9-0.9,0.8-1.4c-0.1-0.5-0.6-1-1.5-1.5
				s-1.7-0.8-2.6-0.8C649.4,311.2,649.3,311.2,649.2,311.2L649.2,311.2z M650.6,315.2L650.6,315.2c-0.7,0-1.4-0.3-2.3-0.8l-0.2-0.1
				c-0.8-0.4-1.2-0.8-1.2-1.2s0.2-0.7,0.8-1.1c0.5-0.3,1-0.4,1.5-0.4c0.7,0,1.5,0.2,2.4,0.7c0.7,0.4,1.1,0.8,1.3,1.2
				c0.1,0.4-0.1,0.8-0.6,1.1C651.7,315,651.1,315.2,650.6,315.2L650.6,315.2z"/>
		</g>
		<g>
			<path class="st0" d="M654.3,307.8c-0.7,0-1.3,0.2-1.9,0.5c-0.7,0.4-0.9,0.9-0.8,1.5c0.1,0.5,0.6,1.1,1.4,1.5
				c0.9,0.5,1.7,0.7,2.6,0.7l0,0c0.9,0,1.6-0.2,2.3-0.7c0.3-0.2,0.5-0.4,0.7-0.6c0.2-0.2,0.4-0.4,0.5-0.7l-0.4-0.2
				c-0.2,0.3-0.4,0.5-0.5,0.7c-0.2,0.2-0.4,0.3-0.7,0.5c-0.6,0.4-1.2,0.5-1.8,0.5h-0.1c-0.7,0-1.4-0.2-2.1-0.6l3.6-2.3l-0.4-0.2
				C656,308,655.2,307.7,654.3,307.8C654.4,307.8,654.4,307.8,654.3,307.8L654.3,307.8z M653.2,310.8c-0.6-0.4-0.9-0.8-0.9-1.2
				s0.2-0.7,0.6-1c0.4-0.3,0.8-0.4,1.4-0.4c0.1,0,0.1,0,0.2,0c0.6,0,1.2,0.2,1.8,0.6L653.2,310.8L653.2,310.8z"/>
		</g>
		<g>
			<path class="st0" d="M659.1,304.6L659.1,304.6c-0.6,0-1.1,0.2-1.7,0.5c-0.5,0.3-0.9,0.8-1.2,1.3l0.6,0.1c0.2-0.5,0.6-0.9,1-1.2
				s0.8-0.4,1.2-0.4h0.1c0.4,0,0.9,0.2,1.4,0.5l0.3,0.2l-0.9,0.6c-0.7,0.5-1.2,1-1.3,1.4s0.1,0.8,0.6,1.1c0.4,0.2,0.9,0.4,1.4,0.4
				h0.1c0.5,0,1-0.2,1.5-0.5c0.4-0.2,0.6-0.5,0.7-0.7c0.1-0.3,0.1-0.6,0-0.9l0,0l0.9,0.4l0.3-0.2l-3.5-2
				C660.3,304.7,659.7,304.6,659.1,304.6L659.1,304.6z M660.8,308.7c-0.3,0-0.7-0.1-0.9-0.3c-0.4-0.2-0.6-0.5-0.5-0.8
				s0.5-0.7,1.1-1.2l0.8-0.6l0.5,0.3c0.6,0.3,0.9,0.7,0.9,1.1c0,0.4-0.2,0.7-0.8,1.1C661.6,308.5,661.2,308.6,660.8,308.7
				L660.8,308.7L660.8,308.7z"/>
		</g>
		<g>
			<path class="st0" d="M662.7,301.8l-1.4,0.9L660,302l-0.2,0.2l1,0.8l-0.5,0.6l0.3,0.2l0.7-0.5l3.4,1.9c0.5,0.3,1,0.5,1.5,0.5l0,0
				c0.4,0,0.9-0.1,1.3-0.4c0.3-0.2,0.5-0.4,0.6-0.6l-0.4-0.2c-0.2,0.2-0.4,0.3-0.7,0.5s-0.5,0.2-0.8,0.2h-0.1
				c-0.3,0-0.7-0.2-1.1-0.4l-3.3-1.9l1.4-0.9L662.7,301.8L662.7,301.8z"/>
		</g>
		<g>
			<polygon class="st0" points="668.5,295.8 663.7,298.9 664.1,299.2 666.3,297.8 672.9,301.5 673.4,301.2 666.8,297.5 668.9,296.1 
							"/>
		</g>
		<g>
			<path class="st0" d="M673.3,294.8c-0.3,0.1-0.5,0.3-0.7,0.4c-0.3,0.2-0.5,0.4-0.6,0.7c-0.1,0.2,0,0.5,0.2,0.9l0,0l-1-0.5
				l-0.4,0.2l5.3,3l0.4-0.3l-2.9-1.7c-0.6-0.3-0.9-0.7-1-1.1c-0.1-0.4,0-0.7,0.5-1c0.2-0.1,0.5-0.3,0.7-0.4L673.3,294.8L673.3,294.8
				z"/>
		</g>
		<g>
			<path class="st0" d="M672.9,292.9c-0.1,0-0.2,0-0.3,0.1c-0.2,0.1-0.1,0.3,0.2,0.5c0.2,0.1,0.3,0.2,0.5,0.2c0.1,0,0.2,0,0.3-0.1
				s0.1-0.1,0.1-0.2c0-0.1-0.1-0.2-0.3-0.2C673.2,292.9,673.1,292.9,672.9,292.9L672.9,292.9L672.9,292.9z M674.8,293.9l-0.4,0.3
				l5.3,3l0.4-0.3L674.8,293.9L674.8,293.9z"/>
		</g>
		<g>
			<path class="st0" d="M680.5,290.8c-0.7,0-1.4,0.2-2,0.6c-0.7,0.5-1,1-0.8,1.5l0,0l-0.8-0.4l-0.4,0.2l7.7,4.4l0.4-0.3l-2-1.1
				c-0.3-0.2-0.6-0.3-0.8-0.4l-0.4-0.2l0,0c0.2,0,0.4,0,0.5,0c0.7,0,1.4-0.2,2-0.6c0.6-0.4,0.9-0.9,0.8-1.4c-0.1-0.5-0.6-1-1.5-1.5
				s-1.7-0.8-2.6-0.8C680.6,290.8,680.5,290.8,680.5,290.8L680.5,290.8z M681.8,294.8L681.8,294.8c-0.7,0-1.4-0.3-2.3-0.8l-0.2-0.1
				c-0.8-0.4-1.2-0.8-1.2-1.2s0.2-0.7,0.8-1.1c0.5-0.3,1-0.4,1.5-0.4c0.7,0,1.5,0.2,2.4,0.7c0.7,0.4,1.1,0.8,1.3,1.2
				c0.1,0.4-0.1,0.8-0.6,1.1C682.9,294.6,682.4,294.8,681.8,294.8L681.8,294.8z"/>
		</g>
		<g>
			<path class="st0" d="M685.1,287.4c-0.7,0.2-1.3,0.5-1.8,0.8c-0.6,0.4-0.9,0.7-1,1s0.1,0.6,0.5,0.8c0.2,0.1,0.5,0.2,0.8,0.3
				c0.1,0,0.2,0,0.3,0c0.2,0,0.4,0,0.6,0c0.3-0.1,0.8-0.2,1.5-0.4c0.6-0.2,1.1-0.3,1.5-0.3c0.1,0,0.1,0,0.2,0c0.3,0,0.6,0.1,0.8,0.2
				c0.3,0.2,0.4,0.4,0.3,0.6c-0.1,0.3-0.4,0.6-0.8,0.9c-0.6,0.4-1.2,0.6-2,0.8l0.5,0.3c0.6-0.1,1.2-0.4,1.9-0.8c0.6-0.4,1-0.8,1-1.2
				c0.1-0.4-0.1-0.7-0.6-1c-0.2-0.1-0.5-0.2-0.8-0.3c-0.1,0-0.2,0-0.3,0c-0.2,0-0.4,0-0.6,0.1c-0.3,0.1-0.8,0.2-1.4,0.4
				c-0.7,0.2-1.3,0.4-1.6,0.4H684c-0.3,0-0.6-0.1-0.8-0.2c-0.3-0.1-0.3-0.3-0.2-0.6c0.1-0.2,0.3-0.5,0.7-0.7c0.4-0.3,1-0.5,1.7-0.7
				L685.1,287.4L685.1,287.4z"/>
		</g>
	</g>
	<g>
		<g>
			<path class="st0" d="M622.3,310.2c0.8-0.5,1.7-0.8,2.7-0.9c0.9,0,1.8,0.2,2.6,0.6c0.9,0.5,1.4,1.1,1.4,1.8s-0.5,1.3-1.5,2
				c-0.9,0.6-1.8,1-2.6,1.1l-1.3-0.7c0.5-0.1,1-0.2,1.5-0.4s0.9-0.4,1.2-0.6c0.6-0.4,0.9-0.8,0.9-1.1c0-0.4-0.2-0.7-0.8-1
				c-1-0.6-2.2-0.5-3.4,0.3c-0.2,0.1-0.4,0.3-0.6,0.5c-0.2,0.2-0.4,0.4-0.5,0.5l-1,0.2l-3.9-2.6l4.2-2.8l1.2,0.7l-3.1,2l2,1.4
				c0.1-0.1,0.2-0.2,0.4-0.4C621.8,310.5,622,310.3,622.3,310.2z"/>
		</g>
	</g>
	<g>
		<g>
			<path class="st0" d="M677.4,339c-0.8,0.2-1.5,0.5-2.1,0.9s-1,0.9-1.2,1.4s-0.1,1,0.2,1.5s0.8,0.9,1.5,1.3c1.2,0.7,2.3,1,3.5,1
				h0.1c1.1,0,2.2-0.3,3.1-0.9c0.7-0.4,1.1-0.8,1.4-1.2l-0.4-0.2c-0.3,0.4-0.8,0.8-1.3,1.1c-0.8,0.5-1.7,0.8-2.6,0.8h-0.1
				c-1,0-2-0.3-3-0.9c-1-0.6-1.5-1.2-1.6-1.8s0.3-1.2,1.1-1.8c0.5-0.3,1.2-0.6,1.9-0.8L677.4,339L677.4,339z"/>
		</g>
		<g>
			<path class="st0" d="M683.4,337.4L683.4,337.4c-0.6,0-1.1,0.2-1.7,0.5c-0.5,0.3-0.9,0.8-1.2,1.3l0.6,0.1c0.2-0.5,0.6-0.9,1-1.2
				s0.8-0.4,1.2-0.4h0.1c0.4,0,0.9,0.2,1.4,0.5l0.3,0.2l-0.9,0.6c-0.7,0.5-1.2,1-1.3,1.4s0.1,0.8,0.6,1.1c0.4,0.2,0.9,0.4,1.4,0.4
				h0.1c0.5,0,1-0.2,1.5-0.5c0.4-0.2,0.6-0.5,0.7-0.7c0.1-0.3,0.1-0.6,0-0.9l0,0l0.9,0.4l0.3-0.2l-3.5-2
				C684.6,337.6,684,337.4,683.4,337.4L683.4,337.4z M685,341.6c-0.3,0-0.7-0.1-1-0.3c-0.4-0.2-0.6-0.5-0.5-0.8s0.5-0.7,1.1-1.2
				l0.8-0.6l0.5,0.3c0.6,0.3,0.9,0.7,0.9,1.1c0,0.4-0.2,0.7-0.8,1.1C685.7,341.4,685.3,341.5,685,341.6
				C685.1,341.6,685.1,341.6,685,341.6L685,341.6z"/>
		</g>
		<g>
			<polygon class="st0" points="683.2,334.3 682.8,334.6 690.3,338.9 690.8,338.6 			"/>
		</g>
		<g>
			<path class="st0" d="M691.1,332.6c-0.8,0-1.5,0.2-2.2,0.6c-0.7,0.4-1,0.9-0.9,1.5c0.1,0.5,0.6,1,1.4,1.5c0.5,0.3,1.1,0.5,1.7,0.7
				c0.3,0.1,0.7,0.1,1,0.1c0.2,0,0.5,0,0.7-0.1c0.6-0.1,1-0.3,1.5-0.6c0.7-0.4,1-0.9,0.9-1.5c-0.1-0.5-0.6-1-1.4-1.5
				c-0.8-0.5-1.7-0.7-2.6-0.8C691.2,332.6,691.2,332.6,691.1,332.6L691.1,332.6z M692.3,336.6c-0.1,0-0.1,0-0.2,0
				c-0.7,0-1.4-0.3-2.1-0.7c-0.7-0.4-1.2-0.8-1.3-1.3c-0.1-0.4,0.1-0.8,0.7-1.2c0.5-0.3,1.1-0.5,1.7-0.5c0.1,0,0.1,0,0.2,0
				c0.7,0,1.4,0.3,2.1,0.7c0.7,0.4,1.1,0.8,1.3,1.3c0.1,0.4-0.1,0.8-0.7,1.2C693.5,336.4,692.9,336.6,692.3,336.6L692.3,336.6z"/>
		</g>
		<g>
			<path class="st0" d="M695.2,329.2c-0.3,0.1-0.5,0.3-0.7,0.4c-0.3,0.2-0.5,0.4-0.6,0.7s0,0.5,0.2,0.9l0,0l-1-0.5l-0.4,0.2l5.3,3
				l0.4-0.3l-2.9-1.7c-0.6-0.3-0.9-0.7-1-1.1c-0.1-0.4,0-0.7,0.5-1c0.2-0.1,0.5-0.3,0.7-0.4L695.2,329.2L695.2,329.2z"/>
		</g>
		<g>
			<path class="st0" d="M694.8,327.3c-0.1,0-0.2,0-0.3,0.1c-0.2,0.1-0.1,0.3,0.2,0.5c0.2,0.1,0.3,0.2,0.5,0.2c0.1,0,0.2,0,0.3-0.1
				s0.1-0.1,0.1-0.2c0-0.1-0.1-0.2-0.3-0.2C695.1,327.3,695,327.3,694.8,327.3L694.8,327.3L694.8,327.3z M696.7,328.3l-0.4,0.3
				l5.3,3l0.4-0.3L696.7,328.3L696.7,328.3z"/>
		</g>
		<g>
			<path class="st0" d="M701.9,325.4c-0.7,0-1.3,0.2-1.9,0.5c-0.7,0.4-0.9,0.9-0.8,1.5c0.1,0.5,0.6,1.1,1.4,1.5
				c0.9,0.5,1.7,0.7,2.6,0.7l0,0c0.9,0,1.6-0.2,2.3-0.7c0.3-0.2,0.5-0.4,0.7-0.6c0.2-0.2,0.4-0.4,0.5-0.7l-0.4-0.3
				c-0.2,0.3-0.4,0.5-0.5,0.7c-0.2,0.2-0.4,0.3-0.7,0.5c-0.6,0.4-1.2,0.5-1.8,0.5h-0.1c-0.7,0-1.4-0.2-2.1-0.6l3.6-2.3l-0.4-0.2
				c-0.7-0.4-1.5-0.7-2.3-0.7C702,325.4,702,325.4,701.9,325.4L701.9,325.4z M700.8,328.4c-0.6-0.4-0.9-0.8-0.9-1.2s0.2-0.7,0.6-1
				c0.4-0.3,0.8-0.4,1.4-0.4c0.1,0,0.1,0,0.2,0c0.6,0,1.2,0.2,1.8,0.6L700.8,328.4L700.8,328.4z"/>
		</g>
		<g>
			<path class="st0" d="M706.6,322.1c-0.7,0.2-1.3,0.5-1.8,0.8c-0.6,0.4-0.9,0.7-1,1s0.1,0.6,0.5,0.8c0.2,0.1,0.5,0.2,0.8,0.3
				c0.1,0,0.2,0,0.3,0c0.2,0,0.4,0,0.6,0c0.3-0.1,0.8-0.2,1.5-0.4c0.6-0.2,1.1-0.3,1.5-0.3c0.1,0,0.1,0,0.2,0c0.3,0,0.6,0.1,0.8,0.2
				c0.3,0.2,0.4,0.4,0.3,0.6c-0.1,0.3-0.4,0.6-0.8,0.9c-0.6,0.4-1.2,0.6-2,0.8l0.5,0.3c0.6-0.1,1.2-0.4,1.9-0.8c0.6-0.4,1-0.8,1-1.2
				c0.1-0.4-0.1-0.7-0.6-1c-0.2-0.1-0.5-0.2-0.8-0.3c-0.1,0-0.2,0-0.3,0c-0.2,0-0.4,0-0.6,0.1c-0.3,0.1-0.8,0.2-1.4,0.4
				c-0.7,0.2-1.3,0.4-1.6,0.4h-0.1c-0.3,0-0.6-0.1-0.8-0.2c-0.3-0.1-0.3-0.3-0.2-0.6s0.3-0.5,0.7-0.7c0.4-0.3,1-0.5,1.7-0.7
				L706.6,322.1L706.6,322.1z"/>
		</g>
	</g>
	<g>
		<g>
			<path class="st0" d="M667.9,332.5l-1.1,0.7l1.9,1.1l-1.3,0.8l-1.9-1.1l-3.7,2.4l-1.1-0.6l-2-5.7l1.3-0.8l5.7,3.3l1.1-0.7
				L667.9,332.5z M664.3,333.4l-2.2-1.3c-0.8-0.4-1.4-0.8-1.9-1.1l0,0c0.2,0.2,0.3,0.5,0.5,0.9l1.1,3.1L664.3,333.4z"/>
		</g>
		<g>
			<path class="st0" d="M671.7,327c1.5,0.9,2.4,1.7,2.7,2.4s0,1.4-1,2c-0.9,0.6-2,0.8-3.2,0.7s-2.6-0.6-4.1-1.5s-2.5-1.7-2.7-2.4
				c-0.3-0.7,0.1-1.4,1-2s2-0.8,3.2-0.7C668.8,325.7,670.2,326.2,671.7,327z M667.5,329.8c1.2,0.7,2.2,1.1,2.9,1.2
				c0.7,0.1,1.4,0,1.9-0.3s0.6-0.7,0.3-1.2c-0.3-0.4-1-1-2.2-1.7s-2.1-1.1-2.9-1.2c-0.8-0.1-1.4-0.1-1.9,0.3s-0.6,0.7-0.3,1.2
				S666.3,329.1,667.5,329.8z"/>
		</g>
		<g>
			<path class="st0" d="M682.6,325.2l-5.5,3.6l-1.1-0.6l-0.2-2.7c-0.1-0.8-0.1-1.3-0.2-1.6c-0.1-0.3-0.2-0.5-0.4-0.7
				s-0.4-0.4-0.7-0.6c-0.4-0.2-0.8-0.3-1.3-0.3c-0.4,0-0.9,0.2-1.3,0.4c-0.3,0.2-0.6,0.4-0.7,0.7c-0.2,0.3-0.3,0.6-0.3,1l-1.6-0.1
				c0-0.5,0.2-1,0.5-1.4s0.6-0.7,1.1-1c0.8-0.5,1.6-0.8,2.5-0.8c0.9-0.1,1.7,0.1,2.4,0.5c0.4,0.2,0.7,0.5,0.9,0.8s0.4,0.6,0.5,1
				s0.2,1,0.2,1.8l0.1,1.8h0.1l3.9-2.5L682.6,325.2z"/>
		</g>
	</g>
	<g>
		<polygon class="st0" points="671.6,419.8 660.9,426.9 662.4,427.8 673.2,420.7 		"/>
	</g>
	<g>
		<polygon class="st0" points="659.4,427.8 658,428.8 659.5,429.6 661,428.7 		"/>
	</g>
	<g>
		<polygon class="st0" points="655.6,425.6 654.2,426.6 655.7,427.4 657.1,426.5 		"/>
	</g>
	<g>
		<polygon class="st0" points="651.8,423.4 650.3,424.4 651.9,425.2 653.3,424.3 		"/>
	</g>
	<g>
		<polygon class="st0" points="647.9,421.2 646.5,422.2 648,423 649.5,422.1 		"/>
	</g>
	<g>
		<polygon class="st0" points="660.1,413.2 649.4,420.3 650.9,421.2 661.7,414.1 		"/>
	</g>
	<g>
		<polygon class="st0" points="667.8,417.6 657,424.7 658.6,425.6 669.3,418.5 		"/>
	</g>
	<g>
		<polygon class="st0" points="664,415.4 653.2,422.5 654.7,423.4 665.5,416.3 		"/>
	</g>
	<line class="st0" x1="809.6" y1="299.3" x2="540.7" y2="475.4"/>
	<line class="st0" x1="642.9" y1="204.5" x2="374.3" y2="379.5"/>
	<path class="st0" d="M72,205.4"/>
	<path class="st0" d="M642.5,204.1"/>
	<g id="XMLID_1_">
		<path class="st0" d="M381.5,69.8c0.9,0,1.7,0.2,2.3,0.5l15.8,9c0.5,0.3,0.8,0.6,0.8,0.9s-0.2,0.6-0.7,0.9L158,237.7
			c-0.6,0.4-1.6,0.6-2.5,0.6s-1.7-0.2-2.3-0.5l-15.8-9.1c-0.5-0.3-0.8-0.6-0.8-0.9s0.2-0.6,0.7-0.9L379,70.5
			C379.6,70,380.6,69.8,381.5,69.8 M381.5,68.8c-1.1,0-2.2,0.3-3.1,0.8L136.7,226c-1.6,1-1.5,2.6,0.1,3.6l15.8,9.1
			c0.8,0.5,1.8,0.7,2.8,0.7c1.1,0,2.2-0.3,3.1-0.8L400.3,82.1c1.6-1,1.5-2.6-0.2-3.6l-15.8-9C383.5,69,382.5,68.8,381.5,68.8
			L381.5,68.8z"/>
	</g>
</g>
</svg>
